<?xml version="1.0" encoding="UTF-8" standalone="no"?>
<svg
   version="1.1"
   width="37"
   height="100"
   id="svg4460"
   sodipodi:docname="u0024-$.svg"
   inkscape:version="1.1.1 (3bf5ae0d25, 2021-09-20)"
   xmlns:inkscape="http://www.inkscape.org/namespaces/inkscape"
   xmlns:sodipodi="http://sodipodi.sourceforge.net/DTD/sodipodi-0.dtd"
   xmlns="http://www.w3.org/2000/svg"
   xmlns:svg="http://www.w3.org/2000/svg"
   xmlns:rdf="http://www.w3.org/1999/02/22-rdf-syntax-ns#"
   xmlns:cc="http://creativecommons.org/ns#"
   xmlns:dc="http://purl.org/dc/elements/1.1/">
  <sodipodi:namedview
     pagecolor="#ffffff"
     bordercolor="#666666"
     borderopacity="1"
     objecttolerance="10"
     gridtolerance="10"
     guidetolerance="10"
     inkscape:pageopacity="0"
     inkscape:pageshadow="2"
     inkscape:window-width="2880"
     inkscape:window-height="1541"
     id="namedview11"
     showgrid="true"
     inkscape:zoom="11.313709"
     inkscape:cx="-23.069359"
     inkscape:cy="31.068504"
     inkscape:window-x="-11"
     inkscape:window-y="-11"
     inkscape:window-maximized="1"
     inkscape:current-layer="text5282"
     inkscape:document-rotation="0"
     inkscape:pagecheckerboard="0"
     showguides="true"
     inkscape:guide-bbox="true">
    <inkscape:grid
       type="xygrid"
       id="grid823" />
    <sodipodi:guide
       position="0,86"
       orientation="66,0"
       id="guide957" />
    <sodipodi:guide
       position="0,20"
       orientation="0,50"
       id="guide959" />
    <sodipodi:guide
       position="50,20"
       orientation="-66,0"
       id="guide961" />
    <sodipodi:guide
       position="50,86"
       orientation="0,-50"
       id="guide963" />
    <sodipodi:guide
       position="8.9999971,64.32985"
       orientation="8.5387222,0"
       id="guide1517" />
    <sodipodi:guide
       position="8.9999971,55.791128"
       orientation="0,26.227758"
       id="guide1519" />
    <sodipodi:guide
       position="35,93.437165"
       orientation="-8.5387222,0"
       id="guide1521" />
    <sodipodi:guide
       position="35.227755,64.32985"
       orientation="0,-26.227758"
       id="guide1523" />
    <sodipodi:guide
       position="7.9247812,20.000001"
       orientation="0,-6.8495616"
       id="guide4054" />
    <sodipodi:guide
       position="1.0752196,74.999813"
       orientation="0,6.8495616"
       id="guide4058" />
  </sodipodi:namedview>
  <defs
     id="defs4462" />
  <metadata
     id="metadata4465">
    <rdf:RDF>
      <cc:Work
         rdf:about="">
        <dc:format>image/svg+xml</dc:format>
        <dc:type
           rdf:resource="http://purl.org/dc/dcmitype/StillImage" />
      </cc:Work>
    </rdf:RDF>
  </metadata>
  <g
     aria-label="C"
     id="text3215"
     style="font-size:32px;line-height:1.25"
     transform="translate(-37.75,-4)">
    <g
       aria-label="A"
       id="text5282"
       transform="matrix(1.6290909,0,0,2.8292029,-41.002727,-68.776958)">
      <path
         d="m 57.368416,32.386477 v -1.705571 h 4.658234 v 1.705571 q 3.012665,0.320707 5.316448,1.501487 2.506343,1.282823 3.215203,3.717271 l -5.367094,0.991273 Q 64.76082,36.468188 63.44437,35.79762 62.786133,35.462338 62.02665,35.258253 v 6.035098 q 2.911396,0.626834 5.291136,1.83677 3.139246,1.588951 3.139246,3.833892 0,2.24494 -3.164557,3.863047 -2.278494,1.166201 -5.265825,1.486908 v 1.690994 h -4.658234 v -1.690994 q -3.012642,-0.320707 -5.316447,-1.501486 -2.506321,-1.282823 -3.21518,-3.717272 l 5.36707,-0.991273 q 0.430388,2.128322 1.746838,2.798888 0.658237,0.335284 1.417719,0.539369 v -6.0351 q -2.911396,-0.626834 -5.291136,-1.83677 -3.139246,-1.588951 -3.139246,-3.833892 0,-2.24494 3.139246,-3.848468 2.303806,-1.18078 5.291136,-1.501487 z m 4.658234,12.084777 v 4.97094 q 0.734171,-0.189508 1.367097,-0.510214 1.569611,-0.801765 1.569611,-1.967967 0,-1.137049 -1.518988,-1.924235 -0.58228,-0.29155 -1.41772,-0.568524 z m -4.658234,-4.242062 v -4.970939 q -0.734171,0.189507 -1.392408,0.52479 -1.544299,0.787187 -1.544299,1.953389 0,1.137049 1.518988,1.924235 0.582279,0.291552 1.417719,0.568525 z"
         style="font-weight:bold;font-size:22.3481px;line-height:1;font-family:'Caviar Dreams';-inkscape-font-specification:'Caviar Dreams Bold';text-align:center;text-anchor:middle;fill:#000000;stroke-width:2.92892"
         id="path22425" />
    </g>
  </g>
</svg>
