<?xml version="1.0" encoding="UTF-8" standalone="no"?>
<svg
   version="1.1"
   width="50"
   height="100"
   id="svg4460"
   sodipodi:docname="u0026-&amp;.svg"
   inkscape:version="1.1.1 (3bf5ae0d25, 2021-09-20)"
   xmlns:inkscape="http://www.inkscape.org/namespaces/inkscape"
   xmlns:sodipodi="http://sodipodi.sourceforge.net/DTD/sodipodi-0.dtd"
   xmlns="http://www.w3.org/2000/svg"
   xmlns:svg="http://www.w3.org/2000/svg"
   xmlns:rdf="http://www.w3.org/1999/02/22-rdf-syntax-ns#"
   xmlns:cc="http://creativecommons.org/ns#"
   xmlns:dc="http://purl.org/dc/elements/1.1/">
  <sodipodi:namedview
     pagecolor="#ffffff"
     bordercolor="#666666"
     borderopacity="1"
     objecttolerance="10"
     gridtolerance="10"
     guidetolerance="10"
     inkscape:pageopacity="0"
     inkscape:pageshadow="2"
     inkscape:window-width="2880"
     inkscape:window-height="1541"
     id="namedview11"
     showgrid="true"
     inkscape:zoom="11.313709"
     inkscape:cx="-23.069359"
     inkscape:cy="31.068504"
     inkscape:window-x="-11"
     inkscape:window-y="-11"
     inkscape:window-maximized="1"
     inkscape:current-layer="text5282"
     inkscape:document-rotation="0"
     inkscape:pagecheckerboard="0"
     showguides="true"
     inkscape:guide-bbox="true">
    <inkscape:grid
       type="xygrid"
       id="grid823" />
    <sodipodi:guide
       position="0,86"
       orientation="66,0"
       id="guide957" />
    <sodipodi:guide
       position="0,20"
       orientation="0,50"
       id="guide959" />
    <sodipodi:guide
       position="50,20"
       orientation="-66,0"
       id="guide961" />
    <sodipodi:guide
       position="50,86"
       orientation="0,-50"
       id="guide963" />
    <sodipodi:guide
       position="8.9999971,64.32985"
       orientation="8.5387222,0"
       id="guide1517" />
    <sodipodi:guide
       position="8.9999971,55.791128"
       orientation="0,26.227758"
       id="guide1519" />
    <sodipodi:guide
       position="35,93.437165"
       orientation="-8.5387222,0"
       id="guide1521" />
    <sodipodi:guide
       position="35.227755,64.32985"
       orientation="0,-26.227758"
       id="guide1523" />
    <sodipodi:guide
       position="7.9247812,20.000001"
       orientation="0,-6.8495616"
       id="guide4054" />
    <sodipodi:guide
       position="1.0752196,74.999813"
       orientation="0,6.8495616"
       id="guide4058" />
  </sodipodi:namedview>
  <defs
     id="defs4462" />
  <metadata
     id="metadata4465">
    <rdf:RDF>
      <cc:Work
         rdf:about="">
        <dc:format>image/svg+xml</dc:format>
        <dc:type
           rdf:resource="http://purl.org/dc/dcmitype/StillImage" />
      </cc:Work>
    </rdf:RDF>
  </metadata>
  <g
     aria-label="C"
     id="text3215"
     style="font-size:32px;line-height:1.25"
     transform="translate(-37.75,-4)">
    <g
       aria-label="A"
       id="text5282"
       transform="matrix(1.6290909,0,0,2.8292029,-41.002727,-68.776958)">
      <path
         d="m 75.21916,42.649397 q 2.354429,0.787185 3.0886,2.303249 0.253161,0.524792 0.253161,1.020427 0,0.976696 -0.886087,1.851347 -1.367073,1.384866 -4.455672,1.909658 -0.556968,1.064159 -2.835462,2.376138 -3.69619,2.142897 -8.936704,2.142897 -5.215178,0 -8.936703,-2.12832 -3.696214,-2.142897 -3.696214,-5.160447 0,-2.988395 3.620256,-5.218758 2.177225,-1.224512 3.999998,-1.355711 -3.92404,-2.274096 -3.92404,-4.533613 0,-2.230362 2.759481,-3.833892 2.784816,-1.603528 6.708879,-1.603528 3.924039,0 6.708855,1.588951 1.569611,0.874652 2.632901,2.784308 l -4.75948,1.078738 q -0.860775,-1.341133 -1.569634,-1.749304 -1.240493,-0.699722 -3.012642,-0.699722 -1.746838,0 -2.987354,0.7143 -1.240493,0.699722 -1.240493,1.720149 0,1.035005 1.291139,1.83677 1.31645,0.801764 2.405051,1.049582 1.113936,0.247818 4.506342,0.262395 v 2.90093 l -3.088622,0.01458 q -4.481008,0.510213 -6.683544,1.89508 -2.177202,1.370288 -2.177202,3.148747 0,1.778459 2.177202,3.032128 2.177225,1.253667 5.265824,1.253667 3.063288,0 6.582275,-2.070009 -0.708859,-0.335284 -2.50632,-1.414022 -0.658237,-0.34986 -1.037978,-0.495636 -0.35443,-0.131197 -0.582279,-0.131197 h -0.02529 q -0.25316,0.01457 -0.354429,0.160352 -0.05058,0.05831 -0.05058,0.116623 0,0.102036 0.101385,0.218663 l -4.303781,1.676416 q -0.531656,-0.451903 -0.810128,-1.020427 -0.202538,-0.451904 -0.202538,-0.88923 0,-0.83092 0.759482,-1.603528 1.189893,-1.180781 3.443053,-1.530642 0.784794,-0.131199 1.569611,-0.131199 1.443031,0 2.759504,0.437327 1.113913,0.364438 2.531632,1.370288 1.443054,0.991271 2.683547,1.078737 0.17725,0.01457 0.329118,0.01457 0.962021,0 1.367097,-0.510213 0.101153,-0.131198 0.101153,-0.276973 0,-0.466481 -1.164536,-1.020427 z"
         id="path22423"
         style="font-weight:bold;font-size:16.253px;line-height:1;font-family:'Caviar Dreams';-inkscape-font-specification:'Caviar Dreams Bold';text-align:center;text-anchor:middle;fill:#000000;stroke-width:2.92892" />
    </g>
  </g>
</svg>
