<?xml version="1.0" encoding="UTF-8" standalone="no"?>
<svg
   version="1.1"
   width="33"
   height="100"
   id="svg4460"
   sodipodi:docname="u3f-interro.svg"
   inkscape:version="1.1.1 (3bf5ae0d25, 2021-09-20)"
   xmlns:inkscape="http://www.inkscape.org/namespaces/inkscape"
   xmlns:sodipodi="http://sodipodi.sourceforge.net/DTD/sodipodi-0.dtd"
   xmlns="http://www.w3.org/2000/svg"
   xmlns:svg="http://www.w3.org/2000/svg"
   xmlns:rdf="http://www.w3.org/1999/02/22-rdf-syntax-ns#"
   xmlns:cc="http://creativecommons.org/ns#"
   xmlns:dc="http://purl.org/dc/elements/1.1/">
  <sodipodi:namedview
     pagecolor="#ffffff"
     bordercolor="#666666"
     borderopacity="1"
     objecttolerance="10"
     gridtolerance="10"
     guidetolerance="10"
     inkscape:pageopacity="0"
     inkscape:pageshadow="2"
     inkscape:window-width="2880"
     inkscape:window-height="1541"
     id="namedview11"
     showgrid="true"
     inkscape:zoom="4"
     inkscape:cx="-66"
     inkscape:cy="-7.875"
     inkscape:window-x="-11"
     inkscape:window-y="-11"
     inkscape:window-maximized="1"
     inkscape:current-layer="text5282"
     inkscape:document-rotation="0"
     inkscape:pagecheckerboard="0"
     showguides="true"
     inkscape:guide-bbox="true">
    <inkscape:grid
       type="xygrid"
       id="grid823" />
    <sodipodi:guide
       position="0,86"
       orientation="66,0"
       id="guide957" />
    <sodipodi:guide
       position="0,20"
       orientation="0,50"
       id="guide959" />
    <sodipodi:guide
       position="50,20"
       orientation="-66,0"
       id="guide961" />
    <sodipodi:guide
       position="50,86"
       orientation="0,-50"
       id="guide963" />
    <sodipodi:guide
       position="8.9999971,64.32985"
       orientation="8.5387222,0"
       id="guide1517" />
    <sodipodi:guide
       position="8.9999971,55.791128"
       orientation="0,26.227758"
       id="guide1519" />
    <sodipodi:guide
       position="35,93.437165"
       orientation="-8.5387222,0"
       id="guide1521" />
    <sodipodi:guide
       position="35.227755,64.32985"
       orientation="0,-26.227758"
       id="guide1523" />
    <sodipodi:guide
       position="7.9247812,20.000001"
       orientation="0,-6.8495616"
       id="guide4054" />
    <sodipodi:guide
       position="1.0752196,74.999813"
       orientation="0,6.8495616"
       id="guide4058" />
  </sodipodi:namedview>
  <defs
     id="defs4462" />
  <metadata
     id="metadata4465">
    <rdf:RDF>
      <cc:Work
         rdf:about="">
        <dc:format>image/svg+xml</dc:format>
        <dc:type
           rdf:resource="http://purl.org/dc/dcmitype/StillImage" />
      </cc:Work>
    </rdf:RDF>
  </metadata>
  <g
     aria-label="C"
     id="text3215"
     style="font-size:32px;line-height:1.25"
     transform="translate(-37.75,-4)">
    <g
       aria-label="A"
       id="text5282"
       transform="matrix(1.6290909,0,0,2.8292029,-41.002727,-68.776958)">
      <path
         id="path19838"
         style="font-weight:bold;font-size:22.3481px;line-height:1;font-family:'Caviar Dreams';-inkscape-font-specification:'Caviar Dreams Bold';text-align:center;text-anchor:middle;fill:#000000;stroke-width:2.92892"
         d="m 58.508231,33.013524 c -1.046412,0 -2.110073,0.106514 -3.190246,0.32032 -2.464135,0.495635 -4.270173,1.424281 -5.417868,2.784848 -0.607578,0.699724 -0.911183,1.409175 -0.911183,2.128335 v 0.976147 l 5.290804,-0.990646 c 0.06752,-0.369298 0.177768,-0.646525 0.329693,-0.831174 0.506294,-0.602537 1.316255,-1.015647 2.430189,-1.239169 0.489415,-0.09718 0.962562,-0.145663 1.418276,-0.145663 0.607578,0 1.214727,0.08262 1.822366,0.247833 1.046351,0.291552 1.772093,0.757917 2.177165,1.399331 0.151926,0.272112 0.227796,0.539095 0.227796,0.801491 0,0.349858 -0.143454,0.70493 -0.430424,1.064508 -0.573817,0.670567 -1.50231,1.370464 -2.78505,2.09934 -2.666641,1.156485 -4.674264,2.546025 -6.024464,4.168991 -0.860787,1.010709 -1.300726,2.041091 -1.317606,3.090673 h 5.215239 c 0.01657,-0.592821 0.278929,-1.190979 0.785285,-1.793516 0.843906,-1.020426 2.075943,-1.943601 3.696233,-2.769664 2.379732,-1.059298 4.101552,-2.220781 5.164844,-3.484168 0.641401,-0.76775 0.961518,-1.554353 0.961518,-2.36098 0,-0.602537 -0.176663,-1.210253 -0.531094,-1.82251 -0.860787,-1.40916 -2.472299,-2.439542 -4.835151,-3.090672 -1.333381,-0.369295 -2.69236,-0.553655 -4.076322,-0.553655 z m -6.404554,17.995903 v 3.017497 h 5.239241 v -3.017497 z" />
    </g>
  </g>
</svg>
