<?xml version="1.0" encoding="UTF-8" standalone="no"?>
<svg
   version="1.1"
   width="100"
   height="100"
   id="svg4460"
   sodipodi:docname="u0042-B.svg"
   inkscape:version="1.1.1 (3bf5ae0d25, 2021-09-20)"
   xmlns:inkscape="http://www.inkscape.org/namespaces/inkscape"
   xmlns:sodipodi="http://sodipodi.sourceforge.net/DTD/sodipodi-0.dtd"
   xmlns="http://www.w3.org/2000/svg"
   xmlns:svg="http://www.w3.org/2000/svg"
   xmlns:rdf="http://www.w3.org/1999/02/22-rdf-syntax-ns#"
   xmlns:cc="http://creativecommons.org/ns#"
   xmlns:dc="http://purl.org/dc/elements/1.1/">
  <sodipodi:namedview
     pagecolor="#ffffff"
     bordercolor="#666666"
     borderopacity="1"
     objecttolerance="10"
     gridtolerance="10"
     guidetolerance="10"
     inkscape:pageopacity="0"
     inkscape:pageshadow="2"
     inkscape:window-width="2880"
     inkscape:window-height="1541"
     id="namedview11"
     showgrid="true"
     inkscape:zoom="4"
     inkscape:cx="100"
     inkscape:cy="51.875"
     inkscape:window-x="-11"
     inkscape:window-y="-11"
     inkscape:window-maximized="1"
     inkscape:current-layer="svg4460"
     inkscape:document-rotation="0"
     inkscape:pagecheckerboard="0">
    <inkscape:grid
       type="xygrid"
       id="grid823" />
  </sodipodi:namedview>
  <defs
     id="defs4462" />
  <metadata
     id="metadata4465">
    <rdf:RDF>
      <cc:Work
         rdf:about="">
        <dc:format>image/svg+xml</dc:format>
        <dc:type
           rdf:resource="http://purl.org/dc/dcmitype/StillImage" />
      </cc:Work>
    </rdf:RDF>
  </metadata>
  <g
     aria-label="B"
     id="text3785"
     style="font-size:32px;line-height:1.25"
     transform="matrix(3.9865765,0,0,3.0006698,-151.97616,-84.286671)">
    <path
       d="m 45.546875,43.609375 v 8.546875 h 5.0625 q 2.546875,0 3.765625,-1.046875 1.234375,-1.0625 1.234375,-3.234375 0,-2.1875 -1.234375,-3.21875 -1.21875,-1.046875 -3.765625,-1.046875 z m 0,-9.59375 v 7.03125 h 4.671875 q 2.3125,0 3.4375,-0.859375 1.140625,-0.875 1.140625,-2.65625 0,-1.765625 -1.140625,-2.640625 -1.125,-0.875 -3.4375,-0.875 z m -3.15625,-2.59375 h 8.0625 q 3.609375,0 5.5625,1.5 1.953125,1.5 1.953125,4.265625 0,2.140625 -1,3.40625 -1,1.265625 -2.9375,1.578125 2.328125,0.5 3.609375,2.09375 1.296875,1.578125 1.296875,3.953125 0,3.125 -2.125,4.828125 Q 54.6875,54.75 50.765625,54.75 h -8.375 z"
       id="path4527" />
  </g>
</svg>
