<?xml version="1.0" encoding="UTF-8" standalone="no"?>
<svg
   version="1.1"
   width="50"
   height="100"
   id="svg4460"
   sodipodi:docname="u0043-C.svg"
   inkscape:version="1.1.1 (3bf5ae0d25, 2021-09-20)"
   xmlns:inkscape="http://www.inkscape.org/namespaces/inkscape"
   xmlns:sodipodi="http://sodipodi.sourceforge.net/DTD/sodipodi-0.dtd"
   xmlns="http://www.w3.org/2000/svg"
   xmlns:svg="http://www.w3.org/2000/svg"
   xmlns:rdf="http://www.w3.org/1999/02/22-rdf-syntax-ns#"
   xmlns:cc="http://creativecommons.org/ns#"
   xmlns:dc="http://purl.org/dc/elements/1.1/">
  <sodipodi:namedview
     pagecolor="#ffffff"
     bordercolor="#666666"
     borderopacity="1"
     objecttolerance="10"
     gridtolerance="10"
     guidetolerance="10"
     inkscape:pageopacity="0"
     inkscape:pageshadow="2"
     inkscape:window-width="2880"
     inkscape:window-height="1541"
     id="namedview11"
     showgrid="true"
     inkscape:zoom="11.313708"
     inkscape:cx="3.1819805"
     inkscape:cy="64.656076"
     inkscape:window-x="-11"
     inkscape:window-y="-11"
     inkscape:window-maximized="1"
     inkscape:current-layer="text3215"
     inkscape:document-rotation="0"
     inkscape:pagecheckerboard="0"
     showguides="true">
    <inkscape:grid
       type="xygrid"
       id="grid823" />
    <sodipodi:guide
       position="0,89"
       orientation="70,0"
       id="guide855" />
    <sodipodi:guide
       position="0,19"
       orientation="0,50"
       id="guide857" />
    <sodipodi:guide
       position="50,19"
       orientation="-70,0"
       id="guide859" />
    <sodipodi:guide
       position="50,89"
       orientation="0,-50"
       id="guide861" />
  </sodipodi:namedview>
  <defs
     id="defs4462" />
  <metadata
     id="metadata4465">
    <rdf:RDF>
      <cc:Work
         rdf:about="">
        <dc:format>image/svg+xml</dc:format>
        <dc:type
           rdf:resource="http://purl.org/dc/dcmitype/StillImage" />
      </cc:Work>
    </rdf:RDF>
  </metadata>
  <g
     aria-label="C"
     id="text3215"
     style="font-size:32px;line-height:1.25"
     transform="translate(-37.75,-4)">
    <path
       id="path4375"
       d="m 71.668252,13.999994 c -8.594988,0 -15.364494,3.220878 -20.308515,9.66264 -4.94402,6.410791 -7.416032,15.190785 -7.416032,26.339985 0,11.118229 2.472012,19.898225 7.416032,26.339986 4.944021,6.410789 11.713527,9.616184 20.308515,9.616184 3.346719,0 6.515962,-0.557459 9.50773,-1.67238 0.128602,-0.04752 0.25231,-0.113046 0.380313,-0.162591 V 76 c -0.03848,0.01932 -0.07557,0.0448 -0.114094,0.06388 -2.915704,1.455588 -6.021565,2.183384 -9.317577,2.183384 -6.490612,0 -11.459985,-2.41566 -14.908124,-7.24698 -3.448138,-4.862291 -5.172206,-11.861508 -5.172206,-20.99766 0,-9.167118 1.724068,-16.16634 5.172206,-20.99766 3.448139,-4.862292 8.417512,-7.293436 14.908124,-7.293436 3.296012,0 6.401873,0.727797 9.317577,2.183386 0.03855,0.01908 0.07565,0.04455 0.114094,0.06388 v -8.158657 c -0.102897,-0.03843 -0.200908,-0.09063 -0.30425,-0.127754 C 78.260277,14.55746 75.065682,14 71.668252,14 Z"
       style="stroke-width:2.69008" />
  </g>
</svg>
