<?xml version="1.0" encoding="UTF-8" standalone="no"?>
<svg
   version="1.1"
   width="59"
   height="100"
   id="svg4460"
   sodipodi:docname="u40-@.svg"
   inkscape:version="1.1.1 (3bf5ae0d25, 2021-09-20)"
   xmlns:inkscape="http://www.inkscape.org/namespaces/inkscape"
   xmlns:sodipodi="http://sodipodi.sourceforge.net/DTD/sodipodi-0.dtd"
   xmlns="http://www.w3.org/2000/svg"
   xmlns:svg="http://www.w3.org/2000/svg"
   xmlns:rdf="http://www.w3.org/1999/02/22-rdf-syntax-ns#"
   xmlns:cc="http://creativecommons.org/ns#"
   xmlns:dc="http://purl.org/dc/elements/1.1/">
  <sodipodi:namedview
     pagecolor="#ffffff"
     bordercolor="#666666"
     borderopacity="1"
     objecttolerance="10"
     gridtolerance="10"
     guidetolerance="10"
     inkscape:pageopacity="0"
     inkscape:pageshadow="2"
     inkscape:window-width="2880"
     inkscape:window-height="1541"
     id="namedview11"
     showgrid="true"
     inkscape:zoom="16"
     inkscape:cx="-1.125"
     inkscape:cy="50.90625"
     inkscape:window-x="-11"
     inkscape:window-y="-11"
     inkscape:window-maximized="1"
     inkscape:current-layer="text5282"
     inkscape:document-rotation="0"
     inkscape:pagecheckerboard="0"
     showguides="true"
     inkscape:guide-bbox="true">
    <inkscape:grid
       type="xygrid"
       id="grid823" />
    <sodipodi:guide
       position="0,86"
       orientation="66,0"
       id="guide957" />
    <sodipodi:guide
       position="0,20"
       orientation="0,50"
       id="guide959" />
    <sodipodi:guide
       position="50,20"
       orientation="-66,0"
       id="guide961" />
    <sodipodi:guide
       position="50,86"
       orientation="0,-50"
       id="guide963" />
    <sodipodi:guide
       position="8.9999971,64.32985"
       orientation="8.5387222,0"
       id="guide1517" />
    <sodipodi:guide
       position="8.9999971,55.791128"
       orientation="0,26.227758"
       id="guide1519" />
    <sodipodi:guide
       position="35,93.437165"
       orientation="-8.5387222,0"
       id="guide1521" />
    <sodipodi:guide
       position="35.227755,64.32985"
       orientation="0,-26.227758"
       id="guide1523" />
    <sodipodi:guide
       position="7.9247812,20.000001"
       orientation="0,-6.8495616"
       id="guide4054" />
    <sodipodi:guide
       position="1.0752196,74.999813"
       orientation="0,6.8495616"
       id="guide4058" />
  </sodipodi:namedview>
  <defs
     id="defs4462" />
  <metadata
     id="metadata4465">
    <rdf:RDF>
      <cc:Work
         rdf:about="">
        <dc:format>image/svg+xml</dc:format>
        <dc:type
           rdf:resource="http://purl.org/dc/dcmitype/StillImage" />
      </cc:Work>
    </rdf:RDF>
  </metadata>
  <g
     aria-label="C"
     id="text3215"
     style="font-size:32px;line-height:1.25"
     transform="translate(-37.75,-4)">
    <g
       aria-label="A"
       id="text5282"
       transform="matrix(1.6290909,0,0,2.8292029,-41.002727,-68.776958)">
      <path
         d="m 71.297796,44.896809 v -1.574374 q -0.25316,-0.655989 -1.265827,-1.23909 -1.468342,-0.845496 -3.518987,-0.845496 -2.050621,0 -3.493675,0.845496 -1.443031,0.845497 -1.443031,2.026278 0,1.195358 1.443031,2.026277 1.443054,0.830919 3.493675,0.830919 2.075956,0 3.518987,-0.830919 1.012667,-0.583101 1.265827,-1.239091 z m -0.05058,3.221635 q -1.341785,1.195358 -4.784814,1.195358 -4.151913,0 -7.113932,-1.41402 -2.936707,-1.414021 -2.936707,-3.804737 0,-2.376138 2.936707,-3.863046 2.962019,-1.486909 7.113932,-1.486909 3.69619,0 4.784814,1.078737 v -0.758032 h 5.037952 l -0.05058,7.259613 v 0.04374 q 0,0.758033 0.405052,0.758033 0.354453,0 1.012667,-0.524792 1.443031,-1.18078 1.443031,-3.615228 0,-2.434449 -3.21518,-4.271218 -3.189869,-1.83677 -9.417714,-1.83677 -6.202534,0 -9.392402,1.83677 -3.164557,1.836769 -3.164557,5.131292 0,3.294523 3.670878,5.422843 3.696191,2.113743 8.886081,2.113743 3.56961,0 6.126576,-0.918385 l 3.594945,2.172053 q -4.886084,1.647262 -9.721521,1.647262 -7.265823,0 -12.45569,-2.973818 -5.189891,-2.988394 -5.189891,-7.186725 0,-4.183752 5.189891,-7.15757 5.189867,-2.988394 12.45569,-2.988394 7.316446,0 12.45569,2.988394 5.164556,2.988396 5.164556,6.064255 0,3.075861 -2.759504,4.985517 -2.278471,1.559796 -5.037976,1.559796 -0.60759,0 -1.240492,-0.08746 -3.518987,-0.422748 -3.79746,-1.370289 z"
         id="path19836"
         style="font-weight:bold;font-size:16.253px;line-height:1;font-family:'Caviar Dreams';-inkscape-font-specification:'Caviar Dreams Bold';text-align:center;text-anchor:middle;fill:#000000;stroke-width:2.92892" />
    </g>
  </g>
</svg>
