<?xml version="1.0" encoding="UTF-8" standalone="no"?>
<svg
   version="1.1"
   width="41"
   height="100"
   id="svg4460"
   sodipodi:docname="S.svg"
   inkscape:version="1.1.1 (3bf5ae0d25, 2021-09-20)"
   xmlns:inkscape="http://www.inkscape.org/namespaces/inkscape"
   xmlns:sodipodi="http://sodipodi.sourceforge.net/DTD/sodipodi-0.dtd"
   xmlns="http://www.w3.org/2000/svg"
   xmlns:svg="http://www.w3.org/2000/svg"
   xmlns:rdf="http://www.w3.org/1999/02/22-rdf-syntax-ns#"
   xmlns:cc="http://creativecommons.org/ns#"
   xmlns:dc="http://purl.org/dc/elements/1.1/">
  <sodipodi:namedview
     pagecolor="#ffffff"
     bordercolor="#666666"
     borderopacity="1"
     objecttolerance="10"
     gridtolerance="10"
     guidetolerance="10"
     inkscape:pageopacity="0"
     inkscape:pageshadow="2"
     inkscape:window-width="2880"
     inkscape:window-height="1541"
     id="namedview11"
     showgrid="true"
     inkscape:zoom="8"
     inkscape:cx="5.5"
     inkscape:cy="15.6875"
     inkscape:window-x="-11"
     inkscape:window-y="-11"
     inkscape:window-maximized="1"
     inkscape:current-layer="text5282"
     inkscape:document-rotation="0"
     inkscape:pagecheckerboard="0"
     showguides="true"
     inkscape:guide-bbox="true">
    <inkscape:grid
       type="xygrid"
       id="grid823" />
    <sodipodi:guide
       position="0,86"
       orientation="66,0"
       id="guide957" />
    <sodipodi:guide
       position="0,20"
       orientation="0,50"
       id="guide959" />
    <sodipodi:guide
       position="50,20"
       orientation="-66,0"
       id="guide961" />
    <sodipodi:guide
       position="50,86"
       orientation="0,-50"
       id="guide963" />
    <sodipodi:guide
       position="8.9999971,64.32985"
       orientation="8.5387222,0"
       id="guide1517" />
    <sodipodi:guide
       position="8.9999971,55.791128"
       orientation="0,26.227758"
       id="guide1519" />
    <sodipodi:guide
       position="35,93.437165"
       orientation="-8.5387222,0"
       id="guide1521" />
    <sodipodi:guide
       position="35.227755,64.32985"
       orientation="0,-26.227758"
       id="guide1523" />
  </sodipodi:namedview>
  <defs
     id="defs4462" />
  <metadata
     id="metadata4465">
    <rdf:RDF>
      <cc:Work
         rdf:about="">
        <dc:format>image/svg+xml</dc:format>
        <dc:type
           rdf:resource="http://purl.org/dc/dcmitype/StillImage" />
      </cc:Work>
    </rdf:RDF>
  </metadata>
  <g
     aria-label="C"
     id="text3215"
     style="font-size:32px;line-height:1.25"
     transform="translate(-37.75,-4)">
    <g
       aria-label="A"
       id="text5282"
       transform="matrix(1.6290909,0,0,2.8292029,-41.002727,-68.776958)">
      <path
         d="m 61.095872,42.035817 q -4.14356,-0.831061 -6.72723,-2.361965 -2.559286,-1.54548 -2.559286,-3.819968 0,-2.23074 2.656773,-3.834544 2.681134,-1.603804 6.483489,-1.603804 3.753587,0 6.434745,1.589224 1.511146,0.8748 2.534879,2.784785 l -4.582322,1.078921 q -0.828689,-1.34136 -1.51117,-1.749601 -1.194348,-0.699846 -2.876132,-0.699846 -1.706191,0 -2.900516,0.714425 -1.194324,0.699839 -1.194324,1.72044 0,1.020605 1.194324,1.735027 1.340579,0.787319 3.704868,1.443423 4.582322,0.88938 7.775277,2.799364 3.58295,2.114102 3.58295,5.132171 0,3.018067 -3.58295,5.161329 -3.55859,2.128683 -8.579629,2.128683 -5.0454,0 -8.604036,-2.143262 -2.851725,-1.705865 -3.607333,-4.709352 l 4.899168,-1.064341 q 0.463123,2.580665 2.266801,3.659588 2.096141,1.253883 5.0454,1.253883 2.949236,0 5.045422,-1.253883 2.096117,-1.253884 2.096117,-3.032645 0,-1.764184 -2.096117,-3.018069 -1.998699,-1.195561 -4.899168,-1.909983 z"
         style="font-weight:bold;font-size:12.7px;line-height:1;font-family:'Caviar Dreams';-inkscape-font-specification:'Caviar Dreams Bold';text-align:center;text-anchor:middle;fill:#000000;stroke:#ffffff;stroke-width:0;stroke-linecap:round"
         id="path488" />
    </g>
  </g>
</svg>
