<?xml version="1.0" encoding="UTF-8" standalone="no"?>
<svg
   version="1.1"
   width="67"
   height="100"
   id="svg4460"
   sodipodi:docname="Q.svg"
   inkscape:version="1.1.1 (3bf5ae0d25, 2021-09-20)"
   xmlns:inkscape="http://www.inkscape.org/namespaces/inkscape"
   xmlns:sodipodi="http://sodipodi.sourceforge.net/DTD/sodipodi-0.dtd"
   xmlns="http://www.w3.org/2000/svg"
   xmlns:svg="http://www.w3.org/2000/svg"
   xmlns:rdf="http://www.w3.org/1999/02/22-rdf-syntax-ns#"
   xmlns:cc="http://creativecommons.org/ns#"
   xmlns:dc="http://purl.org/dc/elements/1.1/">
  <sodipodi:namedview
     pagecolor="#ffffff"
     bordercolor="#666666"
     borderopacity="1"
     objecttolerance="10"
     gridtolerance="10"
     guidetolerance="10"
     inkscape:pageopacity="0"
     inkscape:pageshadow="2"
     inkscape:window-width="2880"
     inkscape:window-height="1541"
     id="namedview11"
     showgrid="true"
     inkscape:zoom="16"
     inkscape:cx="28.8125"
     inkscape:cy="46.40625"
     inkscape:window-x="-11"
     inkscape:window-y="-11"
     inkscape:window-maximized="1"
     inkscape:current-layer="text5282"
     inkscape:document-rotation="0"
     inkscape:pagecheckerboard="0"
     showguides="true"
     inkscape:guide-bbox="true">
    <inkscape:grid
       type="xygrid"
       id="grid823" />
    <sodipodi:guide
       position="0,86"
       orientation="66,0"
       id="guide957" />
    <sodipodi:guide
       position="0,20"
       orientation="0,50"
       id="guide959" />
    <sodipodi:guide
       position="50,20"
       orientation="-66,0"
       id="guide961" />
    <sodipodi:guide
       position="50,86"
       orientation="0,-50"
       id="guide963" />
    <sodipodi:guide
       position="8.9999971,64.32985"
       orientation="8.5387222,0"
       id="guide1517" />
    <sodipodi:guide
       position="8.9999971,55.791128"
       orientation="0,26.227758"
       id="guide1519" />
    <sodipodi:guide
       position="35,93.437165"
       orientation="-8.5387222,0"
       id="guide1521" />
    <sodipodi:guide
       position="35.227755,64.32985"
       orientation="0,-26.227758"
       id="guide1523" />
  </sodipodi:namedview>
  <defs
     id="defs4462" />
  <metadata
     id="metadata4465">
    <rdf:RDF>
      <cc:Work
         rdf:about="">
        <dc:format>image/svg+xml</dc:format>
        <dc:type
           rdf:resource="http://purl.org/dc/dcmitype/StillImage" />
      </cc:Work>
    </rdf:RDF>
  </metadata>
  <g
     aria-label="C"
     id="text3215"
     style="font-size:32px;line-height:1.25"
     transform="translate(-37.75,-4)">
    <g
       aria-label="A"
       id="text5282"
       transform="matrix(1.6290909,0,0,2.8292029,-41.002727,-68.776958)">
      <path
         d="m 68.905099,33.313717 q -6.16657,0 -10.52952,2.609828 -4.33855,2.595245 -4.33855,6.28399 0,3.688751 4.36291,6.298573 4.36297,2.609825 10.50516,2.609825 6.16664,0 10.50518,-2.609825 4.36299,-2.609822 4.36299,-6.298573 0,-3.688745 -4.36299,-6.28399 -4.33854,-2.609828 -10.50518,-2.609828 z m 8.33591,19.785102 q 0.56061,0.20413 1.16996,0.46656 1.70615,0.539459 2.31553,0.656103 0.26805,0.04374 0.51184,0.04374 0.41438,0 0.82871,-0.145788 0.63376,-0.218708 0.82874,-0.641522 0.0733,-0.131226 0.17052,-1.078923 h 5.09416 q -0.17052,1.428842 -0.38992,1.895402 -0.77997,1.618384 -3.24175,2.434864 -1.55991,0.539463 -3.26608,0.539463 -0.9506,0 -1.90116,-0.160373 -1.55996,-0.24786 -4.16795,-1.253882 -2.09618,-0.656103 -2.90049,-0.801901 -0.46315,-0.07291 -0.8775,-0.07291 -0.7312,0 -1.41366,0.233284 -1.12122,0.379083 -1.46243,1.137245 -0.0487,0.07291 -0.17052,0.96228 h -5.09416 q 0.19488,-1.385102 0.38992,-1.807923 0.41433,-0.889383 1.26743,-1.574643 -5.75224,-0.656099 -10.13959,-3.280505 -5.84975,-3.499208 -5.84975,-8.441839 0,-4.942627 5.84975,-8.441833 5.8498,-3.499208 14.11254,-3.499208 8.2628,0 14.11253,3.499208 5.84973,3.499206 5.84973,8.441833 0,4.942631 -5.84973,8.441839 -2.63239,1.574641 -5.77667,2.449444 z"
         style="font-weight:bold;font-size:12.7px;line-height:1;font-family:'Caviar Dreams';-inkscape-font-specification:'Caviar Dreams Bold';text-align:center;text-anchor:middle;fill:#000000;stroke:#ffffff;stroke-width:0;stroke-linecap:round"
         id="path484" />
    </g>
  </g>
</svg>
