<?xml version="1.0" encoding="UTF-8" standalone="no"?>
<svg
   version="1.1"
   width="31"
   height="100"
   id="svg4460"
   sodipodi:docname="b.svg"
   inkscape:version="1.1.1 (3bf5ae0d25, 2021-09-20)"
   xmlns:inkscape="http://www.inkscape.org/namespaces/inkscape"
   xmlns:sodipodi="http://sodipodi.sourceforge.net/DTD/sodipodi-0.dtd"
   xmlns="http://www.w3.org/2000/svg"
   xmlns:svg="http://www.w3.org/2000/svg"
   xmlns:rdf="http://www.w3.org/1999/02/22-rdf-syntax-ns#"
   xmlns:cc="http://creativecommons.org/ns#"
   xmlns:dc="http://purl.org/dc/elements/1.1/">
  <sodipodi:namedview
     pagecolor="#ffffff"
     bordercolor="#666666"
     borderopacity="1"
     objecttolerance="10"
     gridtolerance="10"
     guidetolerance="10"
     inkscape:pageopacity="0"
     inkscape:pageshadow="2"
     inkscape:window-width="2880"
     inkscape:window-height="1541"
     id="namedview11"
     showgrid="true"
     inkscape:zoom="32"
     inkscape:cx="23.46875"
     inkscape:cy="30.703125"
     inkscape:window-x="-11"
     inkscape:window-y="-11"
     inkscape:window-maximized="1"
     inkscape:current-layer="text5282"
     inkscape:document-rotation="0"
     inkscape:pagecheckerboard="0"
     showguides="true"
     inkscape:guide-bbox="true">
    <inkscape:grid
       type="xygrid"
       id="grid823" />
    <sodipodi:guide
       position="0,86"
       orientation="66,0"
       id="guide957" />
    <sodipodi:guide
       position="0,20"
       orientation="0,50"
       id="guide959" />
    <sodipodi:guide
       position="50,20"
       orientation="-66,0"
       id="guide961" />
    <sodipodi:guide
       position="50,86"
       orientation="0,-50"
       id="guide963" />
    <sodipodi:guide
       position="8.9999971,64.32985"
       orientation="8.5387222,0"
       id="guide1517" />
    <sodipodi:guide
       position="8.9999971,55.791128"
       orientation="0,26.227758"
       id="guide1519" />
    <sodipodi:guide
       position="35,93.437165"
       orientation="-8.5387222,0"
       id="guide1521" />
    <sodipodi:guide
       position="35.227755,64.32985"
       orientation="0,-26.227758"
       id="guide1523" />
  </sodipodi:namedview>
  <defs
     id="defs4462" />
  <metadata
     id="metadata4465">
    <rdf:RDF>
      <cc:Work
         rdf:about="">
        <dc:format>image/svg+xml</dc:format>
        <dc:type
           rdf:resource="http://purl.org/dc/dcmitype/StillImage" />
      </cc:Work>
    </rdf:RDF>
  </metadata>
  <g
     aria-label="C"
     id="text3215"
     style="font-size:32px;line-height:1.25"
     transform="translate(-37.75,-4)">
    <g
       aria-label="A"
       id="text5282"
       transform="matrix(1.6290909,0,0,2.8292029,-41.002727,-68.776958)">
      <path
         d="m 55.53631,34.55997 c 1.882219,0 3.493614,0.400951 4.834185,1.202852 1.340555,0.793801 2.010833,1.753653 2.010833,2.879556 0,1.158302 -0.974959,1.875153 -2.924876,2.150554 1.408269,0.121503 3.006123,0.720905 4.793561,1.798205 1.800956,1.077302 2.701434,2.567705 2.701434,4.47121 0,1.903502 -1.117145,3.547805 -3.351435,4.932909 C 61.501165,53.299359 59.395536,53.9838 57.283125,54 54.507202,54 51.73128,54 48.955357,54 V 34.559963 Z m -2.376445,8.176967 v 8.735868 c 1.37442,0 2.74884,0 4.12326,0 0.866637,-0.03241 1.94315,-0.485994 3.229541,-1.287889 1.421818,-0.874802 2.132727,-1.915654 2.132727,-3.122557 0,-1.190703 -0.710909,-2.207255 -2.132727,-3.049657 -1.408269,-0.850501 -3.107678,-1.275752 -5.098227,-1.275752 z m 0,-5.66191 v 3.073954 h 2.742081 c 0.622879,-0.03241 1.157745,-0.174157 1.604597,-0.42525 0.487483,-0.267301 0.731225,-0.627752 0.731225,-1.081353 0,-0.453601 -0.257283,-0.826202 -0.771849,-1.117803 -0.501017,-0.299699 -1.14422,-0.449548 -1.929609,-0.449548 z"
         style="font-weight:bold;font-size:12.7px;line-height:1;font-family:'Caviar Dreams';-inkscape-font-specification:'Caviar Dreams Bold';text-align:center;text-anchor:middle;fill:#000000;stroke:#ffffff;stroke-width:0;stroke-linecap:round"
         id="path454-1"
         sodipodi:nodetypes="ccsccscccccccccscccccccscsc" />
    </g>
  </g>
</svg>
