<?xml version="1.0" encoding="UTF-8" standalone="no"?>
<svg
   version="1.1"
   width="56"
   height="100"
   id="svg4460"
   sodipodi:docname="q.svg"
   inkscape:version="1.1.1 (3bf5ae0d25, 2021-09-20)"
   xmlns:inkscape="http://www.inkscape.org/namespaces/inkscape"
   xmlns:sodipodi="http://sodipodi.sourceforge.net/DTD/sodipodi-0.dtd"
   xmlns="http://www.w3.org/2000/svg"
   xmlns:svg="http://www.w3.org/2000/svg"
   xmlns:rdf="http://www.w3.org/1999/02/22-rdf-syntax-ns#"
   xmlns:cc="http://creativecommons.org/ns#"
   xmlns:dc="http://purl.org/dc/elements/1.1/">
  <sodipodi:namedview
     pagecolor="#ffffff"
     bordercolor="#666666"
     borderopacity="1"
     objecttolerance="10"
     gridtolerance="10"
     guidetolerance="10"
     inkscape:pageopacity="0"
     inkscape:pageshadow="2"
     inkscape:window-width="2880"
     inkscape:window-height="1541"
     id="namedview11"
     showgrid="true"
     inkscape:zoom="8"
     inkscape:cx="20.375"
     inkscape:cy="77.5625"
     inkscape:window-x="-11"
     inkscape:window-y="-11"
     inkscape:window-maximized="1"
     inkscape:current-layer="text5282"
     inkscape:document-rotation="0"
     inkscape:pagecheckerboard="0"
     showguides="true"
     inkscape:guide-bbox="true">
    <inkscape:grid
       type="xygrid"
       id="grid823" />
    <sodipodi:guide
       position="0,86"
       orientation="66,0"
       id="guide957" />
    <sodipodi:guide
       position="0,20"
       orientation="0,50"
       id="guide959" />
    <sodipodi:guide
       position="50,20"
       orientation="-66,0"
       id="guide961" />
    <sodipodi:guide
       position="50,86"
       orientation="0,-50"
       id="guide963" />
    <sodipodi:guide
       position="8.9999971,64.32985"
       orientation="8.5387222,0"
       id="guide1517" />
    <sodipodi:guide
       position="8.9999971,55.791128"
       orientation="0,26.227758"
       id="guide1519" />
    <sodipodi:guide
       position="35,93.437165"
       orientation="-8.5387222,0"
       id="guide1521" />
    <sodipodi:guide
       position="35.227755,64.32985"
       orientation="0,-26.227758"
       id="guide1523" />
    <sodipodi:guide
       position="7.9247812,20.000001"
       orientation="0,-6.8495616"
       id="guide4054" />
    <sodipodi:guide
       position="1.0752196,74.999813"
       orientation="0,6.8495616"
       id="guide4058" />
  </sodipodi:namedview>
  <defs
     id="defs4462" />
  <metadata
     id="metadata4465">
    <rdf:RDF>
      <cc:Work
         rdf:about="">
        <dc:format>image/svg+xml</dc:format>
        <dc:type
           rdf:resource="http://purl.org/dc/dcmitype/StillImage" />
      </cc:Work>
    </rdf:RDF>
  </metadata>
  <g
     aria-label="C"
     id="text3215"
     style="font-size:32px;line-height:1.25"
     transform="translate(-37.75,-4)">
    <g
       aria-label="A"
       id="text5282"
       transform="matrix(1.6290909,0,0,2.8292029,-41.002727,-68.776958)">
      <path
         d="m 65.528761,36.867356 q -5.1388,0 -8.7746,2.174858 -3.615454,2.162704 -3.615454,5.23666 0,3.073958 3.635754,5.24881 3.6358,2.174856 8.7543,2.174856 5.13888,0 8.75433,-2.174856 3.63582,-2.174852 3.63582,-5.24881 0,-3.073956 -3.63582,-5.23666 -3.61545,-2.174858 -8.75433,-2.174858 z m 6.94659,16.487589 q 0.46718,0.170108 0.97497,0.3888 1.4218,0.449548 1.92961,0.546752 0.22341,0.03644 0.42653,0.03644 0.34532,0 0.6906,-0.121487 0.52813,-0.182257 0.69061,-0.534602 0.061,-0.109357 0.14221,-0.899103 h 4.24516 q -0.14222,1.190702 -0.32495,1.579502 -0.64997,1.348654 -2.70145,2.029054 -1.29994,0.449552 -2.72174,0.449552 -0.79217,0 -1.58429,-0.133643 -1.29998,-0.20655 -3.47331,-1.044902 -1.74681,-0.546753 -2.41707,-0.668251 -0.38596,-0.06076 -0.73125,-0.06076 -0.60933,0 -1.17806,0.194402 -0.93434,0.315903 -1.21868,0.947704 -0.0406,0.06076 -0.14199,0.801901 h -4.24513 q 0.1624,-1.154252 0.32494,-1.506603 0.34527,-0.741153 1.05619,-1.312203 -4.79353,-0.546749 -8.449658,-2.733754 -4.874808,-2.916008 -4.874808,-7.034868 0,-4.118856 4.874808,-7.034861 4.874828,-2.916008 11.760448,-2.916008 6.88567,0 11.76045,2.916008 4.87476,2.916005 4.87476,7.034861 0,4.11886 -4.87476,7.034868 -2.19367,1.312201 -4.81391,2.041203 z"
         style="font-weight:bold;font-size:12.7px;line-height:1;font-family:'Caviar Dreams';-inkscape-font-specification:'Caviar Dreams Bold';text-align:center;text-anchor:middle;fill:#000000;stroke:#ffffff;stroke-width:0;stroke-linecap:round"
         id="path484-2" />
    </g>
  </g>
</svg>
