<?xml version="1.0" encoding="UTF-8" standalone="no"?>
<svg
   version="1.1"
   width="44"
   height="100"
   id="svg4460"
   sodipodi:docname="u00a3-£.svg"
   inkscape:version="1.1.1 (3bf5ae0d25, 2021-09-20)"
   xmlns:inkscape="http://www.inkscape.org/namespaces/inkscape"
   xmlns:sodipodi="http://sodipodi.sourceforge.net/DTD/sodipodi-0.dtd"
   xmlns="http://www.w3.org/2000/svg"
   xmlns:svg="http://www.w3.org/2000/svg"
   xmlns:rdf="http://www.w3.org/1999/02/22-rdf-syntax-ns#"
   xmlns:cc="http://creativecommons.org/ns#"
   xmlns:dc="http://purl.org/dc/elements/1.1/">
  <sodipodi:namedview
     pagecolor="#ffffff"
     bordercolor="#666666"
     borderopacity="1"
     objecttolerance="10"
     gridtolerance="10"
     guidetolerance="10"
     inkscape:pageopacity="0"
     inkscape:pageshadow="2"
     inkscape:window-width="2880"
     inkscape:window-height="1541"
     id="namedview11"
     showgrid="true"
     inkscape:zoom="19.442095"
     inkscape:cx="-1.3887393"
     inkscape:cy="51.923418"
     inkscape:window-x="-11"
     inkscape:window-y="-11"
     inkscape:window-maximized="1"
     inkscape:current-layer="text5282"
     inkscape:document-rotation="0"
     inkscape:pagecheckerboard="0"
     showguides="true"
     inkscape:guide-bbox="true">
    <inkscape:grid
       type="xygrid"
       id="grid823" />
    <sodipodi:guide
       position="0,86"
       orientation="66,0"
       id="guide957" />
    <sodipodi:guide
       position="0,20"
       orientation="0,50"
       id="guide959" />
    <sodipodi:guide
       position="50,20"
       orientation="-66,0"
       id="guide961" />
    <sodipodi:guide
       position="50,86"
       orientation="0,-50"
       id="guide963" />
    <sodipodi:guide
       position="8.9999971,64.32985"
       orientation="8.5387222,0"
       id="guide1517" />
    <sodipodi:guide
       position="8.9999971,55.791128"
       orientation="0,26.227758"
       id="guide1519" />
    <sodipodi:guide
       position="35,93.437165"
       orientation="-8.5387222,0"
       id="guide1521" />
    <sodipodi:guide
       position="35.227755,64.32985"
       orientation="0,-26.227758"
       id="guide1523" />
    <sodipodi:guide
       position="7.9247812,20.000001"
       orientation="0,-6.8495616"
       id="guide4054" />
    <sodipodi:guide
       position="1.0752196,74.999813"
       orientation="0,6.8495616"
       id="guide4058" />
  </sodipodi:namedview>
  <defs
     id="defs4462" />
  <metadata
     id="metadata4465">
    <rdf:RDF>
      <cc:Work
         rdf:about="">
        <dc:format>image/svg+xml</dc:format>
        <dc:type
           rdf:resource="http://purl.org/dc/dcmitype/StillImage" />
      </cc:Work>
    </rdf:RDF>
  </metadata>
  <g
     aria-label="C"
     id="text3215"
     style="font-size:32px;line-height:1.25"
     transform="translate(-37.75,-4)">
    <g
       aria-label="A"
       id="text5282"
       transform="matrix(1.6290909,0,0,2.8292029,-41.002727,-68.776958)">
      <path
         d="m 61.035865,45.907136 q 0,3.309101 -3.088622,5.131292 2.050644,-0.758032 4.506342,-0.758032 0.658213,0 1.367073,0.05831 3.240515,0.262396 5.113933,0.262396 1.67088,0 4.759503,-0.451904 l 0.987332,2.973817 q -3.518987,0.495636 -5.746835,0.495636 -2.25316,0 -4.582277,-0.306128 -2.126579,-0.262396 -3.696213,-0.262396 -1.31645,0 -2.202513,0.174931 -2.329117,0.481058 -5.620255,1.443176 l -3.822794,-2.60938 q 3.949374,-2.011698 4.607588,-2.478179 2.151914,-1.472331 2.202537,-3.702695 h -5.544297 v -3.002972 h 4.379738 q -0.02529,-0.04374 -1.037978,-1.195358 -2.759481,-2.565646 -3.113911,-4.956362 -0.05058,-0.29155 -0.05058,-0.597679 0,-2.186631 2.506343,-3.921356 2.810127,-1.924235 7.291135,-2.172054 0.506321,-0.01457 0.987332,-0.01457 3.797482,0 6.835459,1.443175 3.367072,1.66184 3.772148,4.183753 0.101385,0.349861 0.101385,0.685144 0,1.035007 -1.215205,2.653112 l -4.88606,-0.947539 q 0.784794,-1.297401 0.784794,-1.836771 0,-0.160353 -0.02529,-0.306126 -0.202538,-1.268246 -1.924041,-2.099166 -1.518989,-0.728877 -3.417718,-0.728877 -0.278496,0 -0.531657,0.01458 -2.227848,0.102049 -3.670879,1.093315 -1.265827,0.874652 -1.265827,1.95339 0,0.17493 0.02529,0.335284 0.202538,1.341132 1.620258,3.075859 2.101267,1.924235 2.708858,3.338256 h 4.911395 v 3.002972 z"
         style="font-weight:bold;font-size:22.3481px;line-height:1;font-family:'Caviar Dreams';-inkscape-font-specification:'Caviar Dreams Bold';text-align:center;text-anchor:middle;fill:#000000;stroke-width:2.92892"
         id="path22429" />
    </g>
  </g>
</svg>
