<?xml version="1.0" encoding="UTF-8" standalone="no"?>
<svg
   version="1.1"
   width="44"
   height="100"
   id="svg4460"
   sodipodi:docname="u00a4-curren.svg"
   inkscape:version="1.1.1 (3bf5ae0d25, 2021-09-20)"
   xmlns:inkscape="http://www.inkscape.org/namespaces/inkscape"
   xmlns:sodipodi="http://sodipodi.sourceforge.net/DTD/sodipodi-0.dtd"
   xmlns="http://www.w3.org/2000/svg"
   xmlns:svg="http://www.w3.org/2000/svg"
   xmlns:rdf="http://www.w3.org/1999/02/22-rdf-syntax-ns#"
   xmlns:cc="http://creativecommons.org/ns#"
   xmlns:dc="http://purl.org/dc/elements/1.1/">
  <sodipodi:namedview
     pagecolor="#ffffff"
     bordercolor="#666666"
     borderopacity="1"
     objecttolerance="10"
     gridtolerance="10"
     guidetolerance="10"
     inkscape:pageopacity="0"
     inkscape:pageshadow="2"
     inkscape:window-width="2880"
     inkscape:window-height="1541"
     id="namedview11"
     showgrid="true"
     inkscape:zoom="2.8284271"
     inkscape:cx="9.5459415"
     inkscape:cy="-54.977552"
     inkscape:window-x="-11"
     inkscape:window-y="-11"
     inkscape:window-maximized="1"
     inkscape:current-layer="text5282"
     inkscape:document-rotation="0"
     inkscape:pagecheckerboard="0"
     showguides="true"
     inkscape:guide-bbox="true">
    <inkscape:grid
       type="xygrid"
       id="grid823" />
    <sodipodi:guide
       position="0,86"
       orientation="66,0"
       id="guide957" />
    <sodipodi:guide
       position="0,20"
       orientation="0,50"
       id="guide959" />
    <sodipodi:guide
       position="50,20"
       orientation="-66,0"
       id="guide961" />
    <sodipodi:guide
       position="50,86"
       orientation="0,-50"
       id="guide963" />
    <sodipodi:guide
       position="8.9999971,64.32985"
       orientation="8.5387222,0"
       id="guide1517" />
    <sodipodi:guide
       position="8.9999971,55.791128"
       orientation="0,26.227758"
       id="guide1519" />
    <sodipodi:guide
       position="35,93.437165"
       orientation="-8.5387222,0"
       id="guide1521" />
    <sodipodi:guide
       position="35.227755,64.32985"
       orientation="0,-26.227758"
       id="guide1523" />
    <sodipodi:guide
       position="7.9247812,20.000001"
       orientation="0,-6.8495616"
       id="guide4054" />
    <sodipodi:guide
       position="1.0752196,74.999813"
       orientation="0,6.8495616"
       id="guide4058" />
  </sodipodi:namedview>
  <defs
     id="defs4462" />
  <metadata
     id="metadata4465">
    <rdf:RDF>
      <cc:Work
         rdf:about="">
        <dc:format>image/svg+xml</dc:format>
        <dc:type
           rdf:resource="http://purl.org/dc/dcmitype/StillImage" />
      </cc:Work>
    </rdf:RDF>
  </metadata>
  <g
     aria-label="C"
     id="text3215"
     style="font-size:32px;line-height:1.25"
     transform="translate(-37.75,-4)">
    <g
       aria-label="A"
       id="text5282"
       transform="matrix(1.6290909,0,0,2.8292029,-41.002727,-68.776958)">
      <path
         d="m 56.048513,32.596103 q 1.873418,-0.874653 5.797458,-0.874653 3.949374,0 5.797481,0.874653 l 3.34176,-1.924228 3.696214,2.142901 -3.341784,1.924228 q 1.5443,1.064163 1.5443,3.33825 0,2.259525 -1.5443,3.323688 l 3.341784,1.924229 -3.696214,2.142901 -3.34176,-1.924242 q -1.848107,0.874653 -5.797481,0.874653 -3.92404,0 -5.797458,-0.874653 l -3.316472,1.924242 -3.721502,-2.142901 3.341761,-1.924229 q -1.518989,-1.064163 -1.518989,-3.323688 0,-2.274087 1.518989,-3.33825 l -3.341761,-1.924228 3.721502,-2.142901 z m 9.265822,2.798894 q -1.493677,-0.655993 -3.468364,-0.655993 -1.974687,0 -3.443029,0.655993 -0.35443,0.145773 -0.632926,0.306121 -0.303783,0.174936 -0.556944,0.379021 -1.164559,0.860078 -1.164559,1.997115 0,1.13705 1.164559,1.982553 0.227826,0.189511 0.556944,0.364433 0.303807,0.189511 0.632926,0.32071 1.468342,0.655992 3.443029,0.655992 1.974687,0 3.468364,-0.655992 0.329118,-0.145774 0.632902,-0.32071 0.303807,-0.160347 0.531657,-0.364433 1.164558,-0.845503 1.164558,-1.982553 0,-1.137037 -1.164558,-1.997115 -0.253185,-0.204085 -0.531657,-0.379021 -0.278472,-0.145773 -0.632902,-0.306121 z"
         id="path40400"
         style="font-weight:bold;font-size:16.253px;line-height:1;font-family:'Caviar Dreams';-inkscape-font-specification:'Caviar Dreams Bold';text-align:center;text-anchor:middle;fill:#000000;stroke-width:2.92892" />
    </g>
  </g>
</svg>
