<?xml version="1.0" encoding="UTF-8" standalone="no"?>
<svg
   version="1.1"
   width="52"
   height="100"
   id="svg4460"
   sodipodi:docname="u00ae-reg.svg"
   inkscape:version="1.1.1 (3bf5ae0d25, 2021-09-20)"
   xmlns:inkscape="http://www.inkscape.org/namespaces/inkscape"
   xmlns:sodipodi="http://sodipodi.sourceforge.net/DTD/sodipodi-0.dtd"
   xmlns="http://www.w3.org/2000/svg"
   xmlns:svg="http://www.w3.org/2000/svg"
   xmlns:rdf="http://www.w3.org/1999/02/22-rdf-syntax-ns#"
   xmlns:cc="http://creativecommons.org/ns#"
   xmlns:dc="http://purl.org/dc/elements/1.1/">
  <sodipodi:namedview
     pagecolor="#ffffff"
     bordercolor="#666666"
     borderopacity="1"
     objecttolerance="10"
     gridtolerance="10"
     guidetolerance="10"
     inkscape:pageopacity="0"
     inkscape:pageshadow="2"
     inkscape:window-width="2880"
     inkscape:window-height="1541"
     id="namedview11"
     showgrid="true"
     inkscape:zoom="16.000001"
     inkscape:cx="28.624999"
     inkscape:cy="46.531248"
     inkscape:window-x="-11"
     inkscape:window-y="-11"
     inkscape:window-maximized="1"
     inkscape:current-layer="text5282"
     inkscape:document-rotation="0"
     inkscape:pagecheckerboard="0"
     showguides="true"
     inkscape:guide-bbox="true"
     inkscape:lockguides="true">
    <inkscape:grid
       type="xygrid"
       id="grid823" />
    <sodipodi:guide
       position="0,86"
       orientation="66,0"
       id="guide957"
       inkscape:locked="true" />
    <sodipodi:guide
       position="0,20"
       orientation="0,50"
       id="guide959"
       inkscape:locked="true" />
    <sodipodi:guide
       position="50,20"
       orientation="-66,0"
       id="guide961"
       inkscape:locked="true" />
    <sodipodi:guide
       position="50,86"
       orientation="0,-50"
       id="guide963"
       inkscape:locked="true" />
    <sodipodi:guide
       position="8.9999971,64.32985"
       orientation="8.5387222,0"
       id="guide1517"
       inkscape:locked="true" />
    <sodipodi:guide
       position="8.9999971,55.791128"
       orientation="0,26.227758"
       id="guide1519"
       inkscape:locked="true" />
    <sodipodi:guide
       position="35,93.437165"
       orientation="-8.5387222,0"
       id="guide1521"
       inkscape:locked="true" />
    <sodipodi:guide
       position="35.227755,64.32985"
       orientation="0,-26.227758"
       id="guide1523"
       inkscape:locked="true" />
  </sodipodi:namedview>
  <defs
     id="defs4462" />
  <metadata
     id="metadata4465">
    <rdf:RDF>
      <cc:Work
         rdf:about="">
        <dc:format>image/svg+xml</dc:format>
        <dc:type
           rdf:resource="http://purl.org/dc/dcmitype/StillImage" />
      </cc:Work>
    </rdf:RDF>
  </metadata>
  <g
     aria-label="C"
     id="text3215"
     style="font-size:32px;line-height:1.25"
     transform="translate(-37.75,-4)">
    <g
       aria-label="A"
       id="text5282"
       transform="matrix(1.6290909,0,0,2.8292029,-41.002727,-68.776958)">
      <path
         id="path843"
         style="font-weight:bold;font-size:22.3481px;line-height:1;font-family:'Caviar Dreams';-inkscape-font-specification:'Caviar Dreams Bold';text-align:center;text-anchor:middle;fill:#000000;stroke-width:6.288"
         d="M 26.021484 20.634766 C 19.010209 20.634766 13.02922 23.109455 8.0800781 28.058594 C 3.1309374 33.007733 0.65625 38.988723 0.65625 46 C 0.65625 53.011277 3.1309374 58.992267 8.0800781 63.941406 C 13.02922 68.890548 19.010209 71.365234 26.021484 71.365234 C 33.005272 71.365234 38.970806 68.890548 43.919922 63.941406 C 48.869063 58.992267 51.34375 53.011277 51.34375 46 C 51.34375 38.988723 48.869063 33.007733 43.919922 28.058594 C 38.970806 23.109455 33.005272 20.634766 26.021484 20.634766 z M 26.021484 28.472656 C 30.86064 28.472656 34.983192 30.190054 38.392578 33.626953 C 41.829479 37.036366 43.548828 41.160844 43.548828 46 C 43.548828 50.839156 41.829479 54.977161 38.392578 58.414062 C 37.502412 59.311412 36.561678 60.088804 35.574219 60.751953 L 32.099609 51.724609 C 32.115086 51.707917 32.131171 51.692219 32.146484 51.675781 C 34.222285 50.962287 35.924283 50.190597 37.117188 48.779297 C 38.321539 47.354454 38.995072 45.243691 38.984375 42.087891 C 38.975089 39.526992 38.63037 37.497961 37.855469 35.9375 C 37.080567 34.377042 35.894247 33.303385 34.244141 32.560547 C 30.957326 31.080902 25.777235 30.875264 18.076172 30.865234 C 18.044779 30.865195 18.027568 30.865271 17.996094 30.865234 C 17.693992 30.864905 17.379946 30.865217 17.070312 30.865234 C 19.722482 29.270785 22.706404 28.472656 26.021484 28.472656 z M 14.570312 32.693359 L 14.570312 59.347656 C 14.229018 59.050761 13.89268 58.742289 13.564453 58.414062 C 10.155041 54.977161 8.4511719 50.839156 8.4511719 46 C 8.4511719 41.160844 10.155041 37.036366 13.564453 33.626953 C 13.89268 33.298727 14.229018 32.990223 14.570312 32.693359 z M 25.769531 37.544922 L 25.775391 37.544922 C 28.063527 37.542237 29.872567 37.688732 31.058594 38.341797 C 31.651607 38.668321 32.081973 39.111228 32.359375 39.705078 C 32.636778 40.298931 32.771981 41.05135 32.748047 42.076172 C 32.723757 43.117415 32.561301 43.839262 32.269531 44.380859 C 31.977759 44.922459 31.541195 45.298137 30.943359 45.558594 C 29.747691 46.079504 27.93605 46.111281 25.576172 46.238281 C 24.141578 46.315462 22.611563 46.240149 20.777344 46.238281 L 20.777344 37.611328 L 25.769531 37.544922 z M 20.777344 52.978516 L 25.646484 52.978516 L 29.369141 63.271484 C 28.293531 63.468226 27.179057 63.570312 26.021484 63.570312 C 24.169852 63.570312 22.422313 63.319955 20.777344 62.822266 L 20.777344 52.978516 z "
         transform="matrix(0.61383929,0,0,0.35345645,48.341518,25.723485)" />
      <g
         id="path482-1" />
    </g>
  </g>
</svg>
