<?xml version="1.0" encoding="UTF-8" standalone="no"?>
<svg
   version="1.1"
   width="48"
   height="100"
   id="svg4460"
   sodipodi:docname="u00aa-ordf.svg"
   inkscape:version="1.1.1 (3bf5ae0d25, 2021-09-20)"
   xmlns:inkscape="http://www.inkscape.org/namespaces/inkscape"
   xmlns:sodipodi="http://sodipodi.sourceforge.net/DTD/sodipodi-0.dtd"
   xmlns="http://www.w3.org/2000/svg"
   xmlns:svg="http://www.w3.org/2000/svg"
   xmlns:rdf="http://www.w3.org/1999/02/22-rdf-syntax-ns#"
   xmlns:cc="http://creativecommons.org/ns#"
   xmlns:dc="http://purl.org/dc/elements/1.1/">
  <sodipodi:namedview
     pagecolor="#ffffff"
     bordercolor="#666666"
     borderopacity="1"
     objecttolerance="10"
     gridtolerance="10"
     guidetolerance="10"
     inkscape:pageopacity="0"
     inkscape:pageshadow="2"
     inkscape:window-width="2880"
     inkscape:window-height="1541"
     id="namedview11"
     showgrid="true"
     inkscape:zoom="11.313709"
     inkscape:cx="33.499182"
     inkscape:cy="42.470599"
     inkscape:window-x="-11"
     inkscape:window-y="-11"
     inkscape:window-maximized="1"
     inkscape:current-layer="text2801-9"
     inkscape:document-rotation="0"
     inkscape:pagecheckerboard="0"
     showguides="true"
     inkscape:guide-bbox="true"
     inkscape:lockguides="true">
    <inkscape:grid
       type="xygrid"
       id="grid823" />
    <sodipodi:guide
       position="0,86"
       orientation="66,0"
       id="guide957"
       inkscape:locked="true" />
    <sodipodi:guide
       position="0,20"
       orientation="0,50"
       id="guide959"
       inkscape:locked="true" />
    <sodipodi:guide
       position="50,20"
       orientation="-66,0"
       id="guide961"
       inkscape:locked="true" />
    <sodipodi:guide
       position="50,86"
       orientation="0,-50"
       id="guide963"
       inkscape:locked="true" />
    <sodipodi:guide
       position="8.9999971,64.32985"
       orientation="8.5387222,0"
       id="guide1517"
       inkscape:locked="true" />
    <sodipodi:guide
       position="8.9999971,55.791128"
       orientation="0,26.227758"
       id="guide1519"
       inkscape:locked="true" />
    <sodipodi:guide
       position="35,93.437165"
       orientation="-8.5387222,0"
       id="guide1521"
       inkscape:locked="true" />
    <sodipodi:guide
       position="35.227755,64.32985"
       orientation="0,-26.227758"
       id="guide1523"
       inkscape:locked="true" />
  </sodipodi:namedview>
  <defs
     id="defs4462" />
  <metadata
     id="metadata4465">
    <rdf:RDF>
      <cc:Work
         rdf:about="">
        <dc:format>image/svg+xml</dc:format>
        <dc:type
           rdf:resource="http://purl.org/dc/dcmitype/StillImage" />
      </cc:Work>
    </rdf:RDF>
  </metadata>
  <g
     aria-label="C"
     id="text3215"
     style="font-size:32px;line-height:1.25"
     transform="translate(-37.75,-4)">
    <g
       aria-label="A"
       id="text5282"
       transform="matrix(1.6290909,0,0,2.8292029,-41.002727,-68.776958)">
      <g
         aria-label=" a"
         id="text2801-9"
         style="font-weight:bold;font-size:16.253px;line-height:1;font-family:'Caviar Dreams';-inkscape-font-specification:'Caviar Dreams Bold';text-align:center;text-anchor:middle;fill:#000000;stroke-width:1.6637"
         transform="matrix(2.3200225,0,0,1.3358984,-543.97322,189.81904)">
        <path
           id="path42632"
           style="fill:#000000;stroke-width:6.288"
           d="M 24.267578 13.138672 C 17.778709 13.138672 12.238182 15.433693 7.6464844 20.025391 C 3.0822765 24.589573 0.80078125 30.116599 0.80078125 36.605469 C 0.80078125 43.094338 3.0822765 48.634865 7.6464844 53.226562 C 12.238182 57.79077 17.778709 60.072266 24.267578 60.072266 C 29.71161 60.072266 34.496798 57.941432 38.621094 53.679688 L 38.621094 59 L 47.199219 59 L 47.199219 16.519531 L 38.621094 16.519531 L 38.621094 19.490234 C 34.496798 15.255979 29.71161 13.138672 24.267578 13.138672 z M 24.267578 21.921875 C 28.309354 21.921875 31.775105 23.353401 34.662109 26.212891 C 36.806739 28.38501 38.126177 30.803667 38.621094 33.470703 L 38.621094 39.740234 C 38.126177 42.407271 36.806739 44.825927 34.662109 46.998047 C 31.775105 49.857537 28.309354 51.287109 24.267578 51.287109 C 20.198287 51.287109 16.720989 49.857537 13.833984 46.998047 C 10.974495 44.111042 9.5449219 40.64727 9.5449219 36.605469 C 9.5449219 32.536177 10.974495 29.07238 13.833984 26.212891 C 16.720989 23.353401 20.198287 21.921875 24.267578 21.921875 z M -0.0078125 62.986328 L -0.0078125 71.351562 L 48.007812 71.351562 L 48.007812 62.986328 L -0.0078125 62.986328 z "
           transform="matrix(0.26458333,0,0,0.26458333,255.3056,-122.83536)" />
      </g>
    </g>
  </g>
</svg>
