<?xml version="1.0" encoding="UTF-8" standalone="no"?>
<svg
   version="1.1"
   width="36"
   height="100"
   id="svg4460"
   sodipodi:docname="u00a2-cent.svg"
   inkscape:version="1.1.1 (3bf5ae0d25, 2021-09-20)"
   xmlns:inkscape="http://www.inkscape.org/namespaces/inkscape"
   xmlns:sodipodi="http://sodipodi.sourceforge.net/DTD/sodipodi-0.dtd"
   xmlns="http://www.w3.org/2000/svg"
   xmlns:svg="http://www.w3.org/2000/svg"
   xmlns:rdf="http://www.w3.org/1999/02/22-rdf-syntax-ns#"
   xmlns:cc="http://creativecommons.org/ns#"
   xmlns:dc="http://purl.org/dc/elements/1.1/">
  <sodipodi:namedview
     pagecolor="#ffffff"
     bordercolor="#666666"
     borderopacity="1"
     objecttolerance="10"
     gridtolerance="10"
     guidetolerance="10"
     inkscape:pageopacity="0"
     inkscape:pageshadow="2"
     inkscape:window-width="2880"
     inkscape:window-height="1541"
     id="namedview11"
     showgrid="true"
     inkscape:zoom="16.000001"
     inkscape:cx="17.499999"
     inkscape:cy="54.031248"
     inkscape:window-x="-11"
     inkscape:window-y="-11"
     inkscape:window-maximized="1"
     inkscape:current-layer="text5282"
     inkscape:document-rotation="0"
     inkscape:pagecheckerboard="0"
     showguides="true"
     inkscape:guide-bbox="true">
    <inkscape:grid
       type="xygrid"
       id="grid823" />
    <sodipodi:guide
       position="0,86"
       orientation="66,0"
       id="guide957" />
    <sodipodi:guide
       position="0,20"
       orientation="0,50"
       id="guide959" />
    <sodipodi:guide
       position="50,20"
       orientation="-66,0"
       id="guide961" />
    <sodipodi:guide
       position="50,86"
       orientation="0,-50"
       id="guide963" />
    <sodipodi:guide
       position="8.9999971,64.32985"
       orientation="8.5387222,0"
       id="guide1517" />
    <sodipodi:guide
       position="8.9999971,55.791128"
       orientation="0,26.227758"
       id="guide1519" />
    <sodipodi:guide
       position="35,93.437165"
       orientation="-8.5387222,0"
       id="guide1521" />
    <sodipodi:guide
       position="35.227755,64.32985"
       orientation="0,-26.227758"
       id="guide1523" />
    <sodipodi:guide
       position="7.9247812,20.000001"
       orientation="0,-6.8495616"
       id="guide4054" />
    <sodipodi:guide
       position="1.0752196,74.999813"
       orientation="0,6.8495616"
       id="guide4058" />
  </sodipodi:namedview>
  <defs
     id="defs4462" />
  <metadata
     id="metadata4465">
    <rdf:RDF>
      <cc:Work
         rdf:about="">
        <dc:format>image/svg+xml</dc:format>
        <dc:type
           rdf:resource="http://purl.org/dc/dcmitype/StillImage" />
      </cc:Work>
    </rdf:RDF>
  </metadata>
  <g
     aria-label="C"
     id="text3215"
     style="font-size:32px;line-height:1.25"
     transform="translate(-37.75,-4)">
    <g
       aria-label="A"
       id="text5282"
       transform="matrix(1.6290909,0,0,2.8292029,-41.002727,-68.776958)">
      <path
         id="path480-1"
         style="font-weight:bold;font-size:12.7px;line-height:1;font-family:'Caviar Dreams';-inkscape-font-specification:'Caviar Dreams Bold';text-align:center;text-anchor:middle;fill:#000000;stroke:#ffffff;stroke-width:0;stroke-linecap:round"
         d="M 29.994141 15.117188 L 27.466797 24.552734 C 20.219224 24.681561 14.009051 27.421069 8.8417969 32.789062 C 3.547435 38.28904 0.90039062 44.922681 0.90039062 52.691406 C 0.90039062 60.460131 3.547435 67.095719 8.8417969 72.595703 C 10.319317 74.13062 11.885659 75.442268 13.533203 76.548828 L 11 86 L 16.794922 87.552734 L 18.998047 79.328125 C 21.799261 80.336243 24.798363 80.845703 28 80.845703 C 30.45091 80.845703 32.78367 80.547806 35 79.957031 L 35 72.457031 C 32.832046 73.280056 30.499912 73.695312 28 73.695312 C 25.44885 73.695312 23.069442 73.258276 20.857422 72.394531 L 31.669922 32.042969 C 32.820218 32.249614 33.930107 32.554771 35 32.960938 L 35 25.425781 C 34.517335 25.297129 34.026947 25.18857 33.533203 25.087891 L 35.789062 16.669922 L 29.994141 15.117188 z M 25.503906 31.871094 L 15.503906 69.189453 C 14.898934 68.681883 14.309546 68.136422 13.738281 67.542969 C 9.7896334 63.440904 7.8164062 58.489307 7.8164062 52.691406 C 7.8164062 46.893509 9.7784772 41.956105 13.705078 37.876953 C 17.051043 34.401 20.985749 32.401908 25.503906 31.871094 z "
         transform="matrix(0.61383929,0,0,0.35345645,48.341518,25.723485)" />
    </g>
  </g>
</svg>
