<?xml version="1.0" encoding="UTF-8" standalone="no"?>
<svg
   version="1.1"
   width="52"
   height="100"
   id="svg4460"
   sodipodi:docname="u00a9-copy.svg"
   inkscape:version="1.1.1 (3bf5ae0d25, 2021-09-20)"
   xmlns:inkscape="http://www.inkscape.org/namespaces/inkscape"
   xmlns:sodipodi="http://sodipodi.sourceforge.net/DTD/sodipodi-0.dtd"
   xmlns="http://www.w3.org/2000/svg"
   xmlns:svg="http://www.w3.org/2000/svg"
   xmlns:rdf="http://www.w3.org/1999/02/22-rdf-syntax-ns#"
   xmlns:cc="http://creativecommons.org/ns#"
   xmlns:dc="http://purl.org/dc/elements/1.1/">
  <sodipodi:namedview
     pagecolor="#ffffff"
     bordercolor="#666666"
     borderopacity="1"
     objecttolerance="10"
     gridtolerance="10"
     guidetolerance="10"
     inkscape:pageopacity="0"
     inkscape:pageshadow="2"
     inkscape:window-width="2880"
     inkscape:window-height="1541"
     id="namedview11"
     showgrid="true"
     inkscape:zoom="5.6568545"
     inkscape:cx="34.648231"
     inkscape:cy="94.133586"
     inkscape:window-x="-11"
     inkscape:window-y="-11"
     inkscape:window-maximized="1"
     inkscape:current-layer="text5282"
     inkscape:document-rotation="0"
     inkscape:pagecheckerboard="0"
     showguides="true"
     inkscape:guide-bbox="true"
     inkscape:lockguides="true">
    <inkscape:grid
       type="xygrid"
       id="grid823" />
    <sodipodi:guide
       position="0,86"
       orientation="66,0"
       id="guide957"
       inkscape:locked="true" />
    <sodipodi:guide
       position="0,20"
       orientation="0,50"
       id="guide959"
       inkscape:locked="true" />
    <sodipodi:guide
       position="50,20"
       orientation="-66,0"
       id="guide961"
       inkscape:locked="true" />
    <sodipodi:guide
       position="50,86"
       orientation="0,-50"
       id="guide963"
       inkscape:locked="true" />
    <sodipodi:guide
       position="8.9999971,64.32985"
       orientation="8.5387222,0"
       id="guide1517"
       inkscape:locked="true" />
    <sodipodi:guide
       position="8.9999971,55.791128"
       orientation="0,26.227758"
       id="guide1519"
       inkscape:locked="true" />
    <sodipodi:guide
       position="35,93.437165"
       orientation="-8.5387222,0"
       id="guide1521"
       inkscape:locked="true" />
    <sodipodi:guide
       position="35.227755,64.32985"
       orientation="0,-26.227758"
       id="guide1523"
       inkscape:locked="true" />
  </sodipodi:namedview>
  <defs
     id="defs4462" />
  <metadata
     id="metadata4465">
    <rdf:RDF>
      <cc:Work
         rdf:about="">
        <dc:format>image/svg+xml</dc:format>
        <dc:type
           rdf:resource="http://purl.org/dc/dcmitype/StillImage" />
      </cc:Work>
    </rdf:RDF>
  </metadata>
  <g
     aria-label="C"
     id="text3215"
     style="font-size:32px;line-height:1.25"
     transform="translate(-37.75,-4)">
    <g
       aria-label="A"
       id="text5282"
       transform="matrix(1.6290909,0,0,2.8292029,-41.002727,-68.776958)">
      <path
         d="m 68.845637,43.075794 2.278494,2.68227 c -1.805906,1.04958 -3.991561,1.57437 -6.556964,1.57437 -2.565403,0 -4.751058,-0.519932 -6.556963,-1.559795 -1.805906,-1.04958 -2.708859,-2.312966 -2.708859,-3.790158 0,-1.467475 0.902953,-2.721145 2.708859,-3.761008 1.805905,-1.04958 3.99156,-1.57437 6.556963,-1.57437 2.565403,0 4.751058,0.519932 6.556964,1.559795 l -2.278494,2.696845 c -0.624473,-0.456761 -0.995777,-0.719158 -1.113913,-0.787191 -0.860759,-0.495636 -1.915612,-0.743454 -3.164557,-0.743454 -1.248945,0 -2.32068,0.257539 -3.215203,0.772616 -0.877633,0.505353 -1.31645,1.117608 -1.31645,1.836767 0,0.719159 0.438817,1.336273 1.31645,1.851342 0.894523,0.505361 1.966258,0.758042 3.215203,0.758042 1.248945,0 2.312235,-0.252681 3.189869,-0.758042 0.118166,-0.06804 0.481033,-0.320718 1.088601,-0.758029 z m -4.531631,-10.0585 c 4.286922,0 7.949364,0.874653 10.987325,2.623958 3.037977,1.749305 4.556965,3.863048 4.556965,6.341229 0,2.478181 -1.518988,4.591924 -4.556965,6.341229 -3.037961,1.749306 -6.700403,2.623959 -10.987325,2.623959 -4.303796,0 -7.974682,-0.874653 -11.012659,-2.623959 -3.037977,-1.749305 -4.556965,-3.863048 -4.556965,-6.341229 0,-2.478181 1.518988,-4.591924 4.556965,-6.341229 3.037977,-1.749305 6.708863,-2.623958 11.012659,-2.623958 z m 0,2.769731 c -2.987338,0 -5.535859,0.607397 -7.645564,1.822192 -2.092831,1.205079 -3.139246,2.662833 -3.139246,4.373264 0,1.710431 1.046415,3.173044 3.139246,4.387839 2.109705,1.214795 4.658226,1.822192 7.645564,1.822192 2.970464,0 5.502104,-0.607397 7.594919,-1.822192 2.109705,-1.214795 3.164557,-2.677408 3.164557,-4.387839 0,-1.710431 -1.054852,-3.168185 -3.164557,-4.373264 -2.092815,-1.214795 -4.624455,-1.822192 -7.594919,-1.822192 z"
         style="font-weight:bold;font-size:22.3481px;line-height:1;font-family:'Caviar Dreams';-inkscape-font-specification:'Caviar Dreams Bold';text-align:center;text-anchor:middle;fill:#000000;stroke-width:2.92892"
         id="path40410"
         sodipodi:nodetypes="ccscscscccssscsscscscsssssssscscscs" />
    </g>
  </g>
</svg>
