<?xml version="1.0" encoding="UTF-8" standalone="no"?>
<svg
   version="1.1"
   width="43"
   height="100"
   id="svg4460"
   sodipodi:docname="u00a7-sect.svg"
   inkscape:version="1.1.1 (3bf5ae0d25, 2021-09-20)"
   xmlns:inkscape="http://www.inkscape.org/namespaces/inkscape"
   xmlns:sodipodi="http://sodipodi.sourceforge.net/DTD/sodipodi-0.dtd"
   xmlns="http://www.w3.org/2000/svg"
   xmlns:svg="http://www.w3.org/2000/svg"
   xmlns:rdf="http://www.w3.org/1999/02/22-rdf-syntax-ns#"
   xmlns:cc="http://creativecommons.org/ns#"
   xmlns:dc="http://purl.org/dc/elements/1.1/">
  <sodipodi:namedview
     pagecolor="#ffffff"
     bordercolor="#666666"
     borderopacity="1"
     objecttolerance="10"
     gridtolerance="10"
     guidetolerance="10"
     inkscape:pageopacity="0"
     inkscape:pageshadow="2"
     inkscape:window-width="2880"
     inkscape:window-height="1541"
     id="namedview11"
     showgrid="true"
     inkscape:zoom="8.0000004"
     inkscape:cx="-31.249999"
     inkscape:cy="56.437497"
     inkscape:window-x="-11"
     inkscape:window-y="-11"
     inkscape:window-maximized="1"
     inkscape:current-layer="text5282"
     inkscape:document-rotation="0"
     inkscape:pagecheckerboard="0"
     showguides="true"
     inkscape:guide-bbox="true"
     inkscape:lockguides="true">
    <inkscape:grid
       type="xygrid"
       id="grid823" />
    <sodipodi:guide
       position="0,86"
       orientation="66,0"
       id="guide957"
       inkscape:locked="true" />
    <sodipodi:guide
       position="0,20"
       orientation="0,50"
       id="guide959"
       inkscape:locked="true" />
    <sodipodi:guide
       position="50,20"
       orientation="-66,0"
       id="guide961"
       inkscape:locked="true" />
    <sodipodi:guide
       position="50,86"
       orientation="0,-50"
       id="guide963"
       inkscape:locked="true" />
    <sodipodi:guide
       position="8.9999971,64.32985"
       orientation="8.5387222,0"
       id="guide1517"
       inkscape:locked="true" />
    <sodipodi:guide
       position="8.9999971,55.791128"
       orientation="0,26.227758"
       id="guide1519"
       inkscape:locked="true" />
    <sodipodi:guide
       position="35,93.437165"
       orientation="-8.5387222,0"
       id="guide1521"
       inkscape:locked="true" />
    <sodipodi:guide
       position="35.227755,64.32985"
       orientation="0,-26.227758"
       id="guide1523"
       inkscape:locked="true" />
  </sodipodi:namedview>
  <defs
     id="defs4462" />
  <metadata
     id="metadata4465">
    <rdf:RDF>
      <cc:Work
         rdf:about="">
        <dc:format>image/svg+xml</dc:format>
        <dc:type
           rdf:resource="http://purl.org/dc/dcmitype/StillImage" />
      </cc:Work>
    </rdf:RDF>
  </metadata>
  <g
     aria-label="C"
     id="text3215"
     style="font-size:32px;line-height:1.25"
     transform="translate(-37.75,-4)">
    <g
       aria-label="A"
       id="text5282"
       transform="matrix(1.6290909,0,0,2.8292029,-41.002727,-68.776958)">
      <path
         id="path40406"
         style="font-weight:bold;font-size:22.3481px;line-height:1;font-family:'Caviar Dreams';-inkscape-font-specification:'Caviar Dreams Bold';text-align:center;text-anchor:middle;fill:#000000;stroke-width:2.92892"
         d="m 61.652959,29.766143 c -2.616042,0 -4.852544,0.534649 -6.709072,1.603671 -1.83967,1.059296 -2.75868,2.332769 -2.75868,3.819677 -2.24473,1.545225 -3.367724,3.32329 -3.367724,5.334983 0,2.001987 1.232081,3.707675 3.696224,5.116834 2.210966,1.273104 4.894519,2.205839 8.050646,2.798657 1.654006,0.437329 2.937103,0.918717 3.848485,1.443511 0.82701,0.476195 1.239667,1.049081 1.239667,1.719648 0,0.680284 -0.412657,1.258633 -1.239667,1.734836 -0.826995,0.466478 -1.823113,0.70001 -2.987671,0.70001 l -2.084896,2.86493 c 0.666212,0.08214 1.361103,0.123572 2.084896,0.123572 2.632916,0 4.869417,-0.534649 6.709071,-1.603671 1.83967,-1.069021 2.759879,-2.342484 2.759879,-3.819677 2.244714,-1.545216 3.366525,-3.32328 3.366525,-5.334983 0,-2.001977 -1.232097,-3.707675 -3.696224,-5.116834 -2.210965,-1.273112 -4.894519,-2.205839 -8.050646,-2.798657 -1.637132,-0.437329 -2.920212,-0.918726 -3.848484,-1.443511 -0.826995,-0.476203 -1.239668,-1.04908 -1.239668,-1.719648 0,-0.680284 0.412673,-1.253862 1.239668,-1.720339 0.827011,-0.476203 1.823112,-0.714507 2.987671,-0.714507 l 2.088492,-2.861478 c -0.667156,-0.08184 -1.361356,-0.127024 -2.088492,-0.127024 z m -7.008798,9.035231 0.324903,0.236098 c 1.704644,0.991271 3.983842,1.759452 6.836155,2.30368 2.008443,0.476203 3.712484,1.112585 5.11333,1.909493 1.434594,0.835773 2.152034,1.841576 2.152034,3.017496 0,1.107897 -0.493029,1.634046 -0.5479,1.634046 l -0.388445,-0.161541 c -1.721518,-0.981556 -4.009019,-1.749737 -6.861332,-2.30368 -2.008443,-0.466478 -3.704181,-1.102869 -5.088153,-1.909493 -1.451468,-0.826067 -2.177211,-1.827079 -2.177211,-3.002999 0,-1.117613 0.573319,-1.7231 0.636619,-1.7231 z"
         sodipodi:nodetypes="sccscccscccsccscccscccsccccsccccsc" />
    </g>
  </g>
</svg>
