<?xml version="1.0" encoding="UTF-8" standalone="no"?>
<svg
   version="1.1"
   width="15"
   height="100"
   id="svg4460"
   sodipodi:docname="u00b3-sup3.svg"
   inkscape:version="1.1.1 (3bf5ae0d25, 2021-09-20)"
   xmlns:inkscape="http://www.inkscape.org/namespaces/inkscape"
   xmlns:sodipodi="http://sodipodi.sourceforge.net/DTD/sodipodi-0.dtd"
   xmlns="http://www.w3.org/2000/svg"
   xmlns:svg="http://www.w3.org/2000/svg"
   xmlns:rdf="http://www.w3.org/1999/02/22-rdf-syntax-ns#"
   xmlns:cc="http://creativecommons.org/ns#"
   xmlns:dc="http://purl.org/dc/elements/1.1/">
  <sodipodi:namedview
     pagecolor="#ffffff"
     bordercolor="#666666"
     borderopacity="1"
     objecttolerance="10"
     gridtolerance="10"
     guidetolerance="10"
     inkscape:pageopacity="0"
     inkscape:pageshadow="2"
     inkscape:window-width="1920"
     inkscape:window-height="1000"
     id="namedview11"
     showgrid="true"
     inkscape:zoom="11.313709"
     inkscape:cx="4.1542523"
     inkscape:cy="23.334524"
     inkscape:window-x="2869"
     inkscape:window-y="-11"
     inkscape:window-maximized="1"
     inkscape:current-layer="text5282"
     inkscape:document-rotation="0"
     inkscape:pagecheckerboard="0"
     showguides="true"
     inkscape:guide-bbox="true"
     inkscape:snap-global="true"
     inkscape:object-paths="true"
     inkscape:snap-smooth-nodes="true"
     inkscape:snap-bbox="true"
     inkscape:bbox-nodes="true">
    <inkscape:grid
       type="xygrid"
       id="grid823" />
    <sodipodi:guide
       position="0,86"
       orientation="66,0"
       id="guide957" />
    <sodipodi:guide
       position="0,20"
       orientation="0,50"
       id="guide959" />
    <sodipodi:guide
       position="50,20"
       orientation="-66,0"
       id="guide961" />
    <sodipodi:guide
       position="50,86"
       orientation="0,-50"
       id="guide963" />
    <sodipodi:guide
       position="8.9999971,64.32985"
       orientation="8.5387222,0"
       id="guide1517" />
    <sodipodi:guide
       position="20.53125,55.791128"
       orientation="0,26.227758"
       id="guide1519" />
    <sodipodi:guide
       position="35,93.437165"
       orientation="-8.5387222,0"
       id="guide1521" />
    <sodipodi:guide
       position="35.227755,64.32985"
       orientation="0,-26.227758"
       id="guide1523" />
  </sodipodi:namedview>
  <defs
     id="defs4462" />
  <metadata
     id="metadata4465">
    <rdf:RDF>
      <cc:Work
         rdf:about="">
        <dc:format>image/svg+xml</dc:format>
        <dc:type
           rdf:resource="http://purl.org/dc/dcmitype/StillImage" />
      </cc:Work>
    </rdf:RDF>
  </metadata>
  <g
     aria-label="C"
     id="text3215"
     style="font-size:32px;line-height:1.25"
     transform="translate(-37.75,-4)">
    <g
       aria-label="A"
       id="text5282"
       transform="matrix(1.6290909,0,0,2.8292029,-41.002727,-68.776958)">
      <path
         id="path2595"
         style="color:#000000;-inkscape-font-specification:'Caviar Dreams Bold';fill:#000000;stroke-width:1;-inkscape-stroke:none"
         d="M 3.5351562 13.341797 C 3.01994 13.341797 1.748198 13.379721 1.21875 13.480469 L 0.75195312 13.568359 L 1.8359375 19.259766 L 2.1855469 19.083984 C 2.5841968 18.882687 3.0337775 18.773438 3.5351562 18.773438 C 4.3820343 18.773438 5.0724626 19.068572 5.6289062 19.625 L 5.6328125 19.625 C 6.1881647 20.168776 6.3730469 20.684512 6.3730469 21.316406 C 6.3730469 21.949019 6.1636297 22.535364 5.5625 23.171875 L 5.5527344 23.183594 L 5.546875 23.189453 C 4.5923841 24.305707 3.3587657 24.66355 2.0664062 24.753906 L 1.6992188 24.775391 L 1.6992188 30.152344 L 2.0683594 30.173828 C 4.1305245 30.278678 6.6135904 31.332571 7.7675781 32.554688 C 8.819184 33.694285 9.2636719 34.869679 9.2636719 36.185547 C 9.2636719 37.488457 8.828803 38.595531 7.7773438 39.634766 L 7.7734375 39.634766 C 6.7351723 40.673024 5.466245 41.203125 3.9433594 41.203125 C 3.3052217 41.203125 2.7100629 41.108152 2.1542969 40.916016 L 1.8300781 40.800781 L 0.74414062 46.214844 L 1.21875 46.304688 C 1.8235858 46.41579 3.2449877 46.658203 3.9433594 46.658203 C 6.7133254 46.658203 9.0972249 45.681871 11.064453 43.701172 C 13.043403 41.708765 14.117189 39.160844 14.117188 36.185547 C 14.117188 33.240938 13.074966 30.672241 11.150391 28.599609 L 11.142578 28.59375 L 11.132812 28.587891 C 10.120427 27.606517 9.1562515 27.281696 8.1933594 27.001953 C 8.9852263 26.281485 9.7886335 25.564276 10.267578 24.785156 C 10.917049 23.728636 11.289062 22.557317 11.289062 21.316406 C 11.289062 19.051822 10.449484 17.107605 8.953125 15.597656 C 7.4540209 14.084881 5.6416311 13.3418 3.5351562 13.341797 z "
         transform="matrix(0.61383929,0,0,0.35345645,48.341518,25.723485)" />
    </g>
  </g>
</svg>
