<?xml version="1.0" encoding="UTF-8" standalone="no"?>
<svg
   version="1.1"
   width="17"
   height="100"
   id="svg4460"
   sodipodi:docname="u00b8-cedil.svg"
   inkscape:version="1.1.1 (3bf5ae0d25, 2021-09-20)"
   xmlns:inkscape="http://www.inkscape.org/namespaces/inkscape"
   xmlns:sodipodi="http://sodipodi.sourceforge.net/DTD/sodipodi-0.dtd"
   xmlns="http://www.w3.org/2000/svg"
   xmlns:svg="http://www.w3.org/2000/svg"
   xmlns:rdf="http://www.w3.org/1999/02/22-rdf-syntax-ns#"
   xmlns:cc="http://creativecommons.org/ns#"
   xmlns:dc="http://purl.org/dc/elements/1.1/">
  <sodipodi:namedview
     pagecolor="#ffffff"
     bordercolor="#666666"
     borderopacity="1"
     objecttolerance="10"
     gridtolerance="10"
     guidetolerance="10"
     inkscape:pageopacity="0"
     inkscape:pageshadow="2"
     inkscape:window-width="2880"
     inkscape:window-height="1541"
     id="namedview11"
     showgrid="true"
     inkscape:zoom="32"
     inkscape:cx="12.875"
     inkscape:cy="90.390625"
     inkscape:window-x="-11"
     inkscape:window-y="-11"
     inkscape:window-maximized="1"
     inkscape:current-layer="text5282"
     inkscape:document-rotation="0"
     inkscape:pagecheckerboard="0"
     showguides="true"
     inkscape:guide-bbox="true"
     inkscape:showpageshadow="0"
     inkscape:deskcolor="#d1d1d1">
    <inkscape:grid
       type="xygrid"
       id="grid823"
       originx="0"
       originy="0" />
    <sodipodi:guide
       position="0,86"
       orientation="66,0"
       id="guide957"
       inkscape:locked="false" />
    <sodipodi:guide
       position="0,20"
       orientation="0,50"
       id="guide959"
       inkscape:locked="false" />
    <sodipodi:guide
       position="50,20"
       orientation="-66,0"
       id="guide961"
       inkscape:locked="false" />
    <sodipodi:guide
       position="50,86"
       orientation="0,-50"
       id="guide963"
       inkscape:locked="false" />
  </sodipodi:namedview>
  <defs
     id="defs4462" />
  <metadata
     id="metadata4465">
    <rdf:RDF>
      <cc:Work
         rdf:about="">
        <dc:format>image/svg+xml</dc:format>
        <dc:type
           rdf:resource="http://purl.org/dc/dcmitype/StillImage" />
      </cc:Work>
    </rdf:RDF>
  </metadata>
  <g
     aria-label="C"
     id="text3215"
     style="font-size:32px;line-height:1.25"
     transform="translate(-37.75,-4)">
    <g
       aria-label="A"
       id="text5282"
       transform="matrix(1.6290909,0,0,2.8292029,-41.002727,-68.776958)">
      <path
         id="path456"
         style="font-weight:bold;font-size:12.7px;line-height:1;font-family:'Caviar Dreams';-inkscape-font-specification:'Caviar Dreams Bold';text-align:center;text-anchor:middle;fill:#000000;stroke:#ffffff;stroke-width:0;stroke-linecap:round"
         d="m 52.509506,53.31379 -1.355961,1.935036 c 1.451428,0.272113 2.228087,0.544564 2.329472,0.816678 0.01601,0.03887 0.02518,0.07779 0.02518,0.116668 0,0.07774 -0.02495,0.150111 -0.07553,0.218149 -0.15189,0.301268 -0.489863,0.471291 -1.013074,0.510165 -0.08429,0.0098 -0.176761,0.01519 -0.278146,0.01519 -0.607591,0 -1.392606,-0.126322 -2.354649,-0.378999 l -0.885991,1.836317 c 1.535876,0.145774 2.792869,0.218839 3.771755,0.218839 0.421942,0 0.794286,-0.01433 1.114981,-0.04349 1.603367,-0.136057 2.817654,-0.49113 3.644671,-1.064511 0.523189,-0.369297 0.785283,-0.7626 0.785283,-1.18049 0,-0.126337 -0.02495,-0.252663 -0.07553,-0.378999 -0.05058,-0.126339 -0.109925,-0.257438 -0.177438,-0.393496 -0.35443,-0.495635 -1.156068,-0.928551 -2.405003,-1.297848 l 0.37166,-0.332056 z"
         sodipodi:nodetypes="cccsccsccsccsscccc" />
      <g
         aria-label=" Ç"
         id="text2801-7"
         style="font-weight:bold;font-size:16.253px;line-height:1;font-family:'Caviar Dreams';-inkscape-font-specification:'Caviar Dreams Bold';text-align:center;text-anchor:middle;fill:#ff0000;stroke-width:1.6637"
         transform="matrix(2.3200225,0,0,1.3358984,-832.54957,175.34552)" />
    </g>
  </g>
</svg>
