<?xml version="1.0" encoding="UTF-8" standalone="no"?>
<svg
   version="1.1"
   width="33"
   height="100"
   id="svg4460"
   sodipodi:docname="u00bd-frac12.svg"
   inkscape:version="1.1.1 (3bf5ae0d25, 2021-09-20)"
   xmlns:inkscape="http://www.inkscape.org/namespaces/inkscape"
   xmlns:sodipodi="http://sodipodi.sourceforge.net/DTD/sodipodi-0.dtd"
   xmlns="http://www.w3.org/2000/svg"
   xmlns:svg="http://www.w3.org/2000/svg"
   xmlns:rdf="http://www.w3.org/1999/02/22-rdf-syntax-ns#"
   xmlns:cc="http://creativecommons.org/ns#"
   xmlns:dc="http://purl.org/dc/elements/1.1/">
  <sodipodi:namedview
     pagecolor="#ffffff"
     bordercolor="#666666"
     borderopacity="1"
     objecttolerance="10"
     gridtolerance="10"
     guidetolerance="10"
     inkscape:pageopacity="0"
     inkscape:pageshadow="2"
     inkscape:window-width="1920"
     inkscape:window-height="1000"
     id="namedview11"
     showgrid="true"
     inkscape:zoom="11.313708"
     inkscape:cx="20.32932"
     inkscape:cy="38.979261"
     inkscape:window-x="2869"
     inkscape:window-y="-11"
     inkscape:window-maximized="1"
     inkscape:current-layer="path22896"
     inkscape:document-rotation="0"
     inkscape:pagecheckerboard="0"
     showguides="true"
     inkscape:guide-bbox="true"
     inkscape:snap-global="true"
     inkscape:object-paths="true"
     inkscape:snap-smooth-nodes="true"
     inkscape:snap-bbox="true"
     inkscape:bbox-nodes="true">
    <inkscape:grid
       type="xygrid"
       id="grid823" />
    <sodipodi:guide
       position="0,86"
       orientation="66,0"
       id="guide957" />
    <sodipodi:guide
       position="0,20"
       orientation="0,50"
       id="guide959" />
    <sodipodi:guide
       position="50,20"
       orientation="-66,0"
       id="guide961" />
    <sodipodi:guide
       position="50,86"
       orientation="0,-50"
       id="guide963" />
    <sodipodi:guide
       position="8.9999971,64.32985"
       orientation="8.5387222,0"
       id="guide1517" />
    <sodipodi:guide
       position="20.53125,55.791128"
       orientation="0,26.227758"
       id="guide1519" />
    <sodipodi:guide
       position="35,93.437165"
       orientation="-8.5387222,0"
       id="guide1521" />
    <sodipodi:guide
       position="35.227755,64.32985"
       orientation="0,-26.227758"
       id="guide1523" />
  </sodipodi:namedview>
  <defs
     id="defs4462" />
  <metadata
     id="metadata4465">
    <rdf:RDF>
      <cc:Work
         rdf:about="">
        <dc:format>image/svg+xml</dc:format>
        <dc:type
           rdf:resource="http://purl.org/dc/dcmitype/StillImage" />
      </cc:Work>
    </rdf:RDF>
  </metadata>
  <g
     aria-label="C"
     id="text3215"
     style="font-size:32px;line-height:1.25"
     transform="translate(-37.75,-4)">
    <g
       aria-label="A"
       id="text5282"
       transform="matrix(1.6290909,0,0,2.8292029,-41.002727,-68.776958)">
      <g
         id="path22896">
        <g
           id="g6163"
           transform="translate(-0.32846083)">
          <path
             id="path3172"
             style="color:#000000;-inkscape-font-specification:'Caviar Dreams Bold';fill:#000000;stroke-width:0.465796;-inkscape-stroke:none"
             d="m 52.169022,29.573497 -2.986472,3.402709 h 2.159228 v 8.37319 h 3.006853 V 29.573497 Z"
             sodipodi:nodetypes="ccccccc" />
          <path
             id="path3729"
             style="color:#000000;fill:#000000;stroke-width:0.999998;-inkscape-stroke:none"
             d="M 63.618564,34.992742 50.790282,45.769022 V 48.81068 L 63.618564,38.03371 Z" />
          <path
             id="path2940"
             style="color:#000000;font-size:32px;line-height:1.25;-inkscape-font-specification:'Caviar Dreams Bold';fill:#000000;stroke-width:0.465796;-inkscape-stroke:none"
             d="m 62.065377,42.222032 c -1.171842,1e-6 -2.233549,0.167107 -3.183093,0.502571 l -0.384848,0.136688 1.877485,1.564321 0.121089,-0.03728 c 0.469604,-0.145073 0.991253,-0.218839 1.569367,-0.218839 0.946701,0 1.73775,0.190841 2.383422,0.562631 0.652734,0.371482 0.922198,0.768038 0.923157,1.234336 -0.01581,0.559762 -0.46298,1.122961 -1.180921,1.695487 -0.719441,0.573722 -1.68006,1.141239 -2.604021,1.736216 -0.923961,0.594977 -1.813799,1.215279 -2.400208,1.935727 -0.586409,0.720446 -0.857229,1.585691 -0.47117,2.521138 L 58.776786,54 h 0.154658 9.454564 V 52.081533 H 62.45023 c 0.221972,-0.250157 0.42761,-0.500216 0.894383,-0.810465 0.653372,-0.434275 1.470946,-0.907669 2.256339,-1.427632 0.785392,-0.519964 1.54107,-1.085004 2.077702,-1.726552 0.530311,-0.633993 0.843049,-1.368131 0.701359,-2.166302 -0.0079,-1.059433 -0.669556,-1.965735 -1.891871,-2.669562 -1.221897,-0.708407 -2.701871,-1.058988 -4.42276,-1.058989 z" />
        </g>
      </g>
    </g>
  </g>
</svg>
