<?xml version="1.0" encoding="UTF-8" standalone="no"?>
<svg
   version="1.1"
   width="20"
   height="100"
   id="svg4460"
   sodipodi:docname="u00cf-Iuml.svg"
   inkscape:version="1.1.1 (3bf5ae0d25, 2021-09-20)"
   xmlns:inkscape="http://www.inkscape.org/namespaces/inkscape"
   xmlns:sodipodi="http://sodipodi.sourceforge.net/DTD/sodipodi-0.dtd"
   xmlns="http://www.w3.org/2000/svg"
   xmlns:svg="http://www.w3.org/2000/svg"
   xmlns:rdf="http://www.w3.org/1999/02/22-rdf-syntax-ns#"
   xmlns:cc="http://creativecommons.org/ns#"
   xmlns:dc="http://purl.org/dc/elements/1.1/">
  <sodipodi:namedview
     pagecolor="#ffffff"
     bordercolor="#666666"
     borderopacity="1"
     objecttolerance="10"
     gridtolerance="10"
     guidetolerance="10"
     inkscape:pageopacity="0"
     inkscape:pageshadow="2"
     inkscape:window-width="1920"
     inkscape:window-height="1000"
     id="namedview11"
     showgrid="true"
     inkscape:zoom="11.313709"
     inkscape:cx="-9.8111066"
     inkscape:cy="21.301592"
     inkscape:window-x="2869"
     inkscape:window-y="-11"
     inkscape:window-maximized="1"
     inkscape:current-layer="text5282"
     inkscape:document-rotation="0"
     inkscape:pagecheckerboard="0"
     showguides="true"
     inkscape:guide-bbox="true"
     inkscape:lockguides="true">
    <inkscape:grid
       type="xygrid"
       id="grid823" />
    <sodipodi:guide
       position="0,86"
       orientation="66,0"
       id="guide957"
       inkscape:locked="true" />
    <sodipodi:guide
       position="0,20"
       orientation="0,50"
       id="guide959"
       inkscape:locked="true" />
    <sodipodi:guide
       position="50,20"
       orientation="-66,0"
       id="guide961"
       inkscape:locked="true" />
    <sodipodi:guide
       position="50,86"
       orientation="0,-50"
       id="guide963"
       inkscape:locked="true" />
    <sodipodi:guide
       position="8.9999971,64.32985"
       orientation="8.5387222,0"
       id="guide1517"
       inkscape:locked="true" />
    <sodipodi:guide
       position="8.9999971,55.791128"
       orientation="0,26.227758"
       id="guide1519"
       inkscape:locked="true" />
    <sodipodi:guide
       position="35,93.437165"
       orientation="-8.5387222,0"
       id="guide1521"
       inkscape:locked="true" />
    <sodipodi:guide
       position="35.227755,64.32985"
       orientation="0,-26.227758"
       id="guide1523"
       inkscape:locked="true" />
  </sodipodi:namedview>
  <defs
     id="defs4462" />
  <metadata
     id="metadata4465">
    <rdf:RDF>
      <cc:Work
         rdf:about="">
        <dc:format>image/svg+xml</dc:format>
        <dc:type
           rdf:resource="http://purl.org/dc/dcmitype/StillImage" />
      </cc:Work>
    </rdf:RDF>
  </metadata>
  <g
     aria-label="C"
     id="text3215"
     style="font-size:32px;line-height:1.25"
     transform="translate(-37.75,-4)">
    <g
       aria-label="A"
       id="text5282"
       transform="matrix(1.6290909,0,0,2.8292029,-41.002727,-68.776958)">
      <path
         d="M 51.957208,30.671959 V 54 h 5.045407 V 30.671959 Z"
         style="font-weight:bold;font-size:12.7px;line-height:1;font-family:'Caviar Dreams';-inkscape-font-specification:'Caviar Dreams Bold';text-align:center;text-anchor:middle;fill:#000000;stroke:#ffffff;stroke-width:0;stroke-linecap:round"
         id="path468" />
      <path
         id="path1393"
         style="font-weight:bold;font-size:12.7px;line-height:1;font-family:'Caviar Dreams';-inkscape-font-specification:'Caviar Dreams Bold';text-align:center;text-anchor:middle;fill:#000000;stroke:#ffffff;stroke-width:0;stroke-linecap:round"
         d="m 49.758623,25.730388 c -1.046422,0 -1.925134,0.208938 -2.633994,0.626833 -0.708859,0.417887 -1.062229,0.913617 -1.062229,1.487003 0,0.583101 0.35337,1.078832 1.062229,1.487002 0.70886,0.417886 1.587572,0.626833 2.633994,0.626833 1.012643,0 1.872368,-0.208947 2.581243,-0.626833 0.708857,-0.40817 1.063428,-0.903901 1.063428,-1.487002 0,-0.573386 -0.354571,-1.069116 -1.063428,-1.487003 -0.708875,-0.417895 -1.5686,-0.626833 -2.581243,-0.626833 z m 9.494128,0 c -1.046415,0 -1.923937,0.208938 -2.632795,0.626833 -0.70886,0.417887 -1.063429,0.913617 -1.063429,1.487003 0,0.583101 0.354569,1.078832 1.063429,1.487002 0.708858,0.417886 1.58638,0.626833 2.632795,0.626833 1.012657,0 1.873581,-0.208947 2.582441,-0.626833 0.708861,-0.40817 1.06223,-0.903901 1.06223,-1.487002 0,-0.573386 -0.353369,-1.069116 -1.06223,-1.487003 -0.70886,-0.417895 -1.569784,-0.626833 -2.582441,-0.626833 z" />
    </g>
  </g>
</svg>
