<?xml version="1.0" encoding="UTF-8" standalone="no"?>
<svg
   version="1.1"
   width="28"
   height="100"
   id="svg4460"
   sodipodi:docname="u00c7-Ccedil.svg"
   inkscape:version="1.2.2 (732a01da63, 2022-12-09)"
   xmlns:inkscape="http://www.inkscape.org/namespaces/inkscape"
   xmlns:sodipodi="http://sodipodi.sourceforge.net/DTD/sodipodi-0.dtd"
   xmlns="http://www.w3.org/2000/svg"
   xmlns:svg="http://www.w3.org/2000/svg"
   xmlns:rdf="http://www.w3.org/1999/02/22-rdf-syntax-ns#"
   xmlns:cc="http://creativecommons.org/ns#"
   xmlns:dc="http://purl.org/dc/elements/1.1/">
  <sodipodi:namedview
     pagecolor="#ffffff"
     bordercolor="#666666"
     borderopacity="1"
     objecttolerance="10"
     gridtolerance="10"
     guidetolerance="10"
     inkscape:pageopacity="0"
     inkscape:pageshadow="2"
     inkscape:window-width="1920"
     inkscape:window-height="1009"
     id="namedview11"
     showgrid="true"
     inkscape:zoom="8.0000004"
     inkscape:cx="26.187499"
     inkscape:cy="61.374997"
     inkscape:window-x="-8"
     inkscape:window-y="-8"
     inkscape:window-maximized="1"
     inkscape:current-layer="text5282"
     inkscape:document-rotation="0"
     inkscape:pagecheckerboard="0"
     showguides="true"
     inkscape:guide-bbox="true"
     inkscape:showpageshadow="0"
     inkscape:deskcolor="#d1d1d1">
    <inkscape:grid
       type="xygrid"
       id="grid823"
       originx="0"
       originy="0" />
    <sodipodi:guide
       position="0,86"
       orientation="66,0"
       id="guide957"
       inkscape:locked="false" />
    <sodipodi:guide
       position="0,20"
       orientation="0,50"
       id="guide959"
       inkscape:locked="false" />
    <sodipodi:guide
       position="50,20"
       orientation="-66,0"
       id="guide961"
       inkscape:locked="false" />
    <sodipodi:guide
       position="50,86"
       orientation="0,-50"
       id="guide963"
       inkscape:locked="false" />
  </sodipodi:namedview>
  <defs
     id="defs4462" />
  <metadata
     id="metadata4465">
    <rdf:RDF>
      <cc:Work
         rdf:about="">
        <dc:format>image/svg+xml</dc:format>
        <dc:type
           rdf:resource="http://purl.org/dc/dcmitype/StillImage" />
      </cc:Work>
    </rdf:RDF>
  </metadata>
  <g
     aria-label="C"
     id="text3215"
     style="font-size:32px;line-height:1.25"
     transform="translate(-37.75,-4)">
    <g
       aria-label="A"
       id="text5282"
       transform="matrix(1.6290909,0,0,2.8292029,-41.002727,-68.776958)">
      <path
         id="path456"
         style="font-weight:bold;font-size:12.7px;line-height:1;font-family:'Caviar Dreams';-inkscape-font-specification:'Caviar Dreams Bold';text-align:center;text-anchor:middle;fill:#000000;stroke:#ffffff;stroke-width:0;stroke-linecap:round"
         d="m 63.787005,30.305985 v 6.9e-4 c -4.196893,0 -7.77493,1.165868 -10.733796,3.498666 -2.95887,2.332797 -4.438346,5.142372 -4.438346,8.427728 0,3.295078 1.479476,6.10396 4.438346,8.427036 1.665016,1.307245 3.526211,2.24629 5.5833,2.817987 l -1.096998,1.770734 c 1.451428,0.272113 2.228087,0.544564 2.329472,0.816678 0.01601,0.03887 0.02518,0.07779 0.02518,0.116668 0,0.07774 -0.02495,0.150111 -0.07553,0.218149 -0.15189,0.301268 -0.489863,0.471291 -1.013074,0.510165 -0.08429,0.0098 -0.176761,0.01519 -0.278146,0.01519 -0.607591,0 -1.392606,-0.126322 -2.354649,-0.378999 l -0.885991,1.836317 c 1.535876,0.145774 2.792869,0.218839 3.771755,0.218839 0.421942,0 0.794286,-0.01433 1.114981,-0.04349 1.603367,-0.136057 2.817654,-0.49113 3.644671,-1.064511 0.523189,-0.369297 0.785283,-0.7626 0.785283,-1.18049 0,-0.126337 -0.02495,-0.252663 -0.07553,-0.378999 -0.05058,-0.126339 -0.109925,-0.257438 -0.177438,-0.393496 -0.35443,-0.495635 -1.156068,-0.928551 -2.405003,-1.297848 l 0.112697,-0.167754 c 0.564183,0.04569 1.140299,0.06973 1.728821,0.06973 0.378184,0 0.753897,-0.0124 1.128169,-0.0359 v -3.0458 c -0.374273,0.03209 -0.750099,0.04901 -1.128169,0.04901 -7.922502,-0.466498 -10.261427,-5.344651 -10.261427,-8.879212 0,-3.888018 3.171165,-8.789672 10.261427,-8.865406 0.378061,0 0.753893,0.01643 1.128169,0.04832 v -3.074104 c -0.374277,-0.02349 -0.74998,-0.0359 -1.128169,-0.0359 z" />
      <g
         aria-label=" Ç"
         id="text2801-7"
         style="font-weight:bold;font-size:16.253px;line-height:1;font-family:'Caviar Dreams';-inkscape-font-specification:'Caviar Dreams Bold';text-align:center;text-anchor:middle;fill:#ff0000;stroke-width:1.6637"
         transform="matrix(2.3200225,0,0,1.3358984,-832.54957,175.34552)" />
    </g>
  </g>
</svg>
