<?xml version="1.0" encoding="UTF-8" standalone="no"?>
<svg
   version="1.1"
   width="41"
   height="100"
   id="svg4460"
   sodipodi:docname="u00c7 - Ccedil.svg"
   inkscape:version="1.1.1 (3bf5ae0d25, 2021-09-20)"
   xmlns:inkscape="http://www.inkscape.org/namespaces/inkscape"
   xmlns:sodipodi="http://sodipodi.sourceforge.net/DTD/sodipodi-0.dtd"
   xmlns="http://www.w3.org/2000/svg"
   xmlns:svg="http://www.w3.org/2000/svg"
   xmlns:rdf="http://www.w3.org/1999/02/22-rdf-syntax-ns#"
   xmlns:cc="http://creativecommons.org/ns#"
   xmlns:dc="http://purl.org/dc/elements/1.1/">
  <sodipodi:namedview
     pagecolor="#ffffff"
     bordercolor="#666666"
     borderopacity="1"
     objecttolerance="10"
     gridtolerance="10"
     guidetolerance="10"
     inkscape:pageopacity="0"
     inkscape:pageshadow="2"
     inkscape:window-width="2880"
     inkscape:window-height="1541"
     id="namedview11"
     showgrid="true"
     inkscape:zoom="11.313709"
     inkscape:cx="1.8561553"
     inkscape:cy="71.638756"
     inkscape:window-x="-11"
     inkscape:window-y="-11"
     inkscape:window-maximized="1"
     inkscape:current-layer="text5282"
     inkscape:document-rotation="0"
     inkscape:pagecheckerboard="0"
     showguides="true"
     inkscape:guide-bbox="true">
    <inkscape:grid
       type="xygrid"
       id="grid823" />
    <sodipodi:guide
       position="0,86"
       orientation="66,0"
       id="guide957" />
    <sodipodi:guide
       position="0,20"
       orientation="0,50"
       id="guide959" />
    <sodipodi:guide
       position="50,20"
       orientation="-66,0"
       id="guide961" />
    <sodipodi:guide
       position="50,86"
       orientation="0,-50"
       id="guide963" />
  </sodipodi:namedview>
  <defs
     id="defs4462" />
  <metadata
     id="metadata4465">
    <rdf:RDF>
      <cc:Work
         rdf:about="">
        <dc:format>image/svg+xml</dc:format>
        <dc:type
           rdf:resource="http://purl.org/dc/dcmitype/StillImage" />
      </cc:Work>
    </rdf:RDF>
  </metadata>
  <g
     aria-label="C"
     id="text3215"
     style="font-size:32px;line-height:1.25"
     transform="translate(-37.75,-4)">
    <g
       aria-label="A"
       id="text5282"
       transform="matrix(1.6290909,0,0,2.8292029,-41.002727,-68.776958)">
      <path
         id="path456"
         style="font-weight:bold;font-size:12.7px;line-height:1;font-family:'Caviar Dreams';-inkscape-font-specification:'Caviar Dreams Bold';text-align:center;text-anchor:middle;fill:#000000;stroke:#ffffff;stroke-width:0;stroke-linecap:round"
         d="M 33.087891 13.277344 C 24.114029 13.277344 16.463414 16.577761 10.136719 23.177734 C 3.8100172 29.777705 0.64648438 37.726529 0.64648438 47.021484 C 0.64648438 56.343946 3.8100172 64.290814 10.136719 70.863281 C 15.150717 76.072064 20.997193 79.214175 27.673828 80.294922 L 25.996094 84.833984 C 28.360604 85.603848 29.62585 86.374664 29.791016 87.144531 C 29.817094 87.254516 29.832031 87.364625 29.832031 87.474609 C 29.832031 87.694559 29.791378 87.899306 29.708984 88.091797 C 29.461539 88.944145 28.910953 89.425172 28.058594 89.535156 C 27.921284 89.562785 27.770634 89.578125 27.605469 89.578125 C 26.615648 89.578125 25.336788 89.220734 23.769531 88.505859 L 22.326172 93.701172 C 24.828257 94.113601 26.876007 94.320312 28.470703 94.320312 C 29.158086 94.320312 29.764665 94.279773 30.287109 94.197266 C 32.899141 93.812332 34.877321 92.807762 36.224609 91.185547 C 37.076931 90.14073 37.503906 89.027996 37.503906 87.845703 C 37.503906 87.488266 37.463253 87.130867 37.380859 86.773438 C 37.298466 86.416 37.201781 86.04509 37.091797 85.660156 C 36.514398 84.257902 35.208461 83.033098 33.173828 81.988281 L 33.669922 80.712891 C 35.808667 80.670423 37.918055 80.39779 40 79.890625 L 40 71.003906 C 37.730693 71.761391 35.42628 72.142578 33.087891 72.142578 C 26.443534 72.142578 20.752077 69.693807 16.013672 64.798828 C 11.301735 59.903852 8.9453125 53.978955 8.9453125 47.021484 C 8.9453125 40.091513 11.301735 34.178174 16.013672 29.283203 C 20.752077 24.388215 26.443534 21.941406 33.087891 21.941406 C 35.426216 21.941406 37.73075 22.316739 40 23.074219 L 40 14.109375 C 37.729244 13.556201 35.426488 13.277344 33.087891 13.277344 z "
         transform="matrix(0.61383929,0,0,0.35345645,48.341518,25.723485)" />
      <g
         aria-label=" Ç"
         id="text2801-7"
         style="font-weight:bold;font-size:16.253px;line-height:1;font-family:'Caviar Dreams';-inkscape-font-specification:'Caviar Dreams Bold';text-align:center;text-anchor:middle;fill:#ff0000;stroke-width:1.6637"
         transform="matrix(2.3200225,0,0,1.3358984,-832.54957,175.34552)" />
    </g>
  </g>
</svg>
