<?xml version="1.0" encoding="UTF-8" standalone="no"?>
<svg
   version="1.1"
   width="39"
   height="100"
   id="svg4460"
   sodipodi:docname="u00c5-Aring.svg"
   inkscape:version="1.2.2 (732a01da63, 2022-12-09)"
   xmlns:inkscape="http://www.inkscape.org/namespaces/inkscape"
   xmlns:sodipodi="http://sodipodi.sourceforge.net/DTD/sodipodi-0.dtd"
   xmlns="http://www.w3.org/2000/svg"
   xmlns:svg="http://www.w3.org/2000/svg"
   xmlns:rdf="http://www.w3.org/1999/02/22-rdf-syntax-ns#"
   xmlns:cc="http://creativecommons.org/ns#"
   xmlns:dc="http://purl.org/dc/elements/1.1/">
  <sodipodi:namedview
     pagecolor="#ffffff"
     bordercolor="#666666"
     borderopacity="1"
     objecttolerance="10"
     gridtolerance="10"
     guidetolerance="10"
     inkscape:pageopacity="0"
     inkscape:pageshadow="2"
     inkscape:window-width="1920"
     inkscape:window-height="1009"
     id="namedview11"
     showgrid="true"
     inkscape:zoom="8.0000004"
     inkscape:cx="10.4375"
     inkscape:cy="65.624997"
     inkscape:window-x="-8"
     inkscape:window-y="-8"
     inkscape:window-maximized="1"
     inkscape:current-layer="svg4460"
     inkscape:document-rotation="0"
     inkscape:pagecheckerboard="0"
     showguides="true"
     inkscape:guide-bbox="true"
     inkscape:showpageshadow="0"
     inkscape:deskcolor="#d1d1d1">
    <inkscape:grid
       type="xygrid"
       id="grid823"
       originx="0"
       originy="0" />
    <sodipodi:guide
       position="0,86"
       orientation="66,0"
       id="guide957"
       inkscape:locked="false" />
    <sodipodi:guide
       position="0,20"
       orientation="0,50"
       id="guide959"
       inkscape:locked="false" />
    <sodipodi:guide
       position="50,20"
       orientation="-66,0"
       id="guide961"
       inkscape:locked="false" />
  </sodipodi:namedview>
  <defs
     id="defs4462" />
  <metadata
     id="metadata4465">
    <rdf:RDF>
      <cc:Work
         rdf:about="">
        <dc:format>image/svg+xml</dc:format>
        <dc:type
           rdf:resource="http://purl.org/dc/dcmitype/StillImage" />
      </cc:Work>
    </rdf:RDF>
  </metadata>
  <path
     id="path845-6"
     style="font-weight:bold;font-size:12.7px;line-height:1;font-family:'Caviar Dreams';-inkscape-font-specification:'Caviar Dreams Bold';text-align:center;text-anchor:middle;fill:#000000;stroke:#ffffff;stroke-width:0;stroke-linecap:round"
     d="M 19.5 0 C 15.108381 0 11.5 3.6083809 11.5 8 C 11.5 11.729123 14.102304 14.891865 17.576172 15.761719 L 18.056641 15.761719 L 0.5 80 L 9 80 L 9.0097656 80 L 9.0546875 79.798828 L 14.189453 60.652344 L 24.806641 60.652344 L 29.990234 80 L 38.5 80 L 20.943359 15.761719 L 21.423828 15.761719 C 24.897696 14.891865 27.5 11.729123 27.5 8 C 27.5 3.6083809 23.891619 0 19.5 0 z M 19.5 5 C 21.156852 5 22.5 6.3431469 22.5 8 C 22.5 9.6093498 21.231683 10.918204 19.640625 10.992188 L 19.5 10.480469 L 19.359375 10.992188 C 17.768316 10.918204 16.5 9.6093498 16.5 8 C 16.5 6.3431469 17.843147 5 19.5 5 z M 19.5 40.849609 L 22.517578 52.113281 L 16.478516 52.113281 L 19.5 40.849609 z " />
</svg>
