<?xml version="1.0" encoding="UTF-8" standalone="no"?>
<svg
   version="1.1"
   width="37"
   height="100"
   id="svg4460"
   sodipodi:docname="u00cb-Euml.svg"
   inkscape:version="1.1.1 (3bf5ae0d25, 2021-09-20)"
   xmlns:inkscape="http://www.inkscape.org/namespaces/inkscape"
   xmlns:sodipodi="http://sodipodi.sourceforge.net/DTD/sodipodi-0.dtd"
   xmlns="http://www.w3.org/2000/svg"
   xmlns:svg="http://www.w3.org/2000/svg"
   xmlns:rdf="http://www.w3.org/1999/02/22-rdf-syntax-ns#"
   xmlns:cc="http://creativecommons.org/ns#"
   xmlns:dc="http://purl.org/dc/elements/1.1/">
  <sodipodi:namedview
     pagecolor="#ffffff"
     bordercolor="#666666"
     borderopacity="1"
     objecttolerance="10"
     gridtolerance="10"
     guidetolerance="10"
     inkscape:pageopacity="0"
     inkscape:pageshadow="2"
     inkscape:window-width="2880"
     inkscape:window-height="1541"
     id="namedview11"
     showgrid="true"
     inkscape:zoom="11.313709"
     inkscape:cx="-2.0329319"
     inkscape:cy="15.070213"
     inkscape:window-x="-11"
     inkscape:window-y="-11"
     inkscape:window-maximized="1"
     inkscape:current-layer="text5282"
     inkscape:document-rotation="0"
     inkscape:pagecheckerboard="0"
     showguides="true"
     inkscape:guide-bbox="true">
    <inkscape:grid
       type="xygrid"
       id="grid823" />
    <sodipodi:guide
       position="0,86"
       orientation="66,0"
       id="guide957" />
    <sodipodi:guide
       position="0,20"
       orientation="0,50"
       id="guide959" />
    <sodipodi:guide
       position="50,20"
       orientation="-66,0"
       id="guide961" />
    <sodipodi:guide
       position="50,86"
       orientation="0,-50"
       id="guide963" />
    <sodipodi:guide
       position="8.9999971,64.32985"
       orientation="8.5387222,0"
       id="guide1517" />
    <sodipodi:guide
       position="8.9999971,55.791128"
       orientation="0,26.227758"
       id="guide1519" />
    <sodipodi:guide
       position="35,93.437165"
       orientation="-8.5387222,0"
       id="guide1521" />
    <sodipodi:guide
       position="35.227755,64.32985"
       orientation="0,-26.227758"
       id="guide1523" />
  </sodipodi:namedview>
  <defs
     id="defs4462" />
  <metadata
     id="metadata4465">
    <rdf:RDF>
      <cc:Work
         rdf:about="">
        <dc:format>image/svg+xml</dc:format>
        <dc:type
           rdf:resource="http://purl.org/dc/dcmitype/StillImage" />
      </cc:Work>
    </rdf:RDF>
  </metadata>
  <g
     aria-label="C"
     id="text3215"
     style="font-size:32px;line-height:1.25"
     transform="translate(-37.75,-4)">
    <g
       aria-label="A"
       id="text5282"
       transform="matrix(1.6290909,0,0,2.8292029,-41.002727,-68.776958)">
      <path
         d="m 70.132813,30.671875 v 3.018067 l -15.825132,8.1e-5 v 4.641306 l 15.825132,-8.1e-5 v 3.018066 l -15.825132,8.1e-5 v 9.617959 l 15.825132,-8.1e-5 v 3.032646 L 49.262277,54 V 30.671956 Z"
         style="font-weight:bold;font-size:12.7px;line-height:1;font-family:'Caviar Dreams';-inkscape-font-specification:'Caviar Dreams Bold';text-align:center;text-anchor:middle;fill:#000000;stroke:#ffffff;stroke-width:0;stroke-linecap:round"
         id="path460"
         sodipodi:nodetypes="ccccccccccccc" />
      <path
         id="path1070"
         style="font-weight:bold;font-size:12.7px;line-height:1;font-family:'Caviar Dreams';-inkscape-font-specification:'Caviar Dreams Bold';text-align:center;text-anchor:middle;fill:#000000;stroke:#ffffff;stroke-width:0;stroke-linecap:round"
         d="m 54.362418,25.723485 c -1.046423,0 -1.925133,0.208937 -2.633994,0.626833 -0.708859,0.417887 -1.06223,0.913616 -1.06223,1.487002 0,0.583102 0.353371,1.078833 1.06223,1.487003 0.708861,0.417887 1.587571,0.626833 2.633994,0.626833 1.012644,0 1.872367,-0.208946 2.581242,-0.626833 0.708858,-0.40817 1.063429,-0.903901 1.063429,-1.487003 0,-0.573386 -0.354571,-1.069115 -1.063429,-1.487002 -0.708875,-0.417896 -1.568598,-0.626833 -2.581242,-0.626833 z m 10.721806,0 c -1.046415,0 -1.923937,0.208937 -2.632795,0.626833 -0.708861,0.417887 -1.063429,0.913616 -1.063429,1.487002 0,0.583102 0.354568,1.078833 1.063429,1.487003 0.708858,0.417887 1.58638,0.626833 2.632795,0.626833 1.012659,0 1.873581,-0.208946 2.582441,-0.626833 0.708861,-0.40817 1.06223,-0.903901 1.06223,-1.487003 0,-0.573386 -0.353369,-1.069115 -1.06223,-1.487002 -0.70886,-0.417896 -1.569782,-0.626833 -2.582441,-0.626833 z" />
    </g>
  </g>
</svg>
