<?xml version="1.0" encoding="UTF-8" standalone="no"?>
<svg
   version="1.1"
   width="67"
   height="100"
   id="svg4460"
   sodipodi:docname="u00d8-Oslash.svg"
   inkscape:version="1.1.1 (3bf5ae0d25, 2021-09-20)"
   xmlns:inkscape="http://www.inkscape.org/namespaces/inkscape"
   xmlns:sodipodi="http://sodipodi.sourceforge.net/DTD/sodipodi-0.dtd"
   xmlns="http://www.w3.org/2000/svg"
   xmlns:svg="http://www.w3.org/2000/svg"
   xmlns:rdf="http://www.w3.org/1999/02/22-rdf-syntax-ns#"
   xmlns:cc="http://creativecommons.org/ns#"
   xmlns:dc="http://purl.org/dc/elements/1.1/">
  <sodipodi:namedview
     pagecolor="#ffffff"
     bordercolor="#666666"
     borderopacity="1"
     objecttolerance="10"
     gridtolerance="10"
     guidetolerance="10"
     inkscape:pageopacity="0"
     inkscape:pageshadow="2"
     inkscape:window-width="2880"
     inkscape:window-height="1541"
     id="namedview11"
     showgrid="true"
     inkscape:zoom="11.313709"
     inkscape:cx="13.258252"
     inkscape:cy="50.160387"
     inkscape:window-x="-11"
     inkscape:window-y="-11"
     inkscape:window-maximized="1"
     inkscape:current-layer="text5282"
     inkscape:document-rotation="0"
     inkscape:pagecheckerboard="0"
     showguides="true"
     inkscape:guide-bbox="true">
    <inkscape:grid
       type="xygrid"
       id="grid823" />
    <sodipodi:guide
       position="0,86"
       orientation="66,0"
       id="guide957" />
    <sodipodi:guide
       position="0,20"
       orientation="0,50"
       id="guide959" />
    <sodipodi:guide
       position="50,20"
       orientation="-66,0"
       id="guide961" />
    <sodipodi:guide
       position="50,86"
       orientation="0,-50"
       id="guide963" />
    <sodipodi:guide
       position="8.9999971,64.32985"
       orientation="8.5387222,0"
       id="guide1517" />
    <sodipodi:guide
       position="8.9999971,55.791128"
       orientation="0,26.227758"
       id="guide1519" />
    <sodipodi:guide
       position="35,93.437165"
       orientation="-8.5387222,0"
       id="guide1521" />
    <sodipodi:guide
       position="35.227755,64.32985"
       orientation="0,-26.227758"
       id="guide1523" />
  </sodipodi:namedview>
  <defs
     id="defs4462" />
  <metadata
     id="metadata4465">
    <rdf:RDF>
      <cc:Work
         rdf:about="">
        <dc:format>image/svg+xml</dc:format>
        <dc:type
           rdf:resource="http://purl.org/dc/dcmitype/StillImage" />
      </cc:Work>
    </rdf:RDF>
  </metadata>
  <g
     aria-label="C"
     id="text3215"
     style="font-size:32px;line-height:1.25"
     transform="translate(-37.75,-4)">
    <g
       aria-label="A"
       id="text5282"
       transform="matrix(1.6290909,0,0,2.8292029,-41.002727,-68.776958)">
      <path
         id="path480"
         style="font-weight:bold;font-size:12.7px;line-height:1;font-family:'Caviar Dreams';-inkscape-font-specification:'Caviar Dreams Bold';text-align:center;text-anchor:middle;fill:#000000;stroke:#ffffff;stroke-width:0;stroke-linecap:round"
         d="M 39.085938 1.4199219 L 30.632812 2.8925781 C 30.759295 3.954494 30.832031 5.0182945 30.832031 6.0332031 C 30.832031 9.04702 30.480265 9.535204 29.679688 11.472656 C 29.448474 12.032208 29.181371 12.726424 28.916016 13.525391 C 21.888843 14.477419 15.752392 17.670906 10.509766 23.117188 C 4.1565566 29.71716 0.98046875 37.677533 0.98046875 47 C 0.98046875 56.322469 4.1565566 64.284784 10.509766 70.884766 C 15.480095 76.048168 21.255763 79.180804 27.830078 80.304688 C 27.705537 81.299334 27.628906 82.374087 27.628906 83.53125 C 27.628906 86.824485 28.087409 89.912024 28.65625 92.580078 L 36.925781 90 C 36.484565 87.930551 36.167969 85.626945 36.167969 83.53125 C 36.167969 82.183947 36.243643 81.351045 36.392578 80.658203 C 44.130875 80.015867 50.831237 76.763611 56.490234 70.884766 C 62.84342 64.284784 66.019531 56.322469 66.019531 47 C 66.019531 37.677533 62.84342 29.71716 56.490234 23.117188 C 51.287247 17.712063 45.204823 14.523461 38.244141 13.544922 C 38.837027 11.630915 39.371094 9.1249003 39.371094 6.0332031 C 39.371094 4.4383503 39.261467 2.893781 39.085938 1.4199219 z M 36.175781 21.978516 C 41.728882 22.556967 46.542263 24.967727 50.613281 29.220703 C 55.351726 34.115686 57.720703 40.042528 57.720703 47 C 57.720703 53.957483 55.351726 59.897835 50.613281 64.820312 C 47.282068 68.300413 43.452483 70.542763 39.128906 71.5625 C 39.277337 70.483975 39.371094 69.307714 39.371094 68.03125 C 39.371094 63.295258 38.12089 59.908158 37.320312 57.970703 C 36.519733 56.033251 36.167969 55.54702 36.167969 52.533203 C 36.167969 49.519389 36.519733 49.031208 37.320312 47.09375 C 38.12089 45.156298 39.371094 41.769195 39.371094 37.033203 C 39.371094 32.297211 38.12089 28.910111 37.320312 26.972656 C 36.563443 25.140985 36.212221 24.57821 36.175781 21.978516 z M 27.648438 22.527344 C 27.806474 26.745067 28.93636 29.794848 29.679688 31.59375 C 30.480265 33.531202 30.832031 34.019389 30.832031 37.033203 C 30.832031 40.047017 30.480265 40.535204 29.679688 42.472656 C 28.87911 44.410111 27.628906 47.797211 27.628906 52.533203 C 27.628906 57.269195 28.87911 60.656301 29.679688 62.59375 C 30.480265 64.531205 30.832031 65.017436 30.832031 68.03125 C 30.832031 70.12813 30.656006 71.005801 30.283203 71.996094 C 24.9776 71.318592 20.344294 68.93162 16.386719 64.820312 C 11.648325 59.897835 9.2792969 53.957483 9.2792969 47 C 9.2792969 40.042528 11.633766 34.115686 16.345703 29.220703 C 19.639464 25.798974 23.408121 23.570554 27.648438 22.527344 z M 23.363281 31.265625 A 5 5.0000001 0 0 0 18.363281 36.265625 A 5 5.0000001 0 0 0 23.363281 41.265625 A 5 5.0000001 0 0 0 28.363281 36.265625 A 5 5.0000001 0 0 0 23.363281 31.265625 z M 45.246094 82.427734 A 5 5.0000001 0 0 0 40.246094 87.427734 A 5 5.0000001 0 0 0 45.246094 92.427734 A 5 5.0000001 0 0 0 50.246094 87.427734 A 5 5.0000001 0 0 0 45.246094 82.427734 z "
         transform="matrix(0.61383929,0,0,0.35345645,48.341518,25.723485)" />
    </g>
  </g>
</svg>
