<?xml version="1.0" encoding="UTF-8" standalone="no"?>
<svg
   version="1.1"
   width="37"
   height="100"
   id="svg4460"
   sodipodi:docname="u00df-szlig.svg"
   inkscape:version="1.2.2 (732a01da63, 2022-12-09)"
   xmlns:inkscape="http://www.inkscape.org/namespaces/inkscape"
   xmlns:sodipodi="http://sodipodi.sourceforge.net/DTD/sodipodi-0.dtd"
   xmlns="http://www.w3.org/2000/svg"
   xmlns:svg="http://www.w3.org/2000/svg"
   xmlns:rdf="http://www.w3.org/1999/02/22-rdf-syntax-ns#"
   xmlns:cc="http://creativecommons.org/ns#"
   xmlns:dc="http://purl.org/dc/elements/1.1/">
  <sodipodi:namedview
     pagecolor="#ffffff"
     bordercolor="#666666"
     borderopacity="1"
     objecttolerance="10"
     gridtolerance="10"
     guidetolerance="10"
     inkscape:pageopacity="0"
     inkscape:pageshadow="2"
     inkscape:window-width="1920"
     inkscape:window-height="1009"
     id="namedview11"
     showgrid="true"
     inkscape:zoom="3.9999998"
     inkscape:cx="-30.125001"
     inkscape:cy="-0.50000002"
     inkscape:window-x="-8"
     inkscape:window-y="-8"
     inkscape:window-maximized="1"
     inkscape:current-layer="text1355"
     inkscape:document-rotation="0"
     inkscape:pagecheckerboard="0"
     showguides="true"
     inkscape:guide-bbox="true"
     inkscape:showpageshadow="0"
     inkscape:deskcolor="#d1d1d1">
    <inkscape:grid
       type="xygrid"
       id="grid823" />
    <sodipodi:guide
       position="0,86"
       orientation="66,0"
       id="guide957"
       inkscape:locked="false" />
    <sodipodi:guide
       position="0,20"
       orientation="0,50"
       id="guide959"
       inkscape:locked="false" />
    <sodipodi:guide
       position="50,20"
       orientation="-66,0"
       id="guide961"
       inkscape:locked="false" />
    <sodipodi:guide
       position="50,86"
       orientation="0,-50"
       id="guide963"
       inkscape:locked="false" />
  </sodipodi:namedview>
  <defs
     id="defs4462" />
  <metadata
     id="metadata4465">
    <rdf:RDF>
      <cc:Work
         rdf:about="">
        <dc:format>image/svg+xml</dc:format>
        <dc:type
           rdf:resource="http://purl.org/dc/dcmitype/StillImage" />
      </cc:Work>
    </rdf:RDF>
  </metadata>
  <g
     aria-label="C"
     id="text3215"
     style="font-size:32px;line-height:1.25"
     transform="translate(-37.75,-4)">
    <g
       aria-label="A"
       id="text5282"
       transform="matrix(1.6290909,0,0,2.8292029,-41.002727,-68.776958)">
      <g
         aria-label="ß"
         id="text1355"
         style="font-weight:bold;font-size:22.3582px;line-height:1;font-family:'Caviar Dreams';-inkscape-font-specification:'Caviar Dreams Bold';fill:#000000;stroke-width:4.00351"
         transform="matrix(2.1576198,0,0,1.2423848,43.7574,-22.88917)">
        <path
           d="m 6.0489428,43.13163 c 1.1099041,-0.01819 1.946881,0.265649 2.6455748,0.833338 0.7641963,0.633191 1.1977257,1.517622 1.2117969,2.869375 0.014071,1.351753 -0.2702154,1.68993 -0.4694348,2.207072 1.8559053,0.742362 2.8348043,3.087581 2.9366973,5.926024 0,1.717622 -0.60044,3.875062 -1.80132,5.119611 -1.1353773,1.171767 -2.2671156,1.764929 -2.8311653,1.783122 l -1.4155826,0.01819 V 59.61761 L 7.40994,59.58668 c 0.2328979,-0.03093 0.8115037,-0.405754 1.5029194,-1.126281 0.7641963,-0.78603 1.1462946,-2.397616 1.1462946,-3.482047 0,-1.069875 -0.3820983,-2.538087 -1.1462946,-3.295005 -0.7569183,-0.764194 -1.6484806,-1.146291 -2.674687,-1.146291 v -2.292589 c 0.4730739,-0.05823 0.8333378,-0.200149 1.0807919,-0.425766 0.247454,-0.232898 0.371181,-0.549494 0.371181,-0.949787 0,-0.422127 -0.1310051,-0.782391 -0.3930152,-1.080792 -0.2183418,-0.247454 -0.5567716,-0.371181 -1.0862506,-0.363906 -0.5294789,0.0073 -0.897021,0.156479 -1.1299189,0.440326 -0.2328979,0.276566 -0.367542,0.738723 -0.4039323,1.38647 V 63.59536 H 2.4171909 V 47.054505 C 2.4972499,45.7954 2.8465964,44.834696 3.4652315,44.172393 4.0911447,43.502812 4.9390387,43.149826 6.0489428,43.13163 Z"
           id="path1357"
           style="fill:#000000"
           sodipodi:nodetypes="cczcccccccccsccccscccccccc" />
      </g>
    </g>
  </g>
</svg>
