<?xml version="1.0" encoding="UTF-8" standalone="no"?>
<svg
   version="1.1"
   width="24"
   height="100"
   id="svg4460"
   sodipodi:docname="u00e7-ccedil.svg"
   inkscape:version="1.2.2 (732a01da63, 2022-12-09)"
   xmlns:inkscape="http://www.inkscape.org/namespaces/inkscape"
   xmlns:sodipodi="http://sodipodi.sourceforge.net/DTD/sodipodi-0.dtd"
   xmlns="http://www.w3.org/2000/svg"
   xmlns:svg="http://www.w3.org/2000/svg"
   xmlns:rdf="http://www.w3.org/1999/02/22-rdf-syntax-ns#"
   xmlns:cc="http://creativecommons.org/ns#"
   xmlns:dc="http://purl.org/dc/elements/1.1/">
  <sodipodi:namedview
     pagecolor="#ffffff"
     bordercolor="#666666"
     borderopacity="1"
     objecttolerance="10"
     gridtolerance="10"
     guidetolerance="10"
     inkscape:pageopacity="0"
     inkscape:pageshadow="2"
     inkscape:window-width="1920"
     inkscape:window-height="1009"
     id="namedview11"
     showgrid="true"
     inkscape:zoom="8.0000004"
     inkscape:cx="-23.312499"
     inkscape:cy="55.249997"
     inkscape:window-x="-8"
     inkscape:window-y="-8"
     inkscape:window-maximized="1"
     inkscape:current-layer="text5282"
     inkscape:document-rotation="0"
     inkscape:pagecheckerboard="0"
     showguides="true"
     inkscape:guide-bbox="true"
     inkscape:showpageshadow="0"
     inkscape:deskcolor="#d1d1d1">
    <inkscape:grid
       type="xygrid"
       id="grid823"
       originx="0"
       originy="0" />
    <sodipodi:guide
       position="0,86"
       orientation="66,0"
       id="guide957"
       inkscape:locked="false" />
    <sodipodi:guide
       position="0,20"
       orientation="0,50"
       id="guide959"
       inkscape:locked="false" />
    <sodipodi:guide
       position="50,20"
       orientation="-66,0"
       id="guide961"
       inkscape:locked="false" />
    <sodipodi:guide
       position="50,86"
       orientation="0,-50"
       id="guide963"
       inkscape:locked="false" />
  </sodipodi:namedview>
  <defs
     id="defs4462" />
  <metadata
     id="metadata4465">
    <rdf:RDF>
      <cc:Work
         rdf:about="">
        <dc:format>image/svg+xml</dc:format>
        <dc:type
           rdf:resource="http://purl.org/dc/dcmitype/StillImage" />
      </cc:Work>
    </rdf:RDF>
  </metadata>
  <g
     aria-label="C"
     id="text3215"
     style="font-size:32px;line-height:1.25"
     transform="translate(-37.75,-4)">
    <g
       aria-label="A"
       id="text5282"
       transform="matrix(1.6290909,0,0,2.8292029,-41.002727,-68.776958)">
      <path
         id="path456"
         style="font-weight:bold;font-size:12.7px;line-height:1;font-family:'Caviar Dreams';-inkscape-font-specification:'Caviar Dreams Bold';text-align:center;text-anchor:middle;fill:#000000;stroke:#ffffff;stroke-width:0;stroke-linecap:round"
         d="m 61.559003,34.30912 v 5.75e-4 c -3.497266,0 -6.478841,0.971516 -8.94446,2.915434 -2.465623,1.943917 -3.698469,4.285133 -3.698469,7.022816 0,2.745785 1.232846,5.086423 3.698469,7.02224 1.387456,1.089326 2.938387,1.871831 4.652557,2.348225 l -0.914127,1.475551 c 1.209473,0.226751 1.856662,0.453784 1.941146,0.680537 0.01334,0.03239 0.02098,0.06482 0.02098,0.09722 0,0.06478 -0.02079,0.125087 -0.06294,0.181783 -0.12657,0.251047 -0.408202,0.392727 -0.844194,0.42512 -0.07024,0.0082 -0.147294,0.01266 -0.231778,0.01266 -0.506305,0 -1.160457,-0.105264 -1.962127,-0.315819 l -0.738295,1.530201 c 1.279844,0.121473 2.327295,0.182358 3.142999,0.182358 0.351604,0 0.661878,-0.01194 0.929113,-0.03624 1.336084,-0.113376 2.347948,-0.409258 3.0371,-0.887056 0.435973,-0.307735 0.654375,-0.635474 0.654375,-0.983701 0,-0.105277 -0.02079,-0.210544 -0.06294,-0.31582 -0.04215,-0.105278 -0.0916,-0.214522 -0.147859,-0.327899 -0.295346,-0.413012 -0.96335,-0.773761 -2.004086,-1.081496 l 0.09391,-0.139789 c 0.470133,0.03807 0.95021,0.05811 1.440625,0.05811 0.31514,0 0.628221,-0.01033 0.940102,-0.02992 v -2.538062 c -0.311881,0.02674 -0.625057,0.04084 -0.940102,0.04084 -6.601812,-0.388732 -8.550836,-4.453692 -8.550836,-7.399037 0,-3.239881 2.642529,-7.324424 8.550836,-7.387533 0.315038,0 0.628218,0.01369 0.940102,0.04026 V 34.33903 c -0.311885,-0.01957 -0.624958,-0.02991 -0.940101,-0.02991 z" />
      <g
         aria-label=" Ç"
         id="text2801-7"
         style="font-weight:bold;font-size:16.253px;line-height:1;font-family:'Caviar Dreams';-inkscape-font-specification:'Caviar Dreams Bold';text-align:center;text-anchor:middle;fill:#ff0000;stroke-width:1.6637"
         transform="matrix(2.3200225,0,0,1.3358984,-832.54957,175.34552)" />
    </g>
  </g>
</svg>
