<?xml version="1.0" encoding="UTF-8" standalone="no"?>
<svg
   version="1.1"
   width="28"
   height="100"
   id="svg4460"
   sodipodi:docname="u00eb-euml.svg"
   inkscape:version="1.2.2 (732a01da63, 2022-12-09)"
   xmlns:inkscape="http://www.inkscape.org/namespaces/inkscape"
   xmlns:sodipodi="http://sodipodi.sourceforge.net/DTD/sodipodi-0.dtd"
   xmlns="http://www.w3.org/2000/svg"
   xmlns:svg="http://www.w3.org/2000/svg"
   xmlns:rdf="http://www.w3.org/1999/02/22-rdf-syntax-ns#"
   xmlns:cc="http://creativecommons.org/ns#"
   xmlns:dc="http://purl.org/dc/elements/1.1/">
  <sodipodi:namedview
     pagecolor="#ffffff"
     bordercolor="#666666"
     borderopacity="1"
     objecttolerance="10"
     gridtolerance="10"
     guidetolerance="10"
     inkscape:pageopacity="0"
     inkscape:pageshadow="2"
     inkscape:window-width="1920"
     inkscape:window-height="1009"
     id="namedview11"
     showgrid="true"
     inkscape:zoom="4.0000002"
     inkscape:cx="-40.999998"
     inkscape:cy="83.249996"
     inkscape:window-x="-8"
     inkscape:window-y="-8"
     inkscape:window-maximized="1"
     inkscape:current-layer="text5282"
     inkscape:document-rotation="0"
     inkscape:pagecheckerboard="0"
     showguides="true"
     inkscape:guide-bbox="true"
     inkscape:showpageshadow="0"
     inkscape:deskcolor="#d1d1d1">
    <inkscape:grid
       type="xygrid"
       id="grid823"
       originx="0"
       originy="0" />
    <sodipodi:guide
       position="0,86"
       orientation="66,0"
       id="guide957"
       inkscape:locked="false" />
    <sodipodi:guide
       position="0,20"
       orientation="0,50"
       id="guide959"
       inkscape:locked="false" />
    <sodipodi:guide
       position="50,20"
       orientation="-66,0"
       id="guide961"
       inkscape:locked="false" />
    <sodipodi:guide
       position="50,86"
       orientation="0,-50"
       id="guide963"
       inkscape:locked="false" />
    <sodipodi:guide
       position="8.9999971,64.32985"
       orientation="8.5387222,0"
       id="guide1517"
       inkscape:locked="false" />
    <sodipodi:guide
       position="8.9999971,55.791128"
       orientation="0,26.227758"
       id="guide1519"
       inkscape:locked="false" />
    <sodipodi:guide
       position="35,93.437165"
       orientation="-8.5387222,0"
       id="guide1521"
       inkscape:locked="false" />
    <sodipodi:guide
       position="35.227755,64.32985"
       orientation="0,-26.227758"
       id="guide1523"
       inkscape:locked="false" />
  </sodipodi:namedview>
  <defs
     id="defs4462" />
  <metadata
     id="metadata4465">
    <rdf:RDF>
      <cc:Work
         rdf:about="">
        <dc:format>image/svg+xml</dc:format>
        <dc:type
           rdf:resource="http://purl.org/dc/dcmitype/StillImage" />
      </cc:Work>
    </rdf:RDF>
  </metadata>
  <g
     aria-label="C"
     id="text3215"
     style="font-size:32px;line-height:1.25"
     transform="translate(-37.75,-4)">
    <g
       aria-label="A"
       id="text5282"
       transform="matrix(1.6290909,0,0,2.8292029,-41.002727,-68.776958)">
      <path
         id="path1070"
         style="font-weight:bold;font-size:12.7px;line-height:1;font-family:'Caviar Dreams';-inkscape-font-specification:'Caviar Dreams Bold';text-align:center;text-anchor:middle;fill:#000000;stroke:#ffffff;stroke-width:0;stroke-linecap:round"
         d="m 52.489385,30.436538 c -0.872007,0 -1.604258,0.174112 -2.194967,0.522354 -0.590708,0.348234 -0.885181,0.761338 -0.885181,1.239153 0,0.485912 0.294473,0.899016 0.885181,1.239152 0.590709,0.348235 1.32296,0.522354 2.194967,0.522354 0.843858,0 1.560287,-0.174119 2.151007,-0.522354 0.590707,-0.340136 0.88618,-0.75324 0.88618,-1.239152 0,-0.477815 -0.295473,-0.890919 -0.88618,-1.239153 -0.59072,-0.348242 -1.307149,-0.522354 -2.151007,-0.522354 z m 8.934724,0 c -0.872,0 -1.603261,0.174112 -2.193968,0.522354 -0.590709,0.348234 -0.886179,0.761338 -0.886179,1.239153 0,0.485912 0.29547,0.899016 0.886179,1.239152 0.590707,0.348235 1.321968,0.522354 2.193968,0.522354 0.84387,0 1.561302,-0.174119 2.152003,-0.522354 0.590709,-0.340136 0.885183,-0.75324 0.885183,-1.239152 0,-0.477815 -0.294474,-0.890919 -0.885183,-1.239153 -0.590701,-0.348242 -1.308133,-0.522354 -2.152003,-0.522354 z M 49.006611,34.560144 V 54 H 64.863925 V 51.472796 H 53.210716 V 43.457997 H 64.863925 V 40.942874 H 53.210716 v -3.867607 h 11.653209 v -2.515123 z" />
    </g>
  </g>
</svg>
