<?xml version="1.0" encoding="UTF-8" standalone="no"?>
<svg
   version="1.1"
   width="9"
   height="100"
   id="svg4460"
   sodipodi:docname="u00ef-uml.svg"
   inkscape:version="1.2.2 (732a01da63, 2022-12-09)"
   xmlns:inkscape="http://www.inkscape.org/namespaces/inkscape"
   xmlns:sodipodi="http://sodipodi.sourceforge.net/DTD/sodipodi-0.dtd"
   xmlns="http://www.w3.org/2000/svg"
   xmlns:svg="http://www.w3.org/2000/svg"
   xmlns:rdf="http://www.w3.org/1999/02/22-rdf-syntax-ns#"
   xmlns:cc="http://creativecommons.org/ns#"
   xmlns:dc="http://purl.org/dc/elements/1.1/">
  <sodipodi:namedview
     pagecolor="#ffffff"
     bordercolor="#666666"
     borderopacity="1"
     objecttolerance="10"
     gridtolerance="10"
     guidetolerance="10"
     inkscape:pageopacity="0"
     inkscape:pageshadow="2"
     inkscape:window-width="1920"
     inkscape:window-height="1009"
     id="namedview11"
     showgrid="true"
     inkscape:zoom="5.6568543"
     inkscape:cx="-12.639534"
     inkscape:cy="74.246212"
     inkscape:window-x="-8"
     inkscape:window-y="-8"
     inkscape:window-maximized="1"
     inkscape:current-layer="text5282"
     inkscape:document-rotation="0"
     inkscape:pagecheckerboard="0"
     showguides="true"
     inkscape:guide-bbox="true"
     inkscape:showpageshadow="0"
     inkscape:deskcolor="#d1d1d1">
    <inkscape:grid
       type="xygrid"
       id="grid823" />
    <sodipodi:guide
       position="0,86"
       orientation="66,0"
       id="guide957"
       inkscape:locked="false" />
    <sodipodi:guide
       position="0,20"
       orientation="0,50"
       id="guide959"
       inkscape:locked="false" />
    <sodipodi:guide
       position="50,20"
       orientation="-66,0"
       id="guide961"
       inkscape:locked="false" />
    <sodipodi:guide
       position="50,86"
       orientation="0,-50"
       id="guide963"
       inkscape:locked="false" />
    <sodipodi:guide
       position="8.9999971,64.32985"
       orientation="8.5387222,0"
       id="guide1517"
       inkscape:locked="false" />
    <sodipodi:guide
       position="8.9999971,55.791128"
       orientation="0,26.227758"
       id="guide1519"
       inkscape:locked="false" />
    <sodipodi:guide
       position="35,93.437165"
       orientation="-8.5387222,0"
       id="guide1521"
       inkscape:locked="false" />
    <sodipodi:guide
       position="35.227755,64.32985"
       orientation="0,-26.227758"
       id="guide1523"
       inkscape:locked="false" />
  </sodipodi:namedview>
  <defs
     id="defs4462" />
  <metadata
     id="metadata4465">
    <rdf:RDF>
      <cc:Work
         rdf:about="">
        <dc:format>image/svg+xml</dc:format>
        <dc:type
           rdf:resource="http://purl.org/dc/dcmitype/StillImage" />
      </cc:Work>
    </rdf:RDF>
  </metadata>
  <g
     aria-label="C"
     id="text3215"
     style="font-size:32px;line-height:1.25"
     transform="translate(-37.75,-4)">
    <g
       aria-label="A"
       id="text5282"
       transform="matrix(1.6290909,0,0,2.8292029,-41.002727,-68.776958)">
      <path
         style="font-weight:bold;font-size:12.7px;line-height:1;font-family:'Caviar Dreams';-inkscape-font-specification:'Caviar Dreams Bold';text-align:center;text-anchor:middle;fill:#000000;stroke:#ffffff;stroke-width:0;stroke-linecap:round"
         d="M 49.001739,34.560092 V 54 h 4.20411 V 34.560092 Z"
         id="path1092" />
      <path
         id="path1085"
         style="font-weight:bold;font-size:12.7px;line-height:1;font-family:'Caviar Dreams';-inkscape-font-specification:'Caviar Dreams Bold';text-align:center;text-anchor:middle;fill:#000000;stroke:#ffffff;stroke-width:0;stroke-linecap:round"
         d="m 47.168988,30.436474 c -0.872221,0 -1.604341,0.174264 -2.195194,0.522591 -0.590854,0.348319 -0.885991,0.761236 -0.885991,1.239168 0,0.48603 0.295137,0.89964 0.885991,1.239859 0.590853,0.34832 1.322973,0.522591 2.195194,0.522591 0.844065,0 1.559968,-0.174271 2.150836,-0.522591 0.59085,-0.340219 0.887189,-0.753829 0.887189,-1.239859 0,-0.477932 -0.296339,-0.890849 -0.887189,-1.239168 -0.590868,-0.348327 -1.306771,-0.522591 -2.150836,-0.522591 z m 7.912772,0 c -0.872215,0 -1.603143,0.174264 -2.193995,0.522591 -0.590854,0.348319 -0.885991,0.761236 -0.885991,1.239168 0,0.48603 0.295137,0.89964 0.885991,1.239859 0.590852,0.34832 1.32178,0.522591 2.193995,0.522591 0.844078,0 1.56238,-0.174271 2.153234,-0.522591 0.590854,-0.340219 0.884791,-0.753829 0.884791,-1.239859 0,-0.477932 -0.293937,-0.890849 -0.884791,-1.239168 -0.590854,-0.348327 -1.309156,-0.522591 -2.153234,-0.522591 z" />
    </g>
  </g>
</svg>
