<?xml version="1.0" encoding="UTF-8" standalone="no"?>
<svg
   version="1.1"
   width="33"
   height="100"
   id="svg4460"
   sodipodi:docname="u00e4-auml.svg"
   inkscape:version="1.2.2 (732a01da63, 2022-12-09)"
   xmlns:inkscape="http://www.inkscape.org/namespaces/inkscape"
   xmlns:sodipodi="http://sodipodi.sourceforge.net/DTD/sodipodi-0.dtd"
   xmlns="http://www.w3.org/2000/svg"
   xmlns:svg="http://www.w3.org/2000/svg"
   xmlns:rdf="http://www.w3.org/1999/02/22-rdf-syntax-ns#"
   xmlns:cc="http://creativecommons.org/ns#"
   xmlns:dc="http://purl.org/dc/elements/1.1/">
  <sodipodi:namedview
     pagecolor="#ffffff"
     bordercolor="#666666"
     borderopacity="1"
     objecttolerance="10"
     gridtolerance="10"
     guidetolerance="10"
     inkscape:pageopacity="0"
     inkscape:pageshadow="2"
     inkscape:window-width="1920"
     inkscape:window-height="1009"
     id="namedview11"
     showgrid="true"
     inkscape:zoom="5.6568545"
     inkscape:cx="63.109277"
     inkscape:cy="36.592774"
     inkscape:window-x="-8"
     inkscape:window-y="-8"
     inkscape:window-maximized="1"
     inkscape:current-layer="text5282"
     inkscape:document-rotation="0"
     inkscape:pagecheckerboard="0"
     showguides="true"
     inkscape:guide-bbox="true"
     inkscape:showpageshadow="0"
     inkscape:deskcolor="#d1d1d1">
    <inkscape:grid
       type="xygrid"
       id="grid823"
       originx="0"
       originy="0" />
    <sodipodi:guide
       position="0,86"
       orientation="66,0"
       id="guide957"
       inkscape:locked="false" />
    <sodipodi:guide
       position="0,20"
       orientation="0,50"
       id="guide959"
       inkscape:locked="false" />
    <sodipodi:guide
       position="50,20"
       orientation="-66,0"
       id="guide961"
       inkscape:locked="false" />
    <sodipodi:guide
       position="50,86"
       orientation="0,-50"
       id="guide963"
       inkscape:locked="false" />
    <sodipodi:guide
       position="8.9999971,64.32985"
       orientation="8.5387222,0"
       id="guide1517"
       inkscape:locked="false" />
    <sodipodi:guide
       position="8.9999971,55.791128"
       orientation="0,26.227758"
       id="guide1519"
       inkscape:locked="false" />
    <sodipodi:guide
       position="35,93.437165"
       orientation="-8.5387222,0"
       id="guide1521"
       inkscape:locked="false" />
    <sodipodi:guide
       position="35.227755,64.32985"
       orientation="0,-26.227758"
       id="guide1523"
       inkscape:locked="false" />
  </sodipodi:namedview>
  <defs
     id="defs4462" />
  <metadata
     id="metadata4465">
    <rdf:RDF>
      <cc:Work
         rdf:about="">
        <dc:format>image/svg+xml</dc:format>
        <dc:type
           rdf:resource="http://purl.org/dc/dcmitype/StillImage" />
      </cc:Work>
    </rdf:RDF>
  </metadata>
  <g
     aria-label="C"
     id="text3215"
     style="font-size:32px;line-height:1.25"
     transform="translate(-37.75,-4)">
    <g
       aria-label="A"
       id="text5282"
       transform="matrix(1.6290909,0,0,2.8292029,-41.002727,-68.776958)">
      <path
         id="path3157-9"
         style="font-weight:bold;font-size:12.7px;line-height:1;font-family:'Caviar Dreams';-inkscape-font-specification:'Caviar Dreams Bold';text-align:center;text-anchor:middle;fill:#000000;stroke:#ffffff;stroke-width:0;stroke-linecap:round"
         d="m 53.307773,30.313794 c -0.876762,0 -1.613005,0.175063 -2.206936,0.525203 -0.593929,0.350135 -0.890009,0.765491 -0.890009,1.245913 0,0.488561 0.29608,0.903919 0.890009,1.245912 0.593931,0.350132 1.330174,0.525203 2.206936,0.525203 0.848457,0 1.568797,-0.175071 2.162747,-0.525203 0.59393,-0.341993 0.89101,-0.757351 0.89101,-1.245912 0,-0.480422 -0.29708,-0.895778 -0.89101,-1.245913 -0.59395,-0.35014 -1.31429,-0.525203 -2.162747,-0.525203 z m 10.012097,0 c -0.87675,0 -1.61202,0.175063 -2.20594,0.525203 -0.59392,0.350135 -0.891,0.765491 -0.891,1.245913 0,0.488561 0.29708,0.903919 0.891,1.245912 0.59392,0.350132 1.32919,0.525203 2.20594,0.525203 0.84848,0 1.56981,-0.175071 2.16375,-0.525203 0.59393,-0.341993 0.89,-0.757351 0.89,-1.245912 0,-0.480422 -0.29607,-0.895778 -0.89,-1.245913 -0.59394,-0.35014 -1.31527,-0.525203 -2.16375,-0.525203 z M 58.29223,33.4118 48.520214,54.000004 h 4.37169 0.005 l 0.0231,-0.05958 2.640896,-5.67023 h 5.46059 L 63.6875,54 h 4.37671 z m 0,8.99382 1.55199,3.335735 h -3.106 z" />
    </g>
  </g>
</svg>
