<?xml version="1.0" encoding="UTF-8" standalone="no"?>
<svg
   version="1.1"
   width="56"
   height="100"
   id="svg4460"
   sodipodi:docname="u00f4-ocirc.svg"
   inkscape:version="1.2.2 (732a01da63, 2022-12-09)"
   xmlns:inkscape="http://www.inkscape.org/namespaces/inkscape"
   xmlns:sodipodi="http://sodipodi.sourceforge.net/DTD/sodipodi-0.dtd"
   xmlns="http://www.w3.org/2000/svg"
   xmlns:svg="http://www.w3.org/2000/svg"
   xmlns:rdf="http://www.w3.org/1999/02/22-rdf-syntax-ns#"
   xmlns:cc="http://creativecommons.org/ns#"
   xmlns:dc="http://purl.org/dc/elements/1.1/">
  <sodipodi:namedview
     pagecolor="#ffffff"
     bordercolor="#666666"
     borderopacity="1"
     objecttolerance="10"
     gridtolerance="10"
     guidetolerance="10"
     inkscape:pageopacity="0"
     inkscape:pageshadow="2"
     inkscape:window-width="1920"
     inkscape:window-height="1009"
     id="namedview11"
     showgrid="true"
     inkscape:zoom="2.8284273"
     inkscape:cx="-88.741897"
     inkscape:cy="36.062444"
     inkscape:window-x="-8"
     inkscape:window-y="-8"
     inkscape:window-maximized="1"
     inkscape:current-layer="text5282"
     inkscape:document-rotation="0"
     inkscape:pagecheckerboard="0"
     showguides="true"
     inkscape:guide-bbox="true"
     inkscape:showpageshadow="0"
     inkscape:deskcolor="#d1d1d1">
    <inkscape:grid
       type="xygrid"
       id="grid823" />
    <sodipodi:guide
       position="0,86"
       orientation="66,0"
       id="guide957"
       inkscape:locked="false" />
    <sodipodi:guide
       position="0,20"
       orientation="0,50"
       id="guide959"
       inkscape:locked="false" />
    <sodipodi:guide
       position="50,20"
       orientation="-66,0"
       id="guide961"
       inkscape:locked="false" />
    <sodipodi:guide
       position="50,86"
       orientation="0,-50"
       id="guide963"
       inkscape:locked="false" />
    <sodipodi:guide
       position="8.9999971,64.32985"
       orientation="8.5387222,0"
       id="guide1517"
       inkscape:locked="false" />
    <sodipodi:guide
       position="8.9999971,55.791128"
       orientation="0,26.227758"
       id="guide1519"
       inkscape:locked="false" />
    <sodipodi:guide
       position="35,93.437165"
       orientation="-8.5387222,0"
       id="guide1521"
       inkscape:locked="false" />
    <sodipodi:guide
       position="35.227755,64.32985"
       orientation="0,-26.227758"
       id="guide1523"
       inkscape:locked="false" />
    <sodipodi:guide
       position="7.9247812,20.000001"
       orientation="0,-6.8495616"
       id="guide4054"
       inkscape:locked="false" />
    <sodipodi:guide
       position="1.0752196,74.999813"
       orientation="0,6.8495616"
       id="guide4058"
       inkscape:locked="false" />
  </sodipodi:namedview>
  <defs
     id="defs4462" />
  <metadata
     id="metadata4465">
    <rdf:RDF>
      <cc:Work
         rdf:about="">
        <dc:format>image/svg+xml</dc:format>
        <dc:type
           rdf:resource="http://purl.org/dc/dcmitype/StillImage" />
      </cc:Work>
    </rdf:RDF>
  </metadata>
  <g
     aria-label="C"
     id="text3215"
     style="font-size:32px;line-height:1.25"
     transform="translate(-37.75,-4)">
    <g
       aria-label="A"
       id="text5282"
       transform="matrix(1.6290909,0,0,2.8292029,-41.002727,-68.776958)">
      <path
         id="path480-0"
         style="font-weight:bold;font-size:12.7px;line-height:1;font-family:'Caviar Dreams';-inkscape-font-specification:'Caviar Dreams Bold';text-align:center;text-anchor:middle;fill:#000000;stroke:#ffffff;stroke-width:0;stroke-linecap:round"
         d="m 63.450848,30.503471 -6.5862,3.240123 c 7.74633,-1.9e-5 3.0693,0 4.60395,0 l 4.06043,-1.553901 4.06041,1.553901 c 1.53465,0 -3.14238,-1.9e-5 4.60395,0 l -6.5862,-3.240123 z m 2.07818,3.893096 c -4.59058,0 -8.51068,0.972161 -11.76065,2.916227 -3.24998,1.944064 -4.87471,4.28885 -4.87471,7.034843 0,2.745993 1.62473,5.091351 4.87471,7.035418 3.24997,1.944065 7.17007,2.915651 11.76065,2.915651 4.59056,0 8.51068,-0.971586 11.76063,-2.915651 3.24997,-1.944067 4.87471,-4.289425 4.87471,-7.035418 0,-2.745993 -1.62474,-5.090779 -4.87471,-7.034843 -3.24995,-1.944066 -7.17007,-2.916227 -11.76063,-2.916227 z m 0,2.539401 c 3.426,0 6.34392,0.724707 8.75428,2.174657 2.42395,1.441849 3.6358,3.187644 3.6358,5.237012 0,2.049371 -1.21185,3.799145 -3.6358,5.249093 -2.41036,1.449948 -5.32828,2.174656 -8.75428,2.174656 -3.41248,0 -6.33037,-0.724708 -8.7543,-2.174656 -2.42392,-1.449948 -3.6358,-3.199722 -3.6358,-5.249093 0,-2.049368 1.20443,-3.795163 3.61482,-5.237012 2.42392,-1.44995 5.34925,-2.174657 8.77528,-2.174657 z" />
    </g>
  </g>
</svg>
