<?xml version="1.0" encoding="UTF-8" standalone="no"?>
<svg
   version="1.1"
   width="56"
   height="100"
   id="svg4460"
   sodipodi:docname="u00f8-oslash.svg"
   inkscape:version="1.2.2 (732a01da63, 2022-12-09)"
   xmlns:inkscape="http://www.inkscape.org/namespaces/inkscape"
   xmlns:sodipodi="http://sodipodi.sourceforge.net/DTD/sodipodi-0.dtd"
   xmlns="http://www.w3.org/2000/svg"
   xmlns:svg="http://www.w3.org/2000/svg"
   xmlns:rdf="http://www.w3.org/1999/02/22-rdf-syntax-ns#"
   xmlns:cc="http://creativecommons.org/ns#"
   xmlns:dc="http://purl.org/dc/elements/1.1/">
  <sodipodi:namedview
     pagecolor="#ffffff"
     bordercolor="#666666"
     borderopacity="1"
     objecttolerance="10"
     gridtolerance="10"
     guidetolerance="10"
     inkscape:pageopacity="0"
     inkscape:pageshadow="2"
     inkscape:window-width="1920"
     inkscape:window-height="1009"
     id="namedview11"
     showgrid="true"
     inkscape:zoom="8.0000004"
     inkscape:cx="6.9999997"
     inkscape:cy="60.374997"
     inkscape:window-x="-8"
     inkscape:window-y="-8"
     inkscape:window-maximized="1"
     inkscape:current-layer="svg4460"
     inkscape:document-rotation="0"
     inkscape:pagecheckerboard="0"
     showguides="true"
     inkscape:guide-bbox="true"
     inkscape:showpageshadow="0"
     inkscape:deskcolor="#d1d1d1">
    <inkscape:grid
       type="xygrid"
       id="grid823" />
    <sodipodi:guide
       position="0,86"
       orientation="66,0"
       id="guide957"
       inkscape:locked="false" />
    <sodipodi:guide
       position="0,20"
       orientation="0,50"
       id="guide959"
       inkscape:locked="false" />
    <sodipodi:guide
       position="50,20"
       orientation="-66,0"
       id="guide961"
       inkscape:locked="false" />
    <sodipodi:guide
       position="50,86"
       orientation="0,-50"
       id="guide963"
       inkscape:locked="false" />
    <sodipodi:guide
       position="8.9999971,64.32985"
       orientation="8.5387222,0"
       id="guide1517"
       inkscape:locked="false" />
    <sodipodi:guide
       position="8.9999971,55.791128"
       orientation="0,26.227758"
       id="guide1519"
       inkscape:locked="false" />
    <sodipodi:guide
       position="35,93.437165"
       orientation="-8.5387222,0"
       id="guide1521"
       inkscape:locked="false" />
    <sodipodi:guide
       position="35.227755,64.32985"
       orientation="0,-26.227758"
       id="guide1523"
       inkscape:locked="false" />
    <sodipodi:guide
       position="7.9247812,20.000001"
       orientation="0,-6.8495616"
       id="guide4054"
       inkscape:locked="false" />
    <sodipodi:guide
       position="1.0752196,74.999813"
       orientation="0,6.8495616"
       id="guide4058"
       inkscape:locked="false" />
  </sodipodi:namedview>
  <defs
     id="defs4462" />
  <metadata
     id="metadata4465">
    <rdf:RDF>
      <cc:Work
         rdf:about="">
        <dc:format>image/svg+xml</dc:format>
        <dc:type
           rdf:resource="http://purl.org/dc/dcmitype/StillImage" />
      </cc:Work>
    </rdf:RDF>
  </metadata>
  <g
     aria-label="C"
     id="text3215"
     style="font-size:32px;line-height:1.25"
     transform="translate(-37.75,-4)">
    <g
       aria-label="A"
       id="text5282"
       transform="matrix(1.6290909,0,0,2.8292029,-41.002727,-68.776958)">
      <path
         id="path305"
         style="font-weight:bold;font-size:12.7px;line-height:1;font-family:'Caviar Dreams';-inkscape-font-specification:'Caviar Dreams Bold';text-align:center;text-anchor:middle;fill:#000000;stroke:#ffffff;stroke-width:0;stroke-linecap:round"
         d="M 65.529018 34.396284 C 60.938455 34.396284 57.018923 35.368926 53.76896 37.31299 C 50.518986 39.257052 48.894213 41.601612 48.894213 44.347602 C 48.894213 46.53006 49.923735 48.458233 51.976597 50.134071 L 49.214321 51.720483 L 52.682752 53.722482 L 55.319144 52.208556 C 58.243233 53.599977 61.645408 54.29892 65.529018 54.29892 C 70.119582 54.29892 74.039127 53.326277 77.289076 51.382214 C 80.539039 49.438149 82.163823 47.093591 82.163823 44.347602 C 82.163823 42.165143 81.134298 40.236971 79.081439 38.561133 L 81.843715 36.974721 L 78.375284 34.972722 L 75.738892 36.486648 C 72.814808 35.095227 69.412629 34.396284 65.529018 34.396284 z M 65.529018 36.936062 C 68.209467 36.936062 70.577449 37.381641 72.636126 38.269118 L 55.076965 48.353672 C 53.786887 47.177565 53.138336 45.842712 53.138336 44.347602 C 53.138336 42.298236 54.343849 40.552495 56.754233 39.110648 C 59.178151 37.660698 62.102999 36.936062 65.529018 36.936062 z M 75.977474 40.344294 C 77.270182 41.516973 77.9197 42.850973 77.9197 44.347602 C 77.9197 46.396971 76.707366 48.147037 74.283421 49.596983 C 71.873063 51.04693 68.955024 51.771568 65.529018 51.771568 C 62.852509 51.771568 60.481815 51.323511 58.413518 50.431609 L 75.977474 40.344294 z " />
    </g>
  </g>
  <g
     id="path929">
    <path
       style="color:#000000;fill:#000000;stroke-width:8;stroke-linejoin:bevel;-inkscape-stroke:none"
       d="M 4.2468229,76.38301 51.753177,29"
       id="path1343" />
  </g>
</svg>
