<?xml version="1.0" encoding="UTF-8" standalone="no"?>
<svg
   version="1.1"
   width="56"
   height="100"
   id="svg4460"
   sodipodi:docname="u00f5-otilde.svg"
   inkscape:version="1.2.2 (732a01da63, 2022-12-09)"
   xmlns:inkscape="http://www.inkscape.org/namespaces/inkscape"
   xmlns:sodipodi="http://sodipodi.sourceforge.net/DTD/sodipodi-0.dtd"
   xmlns="http://www.w3.org/2000/svg"
   xmlns:svg="http://www.w3.org/2000/svg"
   xmlns:rdf="http://www.w3.org/1999/02/22-rdf-syntax-ns#"
   xmlns:cc="http://creativecommons.org/ns#"
   xmlns:dc="http://purl.org/dc/elements/1.1/">
  <sodipodi:namedview
     pagecolor="#ffffff"
     bordercolor="#666666"
     borderopacity="1"
     objecttolerance="10"
     gridtolerance="10"
     guidetolerance="10"
     inkscape:pageopacity="0"
     inkscape:pageshadow="2"
     inkscape:window-width="1920"
     inkscape:window-height="1009"
     id="namedview11"
     showgrid="true"
     inkscape:zoom="8.0000004"
     inkscape:cx="-5.4999998"
     inkscape:cy="25.874999"
     inkscape:window-x="-8"
     inkscape:window-y="-8"
     inkscape:window-maximized="1"
     inkscape:current-layer="text5282"
     inkscape:document-rotation="0"
     inkscape:pagecheckerboard="0"
     showguides="true"
     inkscape:guide-bbox="true"
     inkscape:showpageshadow="0"
     inkscape:deskcolor="#d1d1d1">
    <inkscape:grid
       type="xygrid"
       id="grid823" />
    <sodipodi:guide
       position="0,86"
       orientation="66,0"
       id="guide957"
       inkscape:locked="false" />
    <sodipodi:guide
       position="0,20"
       orientation="0,50"
       id="guide959"
       inkscape:locked="false" />
    <sodipodi:guide
       position="50,20"
       orientation="-66,0"
       id="guide961"
       inkscape:locked="false" />
    <sodipodi:guide
       position="50,86"
       orientation="0,-50"
       id="guide963"
       inkscape:locked="false" />
    <sodipodi:guide
       position="8.9999971,64.32985"
       orientation="8.5387222,0"
       id="guide1517"
       inkscape:locked="false" />
    <sodipodi:guide
       position="8.9999971,55.791128"
       orientation="0,26.227758"
       id="guide1519"
       inkscape:locked="false" />
    <sodipodi:guide
       position="35,93.437165"
       orientation="-8.5387222,0"
       id="guide1521"
       inkscape:locked="false" />
    <sodipodi:guide
       position="35.227755,64.32985"
       orientation="0,-26.227758"
       id="guide1523"
       inkscape:locked="false" />
    <sodipodi:guide
       position="7.9247812,20.000001"
       orientation="0,-6.8495616"
       id="guide4054"
       inkscape:locked="false" />
    <sodipodi:guide
       position="1.0752196,74.999813"
       orientation="0,6.8495616"
       id="guide4058"
       inkscape:locked="false" />
  </sodipodi:namedview>
  <defs
     id="defs4462" />
  <metadata
     id="metadata4465">
    <rdf:RDF>
      <cc:Work
         rdf:about="">
        <dc:format>image/svg+xml</dc:format>
        <dc:type
           rdf:resource="http://purl.org/dc/dcmitype/StillImage" />
      </cc:Work>
    </rdf:RDF>
  </metadata>
  <g
     aria-label="C"
     id="text3215"
     style="font-size:32px;line-height:1.25"
     transform="translate(-37.75,-4)">
    <g
       aria-label="A"
       id="text5282"
       transform="matrix(1.6290909,0,0,2.8292029,-41.002727,-68.776958)">
      <path
         id="path480"
         style="font-weight:bold;font-size:12.7px;line-height:1;font-family:'Caviar Dreams';-inkscape-font-specification:'Caviar Dreams Bold';text-align:center;text-anchor:middle;fill:#000000;stroke:#ffffff;stroke-width:0;stroke-linecap:round"
         d="m 63.198071,30.394162 c -0.393823,0 -0.788135,0.03243 -1.181958,0.09723 -1.547155,0.259166 -2.594684,1.279453 -3.143233,3.061204 h 3.945526 c -0.196912,-0.332047 -0.295739,-0.598923 -0.295739,-0.801401 0,-0.299675 0.210494,-0.457873 0.632442,-0.474052 h 0.08493 c 0.393822,0 1.005538,0.231033 1.835384,0.692668 0.843909,0.461635 1.78669,0.692093 2.82751,0.692093 0.393824,0 0.787136,-0.03243 1.18096,-0.09723 1.533093,-0.259166 2.566796,-1.279445 3.10127,-3.061204 h -3.923546 c 0.182849,0.348258 0.273759,0.627654 0.273759,0.838221 0,0.315861 -0.210495,0.474052 -0.632443,0.474052 v -0.01266 c -0.365698,0 -0.985331,-0.234444 -1.857365,-0.704175 -0.872047,-0.469739 -1.820735,-0.704751 -2.847493,-0.70475 z m 2.330948,4.002404 c -4.590568,0 -8.510679,0.97216 -11.760644,2.916227 -3.249978,1.944065 -4.874708,4.288851 -4.874708,7.034843 0,2.745993 1.62473,5.090776 4.874708,7.034843 3.249965,1.944065 7.170076,2.916227 11.760644,2.916227 4.590569,0 8.510692,-0.972162 11.760645,-2.916227 3.249969,-1.944067 4.874705,-4.28885 4.874705,-7.034843 0,-2.745992 -1.624736,-5.090778 -4.874705,-7.034843 -3.249953,-1.944067 -7.170076,-2.916227 -11.760645,-2.916227 z m 0,2.539402 c 3.426009,0 6.34393,0.724706 8.754292,2.174656 2.423946,1.441849 3.635799,3.187644 3.635799,5.237012 0,2.049371 -1.211853,3.799146 -3.635799,5.249093 -2.410362,1.449949 -5.328283,2.174657 -8.754292,2.174657 -3.412475,0 -6.330357,-0.724708 -8.754291,-2.174657 -2.423921,-1.449947 -3.635799,-3.199722 -3.635799,-5.249093 0,-2.049368 1.20443,-3.795163 3.614817,-5.237012 2.423921,-1.44995 5.349251,-2.174656 8.775273,-2.174656 z" />
    </g>
  </g>
</svg>
