<?xml version="1.0" encoding="UTF-8" standalone="no"?>
<svg
   version="1.1"
   width="32"
   height="100"
   id="svg4460"
   sodipodi:docname="u00fc-uuml.svg"
   inkscape:version="1.2.2 (732a01da63, 2022-12-09)"
   xmlns:inkscape="http://www.inkscape.org/namespaces/inkscape"
   xmlns:sodipodi="http://sodipodi.sourceforge.net/DTD/sodipodi-0.dtd"
   xmlns="http://www.w3.org/2000/svg"
   xmlns:svg="http://www.w3.org/2000/svg"
   xmlns:rdf="http://www.w3.org/1999/02/22-rdf-syntax-ns#"
   xmlns:cc="http://creativecommons.org/ns#"
   xmlns:dc="http://purl.org/dc/elements/1.1/">
  <sodipodi:namedview
     pagecolor="#ffffff"
     bordercolor="#666666"
     borderopacity="1"
     objecttolerance="10"
     gridtolerance="10"
     guidetolerance="10"
     inkscape:pageopacity="0"
     inkscape:pageshadow="2"
     inkscape:window-width="1920"
     inkscape:window-height="1009"
     id="namedview11"
     showgrid="true"
     inkscape:zoom="2.8284271"
     inkscape:cx="-90.509668"
     inkscape:cy="50.911688"
     inkscape:window-x="-8"
     inkscape:window-y="-8"
     inkscape:window-maximized="1"
     inkscape:current-layer="text5282"
     inkscape:document-rotation="0"
     inkscape:pagecheckerboard="0"
     showguides="true"
     inkscape:guide-bbox="true"
     inkscape:showpageshadow="0"
     inkscape:deskcolor="#d1d1d1">
    <inkscape:grid
       type="xygrid"
       id="grid823" />
    <sodipodi:guide
       position="0,86"
       orientation="66,0"
       id="guide957"
       inkscape:locked="false" />
    <sodipodi:guide
       position="0,20"
       orientation="0,50"
       id="guide959"
       inkscape:locked="false" />
    <sodipodi:guide
       position="50,20"
       orientation="-66,0"
       id="guide961"
       inkscape:locked="false" />
    <sodipodi:guide
       position="50,86"
       orientation="0,-50"
       id="guide963"
       inkscape:locked="false" />
    <sodipodi:guide
       position="8.9999971,64.32985"
       orientation="8.5387222,0"
       id="guide1517"
       inkscape:locked="false" />
    <sodipodi:guide
       position="8.9999971,55.791128"
       orientation="0,26.227758"
       id="guide1519"
       inkscape:locked="false" />
    <sodipodi:guide
       position="35,93.437165"
       orientation="-8.5387222,0"
       id="guide1521"
       inkscape:locked="false" />
    <sodipodi:guide
       position="35.227755,64.32985"
       orientation="0,-26.227758"
       id="guide1523"
       inkscape:locked="false" />
    <sodipodi:guide
       position="7.9247812,20.000001"
       orientation="0,-6.8495616"
       id="guide4054"
       inkscape:locked="false" />
    <sodipodi:guide
       position="1.0752196,74.999813"
       orientation="0,6.8495616"
       id="guide4058"
       inkscape:locked="false" />
  </sodipodi:namedview>
  <defs
     id="defs4462" />
  <metadata
     id="metadata4465">
    <rdf:RDF>
      <cc:Work
         rdf:about="">
        <dc:format>image/svg+xml</dc:format>
        <dc:type
           rdf:resource="http://purl.org/dc/dcmitype/StillImage" />
      </cc:Work>
    </rdf:RDF>
  </metadata>
  <g
     aria-label="C"
     id="text3215"
     style="font-size:32px;line-height:1.25"
     transform="translate(-37.75,-4)">
    <g
       aria-label="A"
       id="text5282"
       transform="matrix(1.6290909,0,0,2.8292029,-41.002727,-68.776958)">
      <path
         id="path492"
         style="font-weight:bold;font-size:12.7px;line-height:1;font-family:'Caviar Dreams';-inkscape-font-specification:'Caviar Dreams Bold';text-align:center;text-anchor:middle;fill:#000000;stroke:#ffffff;stroke-width:0;stroke-linecap:round"
         d="m 53.170759,30.435495 c -0.87203,0 -1.6043,0.174118 -2.19502,0.522367 -0.59072,0.348243 -0.8852,0.761356 -0.8852,1.239183 0,0.485924 0.29448,0.899039 0.8852,1.239185 0.59072,0.348241 1.32299,0.522367 2.19502,0.522367 0.84388,0 1.56033,-0.174125 2.15107,-0.522367 0.59071,-0.340145 0.88619,-0.753261 0.88619,-1.239185 0,-0.477826 -0.29548,-0.89094 -0.88619,-1.239183 -0.59074,-0.348249 -1.30719,-0.522367 -2.15107,-0.522367 z m 9.95803,0 c -0.87203,0 -1.60331,0.174118 -2.19403,0.522367 -0.59072,0.348243 -0.8862,0.761356 -0.8862,1.239183 0,0.485924 0.29548,0.899039 0.8862,1.239185 0.59072,0.348241 1.322,0.522367 2.19403,0.522367 0.84388,0 1.56133,-0.174125 2.15206,-0.522367 0.59072,-0.340145 0.8852,-0.753261 0.8852,-1.239185 0,-0.477826 -0.29448,-0.89094 -0.8852,-1.239183 -0.59073,-0.348249 -1.30818,-0.522367 -2.15206,-0.522367 z m -14.2082,4.123708 V 47.54762 c 0.0767,3.385076 3.32026,6.611637 9.24167,6.609554 5.92143,-0.002 9.3337,-2.762344 9.24167,-5.904819 V 34.559203 h -4.22419 V 47.54762 c -0.0486,2.147489 -1.26343,4.085097 -5.01748,4.070206 -3.75406,-0.01496 -5.01064,-1.731806 -5.01648,-4.070206 V 34.559203 Z" />
    </g>
  </g>
</svg>
