<?xml version="1.0" encoding="UTF-8" standalone="no"?>
<svg
   version="1.1"
   width="56"
   height="100"
   id="svg4460"
   sodipodi:docname="u00f6-ouml.svg"
   inkscape:version="1.2.2 (732a01da63, 2022-12-09)"
   xmlns:inkscape="http://www.inkscape.org/namespaces/inkscape"
   xmlns:sodipodi="http://sodipodi.sourceforge.net/DTD/sodipodi-0.dtd"
   xmlns="http://www.w3.org/2000/svg"
   xmlns:svg="http://www.w3.org/2000/svg"
   xmlns:rdf="http://www.w3.org/1999/02/22-rdf-syntax-ns#"
   xmlns:cc="http://creativecommons.org/ns#"
   xmlns:dc="http://purl.org/dc/elements/1.1/">
  <sodipodi:namedview
     pagecolor="#ffffff"
     bordercolor="#666666"
     borderopacity="1"
     objecttolerance="10"
     gridtolerance="10"
     guidetolerance="10"
     inkscape:pageopacity="0"
     inkscape:pageshadow="2"
     inkscape:window-width="1920"
     inkscape:window-height="1009"
     id="namedview11"
     showgrid="true"
     inkscape:zoom="8.0000004"
     inkscape:cx="-5.4999998"
     inkscape:cy="25.874999"
     inkscape:window-x="-8"
     inkscape:window-y="-8"
     inkscape:window-maximized="1"
     inkscape:current-layer="text5282"
     inkscape:document-rotation="0"
     inkscape:pagecheckerboard="0"
     showguides="true"
     inkscape:guide-bbox="true"
     inkscape:showpageshadow="0"
     inkscape:deskcolor="#d1d1d1">
    <inkscape:grid
       type="xygrid"
       id="grid823" />
    <sodipodi:guide
       position="0,86"
       orientation="66,0"
       id="guide957"
       inkscape:locked="false" />
    <sodipodi:guide
       position="0,20"
       orientation="0,50"
       id="guide959"
       inkscape:locked="false" />
    <sodipodi:guide
       position="50,20"
       orientation="-66,0"
       id="guide961"
       inkscape:locked="false" />
    <sodipodi:guide
       position="50,86"
       orientation="0,-50"
       id="guide963"
       inkscape:locked="false" />
    <sodipodi:guide
       position="8.9999971,64.32985"
       orientation="8.5387222,0"
       id="guide1517"
       inkscape:locked="false" />
    <sodipodi:guide
       position="8.9999971,55.791128"
       orientation="0,26.227758"
       id="guide1519"
       inkscape:locked="false" />
    <sodipodi:guide
       position="35,93.437165"
       orientation="-8.5387222,0"
       id="guide1521"
       inkscape:locked="false" />
    <sodipodi:guide
       position="35.227755,64.32985"
       orientation="0,-26.227758"
       id="guide1523"
       inkscape:locked="false" />
    <sodipodi:guide
       position="7.9247812,20.000001"
       orientation="0,-6.8495616"
       id="guide4054"
       inkscape:locked="false" />
    <sodipodi:guide
       position="1.0752196,74.999813"
       orientation="0,6.8495616"
       id="guide4058"
       inkscape:locked="false" />
  </sodipodi:namedview>
  <defs
     id="defs4462" />
  <metadata
     id="metadata4465">
    <rdf:RDF>
      <cc:Work
         rdf:about="">
        <dc:format>image/svg+xml</dc:format>
        <dc:type
           rdf:resource="http://purl.org/dc/dcmitype/StillImage" />
      </cc:Work>
    </rdf:RDF>
  </metadata>
  <g
     aria-label="C"
     id="text3215"
     style="font-size:32px;line-height:1.25"
     transform="translate(-37.75,-4)">
    <g
       aria-label="A"
       id="text5282"
       transform="matrix(1.6290909,0,0,2.8292029,-41.002727,-68.776958)">
      <path
         id="path480-4"
         style="font-weight:bold;font-size:12.7px;line-height:1;font-family:'Caviar Dreams';-inkscape-font-specification:'Caviar Dreams Bold';text-align:center;text-anchor:middle;fill:#000000;stroke:#ffffff;stroke-width:0;stroke-linecap:round"
         d="m 60.571384,30.509225 c -0.872046,0 -1.604332,0.174121 -2.195067,0.522378 -0.590735,0.34825 -0.885221,0.761372 -0.885221,1.239209 0,0.485933 0.294486,0.899057 0.885221,1.239209 0.590735,0.34825 1.323021,0.522378 2.195067,0.522378 0.843896,0 1.560358,-0.174128 2.151106,-0.522378 0.590733,-0.340152 0.886219,-0.753276 0.886219,-1.239209 0,-0.477837 -0.295486,-0.890959 -0.886219,-1.239209 -0.590748,-0.348257 -1.30721,-0.522378 -2.151106,-0.522378 z m 9.958231,0 c -0.87204,0 -1.603334,0.174121 -2.194068,0.522378 -0.590736,0.34825 -0.88622,0.761372 -0.88622,1.239209 0,0.485933 0.295484,0.899057 0.88622,1.239209 0.590734,0.34825 1.322028,0.522378 2.194068,0.522378 0.843908,0 1.561369,-0.174128 2.152105,-0.522378 0.590736,-0.340152 0.88522,-0.753276 0.88522,-1.239209 0,-0.477837 -0.294484,-0.890959 -0.88522,-1.239209 -0.590736,-0.348257 -1.308197,-0.522378 -2.152105,-0.522378 z m -5.000597,3.887343 c -4.590568,0 -8.510678,0.97216 -11.760644,2.916226 -3.249978,1.944064 -4.874707,4.28885 -4.874707,7.034843 0,2.745992 1.624729,5.090775 4.874707,7.034842 3.249966,1.944065 7.170076,2.916227 11.760644,2.916227 4.590569,0 8.510692,-0.972162 11.760644,-2.916227 3.249966,-1.944067 4.874707,-4.28885 4.874707,-7.034842 0,-2.745993 -1.624741,-5.090779 -4.874707,-7.034843 -3.249952,-1.944066 -7.170075,-2.916226 -11.760644,-2.916226 z m 0,2.5394 c 3.426009,0 6.34393,0.724707 8.754291,2.174658 2.423947,1.441849 3.635798,3.187643 3.635798,5.237011 0,2.049371 -1.211851,3.799145 -3.635798,5.249092 -2.410361,1.449949 -5.328282,2.174657 -8.754291,2.174657 -3.412475,0 -6.330357,-0.724708 -8.754291,-2.174657 -2.42392,-1.449947 -3.635798,-3.199721 -3.635798,-5.249092 0,-2.049368 1.20443,-3.795162 3.614817,-5.237011 2.42392,-1.449951 5.34925,-2.174658 8.775272,-2.174658 z" />
    </g>
  </g>
</svg>
