<?xml version="1.0" encoding="UTF-8" standalone="no"?>
<svg
   version="1.1"
   width="67"
   height="100"
   id="svg4460"
   sodipodi:docname="u2619-bug.svg"
   inkscape:version="1.1.1 (3bf5ae0d25, 2021-09-20)"
   xmlns:inkscape="http://www.inkscape.org/namespaces/inkscape"
   xmlns:sodipodi="http://sodipodi.sourceforge.net/DTD/sodipodi-0.dtd"
   xmlns="http://www.w3.org/2000/svg"
   xmlns:svg="http://www.w3.org/2000/svg"
   xmlns:rdf="http://www.w3.org/1999/02/22-rdf-syntax-ns#"
   xmlns:cc="http://creativecommons.org/ns#"
   xmlns:dc="http://purl.org/dc/elements/1.1/">
  <sodipodi:namedview
     pagecolor="#ffffff"
     bordercolor="#666666"
     borderopacity="1"
     objecttolerance="10"
     gridtolerance="10"
     guidetolerance="10"
     inkscape:pageopacity="0"
     inkscape:pageshadow="2"
     inkscape:window-width="2880"
     inkscape:window-height="1541"
     id="namedview11"
     showgrid="true"
     inkscape:zoom="6.8738185"
     inkscape:cx="-55.136748"
     inkscape:cy="28.73221"
     inkscape:window-x="-11"
     inkscape:window-y="-11"
     inkscape:window-maximized="1"
     inkscape:current-layer="text5282"
     inkscape:document-rotation="0"
     inkscape:pagecheckerboard="0"
     showguides="true"
     inkscape:guide-bbox="true">
    <inkscape:grid
       type="xygrid"
       id="grid823" />
    <sodipodi:guide
       position="0,86"
       orientation="66,0"
       id="guide957" />
    <sodipodi:guide
       position="0,20"
       orientation="0,50"
       id="guide959" />
    <sodipodi:guide
       position="50,20"
       orientation="-66,0"
       id="guide961" />
    <sodipodi:guide
       position="50,86"
       orientation="0,-50"
       id="guide963" />
    <sodipodi:guide
       position="8.9999971,64.32985"
       orientation="8.5387222,0"
       id="guide1517" />
    <sodipodi:guide
       position="8.9999971,55.791128"
       orientation="0,26.227758"
       id="guide1519" />
    <sodipodi:guide
       position="35,93.437165"
       orientation="-8.5387222,0"
       id="guide1521" />
    <sodipodi:guide
       position="35.227755,64.32985"
       orientation="0,-26.227758"
       id="guide1523" />
    <sodipodi:guide
       position="7.9247812,20.000001"
       orientation="0,-6.8495616"
       id="guide4054" />
    <sodipodi:guide
       position="1.0752196,74.999813"
       orientation="0,6.8495616"
       id="guide4058" />
  </sodipodi:namedview>
  <defs
     id="defs4462" />
  <metadata
     id="metadata4465">
    <rdf:RDF>
      <cc:Work
         rdf:about="">
        <dc:format>image/svg+xml</dc:format>
        <dc:type
           rdf:resource="http://purl.org/dc/dcmitype/StillImage" />
      </cc:Work>
    </rdf:RDF>
  </metadata>
  <g
     aria-label="C"
     id="text3215"
     style="font-size:32px;line-height:1.25"
     transform="translate(-37.75,-4)">
    <g
       aria-label="A"
       id="text5282"
       transform="matrix(1.6290909,0,0,2.8292029,-41.002727,-68.776958)">
      <path
         id="path25300"
         style="color:#000000;fill:#000000;stroke-width:2.03523;-inkscape-stroke:none"
         d="m 68.908643,25.900226 c -5.29288,8.17e-4 -9.614765,2.493148 -9.614693,5.541063 2.13e-4,2.373583 2.618763,4.406847 6.281398,5.191505 0.06742,0.0259 0.09147,0.04008 0.120566,0.05746 -0.0826,0.04202 -0.431741,0.185813 -1.168412,0.31923 -1.953127,0.353736 -3.191226,1.061088 -3.688182,2.123691 -0.138379,0.295727 -0.215942,0.376977 -0.277183,0.404624 -0.06103,0.02767 -0.324374,0.07482 -0.964677,0.12929 -0.892152,0.07591 -1.943618,0.313973 -2.619545,0.608933 l -0.424076,0.187556 c -0.584881,-0.475834 -0.897831,-0.8902 -0.654213,-1.233831 0.298899,-0.421675 1.053027,-0.830691 1.701987,-1.194724 h -0.0071 c 0.617667,-0.343364 1.183104,-0.69681 1.624425,-1.013561 0.441321,-0.316752 0.759947,-0.570331 0.906417,-0.826009 0.208986,-0.364323 0.221476,-0.847732 0.162151,-1.282517 -0.02909,-0.217392 -0.07819,-0.416523 -0.162151,-0.584992 -0.04187,-0.08423 -0.08998,-0.157587 -0.178759,-0.237827 -0.08878,-0.08025 -0.274769,-0.204508 -0.591834,-0.202711 h -0.0071 c 0,8e-6 -0.108357,0.0074 -0.141359,0.01275 -0.03335,0.0055 -0.0582,0.01041 -0.07763,0.01516 -0.03832,0.0096 -0.05819,0.01667 -0.07898,0.02394 -0.04258,0.01451 -0.07522,0.02775 -0.109502,0.0423 -0.06883,0.02913 -0.144197,0.06432 -0.23567,0.108543 -0.18266,0.08844 -0.424148,0.210604 -0.712402,0.361531 -0.576436,0.301853 -1.338016,0.715946 -2.15381,1.17078 -2.722584,1.517918 -4.27349,2.709662 -4.598787,3.885049 -0.325224,1.175388 0.687637,2.240492 2.723507,3.347941 0.735749,0.400244 1.064168,0.617068 1.168413,0.774937 0.104311,0.157868 0.07416,0.34806 -0.09424,0.799674 l -0.01703,0.03592 c -0.500505,-0.237961 -0.986888,-0.500862 -1.5343,-0.630486 -0.802597,-0.190085 -1.72796,-0.193456 -2.608474,0.09656 h -0.0071 v 0.0032 c -0.852271,0.289913 -1.430056,0.763324 -1.681195,1.469265 -0.251068,0.705938 -0.250358,1.658668 -0.09424,3.058237 0.09707,0.869639 0.157043,1.346052 0.282719,1.662398 0.06315,0.158172 0.137456,0.296101 0.33956,0.410215 0.202246,0.114115 0.497808,0.14445 0.681959,0.14445 0.73149,0 1.293521,-0.296038 1.660402,-0.657615 0.366881,-0.36158 0.573242,-0.821871 0.523922,-1.296879 -0.1046,-1.005667 -0.141927,-1.594111 -0.09978,-1.91539 0.0213,-0.160639 0.06458,-0.249452 0.09424,-0.286509 0.0298,-0.03707 0.02625,-0.03433 0.08871,-0.05747 0.05038,-0.01847 0.0362,-0.0088 0.01633,-0.0088 -0.01845,6.5e-5 -0.0079,-0.0068 0.07345,0.02076 0.160662,0.05534 0.512995,0.238882 1.051962,0.567434 0.524703,0.31986 0.823461,0.535193 0.979934,0.702309 0.156404,0.167116 0.198769,0.287699 0.19962,0.504385 0,0.366042 0.09019,1.028784 0.194014,1.525928 l 0.109503,0.533915 h -0.471197 c -1.565027,0 -2.801423,0.706073 -3.028364,1.478044 -0.241986,0.823128 0.406266,1.852237 1.535648,2.986409 1.129383,1.134173 2.784534,2.360879 4.724888,3.480424 0.518529,0.299185 1.011938,0.584994 1.413733,0.799674 0.200897,0.10734 0.378448,0.195189 0.534994,0.264964 0.07834,0.03491 0.148029,0.06696 0.230063,0.09417 0.0821,0.02721 0.151933,0.06304 0.377028,0.06304 0.310323,0 0.483049,-0.05743 0.706867,-0.1237 0.223677,-0.06626 0.457784,-0.151279 0.670817,-0.250597 0.302446,-0.141018 0.545424,-0.31224 0.655559,-0.518752 0.110277,-0.206513 0.06174,-0.43238 -0.09005,-0.636067 -0.303794,-0.40738 -0.9656,-0.779542 -1.995846,-1.240217 h -0.0071 C 60.410076,56.64824 59.83662,56.326915 59.217891,55.925555 58.59916,55.5242 57.886474,55.025778 57.299678,54.546476 56.712881,54.067176 56.25758,53.593357 56.1368,53.319032 c -0.06032,-0.137156 -0.01845,-0.199413 -0.02625,-0.193137 -0.0079,0.0064 -0.022,-0.01454 0.230065,-0.01516 0.331541,0 0.371634,8.18e-4 0.555785,0.09656 0.184292,0.09564 0.481132,0.331989 0.942466,0.769349 1.625985,1.541236 3.997156,2.941151 6.217672,3.634451 1.73165,0.540664 2.247625,0.609733 4.850989,0.609733 2.603365,0 3.124875,-0.06906 4.856525,-0.609733 2.206111,-0.688781 4.582888,-2.088026 6.244,-3.637644 0.451896,-0.421601 0.74973,-0.658064 0.942466,-0.759773 0.132205,-0.06974 0.240283,-0.06197 0.356237,-0.06943 0.09757,0.05185 0.211541,0.101873 0.246668,0.162809 0.05251,0.09049 0.0582,0.211423 -0.0071,0.367915 -0.12738,0.312988 -0.548336,0.736996 -1.100501,1.155616 -1.104334,0.837243 -2.722939,1.675761 -3.326412,1.951302 -0.786488,0.355905 -1.270315,0.589512 -1.59249,0.820429 -0.322174,0.230913 -0.446005,0.505749 -0.397821,0.742212 0.07998,0.390567 0.530807,0.721726 1.14762,0.920186 0.194725,0.06262 0.359359,0.115318 0.559973,0.153233 0.200614,0.03791 0.458921,0.05006 0.686075,0.0096 0.454236,-0.08112 0.719853,-0.257625 1.232138,-0.540298 2.021819,-1.115568 4.859008,-3.268187 5.934884,-4.524311 0.980928,-1.14534 1.436442,-2.029043 1.225184,-2.744591 -0.105664,-0.357776 -0.406691,-0.671389 -0.880088,-0.889861 -0.473397,-0.21847 -1.087089,-0.34481 -1.811484,-0.404623 -0.301879,-0.02493 -0.561889,-0.06463 -0.734613,-0.09976 0.02413,-0.09516 0.04045,-0.159736 0.08459,-0.340782 0.06883,-0.281995 0.159952,-0.648241 0.250857,-1.031115 0.152073,-0.639117 0.259441,-0.981047 0.424076,-1.209888 0.164707,-0.228846 0.395551,-0.386834 0.92728,-0.702309 0.46559,-0.276267 0.775701,-0.427005 0.906416,-0.467675 0.02909,-0.0092 0.04187,-0.01577 0.04825,-0.02076 0.0071,0.0045 0.0093,0.01 0.03052,0.01757 0.0589,0.02149 0.05393,0.01664 0.0831,0.05428 0.0298,0.03763 0.0736,0.128393 0.09431,0.289701 0.04116,0.322615 0.0071,0.910558 -0.09985,1.912199 -0.04968,0.475012 0.152996,0.935298 0.519735,1.296879 0.36688,0.361576 0.934517,0.657614 1.666008,0.657614 0.182945,0 0.466373,-0.03105 0.66947,-0.142055 0.203025,-0.110993 0.283214,-0.243834 0.346443,-0.397445 0.126386,-0.307226 0.183582,-0.76359 0.277254,-1.592966 0.116096,-1.027446 0.146185,-2.192117 0.04187,-2.703092 -0.227438,-1.109504 -1.391238,-1.982444 -3.053414,-2.161999 l -0.02768,-0.0032 h -0.02058 c -0.905281,-0.04748 -1.578511,0.109386 -2.063758,0.325613 -0.285202,0.127105 -0.543013,0.257082 -0.796991,0.388668 -0.03548,-0.09659 -0.07338,-0.175366 -0.103964,-0.2921 -0.05038,-0.193834 -0.08657,-0.332593 -0.09005,-0.422181 0,-0.08959 0.01133,-0.123925 0.05251,-0.172388 0.08289,-0.09692 0.415349,-0.287482 1.173947,-0.669588 2.041689,-1.028402 3.05519,-2.085848 2.738764,-3.263346 -0.316498,-1.177497 -1.844979,-2.389812 -4.519803,-3.89702 -0.832898,-0.46932 -1.607747,-0.895347 -2.195395,-1.206692 -0.293861,-0.155671 -0.541878,-0.283249 -0.72766,-0.374301 -0.09282,-0.04553 -0.166196,-0.08186 -0.235597,-0.111733 -0.03478,-0.01499 -0.06813,-0.02982 -0.110913,-0.04469 -0.02129,-0.0074 -0.04399,-0.01496 -0.08317,-0.02472 -0.01845,-0.005 -0.0447,-0.0096 -0.07898,-0.01516 -0.03406,-0.0056 -0.145332,-0.01198 -0.146893,-0.01198 -0.31671,-8.16e-4 -0.503202,0.122513 -0.591835,0.202712 -0.08878,0.0802 -0.135329,0.153574 -0.177409,0.237827 -0.08395,0.168513 -0.132701,0.370807 -0.162152,0.588186 -0.05891,0.434756 -0.04684,0.915051 0.162152,1.279322 0.146398,0.255613 0.46552,0.509491 0.906416,0.826009 0.440966,0.316519 1.002286,0.670798 1.618888,1.013561 0.803519,0.446695 1.310127,0.757444 1.607747,0.992812 0.294357,0.232801 0.380791,0.378505 0.424149,0.561046 0.02768,0.302777 -0.05535,0.443509 -0.225947,0.584992 -0.115028,0.09539 -0.379229,0.228706 -0.612629,0.352754 l -0.597319,-0.259355 c -0.661236,-0.288568 -1.710857,-0.525212 -2.591797,-0.600155 -0.640302,-0.05447 -0.909111,-0.10245 -0.970212,-0.130088 -0.06103,-0.02767 -0.133411,-0.108103 -0.271647,-0.403827 -0.496957,-1.062599 -1.735057,-1.769955 -3.688182,-2.12369 -0.74086,-0.134173 -1.088793,-0.279833 -1.168414,-0.320028 0.03123,-0.01835 0.04896,-0.03183 0.124754,-0.06066 3.652985,-0.787564 6.265929,-2.817958 6.266141,-5.187512 7.2e-5,-3.047915 -4.32735,-5.540238 -9.620299,-5.541063 v 0 z m 0,2.011959 c 3.406883,-4.2e-5 6.129039,1.567386 6.128969,3.529104 -2.13e-4,1.961618 -2.722229,3.526749 -6.128969,3.526712 -3.406671,3.7e-5 -6.123152,-1.565094 -6.123364,-3.526712 0,-1.961718 2.716479,-3.529146 6.123364,-3.529104 z m 0.0071,10.53624 c 1.740449,0.0024 2.986212,0.126041 3.719974,0.335192 0.632072,0.180154 0.78443,0.418349 0.848296,0.729445 -0.09793,0.01098 -0.115883,0.01798 -0.30358,0.02713 -0.713396,0.03482 -2.06681,0.04549 -4.411655,0.04549 h -4.589063 l 0.08459,-0.117319 c 0.283712,-0.400378 0.63498,-0.618588 1.325029,-0.781319 0.689977,-0.162732 1.754855,-0.240891 3.326411,-0.238623 z m 0,3.01035 v 0 c 3.709471,5e-6 5.733349,0.0074 6.928657,0.05107 1.195521,0.04371 1.496051,0.108288 2.001382,0.253792 0.532438,0.153292 1.204462,0.536334 1.294514,0.645646 0.144269,0.175248 0.378377,0.799895 0.486525,1.39903 0.10808,0.599141 0.0975,1.241049 0.022,1.414998 -0.05606,0.128706 -0.301666,0.295653 -0.991004,0.476451 -0.689339,0.180795 -1.761739,0.354452 -3.241822,0.515559 -1.386838,0.150963 -3.841676,0.236679 -6.741526,0.226656 -3.272081,-0.01133 -5.897515,-0.149863 -7.711695,-0.389463 -0.907126,-0.119798 -1.611154,-0.26596 -2.0749,-0.418991 -0.463674,-0.153031 -0.652934,-0.299325 -0.701261,-0.41021 -0.09176,-0.210634 -0.09786,-0.843168 0.02625,-1.438939 0.123334,-0.595771 0.381074,-1.207891 0.56132,-1.408608 0.211046,-0.235064 0.383487,-0.379555 0.63342,-0.488426 0.249933,-0.108867 0.617381,-0.197954 1.283445,-0.265761 1.331841,-0.135596 3.764254,-0.162801 8.223171,-0.162809 z m 10.55581,6.331165 c 0,0.01098 0,0.01329 -0.0071,0.02472 -0.0582,0.244665 -0.17883,0.602632 -0.340909,1.00718 -0.324161,0.809084 -0.812603,1.812022 -1.266839,2.5339 -1.33532,2.122206 -3.374737,3.577387 -6.04573,4.370278 -0.261003,0.07744 -0.527542,0.146755 -0.753986,0.19952 -0.02697,-0.203401 -0.04968,-0.491789 -0.0582,-0.84756 -0.01845,-0.736817 0.0071,-1.72848 0.05251,-2.723842 0.04684,-0.99536 0.120779,-1.99381 0.209271,-2.750977 0.044,-0.378582 0.08728,-0.699804 0.135824,-0.920188 0.01633,-0.07075 0.03264,-0.109676 0.04684,-0.157219 2.641614,-0.153558 5.49548,-0.266761 8.026391,-0.735828 z m -20.634888,0.04868 c 2.487979,0.287184 5.010586,0.594589 7.532982,0.687147 0.01063,0.03901 0.022,0.06506 0.03192,0.118114 0.04187,0.203846 0.08267,0.50232 0.126102,0.868309 0.08665,0.731976 0.167971,1.733952 0.224529,2.835574 0.05606,1.095892 0.106449,1.908991 0.115028,2.494796 0.0079,0.58421 -0.03265,0.949902 -0.09836,1.103742 -0.118579,-0.02566 -0.38306,-0.0968 -0.802525,-0.225854 -2.443027,-0.751665 -4.48805,-2.154988 -5.829472,-4.042268 -0.291802,-0.410452 -0.6975,-1.474746 -0.968864,-2.4102 -0.135682,-0.467727 -0.24383,-0.910205 -0.304931,-1.236225 -0.01633,-0.08144 -0.01561,-0.1281 -0.02625,-0.193132 z" />
    </g>
  </g>
</svg>
