<?xml version="1.0" encoding="UTF-8" standalone="no"?>
<svg
   version="1.1"
   width="140"
   height="100"
   id="svg4460"
   sodipodi:docname="u270c-hand.svg"
   inkscape:version="1.1.1 (3bf5ae0d25, 2021-09-20)"
   xmlns:inkscape="http://www.inkscape.org/namespaces/inkscape"
   xmlns:sodipodi="http://sodipodi.sourceforge.net/DTD/sodipodi-0.dtd"
   xmlns="http://www.w3.org/2000/svg"
   xmlns:svg="http://www.w3.org/2000/svg"
   xmlns:rdf="http://www.w3.org/1999/02/22-rdf-syntax-ns#"
   xmlns:cc="http://creativecommons.org/ns#"
   xmlns:dc="http://purl.org/dc/elements/1.1/">
  <sodipodi:namedview
     pagecolor="#ffffff"
     bordercolor="#666666"
     borderopacity="1"
     objecttolerance="10"
     gridtolerance="10"
     guidetolerance="10"
     inkscape:pageopacity="0"
     inkscape:pageshadow="2"
     inkscape:window-width="2880"
     inkscape:window-height="1541"
     id="namedview11"
     showgrid="true"
     inkscape:zoom="13.747637"
     inkscape:cx="25.6044"
     inkscape:cy="72.412444"
     inkscape:window-x="-11"
     inkscape:window-y="-11"
     inkscape:window-maximized="1"
     inkscape:current-layer="text5282"
     inkscape:document-rotation="0"
     inkscape:pagecheckerboard="0"
     showguides="true"
     inkscape:guide-bbox="true">
    <inkscape:grid
       type="xygrid"
       id="grid823" />
    <sodipodi:guide
       position="0,86"
       orientation="66,0"
       id="guide957" />
    <sodipodi:guide
       position="0,20"
       orientation="0,50"
       id="guide959" />
    <sodipodi:guide
       position="50,20"
       orientation="-66,0"
       id="guide961" />
    <sodipodi:guide
       position="50,86"
       orientation="0,-50"
       id="guide963" />
    <sodipodi:guide
       position="8.9999971,64.32985"
       orientation="8.5387222,0"
       id="guide1517" />
    <sodipodi:guide
       position="8.9999971,55.791128"
       orientation="0,26.227758"
       id="guide1519" />
    <sodipodi:guide
       position="35,93.437165"
       orientation="-8.5387222,0"
       id="guide1521" />
    <sodipodi:guide
       position="35.227755,64.32985"
       orientation="0,-26.227758"
       id="guide1523" />
    <sodipodi:guide
       position="7.9247812,20.000001"
       orientation="0,-6.8495616"
       id="guide4054" />
    <sodipodi:guide
       position="1.0752196,74.999813"
       orientation="0,6.8495616"
       id="guide4058" />
  </sodipodi:namedview>
  <defs
     id="defs4462" />
  <metadata
     id="metadata4465">
    <rdf:RDF>
      <cc:Work
         rdf:about="">
        <dc:format>image/svg+xml</dc:format>
        <dc:type
           rdf:resource="http://purl.org/dc/dcmitype/StillImage" />
      </cc:Work>
    </rdf:RDF>
  </metadata>
  <g
     aria-label="C"
     id="text3215"
     style="font-size:32px;line-height:1.25"
     transform="translate(-37.75,-4)">
    <g
       aria-label="A"
       id="text5282"
       transform="matrix(1.6290909,0,0,2.8292029,-41.002727,-68.776958)">
      <path
         style="fill:#000000;stroke-width:0.151256"
         d="m 59.404959,54.353457 c -3.334005,-0.03742 -6.156613,-0.108568 -6.272461,-0.158116 -0.792243,-0.927461 0.816713,-1.340771 1.664708,-1.285115 1.202694,0.08121 13.819735,-0.134472 15.985339,-0.273258 0.913902,-0.05857 -2.443592,-0.07378 -7.927006,-0.0359 -9.760974,0.06741 -11.366703,0.01512 -12.619834,-0.411049 -0.658252,-0.223857 -0.686026,-0.591448 -0.06492,-0.859088 0.682331,-0.294018 3.309382,-0.402057 12.964522,-0.533176 4.667608,-0.06339 8.675409,-0.152795 8.906224,-0.198684 1.402064,-0.278751 -0.241305,-0.314724 -10.54617,-0.230853 -8.603599,0.07002 -11.05929,0.05636 -11.399677,-0.06345 -0.614638,-0.41841 -0.35401,-0.790112 0.0157,-1.304922 0.277096,-0.180691 4.256821,-0.320846 15.541913,-0.547344 6.174416,-0.123924 7.306672,-0.197033 6.926231,-0.447226 -0.160994,-0.105876 -7.843632,-0.123336 -16.252121,-0.03693 -5.344008,0.05491 -6.04176,0.03952 -6.668012,-0.147068 -1.124171,-0.334948 -0.864994,-0.941402 0.512926,-1.2002 0.470269,-0.08833 4.021198,-0.17991 9.605666,-0.247746 4.872777,-0.05919 10.038589,-0.04611 11.450451,-0.178845 1.306426,-0.122822 5.26221,0.197814 3.606301,-0.96512 -1.192934,-0.831837 -3.145893,-0.929067 -7.969077,-0.396751 -3.526603,0.389219 -5.361073,0.380049 -6.784065,-0.03391 -1.418378,-0.412615 -1.219887,-0.580103 1.799899,-1.518779 4.106581,-1.276497 6.460016,-1.81738 9.553852,-1.534028 6.185045,0.566465 11.708274,3.145941 17.224913,3.534525 4.022385,0.273694 31.708159,-0.0741 32.210759,-0.404633 2.12122,-3.679914 1.64774,-11.417938 4.28136,-14.448091 2.02979,-0.07932 7.46071,-0.907862 8.18584,0.406857 -0.4387,3.503257 1.5726,18.367417 -1.05138,18.607906 -12.97139,2.408374 -38.555639,-3.427642 -48.844746,2.086233 -2.22326,1.191432 -4.974026,2.086193 -8.331004,2.646219 -1.952958,0.325802 -2.26478,0.329346 -15.706079,0.178497 z"
         id="path944"
         sodipodi:nodetypes="cccsssssssccssssssscsssscccccsscc" />
    </g>
  </g>
</svg>
