<?xml version="1.0" encoding="UTF-8" standalone="no"?>
<svg
   version="1.1"
   width="39"
   height="100"
   id="svg4460"
   sodipodi:docname="u2625-ankh.svg"
   inkscape:version="1.1.1 (3bf5ae0d25, 2021-09-20)"
   xmlns:inkscape="http://www.inkscape.org/namespaces/inkscape"
   xmlns:sodipodi="http://sodipodi.sourceforge.net/DTD/sodipodi-0.dtd"
   xmlns="http://www.w3.org/2000/svg"
   xmlns:svg="http://www.w3.org/2000/svg"
   xmlns:rdf="http://www.w3.org/1999/02/22-rdf-syntax-ns#"
   xmlns:cc="http://creativecommons.org/ns#"
   xmlns:dc="http://purl.org/dc/elements/1.1/">
  <sodipodi:namedview
     pagecolor="#ffffff"
     bordercolor="#666666"
     borderopacity="1"
     objecttolerance="10"
     gridtolerance="10"
     guidetolerance="10"
     inkscape:pageopacity="0"
     inkscape:pageshadow="2"
     inkscape:window-width="2880"
     inkscape:window-height="1541"
     id="namedview11"
     showgrid="true"
     inkscape:zoom="32.000001"
     inkscape:cx="28.656249"
     inkscape:cy="20.640624"
     inkscape:window-x="2869"
     inkscape:window-y="-11"
     inkscape:window-maximized="1"
     inkscape:current-layer="text5282"
     inkscape:document-rotation="0"
     inkscape:pagecheckerboard="0"
     showguides="true"
     inkscape:guide-bbox="true">
    <inkscape:grid
       type="xygrid"
       id="grid823" />
    <sodipodi:guide
       position="0,86"
       orientation="66,0"
       id="guide957" />
    <sodipodi:guide
       position="0,20"
       orientation="0,50"
       id="guide959" />
    <sodipodi:guide
       position="50,20"
       orientation="-66,0"
       id="guide961" />
    <sodipodi:guide
       position="50,86"
       orientation="0,-50"
       id="guide963" />
    <sodipodi:guide
       position="8.9999971,64.32985"
       orientation="8.5387222,0"
       id="guide1517" />
    <sodipodi:guide
       position="8.9999971,55.791128"
       orientation="0,26.227758"
       id="guide1519" />
    <sodipodi:guide
       position="35,93.437165"
       orientation="-8.5387222,0"
       id="guide1521" />
    <sodipodi:guide
       position="35.227755,64.32985"
       orientation="0,-26.227758"
       id="guide1523" />
    <sodipodi:guide
       position="7.9247812,20.000001"
       orientation="0,-6.8495616"
       id="guide4054" />
    <sodipodi:guide
       position="1.0752196,74.999813"
       orientation="0,6.8495616"
       id="guide4058" />
  </sodipodi:namedview>
  <defs
     id="defs4462" />
  <metadata
     id="metadata4465">
    <rdf:RDF>
      <cc:Work
         rdf:about="">
        <dc:format>image/svg+xml</dc:format>
        <dc:type
           rdf:resource="http://purl.org/dc/dcmitype/StillImage" />
      </cc:Work>
    </rdf:RDF>
  </metadata>
  <g
     aria-label="C"
     id="text3215"
     style="font-size:32px;line-height:1.25"
     transform="translate(-37.75,-4)">
    <g
       aria-label="A"
       id="text5282"
       transform="matrix(1.6290909,0,0,2.8292029,-41.002727,-68.776958)">
      <path
         id="path855"
         style="color:#000000;fill:#000000;fill-rule:evenodd;stroke-width:0.584697;stroke-linecap:round;stroke-linejoin:round;-inkscape-stroke:none"
         d="m 55.183925,30.363351 c -0.764507,0.458786 -1.36712,1.105901 -1.619318,1.975768 -0.252199,0.869867 -0.149276,1.934083 0.403324,3.214089 -4e-6,8.88e-4 -4e-6,0.0018 0,0.0026 0.957625,2.179381 3.036452,3.843542 4.889559,5.357106 l -9.618089,-0.308516 c -0.209528,-0.0056 -0.356783,0.204484 -0.279919,0.399487 0.266563,0.665127 0.266562,1.301111 0,1.966237 -0.07686,0.195002 0.0704,0.405156 0.279919,0.399486 l 10.128265,-0.325829 -0.708828,10.84593 c -0.0123,0.189381 0.156298,0.340102 0.343127,0.306764 1.37083,-0.244968 2.495382,-0.16517 3.547151,0 0.184025,0.02974 0.348514,-0.118008 0.338611,-0.304165 l -0.615522,-10.845929 9.110923,0.323229 c 0.208885,0.0046 0.355005,-0.205097 0.278415,-0.399486 -0.270734,-0.675537 -0.308523,-1.301326 -0.0046,-1.951505 0.09036,-0.196908 -0.05733,-0.420272 -0.2739,-0.414219 l -8.650411,0.308498 c 1.671585,-1.571157 3.785851,-3.120458 4.612651,-5.606677 0.449916,-1.3673 0.496607,-2.453662 0.225741,-3.314611 C 67.30018,31.130661 66.708888,30.519304 65.97732,30.111162 64.514183,29.294878 62.48529,29.2134 60.69274,29.2134 c -1.792551,0 -3.979857,0.23236 -5.50887,1.149932 z m 5.420049,0.803445 c 0.895489,-0.0034 1.79702,0.179837 2.518525,0.539731 0.721503,0.359895 1.257819,0.884022 1.486881,1.574548 0.229065,0.690527 0.164671,1.575753 -0.416869,2.699351 -0.550987,1.064568 -1.665204,2.362801 -3.304853,3.812019 -1.735992,-1.440827 -2.930159,-2.732257 -3.55016,-3.797287 -0.653305,-1.122241 -0.773286,-2.011344 -0.588433,-2.699351 0.184854,-0.688009 0.681617,-1.208521 1.377022,-1.571949 0.695406,-0.363429 1.582397,-0.553735 2.477887,-0.557062 z"
         sodipodi:nodetypes="ssccccccccccccccccccccscscssscsssc" />
    </g>
  </g>
</svg>
