<?xml version="1.0" encoding="UTF-8" standalone="no"?>
<svg
   version="1.1"
   width="140"
   height="100"
   id="svg4460"
   sodipodi:docname="u263c-eye.svg"
   inkscape:version="1.1.1 (3bf5ae0d25, 2021-09-20)"
   xmlns:inkscape="http://www.inkscape.org/namespaces/inkscape"
   xmlns:sodipodi="http://sodipodi.sourceforge.net/DTD/sodipodi-0.dtd"
   xmlns="http://www.w3.org/2000/svg"
   xmlns:svg="http://www.w3.org/2000/svg"
   xmlns:rdf="http://www.w3.org/1999/02/22-rdf-syntax-ns#"
   xmlns:cc="http://creativecommons.org/ns#"
   xmlns:dc="http://purl.org/dc/elements/1.1/">
  <sodipodi:namedview
     pagecolor="#ffffff"
     bordercolor="#666666"
     borderopacity="1"
     objecttolerance="10"
     gridtolerance="10"
     guidetolerance="10"
     inkscape:pageopacity="0"
     inkscape:pageshadow="2"
     inkscape:window-width="2880"
     inkscape:window-height="1541"
     id="namedview11"
     showgrid="true"
     inkscape:zoom="6.8738185"
     inkscape:cx="7.710416"
     inkscape:cy="89.251702"
     inkscape:window-x="-11"
     inkscape:window-y="-11"
     inkscape:window-maximized="1"
     inkscape:current-layer="text5282"
     inkscape:document-rotation="0"
     inkscape:pagecheckerboard="0"
     showguides="true"
     inkscape:guide-bbox="true">
    <inkscape:grid
       type="xygrid"
       id="grid823" />
    <sodipodi:guide
       position="0,86"
       orientation="66,0"
       id="guide957" />
    <sodipodi:guide
       position="0,20"
       orientation="0,50"
       id="guide959" />
    <sodipodi:guide
       position="50,20"
       orientation="-66,0"
       id="guide961" />
    <sodipodi:guide
       position="50,86"
       orientation="0,-50"
       id="guide963" />
    <sodipodi:guide
       position="8.9999971,64.32985"
       orientation="8.5387222,0"
       id="guide1517" />
    <sodipodi:guide
       position="8.9999971,55.791128"
       orientation="0,26.227758"
       id="guide1519" />
    <sodipodi:guide
       position="35,93.437165"
       orientation="-8.5387222,0"
       id="guide1521" />
    <sodipodi:guide
       position="35.227755,64.32985"
       orientation="0,-26.227758"
       id="guide1523" />
    <sodipodi:guide
       position="7.9247812,20.000001"
       orientation="0,-6.8495616"
       id="guide4054" />
    <sodipodi:guide
       position="1.0752196,74.999813"
       orientation="0,6.8495616"
       id="guide4058" />
  </sodipodi:namedview>
  <defs
     id="defs4462" />
  <metadata
     id="metadata4465">
    <rdf:RDF>
      <cc:Work
         rdf:about="">
        <dc:format>image/svg+xml</dc:format>
        <dc:type
           rdf:resource="http://purl.org/dc/dcmitype/StillImage" />
      </cc:Work>
    </rdf:RDF>
  </metadata>
  <g
     aria-label="C"
     id="text3215"
     style="font-size:32px;line-height:1.25"
     transform="translate(-37.75,-4)">
    <g
       aria-label="A"
       id="text5282"
       transform="matrix(1.6290909,0,0,2.8292029,-41.002727,-68.776958)">
      <path
         id="path1732"
         style="fill:#000000;stroke-width:0.478078;stroke-linecap:round;stroke-linejoin:round;-inkscape-stroke:none;stop-color:#000000"
         d="m 105.69444,26.627825 c -17.115596,0.157067 -31.762911,6.007199 -49.41167,5.496487 -3.518326,-0.101811 -6.560406,0.25986 -6.760624,0.348973 -1.087388,0.483977 -0.417235,2.646018 0.803266,2.728929 19.08777,1.296714 34.009221,-4.42052 54.881068,-5.317745 6.25153,-0.215673 20.68839,1.999629 25.58224,3.665853 -1.83257,2.347019 -1.12431,5.289448 -1.63291,7.826028 -10.56622,-3.517732 -9.64592,-7.722041 -25.38681,-6.806609 -6.67491,0.624222 -14.952219,3.650359 -22.345195,4.738961 -10.247564,0.05204 -20.495953,0.104442 -30.743517,0.156481 l -0.170245,0.346355 c -0.09363,0.190533 -0.171611,0.870971 -0.173841,1.512434 l -0.0036,1.166735 1.710837,0.116542 c 9.219865,0.498397 18.648273,-0.301058 27.892522,-0.07137 7.267822,0.990415 12.445051,1.662617 19.177682,2.679823 0.255139,0.14004 -0.766364,0.537082 -7.886396,3.062844 -1.29196,0.456551 -32.150765,12.553875 -38.21749,6.107352 -0.649361,-0.821083 1.652367,-1.043406 2.534485,0.893057 6.177969,1.882927 7.695499,-3.838662 -0.303323,-4.478376 -3.219157,-0.257455 -5.93642,1.815319 -5.359105,3.697281 1.127431,3.67526 12.359628,3.489985 17.623901,2.676548 11.449094,-1.647633 24.854693,-5.519103 35.838895,-10.350679 0.92894,-0.408611 1.75892,-0.680487 1.84511,-0.604321 2.63072,2.805734 -0.39253,8.526524 3.35693,11.828416 0.37044,0.308747 0.72528,0.388913 1.72283,0.388913 1.72149,0 1.94822,-0.326589 1.94822,-2.814702 0,-2.547034 0.43179,-4.402262 1.39792,-5.998667 l 0.7697,-1.271493 -0.657,-1.234825 c -0.36139,-0.679233 -0.5481,-1.290554 -0.41482,-1.357917 0.18943,-0.09575 18.35063,-2.270617 18.96068,-2.270617 0.0817,0 -0.0573,-0.31029 -0.30931,-0.690088 -2.06329,-3.33417 1.87485,-6.688311 1.67367,-10.029207 -0.0549,-0.910788 0.30814,-1.399803 -1.2049,-1.941285 -7.23099,-2.587805 -18.99468,-4.271187 -26.73918,-4.200113 z m -6.700684,11.476822 a 9.2592734,5.0565778 0 0 0 -0.529916,1.672189 9.2592734,5.0565778 0 0 0 2.93252,3.686149 C 90.166912,41.665611 81.170232,40.654794 97.978284,38.208096 Z m 17.513604,0.07464 c 0.17559,0.03441 0.39548,0.08622 0.70855,0.174813 0.76039,0.215178 3.54619,1.711454 6.26788,3.366639 1.48558,0.903452 1.21173,0.759824 -0.92556,0.864903 -3.02387,0.166198 -5.67359,0.470803 -8.37195,0.802704 a 9.2592734,5.0565778 0 0 0 2.79585,-3.61151 9.2592734,5.0565778 0 0 0 -0.47477,-1.597549 z" />
    </g>
  </g>
</svg>
