<?xml version="1.0" encoding="UTF-8" standalone="no"?>
<svg
   version="1.1"
   width="75"
   height="100"
   id="svg4460"
   sodipodi:docname="u263F-hathor.svg"
   inkscape:version="1.2.2 (732a01da63, 2022-12-09)"
   xmlns:inkscape="http://www.inkscape.org/namespaces/inkscape"
   xmlns:sodipodi="http://sodipodi.sourceforge.net/DTD/sodipodi-0.dtd"
   xmlns="http://www.w3.org/2000/svg"
   xmlns:svg="http://www.w3.org/2000/svg"
   xmlns:rdf="http://www.w3.org/1999/02/22-rdf-syntax-ns#"
   xmlns:cc="http://creativecommons.org/ns#"
   xmlns:dc="http://purl.org/dc/elements/1.1/">
  <sodipodi:namedview
     pagecolor="#ffffff"
     bordercolor="#666666"
     borderopacity="1"
     objecttolerance="10"
     gridtolerance="10"
     guidetolerance="10"
     inkscape:pageopacity="0"
     inkscape:pageshadow="2"
     inkscape:window-width="1920"
     inkscape:window-height="1009"
     id="namedview11"
     showgrid="true"
     inkscape:zoom="4"
     inkscape:cx="-47"
     inkscape:cy="64"
     inkscape:window-x="-8"
     inkscape:window-y="-8"
     inkscape:window-maximized="1"
     inkscape:current-layer="text5282"
     inkscape:document-rotation="0"
     inkscape:pagecheckerboard="0"
     showguides="true"
     inkscape:guide-bbox="true"
     inkscape:showpageshadow="0"
     inkscape:deskcolor="#d1d1d1">
    <inkscape:grid
       type="xygrid"
       id="grid823"
       originx="0"
       originy="0" />
    <sodipodi:guide
       position="0,86"
       orientation="66,0"
       id="guide957"
       inkscape:locked="false" />
    <sodipodi:guide
       position="0,20"
       orientation="0,50"
       id="guide959"
       inkscape:locked="false" />
    <sodipodi:guide
       position="50,20"
       orientation="-66,0"
       id="guide961"
       inkscape:locked="false" />
    <sodipodi:guide
       position="50,86"
       orientation="0,-50"
       id="guide963"
       inkscape:locked="false" />
    <sodipodi:guide
       position="8.9999971,64.32985"
       orientation="8.5387222,0"
       id="guide1517"
       inkscape:locked="false" />
    <sodipodi:guide
       position="8.9999971,55.791128"
       orientation="0,26.227758"
       id="guide1519"
       inkscape:locked="false" />
    <sodipodi:guide
       position="35,93.437165"
       orientation="-8.5387222,0"
       id="guide1521"
       inkscape:locked="false" />
    <sodipodi:guide
       position="35.227755,64.32985"
       orientation="0,-26.227758"
       id="guide1523"
       inkscape:locked="false" />
    <sodipodi:guide
       position="7.9247812,20.000001"
       orientation="0,-6.8495616"
       id="guide4054"
       inkscape:locked="false" />
    <sodipodi:guide
       position="1.0752196,74.999813"
       orientation="0,6.8495616"
       id="guide4058"
       inkscape:locked="false" />
  </sodipodi:namedview>
  <defs
     id="defs4462" />
  <metadata
     id="metadata4465">
    <rdf:RDF>
      <cc:Work
         rdf:about="">
        <dc:format>image/svg+xml</dc:format>
        <dc:type
           rdf:resource="http://purl.org/dc/dcmitype/StillImage" />
      </cc:Work>
    </rdf:RDF>
  </metadata>
  <g
     aria-label="C"
     id="text3215"
     style="font-size:32px;line-height:1.25"
     transform="translate(-37.75,-4)">
    <g
       aria-label="A"
       id="text5282"
       transform="matrix(1.6290909,0,0,2.8292029,-41.002727,-68.776958)">
      <path
         id="rect3500-1-0-3"
         style="font-size:50.8px;font-family:'Colonna MT';-inkscape-font-specification:'Colonna MT';text-align:center;text-anchor:middle;display:inline;fill:#000000;stroke:none;stroke-width:2.42657;stroke-linecap:round;stroke-linejoin:round;stroke-dasharray:none;stroke-opacity:1"
         d="m 43.189346,27.490768 c -0.442169,0.0024 -0.789527,0.02185 -1.048791,0.07358 -0.129632,0.02584 -0.255845,0.05556 -0.340966,0.14273 -0.04256,0.04357 -0.06024,0.103829 -0.04186,0.153831 0.01838,0.05002 0.06113,0.08798 0.108515,0.11989 0.264689,0.178278 0.665396,0.221676 1.109933,0.246447 0.444538,0.0248 0.968343,0.02847 1.566575,0.07486 1.196467,0.09268 2.68596,0.346099 4.342786,1.272202 1.854423,1.03655 2.221869,2.422037 2.201138,3.849589 -0.02074,1.427551 -0.447795,2.875044 -0.09309,4.011032 0.991707,3.176121 2.907814,4.99156 6.436512,6.806957 1.206652,0.620786 2.720557,1.115405 4.091606,1.615388 2.011322,0.792324 4.061864,1.449319 6.121985,2.073075 0.515281,1.599973 0.873349,3.131807 0.868116,4.505831 -3.131018,-0.02302 -6.305417,-0.259207 -9.524495,-0.713334 v 4.555945 c 3.389924,-0.395549 6.654065,-0.695243 9.524495,-0.693985 0.0022,1.652819 -0.517738,3.532349 -1.204677,5.484323 h 7.911647 c -0.788671,-1.853592 -1.198867,-3.68146 -1.238828,-5.484323 2.878578,-0.0043 6.155386,0.296883 9.558646,0.693985 v -4.555945 c -3.230846,0.455785 -6.417068,0.692113 -9.559197,0.713651 0.0307,-1.483148 0.31297,-2.983341 0.849389,-4.500756 0.0049,-0.0018 0.01077,-0.0037 0.01597,-0.0054 h 0.0011 c 2.033442,-0.640861 4.172831,-1.342782 6.352233,-2.067682 1.37102,-0.499989 2.88495,-0.994286 4.091605,-1.61507 3.528698,-1.815386 5.446451,-3.631173 6.438163,-6.807275 0.354712,-1.135995 -0.0734,-2.582523 -0.09419,-4.010081 -0.02077,-1.427533 0.346158,-2.813362 2.200585,-3.849907 1.656834,-0.926101 3.147954,-1.179197 4.344434,-1.271884 0.598238,-0.04633 1.122038,-0.05069 1.566578,-0.07549 0.444527,-0.0248 0.843577,-0.06754 1.108277,-0.245812 0.0632,-0.04254 0.12041,-0.101321 0.11677,-0.17318 -0.003,-0.07186 -0.0757,-0.135004 -0.14983,-0.170958 -0.14824,-0.07191 -0.3154,-0.09311 -0.52715,-0.113861 -0.423497,-0.0415 -1.029677,-0.04417 -1.751097,-0.01077 -1.442818,0.06678 -3.325218,0.281962 -4.86883,0.69113 -1.584344,0.419969 -2.875084,1.325811 -3.777077,2.301125 -0.90199,0.97531 -1.418891,2.018715 -1.384249,2.767062 0.03124,0.717264 -0.05833,1.638765 -0.05343,2.493969 -2.98e-4,2.613484 -1.643437,4.831101 -4.956967,6.685478 -2.262491,1.259106 -4.833465,2.085266 -7.724365,2.488579 -0.0063,0.0012 -0.01332,0.0023 -0.01984,0.0035 -1.485458,0.283069 -3.103209,0.647219 -4.389605,1.386703 -1.288487,-0.745014 -2.91312,-1.108021 -4.40393,-1.392094 -0.0075,-0.0012 -0.01424,-0.0023 -0.02148,-0.0035 -2.890368,-0.403284 -5.461053,-1.229586 -7.723255,-2.488306 l -0.0011,-6.34e-4 C 55.905112,40.596957 54.26224,38.379376 54.26224,35.765904 54.26714,34.910945 54.17659,33.98976 54.20771,33.272568 v -6.34e-4 C 54.24206,32.52368 53.725223,31.480296 52.823464,30.505238 51.921472,29.529913 50.631832,28.624399 49.047488,28.20443 47.117973,27.692965 44.663265,27.482289 43.189354,27.491097 Z m 27.873371,1.056202 c -3.600691,0 -6.675101,0.725328 -9.222636,2.175841 -2.533301,1.44232 -3.799664,3.159275 -3.799664,5.150654 0,1.999579 1.266363,3.708175 3.799664,5.125914 2.547535,1.41773 5.621945,2.126677 9.222636,2.126677 3.614944,0 6.70329,-0.708947 9.265051,-2.126677 2.576001,-1.417739 3.86411,-3.126335 3.86411,-5.125914 0,-1.991379 -1.288109,-3.708334 -3.86411,-5.150654 -2.561761,-1.450513 -5.650107,-2.175841 -9.265051,-2.175841 z m 0.0033,2.222466 c 2.450189,0 4.556048,0.499306 6.317531,1.498349 1.761502,0.991415 2.641805,2.192609 2.641805,3.603459 0,1.410857 -0.880303,2.604461 -2.641805,3.580622 -1.748234,0.976164 -3.854091,1.464095 -6.317531,1.464095 -2.450201,0 -4.542867,-0.484137 -6.277872,-1.452676 -1.721761,-0.976161 -2.582867,-2.173555 -2.582867,-3.592041 0,-1.41085 0.861106,-2.612044 2.582867,-3.603459 1.735005,-0.999043 3.827671,-1.498349 6.277872,-1.498349 z m 0.05012,3.018583 a 3.5571775,2.0482677 0 0 0 -3.556745,2.048336 3.5571775,2.0482677 0 0 0 3.556745,2.048336 3.5571775,2.0482677 0 0 0 3.557294,-2.048336 3.5571775,2.0482677 0 0 0 -3.557294,-2.048336 z" />
    </g>
  </g>
</svg>
