<?xml version="1.0" encoding="UTF-8" standalone="no"?>
<svg
   version="1.1"
   width="53"
   height="100"
   id="svg4460"
   sodipodi:docname="u2640-female-.svg"
   inkscape:version="1.1.1 (3bf5ae0d25, 2021-09-20)"
   xmlns:inkscape="http://www.inkscape.org/namespaces/inkscape"
   xmlns:sodipodi="http://sodipodi.sourceforge.net/DTD/sodipodi-0.dtd"
   xmlns="http://www.w3.org/2000/svg"
   xmlns:svg="http://www.w3.org/2000/svg"
   xmlns:rdf="http://www.w3.org/1999/02/22-rdf-syntax-ns#"
   xmlns:cc="http://creativecommons.org/ns#"
   xmlns:dc="http://purl.org/dc/elements/1.1/">
  <sodipodi:namedview
     pagecolor="#ffffff"
     bordercolor="#666666"
     borderopacity="1"
     objecttolerance="10"
     gridtolerance="10"
     guidetolerance="10"
     inkscape:pageopacity="0"
     inkscape:pageshadow="2"
     inkscape:window-width="2880"
     inkscape:window-height="1541"
     id="namedview11"
     showgrid="true"
     inkscape:zoom="8"
     inkscape:cx="60.125"
     inkscape:cy="19.9375"
     inkscape:window-x="-11"
     inkscape:window-y="-11"
     inkscape:window-maximized="1"
     inkscape:current-layer="text5282"
     inkscape:document-rotation="0"
     inkscape:pagecheckerboard="0"
     showguides="true"
     inkscape:guide-bbox="true"
     inkscape:snap-global="false">
    <inkscape:grid
       type="xygrid"
       id="grid823" />
    <sodipodi:guide
       position="0,86"
       orientation="66,0"
       id="guide957" />
    <sodipodi:guide
       position="0,20"
       orientation="0,50"
       id="guide959" />
    <sodipodi:guide
       position="50,86"
       orientation="0,-50"
       id="guide963" />
    <sodipodi:guide
       position="8.9999971,64.32985"
       orientation="8.5387222,0"
       id="guide1517" />
    <sodipodi:guide
       position="8.9999971,55.791128"
       orientation="0,26.227758"
       id="guide1519" />
    <sodipodi:guide
       position="35,93.437165"
       orientation="-8.5387222,0"
       id="guide1521" />
    <sodipodi:guide
       position="35.227755,64.32985"
       orientation="0,-26.227758"
       id="guide1523" />
    <sodipodi:guide
       position="7.9247812,20.000001"
       orientation="0,-6.8495616"
       id="guide4054" />
    <sodipodi:guide
       position="1.0752196,74.999813"
       orientation="0,6.8495616"
       id="guide4058" />
  </sodipodi:namedview>
  <defs
     id="defs4462" />
  <metadata
     id="metadata4465">
    <rdf:RDF>
      <cc:Work
         rdf:about="">
        <dc:format>image/svg+xml</dc:format>
        <dc:type
           rdf:resource="http://purl.org/dc/dcmitype/StillImage" />
      </cc:Work>
    </rdf:RDF>
  </metadata>
  <g
     aria-label="C"
     id="text3215"
     style="font-size:32px;line-height:1.25"
     transform="translate(-37.75,-4)">
    <g
       aria-label="A"
       id="text5282"
       transform="matrix(1.6290909,0,0,2.8292029,-41.002727,-68.776958)">
      <path
         id="path2489"
         style="color:#000000;fill:#000000;stroke-width:0.994656;-inkscape-stroke:none"
         d="m 66.324659,26.163323 c -2.038808,0.329168 -3.607264,1.697649 -4.295386,2.818726 -0.08463,0.137878 -0.07108,0.291001 -0.01431,0.427101 0.04261,0.10217 0.15302,0.175377 0.26235,0.247196 -0.05006,0.179751 -0.182666,0.462285 -0.386369,0.780729 -0.216498,0.338446 -0.49299,0.706617 -0.775126,1.017626 -0.515385,0.568129 -0.782501,0.844827 -0.866948,1.100024 -0.09103,0.30357 0.172035,0.455696 0.45584,0.612728 0.233504,0.06501 0.382309,0.169364 0.471923,0.331425 0.08961,0.162053 0.109337,0.391629 0.13335,0.753077 0.02401,0.361448 0.374607,0.666999 0.923205,0.81662 0.548598,0.149622 1.304313,0.163728 2.297948,0.05974 0.439309,-0.04597 0.881504,-0.105008 1.112603,-0.139391 0.193518,-0.02879 0.147369,0.06001 0.147849,0.07006 0.0019,0.03899 -0.04048,0.09716 -0.850063,2.086416 -0.809583,1.989257 -2.277516,5.981532 -1.420471,10.160107 -2.169969,-1.40955 -4.056216,-3.211335 -6.562329,-4.448849 -2.123451,-1.047159 -6.576293,-1.204902 -7.522291,0.28771 -1.822129,2.874983 2.653909,6.23173 5.305433,8.549563 1.837531,1.598055 3.274977,3.372745 3.578694,3.780732 0.634253,0.717226 -0.0062,1.203202 -0.777513,1.65141 -0.697192,0.405122 -0.0017,8.44e-4 -0.0024,0.0014 -0.0016,0.0012 0.286677,-0.219065 -0.0036,0.0041 -0.711444,0.462166 -1.449878,0.868719 -2.115495,1.326621 -0.505867,0.410197 -0.538297,0.70045 0.159795,0.957887 0.235294,0.04286 0.553863,0.06318 0.979043,0.06249 l 20.063817,-0.03296 c 1.444382,0.01529 1.613299,-0.297252 1.016007,-0.929047 -0.192852,-0.188111 -0.439276,-0.416325 -0.70119,-0.699016 l -0.0024,-0.0021 c -1.058953,-1.054147 -1.177678,-2.227519 -0.670125,-3.242395 0.960109,-1.919785 1.014982,-4.141107 0.951615,-6.4635 -0.06245,-2.292647 -0.221513,-4.686182 0.245656,-7.001153 1.602766,0.11437 2.311762,0.09985 2.550757,-1.021744 0.601108,-2.820967 -0.342283,-6.007099 -1.204425,-8.979412 -0.707642,-2.319671 -2.229097,-4.158442 -4.603051,-4.612273 -2.87072,-0.548799 -4.738446,-0.839255 -7.882427,-0.331656 z m -2.392155,4.19616 c 1.339896,0.0339 3.429538,0.0386 4.681756,0.164797 0.144107,0.632425 -0.42968,1.359545 0.495907,1.736288 0.09997,0.04069 0.131787,0.08838 0.148076,0.173296 0.160531,1.401712 0.109418,2.960774 0.08706,4.132301 -0.01958,1.025882 -0.559729,2.143845 -0.716693,3.024723 -0.07848,0.440439 -0.158799,0.8851 0.213457,1.126804 1.115469,0.724268 3.803436,0.564297 4.254841,-0.320669 0.588166,-1.153078 -0.5627,-2.557868 -0.01431,-3.568555 0.318034,-0.546562 1.345787,-0.03673 1.490625,0.302815 0.833606,1.954232 0.516693,4.257742 0.398297,5.940955 -0.278299,3.949906 0.398197,6.85705 -0.829981,10.389804 -0.49777,1.431797 -1.279069,3.308264 0.01193,4.493482 -4.935893,0.270296 -10.086639,0.03818 -15.103016,0.120165 0.54796,-0.395689 1.104639,-0.842971 1.544288,-1.239416 0.656558,-0.528469 0.405353,-0.93874 0.08467,-1.455026 -0.27778,-0.406097 -0.693548,-0.919909 -1.197305,-1.501709 -1.675814,-1.95675 -3.456855,-3.704033 -5.250579,-5.31747 -0.701979,-0.632946 -1.493826,-1.391893 -2.086875,-2.130696 -0.593046,-0.738803 -0.971748,-1.457307 -0.903915,-1.967959 0.03392,-0.255325 0.165048,-0.469106 0.456727,-0.646831 0.291681,-0.177724 0.746206,-0.310299 1.398803,-0.369421 1.009222,-0.09143 1.8335,0.07763 2.964555,0.695583 1.131056,0.617953 2.56012,1.688293 4.734227,3.383845 1.985599,1.548539 3.112392,2.343623 4.010378,2.581829 1.79487,0.476122 1.972995,-0.382537 1.63134,-1.13985 -0.102435,-0.227059 -0.244004,-0.664733 -0.339862,-1.280614 -0.527171,-3.602349 0.01466,-7.71885 1.317712,-10.7194 v -0.0021 c 0.290459,-0.666942 0.671046,-1.608422 0.477,-2.349053 -0.09702,-0.370314 -0.356785,-0.68383 -0.821632,-0.841154 -0.464846,-0.157324 -1.125993,-0.171423 -1.869472,0.01302 -0.743479,0.184437 -1.279962,0.346335 -1.793888,0.220474 -0.400384,-0.09805 -0.21173,-0.508362 -0.212265,-0.68803 0,-0.23855 -0.03556,-0.466593 -0.0954,-0.650264 -0.05984,-0.18367 -0.132089,-0.337502 -0.287392,-0.392768 -0.124299,-0.03675 0.06386,-0.121621 0.07751,-0.147631 0.123739,-0.08585 0.249266,-0.240536 0.379216,-0.431221 0.298849,-0.450662 0.453307,-0.860195 0.664221,-1.340365 z m 7.725647,0.381047 c 0.08902,0.546796 -0.238934,1.63812 -1.04526,1.268303 -0.917469,-0.420791 -0.377998,-1.215585 0.296136,-1.503078 0.37006,-0.157816 0.707451,-0.02118 0.749124,0.234775 z"
         sodipodi:nodetypes="ssscssccscsssscccsccsscccsccccsccscssccscsssscscsccccccsssssssscccsscscsccccssss" />
    </g>
  </g>
</svg>
