<?xml version="1.0" encoding="UTF-8" standalone="no"?>
<svg
   version="1.1"
   width="48"
   height="100"
   id="svg4460"
   sodipodi:docname="u26B1-funeral.svg"
   inkscape:version="1.1.1 (3bf5ae0d25, 2021-09-20)"
   xmlns:inkscape="http://www.inkscape.org/namespaces/inkscape"
   xmlns:sodipodi="http://sodipodi.sourceforge.net/DTD/sodipodi-0.dtd"
   xmlns="http://www.w3.org/2000/svg"
   xmlns:svg="http://www.w3.org/2000/svg"
   xmlns:rdf="http://www.w3.org/1999/02/22-rdf-syntax-ns#"
   xmlns:cc="http://creativecommons.org/ns#"
   xmlns:dc="http://purl.org/dc/elements/1.1/">
  <sodipodi:namedview
     pagecolor="#ffffff"
     bordercolor="#666666"
     borderopacity="1"
     objecttolerance="10"
     gridtolerance="10"
     guidetolerance="10"
     inkscape:pageopacity="0"
     inkscape:pageshadow="2"
     inkscape:window-width="2880"
     inkscape:window-height="1541"
     id="namedview11"
     showgrid="true"
     inkscape:zoom="32.000001"
     inkscape:cx="-3.2499999"
     inkscape:cy="2.2343749"
     inkscape:window-x="-11"
     inkscape:window-y="-11"
     inkscape:window-maximized="1"
     inkscape:current-layer="text5282"
     inkscape:document-rotation="0"
     inkscape:pagecheckerboard="0"
     showguides="true"
     inkscape:guide-bbox="true">
    <inkscape:grid
       type="xygrid"
       id="grid823" />
    <sodipodi:guide
       position="0,86"
       orientation="66,0"
       id="guide957" />
    <sodipodi:guide
       position="0,20"
       orientation="0,50"
       id="guide959" />
    <sodipodi:guide
       position="50,20"
       orientation="-66,0"
       id="guide961" />
    <sodipodi:guide
       position="50,86"
       orientation="0,-50"
       id="guide963" />
    <sodipodi:guide
       position="8.9999971,64.32985"
       orientation="8.5387222,0"
       id="guide1517" />
    <sodipodi:guide
       position="8.9999971,55.791128"
       orientation="0,26.227758"
       id="guide1519" />
    <sodipodi:guide
       position="35,93.437165"
       orientation="-8.5387222,0"
       id="guide1521" />
    <sodipodi:guide
       position="35.227755,64.32985"
       orientation="0,-26.227758"
       id="guide1523" />
    <sodipodi:guide
       position="7.9247812,20.000001"
       orientation="0,-6.8495616"
       id="guide4054" />
    <sodipodi:guide
       position="1.0752196,74.999813"
       orientation="0,6.8495616"
       id="guide4058" />
  </sodipodi:namedview>
  <defs
     id="defs4462" />
  <metadata
     id="metadata4465">
    <rdf:RDF>
      <cc:Work
         rdf:about="">
        <dc:format>image/svg+xml</dc:format>
        <dc:type
           rdf:resource="http://purl.org/dc/dcmitype/StillImage" />
      </cc:Work>
    </rdf:RDF>
  </metadata>
  <g
     aria-label="C"
     id="text3215"
     style="font-size:32px;line-height:1.25"
     transform="translate(-37.75,-4)">
    <g
       aria-label="A"
       id="text5282"
       transform="matrix(1.6290909,0,0,2.8292029,-41.002727,-68.776958)">
      <path
         id="path5690"
         style="fill:#000000;stroke-width:0.0770791"
         d="m 58.649393,25.900213 c -0.641396,1.66122 -5.168391,6.307925 -2.368071,7.664302 l -1.937086,7.095774 c -0.415911,0.109884 -0.809122,0.232332 -1.147206,0.358263 -2.259193,0.841533 -3.775721,2.312835 -4.181345,4.055502 -0.150213,0.645352 -0.05808,2.564205 0.161423,3.379585 0.322705,1.198739 1.025798,2.654656 1.880666,3.889455 0.997837,1.441306 1.540247,2.059961 4.490088,5.132095 l 1.92298,2.003386 h 5.61222 5.610651 l 1.770961,-1.827412 c 3.694197,-3.813257 5.091749,-5.628436 6.041636,-7.84569 0.555441,-1.296531 0.69575,-1.99389 0.698981,-3.486974 0.0029,-1.490628 -0.138702,-2.003407 -0.794581,-2.876933 -0.992176,-1.32143 -2.426251,-2.204727 -4.538672,-2.762326 l -2.004476,-7.102993 c 2.654143,-2.821234 -0.895104,-5.356369 -2.328891,-7.676034 l -2.222319,3.581728 c -1.797057,-0.53764 -2.645571,-0.362179 -4.443073,0 z m 1.654985,6.269152 c 0.01748,-3.19e-4 0.03467,-3e-5 0.05172,0 0.409126,6.93e-4 0.688976,0.102499 1.006156,0.393458 0.09965,0.239512 -0.822688,0.378498 -1.128399,0.426847 -0.305719,0.04835 -1.383497,0.07705 -1.667524,-0.05054 0.177941,-0.234473 0.631481,-0.547845 1.097055,-0.684941 -0.09645,0.0595 -0.155155,0.142033 -0.155155,0.232826 0,0.181584 0.238343,0.328483 0.532855,0.328483 0.294512,0 0.532856,-0.146899 0.532856,-0.328483 0,-0.144389 -0.150607,-0.267148 -0.360461,-0.311337 0.02854,-0.0013 0.06352,-0.0058 0.0909,-0.0063 z m 5.132649,0 c 0.01255,-2.22e-4 0.02482,2.1e-5 0.03761,0 0.03875,-6.4e-5 0.08899,0.0064 0.130079,0.0081 -0.203822,0.04646 -0.34949,0.167995 -0.34949,0.309532 0,0.181584 0.239911,0.328483 0.534423,0.328483 0.294512,0 0.532855,-0.146899 0.532855,-0.328483 0,-0.09079 -0.05872,-0.173327 -0.155155,-0.232826 0.465175,0.137126 0.917574,0.450499 1.095487,0.684941 -0.284023,0.127584 -1.36024,0.09889 -1.665956,0.05054 -0.305714,-0.04835 -1.228047,-0.187335 -1.128399,-0.426847 0.307268,-0.281861 0.579918,-0.38659 0.968542,-0.393458 z m -2.523226,1.911338 c 0.452546,0 1.274152,0.08934 1.274152,0.08934 0.216777,0.02335 0.289394,0.302021 0.111272,0.42775 -0.427336,0.295597 -0.771882,0.773554 -1.385424,0.761647 -0.613539,-0.0119 -0.994512,-0.455418 -1.382288,-0.761647 -0.178123,-0.125728 -0.105502,-0.404405 0.111272,-0.42775 0,0 0.818476,-0.08934 1.271016,-0.08934 z m -1.582893,3.640385 h 1.764691 1.764691 l -0.200604,0.259899 c -0.464451,0.739173 -0.639313,2.263073 -0.827493,3.003273 -0.672346,0.230545 -0.917693,0.242049 -1.49983,0 -0.0061,-0.346312 -0.462754,-2.472652 -0.771074,-2.925664 z m 11.622512,5.902768 a 0.6088928,0.60889283 0 0 1 0.562633,0.375409 0.6088928,0.60889283 0 0 1 -0.330684,0.793232 c -0.878854,0.362832 -2.461894,0.548828 -4.367845,0.712916 -1.90595,0.164088 -4.05282,0.258094 -5.743866,0.258094 -1.688408,0 -3.929161,-0.08137 -5.883348,-0.240045 -0.977093,-0.07934 -1.881334,-0.178373 -2.617259,-0.296898 -0.735926,-0.11852 -1.257194,-0.20201 -1.700435,-0.477383 a 0.6088928,0.60889283 0 0 1 -0.195903,-0.839256 0.6088928,0.60889283 0 0 1 0.836896,-0.196729 c 0.03319,0.02062 0.569231,0.201087 1.253777,0.311337 0.684544,0.110245 1.566543,0.205674 2.523226,0.283362 1.913368,0.155363 4.135041,0.237338 5.783046,0.237338 1.64537,-1e-6 3.771291,-0.09189 5.638862,-0.25268 1.867571,-0.160784 3.558805,-0.436832 4.008952,-0.622674 a 0.6088928,0.60889283 0 0 1 0.231948,-0.04602 z" />
    </g>
  </g>
</svg>
