<?xml version="1.0" encoding="UTF-8" standalone="no"?>
<svg
   version="1.1"
   width="38"
   height="100"
   id="svg4460"
   sodipodi:docname="u26B1-funeral.svg"
   inkscape:version="1.1.1 (3bf5ae0d25, 2021-09-20)"
   xmlns:inkscape="http://www.inkscape.org/namespaces/inkscape"
   xmlns:sodipodi="http://sodipodi.sourceforge.net/DTD/sodipodi-0.dtd"
   xmlns="http://www.w3.org/2000/svg"
   xmlns:svg="http://www.w3.org/2000/svg"
   xmlns:rdf="http://www.w3.org/1999/02/22-rdf-syntax-ns#"
   xmlns:cc="http://creativecommons.org/ns#"
   xmlns:dc="http://purl.org/dc/elements/1.1/">
  <sodipodi:namedview
     pagecolor="#ffffff"
     bordercolor="#666666"
     borderopacity="1"
     objecttolerance="10"
     gridtolerance="10"
     guidetolerance="10"
     inkscape:pageopacity="0"
     inkscape:pageshadow="2"
     inkscape:window-width="2880"
     inkscape:window-height="1541"
     id="namedview11"
     showgrid="true"
     inkscape:zoom="8.0000004"
     inkscape:cx="48.749998"
     inkscape:cy="29.937499"
     inkscape:window-x="-11"
     inkscape:window-y="-11"
     inkscape:window-maximized="1"
     inkscape:current-layer="text5282"
     inkscape:document-rotation="0"
     inkscape:pagecheckerboard="0"
     showguides="true"
     inkscape:guide-bbox="true">
    <inkscape:grid
       type="xygrid"
       id="grid823" />
    <sodipodi:guide
       position="0,86"
       orientation="66,0"
       id="guide957" />
    <sodipodi:guide
       position="0,20"
       orientation="0,50"
       id="guide959" />
    <sodipodi:guide
       position="50,20"
       orientation="-66,0"
       id="guide961" />
    <sodipodi:guide
       position="50,86"
       orientation="0,-50"
       id="guide963" />
    <sodipodi:guide
       position="8.9999971,64.32985"
       orientation="8.5387222,0"
       id="guide1517" />
    <sodipodi:guide
       position="8.9999971,55.791128"
       orientation="0,26.227758"
       id="guide1519" />
    <sodipodi:guide
       position="35,93.437165"
       orientation="-8.5387222,0"
       id="guide1521" />
    <sodipodi:guide
       position="35.227755,64.32985"
       orientation="0,-26.227758"
       id="guide1523" />
    <sodipodi:guide
       position="7.9247812,20.000001"
       orientation="0,-6.8495616"
       id="guide4054" />
    <sodipodi:guide
       position="1.0752196,74.999813"
       orientation="0,6.8495616"
       id="guide4058" />
  </sodipodi:namedview>
  <defs
     id="defs4462" />
  <metadata
     id="metadata4465">
    <rdf:RDF>
      <cc:Work
         rdf:about="">
        <dc:format>image/svg+xml</dc:format>
        <dc:type
           rdf:resource="http://purl.org/dc/dcmitype/StillImage" />
      </cc:Work>
    </rdf:RDF>
  </metadata>
  <g
     aria-label="C"
     id="text3215"
     style="font-size:32px;line-height:1.25"
     transform="translate(-37.75,-4)">
    <g
       aria-label="A"
       id="text5282"
       transform="matrix(1.6290909,0,0,2.8292029,-41.002727,-68.776958)">
      <path
         id="path5690"
         style="fill:#000000;stroke-width:0.126589"
         d="M 13.486328 7.3261719 C 12.686997 10.92156 7.0453006 20.978445 10.535156 23.914062 L 8.1210938 39.271484 C 7.6027704 39.509307 7.1127368 39.774321 6.6914062 40.046875 C 3.8759218 41.868208 1.9859724 45.052555 1.4804688 48.824219 C 1.2932679 50.220957 1.4080804 54.373942 1.6816406 56.138672 C 2.0838062 58.73311 2.9600255 61.884159 4.0253906 64.556641 C 5.2689295 67.676066 5.9449015 69.015025 9.6210938 75.664062 L 12.017578 80 L 19.011719 80 L 26.003906 80 L 28.210938 76.044922 C 32.814776 67.791871 34.556451 63.863268 35.740234 59.064453 C 36.432442 56.258365 36.607301 54.749068 36.611328 51.517578 C 36.614912 48.291404 36.438471 47.181594 35.621094 45.291016 C 34.38461 42.431042 32.597416 40.519313 29.964844 39.3125 L 27.466797 23.939453 C 30.774482 17.833442 26.351287 12.346635 24.564453 7.3261719 L 21.794922 15.078125 C 19.555368 13.914508 18.497919 14.294263 16.257812 15.078125 L 13.486328 7.3261719 z M 15.548828 20.894531 C 15.57061 20.893841 15.592036 20.894468 15.613281 20.894531 C 16.123148 20.895985 16.471906 21.11637 16.867188 21.746094 C 16.991373 22.264472 15.841928 22.565281 15.460938 22.669922 C 15.079941 22.774574 13.736776 22.836677 13.382812 22.560547 C 13.604567 22.053076 14.169786 21.374843 14.75 21.078125 C 14.629808 21.206899 14.556641 21.385529 14.556641 21.582031 C 14.556641 21.975036 14.853672 22.292969 15.220703 22.292969 C 15.587734 22.292969 15.884766 21.975036 15.884766 21.582031 C 15.884766 21.269529 15.697076 21.003841 15.435547 20.908203 C 15.471119 20.905296 15.514713 20.895612 15.548828 20.894531 z M 21.945312 20.894531 C 21.960955 20.89405 21.976252 20.894577 21.992188 20.894531 C 22.040472 20.894392 22.103098 20.90846 22.154297 20.912109 C 21.900286 21.01267 21.71875 21.275702 21.71875 21.582031 C 21.71875 21.975036 22.017735 22.292969 22.384766 22.292969 C 22.751797 22.292969 23.048828 21.975036 23.048828 21.582031 C 23.048828 21.385529 22.975661 21.206899 22.855469 21.078125 C 23.435187 21.374909 23.998981 22.053144 24.220703 22.560547 C 23.866744 22.836677 22.525525 22.774574 22.144531 22.669922 C 21.763539 22.56527 20.614094 22.264472 20.738281 21.746094 C 21.121207 21.136061 21.460995 20.909393 21.945312 20.894531 z M 18.800781 25.03125 C 19.364758 25.03125 20.388672 25.224609 20.388672 25.224609 C 20.658827 25.275139 20.749322 25.878275 20.527344 26.150391 C 19.994783 26.790153 19.565398 27.824599 18.800781 27.798828 C 18.036166 27.773082 17.561385 26.813165 17.078125 26.150391 C 16.856143 25.878278 16.946645 25.275136 17.216797 25.224609 C 17.216797 25.224609 18.236808 25.03125 18.800781 25.03125 z M 16.828125 32.910156 L 19.027344 32.910156 L 21.226562 32.910156 L 20.976562 33.472656 C 20.651165 34.208272 20.284487 35.654206 20.095703 36.945312 L 19.945312 37.972656 L 19.011719 37.972656 C 18.497547 37.972656 18.0767 37.92918 18.076172 37.876953 C 18.068515 37.127427 17.499472 34.621082 17.115234 33.640625 L 16.828125 32.910156 z "
         transform="matrix(0.61383929,0,0,0.35345645,48.341518,25.723485)" />
    </g>
  </g>
</svg>
