<?xml version="1.0" encoding="UTF-8" standalone="no"?>
<svg
   version="1.1"
   width="28"
   height="100"
   id="svg4460"
   sodipodi:docname="u26B0-coffin.svg"
   inkscape:version="1.1.1 (3bf5ae0d25, 2021-09-20)"
   xmlns:inkscape="http://www.inkscape.org/namespaces/inkscape"
   xmlns:sodipodi="http://sodipodi.sourceforge.net/DTD/sodipodi-0.dtd"
   xmlns="http://www.w3.org/2000/svg"
   xmlns:svg="http://www.w3.org/2000/svg"
   xmlns:rdf="http://www.w3.org/1999/02/22-rdf-syntax-ns#"
   xmlns:cc="http://creativecommons.org/ns#"
   xmlns:dc="http://purl.org/dc/elements/1.1/">
  <sodipodi:namedview
     pagecolor="#ffffff"
     bordercolor="#666666"
     borderopacity="1"
     objecttolerance="10"
     gridtolerance="10"
     guidetolerance="10"
     inkscape:pageopacity="0"
     inkscape:pageshadow="2"
     inkscape:window-width="2880"
     inkscape:window-height="1541"
     id="namedview11"
     showgrid="true"
     inkscape:zoom="64"
     inkscape:cx="16.171875"
     inkscape:cy="34.414063"
     inkscape:window-x="2869"
     inkscape:window-y="-11"
     inkscape:window-maximized="1"
     inkscape:current-layer="text5282"
     inkscape:document-rotation="0"
     inkscape:pagecheckerboard="0"
     showguides="true"
     inkscape:guide-bbox="true">
    <inkscape:grid
       type="xygrid"
       id="grid823" />
    <sodipodi:guide
       position="0,86"
       orientation="66,0"
       id="guide957" />
    <sodipodi:guide
       position="0,20"
       orientation="0,50"
       id="guide959" />
    <sodipodi:guide
       position="50,20"
       orientation="-66,0"
       id="guide961" />
    <sodipodi:guide
       position="50,86"
       orientation="0,-50"
       id="guide963" />
    <sodipodi:guide
       position="8.9999971,64.32985"
       orientation="8.5387222,0"
       id="guide1517" />
    <sodipodi:guide
       position="8.9999971,55.791128"
       orientation="0,26.227758"
       id="guide1519" />
    <sodipodi:guide
       position="35,93.437165"
       orientation="-8.5387222,0"
       id="guide1521" />
    <sodipodi:guide
       position="35.227755,64.32985"
       orientation="0,-26.227758"
       id="guide1523" />
    <sodipodi:guide
       position="7.9247812,20.000001"
       orientation="0,-6.8495616"
       id="guide4054" />
    <sodipodi:guide
       position="1.0752196,74.999813"
       orientation="0,6.8495616"
       id="guide4058" />
  </sodipodi:namedview>
  <defs
     id="defs4462" />
  <metadata
     id="metadata4465">
    <rdf:RDF>
      <cc:Work
         rdf:about="">
        <dc:format>image/svg+xml</dc:format>
        <dc:type
           rdf:resource="http://purl.org/dc/dcmitype/StillImage" />
      </cc:Work>
    </rdf:RDF>
  </metadata>
  <g
     aria-label="C"
     id="text3215"
     style="font-size:32px;line-height:1.25"
     transform="translate(-37.75,-4)">
    <g
       aria-label="A"
       id="text5282"
       transform="matrix(1.6290909,0,0,2.8292029,-41.002727,-68.776958)">
      <path
         id="path1732"
         style="fill:#000000;stroke-width:0.126639"
         d="m 56.935269,29.592859 c 0.09418,0 0.167249,0.27207 0.167249,0.624267 0,0.352196 -0.07307,0.624846 -0.167249,0.624846 -0.09419,0 -0.167252,-0.27265 -0.167252,-0.624846 0,-0.352197 0.07307,-0.624267 0.167252,-0.624267 z m -0.682101,0.02087 c 0.132094,-0.005 0.181357,0.161621 0.181357,0.595864 0,0.707847 -0.317702,0.88348 -0.361705,0.199974 -0.01531,-0.237732 -0.03467,-0.504338 -0.04232,-0.592387 -0.0077,-0.08805 0.08068,-0.177958 0.195462,-0.199974 0.0096,-0.0018 0.0184,-0.0031 0.0272,-0.0035 z m 1.351102,0 c 0.01266,-6.48e-4 0.02597,7.28e-4 0.0403,0.0035 0.114787,0.02201 0.203108,0.111925 0.195461,0.199975 -0.0077,0.08805 -0.027,0.354654 -0.04232,0.592385 -0.044,0.683507 -0.361705,0.507874 -0.361705,-0.199974 0,-0.419768 0.04588,-0.589596 0.168258,-0.595864 z M 55.253695,29.7853 c 0.0011,-8.9e-5 0.0019,0 0.003,0 0.08347,0 0.204379,0.239706 0.268005,0.532685 0.107666,0.495761 0.0091,0.817475 -0.157176,0.513555 -0.171029,-0.312535 -0.248557,-1.034972 -0.113852,-1.04624 z m 3.351056,0.0093 c 0.07545,-0.0058 0.118067,0.164516 0.05441,0.495009 -0.05343,0.277355 -0.162821,0.5451 -0.242817,0.595285 -0.174994,0.109796 -0.18434,-0.04502 -0.0393,-0.653827 0.06885,-0.288977 0.161128,-0.43136 0.227703,-0.436467 z m 0.785875,0.197657 c 0.03255,-0.0043 0.03963,0.03759 0.03526,0.129258 -0.005,0.105659 -0.07422,0.278639 -0.153145,0.384298 -0.131418,0.175938 -0.144742,0.171813 -0.153146,-0.04811 -0.005,-0.132074 0.06413,-0.305055 0.153146,-0.384298 0.05636,-0.05017 0.09413,-0.07801 0.117881,-0.08115 z m -4.867392,0.0069 c 0.04289,-2.72e-4 0.104438,0.06121 0.166243,0.202872 0.05935,0.136042 0.07434,0.303242 0.03325,0.371546 -0.0411,0.06831 -0.131061,-0.01929 -0.199493,-0.194757 -0.08919,-0.228696 -0.0669,-0.379237 0,-0.379661 z m -0.754643,0.323436 c 0.0681,-0.0013 0.159868,0.0359 0.246846,0.104334 0.164884,0.129723 0.170816,0.191306 0.02519,0.244606 -0.106959,0.03915 -0.382,0.06691 -0.611572,0.06144 -0.376511,-0.0089 -0.368192,-0.01646 0.08363,-0.07303 0.337658,-0.04227 0.431687,-0.08745 0.289162,-0.139112 -0.116253,-0.04215 -0.165043,-0.11923 -0.108813,-0.171572 0.01836,-0.01709 0.04461,-0.02609 0.07557,-0.02668 z m 6.333353,0 c 0.03096,5.79e-4 0.0572,0.0096 0.07557,0.02667 0.05623,0.05235 0.0075,0.129423 -0.108813,0.171572 -0.142527,0.05167 -0.04849,0.09684 0.289161,0.139112 0.451817,0.05656 0.460138,0.06411 0.08363,0.07303 -0.635479,0.01506 -0.851216,-0.09768 -0.586383,-0.306047 0.08698,-0.06843 0.178745,-0.105609 0.246846,-0.104336 z m -3.166676,0.961757 c 1.895498,0 3.105556,0.181961 3.105556,0.467451 0,0.140321 -0.125871,0.161211 -0.499299,0.08318 -0.274509,-0.05737 -1.447219,-0.103963 -2.606257,-0.103963 -1.159038,0 -2.331749,0.0466 -2.606258,0.103963 -0.373428,0.07804 -0.499299,0.05715 -0.499299,-0.08318 0,-0.28549 1.210057,-0.467451 3.105557,-0.467451 z m -0.0011,0.661053 c 1.272972,0 2.5459,0.10324 2.750518,0.3086 0.04636,0.04653 0.0014,0.476544 -0.100809,0.95587 -0.19753,0.92671 -0.768774,1.721942 -1.36157,1.896704 -1.302688,0.384045 -2.622109,0.175738 -3.286932,-0.518391 -0.418712,-0.437169 -0.96175,-2.123396 -0.751725,-2.334183 0.204619,-0.205364 1.477547,-0.3086 2.750518,-0.3086 z m 3.462696,0.635795 c 0.03564,-0.0024 0.06912,0.06034 0.12583,0.182513 0.06813,0.146792 -0.004,0.433488 -0.160632,0.637642 -0.278873,0.363656 -0.285127,0.36493 -0.281107,0.05236 0.0022,-0.175473 0.07441,-0.46217 0.160633,-0.637642 0.0764,-0.155477 0.117333,-0.232245 0.155276,-0.234879 z m -6.896477,0.06238 c 0.06585,-0.004 0.125971,0.121155 0.210162,0.4043 0.0901,0.303034 0.115229,0.578283 0.05621,0.612229 -0.210242,0.120951 -0.536253,-0.657305 -0.380163,-0.907947 0.04278,-0.06871 0.07929,-0.106466 0.11378,-0.108585 z m 2.446966,2.940237 c 0.0038,-3.46e-4 0.0077,0.0022 0.01204,0.0077 0.195394,0.327155 0.248489,0.501478 0.630206,0.778036 0.381717,0.276559 0.351936,0.415178 0.02572,0.347291 -0.42707,-0.08888 -0.42707,-0.08712 0,0.192525 0.381767,0.249982 0.386516,0.273104 0.04283,0.200996 -0.670924,-0.08668 -0.164815,0.286425 -0.165987,0.287593 0.122009,0 0.220869,0.06044 0.220869,0.134768 0,0.07433 -0.124584,0.09367 -0.27709,0.04235 -0.152504,-0.0513 -0.07803,0.175021 0.165986,0.339367 0.386758,0.260491 0.394636,0.351637 0.05622,0.280646 -0.480256,-0.100753 -0.491831,0.106854 -0.04016,0.366691 0.191719,0.110293 0.254681,0.200996 0.139214,0.200996 -0.115474,0 -0.210161,0.263511 -0.210161,0.438985 0,0.351391 0.161675,0.39831 0.566229,0.16557 0.350316,-0.201516 0.341514,-0.397713 -0.01204,-0.278777 -0.152507,0.0513 -0.08651,-0.151772 0.145906,-0.304214 0.302872,-0.19866 0.337243,-0.277236 0.121813,-0.277236 -0.233774,0 -0.241839,-0.180584 -0.0348,-0.299694 0.350106,-0.201396 0.342766,-0.460143 -0.01072,-0.345335 -0.221826,0.07206 -0.221826,-0.07867 0,-0.216161 0.152505,-0.09453 0.27709,-0.220792 0.27709,-0.281088 0,-0.0603 -0.124585,-0.06878 -0.27709,-0.01924 -0.221826,0.07206 -0.221826,-0.06694 0,-0.204427 0.152505,-0.09452 0.27709,-0.220792 0.27709,-0.281086 0,-0.0603 -0.124585,-0.06956 -0.27709,-0.02002 -0.221826,0.07206 -0.221826,0.05586 0,-0.08163 0.152505,-0.09454 0.27709,-0.341853 0.27709,-0.402148 0,-0.05557 -0.106226,-0.06661 -0.242286,-0.02772 0.290367,-0.248867 0.373132,-0.459142 0.55552,-0.736986 0.07013,-0.08773 0.06765,0.830002 -0.0054,1.742461 -0.07302,0.912457 -0.177749,2.166249 -0.232916,2.218891 -0.05517,0.05263 -0.388636,0.09549 -0.740247,0.09549 -0.351611,0 -0.683787,-0.04285 -0.737569,-0.09549 -0.05379,-0.05263 -0.157085,-1.306434 -0.230239,-2.218891 -0.06856,-0.85543 -0.0762,-1.744982 -0.02007,-1.750162 z m -5.401259,-2.479676 c -0.06661,0.873608 -0.01346,1.301792 0.179373,1.435466 0.197033,0.136579 0.785066,0.196394 2.077509,0.211777 l 1.803098,0.02157 c 0.234864,0.233996 0.491109,0.46267 0.998596,0.646884 v 1.818359 2.282381 H 54.994268 C 52.90013,38.943223 52.386736,37.521324 52.282261,36.454078 l -0.116458,-1.274516 -0.923636,-0.278003 -0.923634,-0.277237 -0.453787,0.60684 c -1.282728,1.71542 -1.23871,2.630732 0.28646,5.943622 0.915106,1.987736 1.504782,5.063705 2.029321,10.584244 0.137616,1.448367 0.176489,1.540849 0.769697,1.882121 L 53.574038,54 h 3.36123 3.36123 l 0.623787,-0.358867 c 0.593207,-0.341271 0.632079,-0.433754 0.769697,-1.882121 0.524535,-5.520538 1.114215,-8.596509 2.029321,-10.584244 1.52517,-3.312892 1.569187,-4.228202 0.28646,-5.943623 l -0.453787,-0.606839 -0.923635,0.277236 -0.923636,0.278005 -0.116458,1.274515 c -0.02126,0.945248 -0.93782,2.972845 -2.712008,3.065726 l -0.610401,7.71e-4 v -2.160364 -1.940377 c 0.432152,-0.100564 0.778829,-0.347132 0.998597,-0.646884 l 1.803096,-0.02157 c 1.292445,-0.01539 1.880478,-0.0752 2.07751,-0.211777 0.192839,-0.133674 0.245962,-0.561858 0.179374,-1.435466 -0.168788,-2.336913 -1.850303,-3.95019 -6.279959,-3.95019 -4.429657,0 -6.335505,2.144136 -6.498362,3.9502 z"
         sodipodi:nodetypes="ssssscscccccccccscccsscccscccssccccsccsccssccccccsccccccccccsscscsssscssssccccsccccccccccscsccscccssscccscccssssscsccccsccccsccccccccccccssccccssccccccccccccscsss" />
    </g>
  </g>
</svg>
