<?xml version="1.0" encoding="UTF-8" standalone="no"?>
<svg
   version="1.1"
   width="37"
   height="100"
   id="svg4460"
   sodipodi:docname="u26B0-coffin.svg"
   inkscape:version="1.1.1 (3bf5ae0d25, 2021-09-20)"
   xmlns:inkscape="http://www.inkscape.org/namespaces/inkscape"
   xmlns:sodipodi="http://sodipodi.sourceforge.net/DTD/sodipodi-0.dtd"
   xmlns="http://www.w3.org/2000/svg"
   xmlns:svg="http://www.w3.org/2000/svg"
   xmlns:rdf="http://www.w3.org/1999/02/22-rdf-syntax-ns#"
   xmlns:cc="http://creativecommons.org/ns#"
   xmlns:dc="http://purl.org/dc/elements/1.1/">
  <sodipodi:namedview
     pagecolor="#ffffff"
     bordercolor="#666666"
     borderopacity="1"
     objecttolerance="10"
     gridtolerance="10"
     guidetolerance="10"
     inkscape:pageopacity="0"
     inkscape:pageshadow="2"
     inkscape:window-width="2880"
     inkscape:window-height="1541"
     id="namedview11"
     showgrid="true"
     inkscape:zoom="8"
     inkscape:cx="5.375"
     inkscape:cy="19.1875"
     inkscape:window-x="-11"
     inkscape:window-y="-11"
     inkscape:window-maximized="1"
     inkscape:current-layer="text5282"
     inkscape:document-rotation="0"
     inkscape:pagecheckerboard="0"
     showguides="true"
     inkscape:guide-bbox="true">
    <inkscape:grid
       type="xygrid"
       id="grid823" />
    <sodipodi:guide
       position="0,86"
       orientation="66,0"
       id="guide957" />
    <sodipodi:guide
       position="0,20"
       orientation="0,50"
       id="guide959" />
    <sodipodi:guide
       position="50,20"
       orientation="-66,0"
       id="guide961" />
    <sodipodi:guide
       position="50,86"
       orientation="0,-50"
       id="guide963" />
    <sodipodi:guide
       position="8.9999971,64.32985"
       orientation="8.5387222,0"
       id="guide1517" />
    <sodipodi:guide
       position="8.9999971,55.791128"
       orientation="0,26.227758"
       id="guide1519" />
    <sodipodi:guide
       position="35,93.437165"
       orientation="-8.5387222,0"
       id="guide1521" />
    <sodipodi:guide
       position="35.227755,64.32985"
       orientation="0,-26.227758"
       id="guide1523" />
    <sodipodi:guide
       position="7.9247812,20.000001"
       orientation="0,-6.8495616"
       id="guide4054" />
    <sodipodi:guide
       position="1.0752196,74.999813"
       orientation="0,6.8495616"
       id="guide4058" />
  </sodipodi:namedview>
  <defs
     id="defs4462" />
  <metadata
     id="metadata4465">
    <rdf:RDF>
      <cc:Work
         rdf:about="">
        <dc:format>image/svg+xml</dc:format>
        <dc:type
           rdf:resource="http://purl.org/dc/dcmitype/StillImage" />
      </cc:Work>
    </rdf:RDF>
  </metadata>
  <g
     aria-label="C"
     id="text3215"
     style="font-size:32px;line-height:1.25"
     transform="translate(-37.75,-4)">
    <g
       aria-label="A"
       id="text5282"
       transform="matrix(1.6290909,0,0,2.8292029,-41.002727,-68.776958)">
      <path
         id="path1732"
         style="fill:#000000;stroke-width:0.171147"
         d="m 59.697571,26.493422 c 0.12728,0 0.22603,0.36769 0.22603,0.843669 0,0.475977 -0.09875,0.844452 -0.22603,0.844452 -0.127293,0 -0.226033,-0.368475 -0.226033,-0.844452 0,-0.475979 0.09875,-0.843669 0.226033,-0.843669 z m -0.921829,0.0282 c 0.178519,-0.0068 0.245096,0.218423 0.245096,0.805283 0,0.956624 -0.42936,1.193985 -0.488828,0.270256 -0.02069,-0.321284 -0.04686,-0.68159 -0.05719,-0.800584 -0.01041,-0.118996 0.109035,-0.240503 0.264158,-0.270256 0.01297,-0.0024 0.02487,-0.0042 0.03676,-0.0047 z m 1.825954,0 c 0.01711,-8.76e-4 0.0351,9.84e-4 0.05446,0.0047 0.15513,0.02974 0.274492,0.151261 0.264157,0.270257 -0.01041,0.118996 -0.03649,0.479299 -0.05719,0.800582 -0.05946,0.92373 -0.488828,0.686369 -0.488828,-0.270256 0,-0.567298 0.062,-0.796813 0.227393,-0.805284 z m -3.176698,0.23187 c 0.0015,-1.2e-4 0.0026,0 0.0041,0 0.112806,0 0.276209,0.323952 0.362197,0.7199 0.145505,0.669999 0.0123,1.104782 -0.212417,0.694047 -0.231138,-0.422377 -0.335914,-1.398719 -0.153866,-1.413947 z m 4.528804,0.01257 c 0.101968,-0.0078 0.159563,0.222336 0.07353,0.668983 -0.07221,0.374833 -0.220045,0.736678 -0.328156,0.804501 -0.236497,0.148384 -0.249128,-0.06084 -0.05311,-0.883618 0.09305,-0.39054 0.217758,-0.582964 0.307731,-0.589866 z m 1.062076,0.267124 c 0.04399,-0.0058 0.05356,0.0508 0.04765,0.174687 -0.0068,0.142793 -0.100305,0.376568 -0.206969,0.519362 -0.177605,0.237772 -0.195612,0.232197 -0.20697,-0.06502 -0.0068,-0.178492 0.08667,-0.412268 0.20697,-0.519362 0.07617,-0.0678 0.127213,-0.105427 0.159311,-0.10967 z m -6.578065,0.0093 c 0.05796,-3.68e-4 0.141143,0.08272 0.22467,0.274172 0.08021,0.183855 0.100467,0.409818 0.04494,0.502128 -0.05555,0.09232 -0.177123,-0.02607 -0.269606,-0.263205 -0.120537,-0.309073 -0.09041,-0.512522 0,-0.513095 z m -1.019867,0.437109 c 0.09203,-0.0018 0.216055,0.04852 0.333602,0.141003 0.222833,0.175315 0.23085,0.258541 0.03404,0.330574 -0.144551,0.05291 -0.516256,0.09043 -0.826513,0.08303 -0.508838,-0.01203 -0.497595,-0.02224 0.113022,-0.0987 0.45633,-0.05713 0.583406,-0.118185 0.39079,-0.188004 -0.157111,-0.05696 -0.223048,-0.161134 -0.147056,-0.231872 0.02481,-0.0231 0.06029,-0.03526 0.10213,-0.03606 z m 8.559246,0 c 0.04184,7.82e-4 0.0773,0.01297 0.10213,0.03604 0.07599,0.07075 0.01014,0.17491 -0.147056,0.231872 -0.192619,0.06983 -0.06553,0.130875 0.390788,0.188004 0.610611,0.07644 0.621856,0.08664 0.113022,0.0987 -0.858821,0.02035 -1.15038,-0.13201 -0.79247,-0.413609 0.117549,-0.09248 0.241566,-0.142726 0.333601,-0.141006 z m -4.279622,1.299772 c 2.561681,0 4.197021,0.245912 4.197021,0.631739 0,0.189638 -0.170109,0.21787 -0.67478,0.112414 -0.370987,-0.07753 -1.955853,-0.140501 -3.522241,-0.140501 -1.566389,0 -3.151256,0.06298 -3.522242,0.140501 -0.504672,0.105468 -0.674781,0.07724 -0.674781,-0.112414 0,-0.385827 1.635339,-0.631739 4.197023,-0.631739 z m -0.0015,0.893384 c 1.720366,0 3.440671,0.139524 3.717204,0.417059 0.06265,0.06288 0.0019,0.644028 -0.136239,1.291816 -0.266953,1.252408 -1.038964,2.327128 -1.840102,2.563312 -1.760525,0.519019 -3.543664,0.237502 -4.442143,-0.700583 -0.565871,-0.590814 -1.299763,-2.869676 -1.015923,-3.154545 0.276533,-0.27754 1.996839,-0.417059 3.717203,-0.417059 z M 64.375751,30.532 c 0.04817,-0.0032 0.09341,0.08155 0.170053,0.246658 0.09207,0.198383 -0.0054,0.58584 -0.217087,0.861745 -0.376884,0.491465 -0.385336,0.493187 -0.379903,0.07076 0.003,-0.237144 0.100561,-0.624602 0.217088,-0.861745 0.103251,-0.21012 0.15857,-0.313869 0.209849,-0.317428 z m -9.320284,0.0843 c 0.08899,-0.0054 0.170244,0.163736 0.284025,0.546394 0.121766,0.409537 0.155727,0.781524 0.07596,0.8274 -0.284133,0.16346 -0.724722,-0.888318 -0.513773,-1.22705 0.05782,-0.09286 0.107157,-0.143884 0.153768,-0.146748 z m 3.306966,3.973601 c 0.0051,-4.68e-4 0.01041,0.003 0.01627,0.01041 0.264066,0.442135 0.335822,0.677725 0.851696,1.051481 0.515873,0.373757 0.475625,0.561095 0.03476,0.469348 -0.577166,-0.120117 -0.577166,-0.117738 0,0.260189 0.515941,0.33784 0.522359,0.369088 0.05788,0.271638 -0.906724,-0.117145 -0.22274,0.38709 -0.224324,0.388669 0.164889,0 0.298494,0.08168 0.298494,0.182133 0,0.100454 -0.168369,0.126591 -0.374474,0.05723 -0.206103,-0.06933 -0.105455,0.236533 0.224322,0.458639 0.522687,0.352042 0.533333,0.475222 0.07598,0.379281 -0.649045,-0.136163 -0.664688,0.144409 -0.05427,0.495567 0.259099,0.149056 0.34419,0.271637 0.188141,0.271637 -0.156058,0 -0.284023,0.356123 -0.284023,0.593269 0,0.474889 0.218497,0.538298 0.765233,0.22376 0.473437,-0.27234 0.461541,-0.537491 -0.01627,-0.376755 -0.206107,0.06933 -0.116915,-0.205113 0.197185,-0.411131 0.409318,-0.26848 0.455769,-0.374672 0.164625,-0.374672 -0.315935,0 -0.326835,-0.244052 -0.04703,-0.405024 0.473152,-0.272177 0.463233,-0.621863 -0.01449,-0.466705 -0.299788,0.09739 -0.299788,-0.106319 0,-0.292132 0.206104,-0.127753 0.374475,-0.29839 0.374475,-0.379878 0,-0.08149 -0.168371,-0.09295 -0.374475,-0.026 -0.299788,0.09739 -0.299788,-0.09047 0,-0.276274 0.206104,-0.127739 0.374475,-0.29839 0.374475,-0.379875 0,-0.08149 -0.168371,-0.09401 -0.374475,-0.02706 -0.299788,0.09739 -0.299788,0.07549 0,-0.110319 0.206104,-0.127767 0.374475,-0.462 0.374475,-0.543486 0,-0.0751 -0.14356,-0.09002 -0.327439,-0.03746 0.392418,-0.336333 0.504271,-0.62051 0.750761,-0.996004 0.09478,-0.118563 0.09143,1.121711 -0.0073,2.354859 -0.09868,1.233145 -0.24022,2.92759 -0.314776,2.998733 -0.07456,0.07113 -0.525224,0.12905 -1.000411,0.12905 -0.475187,0 -0.924108,-0.05791 -0.996792,-0.12905 -0.07269,-0.07113 -0.212293,-1.765588 -0.311158,-2.998733 -0.09266,-1.156076 -0.10298,-2.358266 -0.02712,-2.365267 z m -7.299562,-3.351173 c -0.09002,1.180643 -0.01819,1.759314 0.242415,1.939969 0.266281,0.18458 1.060982,0.265418 2.807661,0.286207 l 2.436807,0.02915 c 0.317409,0.316235 0.663712,0.625278 1.349559,0.874235 v 2.457432 3.084537 h -0.824932 c -2.830135,-0.780267 -3.523964,-2.701901 -3.665157,-4.144237 l -0.157388,-1.722451 -1.248253,-0.375709 -1.248251,-0.374674 -0.613273,0.820118 c -1.73355,2.318314 -1.674061,3.555317 0.387138,8.032542 1.236726,2.686337 2.033647,6.843373 2.742538,14.304137 0.185982,1.957404 0.238517,2.082389 1.040211,2.543603 l 0.843057,0.484971 h 4.542554 4.542553 l 0.843034,-0.484959 c 0.801693,-0.461212 0.854227,-0.586199 1.040211,-2.543603 0.708886,-7.460762 1.505813,-11.617801 2.742538,-14.304137 2.0612,-4.477227 2.120687,-5.714228 0.387138,-8.032543 l -0.613273,-0.820116 -1.248252,0.374672 -1.248253,0.375711 -0.157388,1.722451 c -0.02873,1.277461 -1.267422,4.017668 -3.665159,4.143193 l -0.82493,10e-4 v -2.919595 -2.622333 c 0.584035,-0.135908 1.052553,-0.469134 1.34956,-0.874235 l 2.436804,-0.02915 c 1.746683,-0.0208 2.541383,-0.10163 2.807663,-0.286207 0.260614,-0.180655 0.332407,-0.759327 0.242416,-1.939969 -0.228109,-3.158235 -2.500602,-5.338507 -8.487086,-5.338507 -5.986486,0 -8.562155,2.897705 -8.782249,5.33852 z"
         sodipodi:nodetypes="ssssscscccccccccscccsscccscccssccccsccsccssccccccsccccccccccsscscsssscssssccccsccccccccccscsccscccssscccscccssssscsccccsccccsccccccccccccssccccssccccccccccccscsss" />
    </g>
  </g>
</svg>
