<?xml version="1.0" encoding="UTF-8" standalone="no"?>
<svg
   version="1.1"
   width="28"
   height="100"
   id="svg4460"
   sodipodi:docname="u26B0-coffin.svg"
   inkscape:version="1.1.1 (3bf5ae0d25, 2021-09-20)"
   xmlns:inkscape="http://www.inkscape.org/namespaces/inkscape"
   xmlns:sodipodi="http://sodipodi.sourceforge.net/DTD/sodipodi-0.dtd"
   xmlns="http://www.w3.org/2000/svg"
   xmlns:svg="http://www.w3.org/2000/svg"
   xmlns:rdf="http://www.w3.org/1999/02/22-rdf-syntax-ns#"
   xmlns:cc="http://creativecommons.org/ns#"
   xmlns:dc="http://purl.org/dc/elements/1.1/">
  <sodipodi:namedview
     pagecolor="#ffffff"
     bordercolor="#666666"
     borderopacity="1"
     objecttolerance="10"
     gridtolerance="10"
     guidetolerance="10"
     inkscape:pageopacity="0"
     inkscape:pageshadow="2"
     inkscape:window-width="2880"
     inkscape:window-height="1541"
     id="namedview11"
     showgrid="true"
     inkscape:zoom="64"
     inkscape:cx="15.28125"
     inkscape:cy="19.664063"
     inkscape:window-x="2869"
     inkscape:window-y="-11"
     inkscape:window-maximized="1"
     inkscape:current-layer="text5282"
     inkscape:document-rotation="0"
     inkscape:pagecheckerboard="0"
     showguides="true"
     inkscape:guide-bbox="true">
    <inkscape:grid
       type="xygrid"
       id="grid823" />
    <sodipodi:guide
       position="0,86"
       orientation="66,0"
       id="guide957" />
    <sodipodi:guide
       position="0,20"
       orientation="0,50"
       id="guide959" />
    <sodipodi:guide
       position="50,20"
       orientation="-66,0"
       id="guide961" />
    <sodipodi:guide
       position="50,86"
       orientation="0,-50"
       id="guide963" />
    <sodipodi:guide
       position="8.9999971,64.32985"
       orientation="8.5387222,0"
       id="guide1517" />
    <sodipodi:guide
       position="8.9999971,55.791128"
       orientation="0,26.227758"
       id="guide1519" />
    <sodipodi:guide
       position="35,93.437165"
       orientation="-8.5387222,0"
       id="guide1521" />
    <sodipodi:guide
       position="35.227755,64.32985"
       orientation="0,-26.227758"
       id="guide1523" />
    <sodipodi:guide
       position="7.9247812,20.000001"
       orientation="0,-6.8495616"
       id="guide4054" />
    <sodipodi:guide
       position="1.0752196,74.999813"
       orientation="0,6.8495616"
       id="guide4058" />
  </sodipodi:namedview>
  <defs
     id="defs4462" />
  <metadata
     id="metadata4465">
    <rdf:RDF>
      <cc:Work
         rdf:about="">
        <dc:format>image/svg+xml</dc:format>
        <dc:type
           rdf:resource="http://purl.org/dc/dcmitype/StillImage" />
      </cc:Work>
    </rdf:RDF>
  </metadata>
  <g
     aria-label="C"
     id="text3215"
     style="font-size:32px;line-height:1.25"
     transform="translate(-37.75,-4)">
    <g
       aria-label="A"
       id="text5282"
       transform="matrix(1.6290909,0,0,2.8292029,-41.002727,-68.776958)">
      <path
         id="path1732"
         style="fill:#000000;stroke-width:0.168252"
         d="m 56.935268,29.369921 c 0.125133,0 0.222207,0.36147 0.222207,0.829397 0,0.467926 -0.09708,0.830167 -0.222207,0.830167 -0.125135,0 -0.222209,-0.362241 -0.222209,-0.830167 0,-0.467927 0.09708,-0.829397 0.222209,-0.829397 z m -0.906234,0.02773 c 0.175499,-0.0067 0.240949,0.214729 0.240949,0.791661 0,0.940442 -0.422097,1.173786 -0.480558,0.265685 -0.02034,-0.31585 -0.04606,-0.670061 -0.05622,-0.787042 -0.01018,-0.116982 0.107187,-0.236434 0.259689,-0.265684 0.01269,-0.0024 0.02444,-0.0041 0.03614,-0.0046 z m 1.795065,0 c 0.01682,-8.61e-4 0.0345,9.68e-4 0.05354,0.0046 0.152505,0.02924 0.269848,0.148703 0.259688,0.265685 -0.01018,0.116982 -0.03587,0.471192 -0.05622,0.78704 -0.05846,0.908103 -0.480558,0.674758 -0.480558,-0.265684 0,-0.557702 0.06095,-0.783334 0.223546,-0.791662 z M 54.701141,29.6256 c 0.0015,-1.19e-4 0.0025,0 0.004,0 0.110893,0 0.271537,0.318471 0.356069,0.707721 0.143045,0.658666 0.01215,1.086093 -0.208823,0.682307 C 54.625159,30.600396 54.522156,29.64057 54.701125,29.6256 Z m 4.45219,0.01231 c 0.100244,-0.0077 0.156863,0.218575 0.07229,0.657666 -0.07098,0.368492 -0.216322,0.724217 -0.322604,0.790892 -0.232496,0.145874 -0.244913,-0.05982 -0.05221,-0.868671 0.09148,-0.383932 0.214074,-0.573102 0.302525,-0.579887 z m 1.044109,0.262606 c 0.04324,-0.0057 0.05265,0.04994 0.04685,0.171732 -0.0067,0.140378 -0.09861,0.370197 -0.203467,0.510575 -0.174601,0.233751 -0.192303,0.22827 -0.203469,-0.06392 -0.0067,-0.175472 0.0852,-0.405293 0.203469,-0.510576 0.07488,-0.06665 0.12506,-0.103648 0.156616,-0.107816 z m -6.466785,0.0092 c 0.05698,-3.62e-4 0.138755,0.08132 0.220869,0.269534 0.07885,0.180744 0.09877,0.402885 0.04417,0.493634 -0.05461,0.09075 -0.174126,-0.02563 -0.265045,-0.258753 -0.118493,-0.303844 -0.08888,-0.503852 0,-0.504415 z m -1.002614,0.429714 c 0.09048,-0.0017 0.212399,0.0477 0.327958,0.138618 0.219064,0.172349 0.226945,0.254168 0.03346,0.324982 -0.142105,0.05201 -0.507522,0.08889 -0.81253,0.08163 -0.50023,-0.01186 -0.489177,-0.02187 0.111105,-0.09702 0.44861,-0.05616 0.573537,-0.116187 0.384178,-0.184824 -0.154452,-0.056 -0.219275,-0.158408 -0.144568,-0.227949 0.02439,-0.0227 0.05927,-0.03466 0.100401,-0.03544 z m 8.414452,0 c 0.04113,7.7e-4 0.076,0.01273 0.100402,0.03543 0.07471,0.06955 0.01,0.17195 -0.144568,0.227949 -0.18936,0.06865 -0.06442,0.128658 0.384178,0.184824 0.600281,0.07515 0.611336,0.08517 0.111105,0.09703 -0.844294,0.02001 -1.13092,-0.129783 -0.779065,-0.406613 0.11556,-0.09091 0.237479,-0.140311 0.327958,-0.138619 z m -4.207225,0.944912 c 1.895498,0 3.105556,0.181961 3.105556,0.467451 0,0.140321 -0.125871,0.161211 -0.499299,0.08318 -0.274509,-0.05737 -1.447219,-0.103963 -2.606257,-0.103963 -1.159038,0 -2.331749,0.0466 -2.606258,0.103963 -0.373428,0.07804 -0.499299,0.05715 -0.499299,-0.08318 0,-0.28549 1.210057,-0.467451 3.105557,-0.467451 z m -0.0011,0.661053 c 1.272972,0 2.5459,0.10324 2.750518,0.3086 0.04636,0.04653 0.0014,0.476544 -0.100809,0.95587 -0.19753,0.92671 -0.768774,1.721942 -1.36157,1.896704 -1.302688,0.384045 -2.622109,0.175738 -3.286932,-0.518391 -0.418712,-0.437169 -0.96175,-2.123396 -0.751725,-2.334183 0.204619,-0.205364 1.477547,-0.3086 2.750518,-0.3086 z m 3.462696,0.635795 c 0.03564,-0.0024 0.06912,0.06034 0.12583,0.182513 0.06813,0.146792 -0.004,0.433488 -0.160632,0.637642 -0.278873,0.363656 -0.285127,0.36493 -0.281107,0.05236 0.0022,-0.175473 0.07441,-0.46217 0.160633,-0.637642 0.0764,-0.155477 0.117333,-0.232245 0.155276,-0.234879 z m -6.896477,0.06238 c 0.06585,-0.004 0.125971,0.121155 0.210162,0.4043 0.0901,0.303034 0.115229,0.578283 0.05621,0.612229 -0.210242,0.120951 -0.536253,-0.657305 -0.380163,-0.907947 0.04278,-0.06871 0.07929,-0.106466 0.11378,-0.108585 z m 2.446966,2.940237 c 0.0038,-3.46e-4 0.0077,0.0022 0.01204,0.0077 0.195394,0.327155 0.248489,0.501478 0.630206,0.778036 0.381717,0.276559 0.351936,0.415178 0.02572,0.347291 -0.42707,-0.08888 -0.42707,-0.08712 0,0.192525 0.381767,0.249982 0.386516,0.273104 0.04283,0.200996 -0.670924,-0.08668 -0.164815,0.286425 -0.165987,0.287593 0.122009,0 0.220869,0.06044 0.220869,0.134768 0,0.07433 -0.124584,0.09367 -0.27709,0.04235 -0.152504,-0.0513 -0.07803,0.175021 0.165986,0.339367 0.386758,0.260491 0.394636,0.351637 0.05622,0.280646 -0.480256,-0.100753 -0.491831,0.106854 -0.04016,0.366691 0.191719,0.110293 0.254681,0.200996 0.139214,0.200996 -0.115474,0 -0.210161,0.263511 -0.210161,0.438985 0,0.351391 0.161675,0.39831 0.566229,0.16557 0.350316,-0.201516 0.341514,-0.397713 -0.01204,-0.278777 -0.152507,0.0513 -0.08651,-0.151772 0.145906,-0.304214 0.302872,-0.19866 0.337243,-0.277236 0.121813,-0.277236 -0.233774,0 -0.241839,-0.180584 -0.0348,-0.299694 0.350106,-0.201396 0.342766,-0.460143 -0.01072,-0.345335 -0.221826,0.07206 -0.221826,-0.07867 0,-0.216161 0.152505,-0.09453 0.27709,-0.220792 0.27709,-0.281088 0,-0.0603 -0.124585,-0.06878 -0.27709,-0.01924 -0.221826,0.07206 -0.221826,-0.06694 0,-0.204427 0.152505,-0.09452 0.27709,-0.220792 0.27709,-0.281086 0,-0.0603 -0.124585,-0.06956 -0.27709,-0.02002 -0.221826,0.07206 -0.221826,0.05586 0,-0.08163 0.152505,-0.09454 0.27709,-0.341853 0.27709,-0.402148 0,-0.05557 -0.106226,-0.06661 -0.242286,-0.02772 0.290367,-0.248867 0.373132,-0.459142 0.55552,-0.736986 0.07013,-0.08773 0.06765,0.830002 -0.0054,1.742461 -0.07302,0.912457 -0.177749,2.166249 -0.232916,2.218891 -0.05517,0.05263 -0.388636,0.09549 -0.740247,0.09549 -0.351611,0 -0.683787,-0.04285 -0.737569,-0.09549 -0.05379,-0.05263 -0.157085,-1.306434 -0.230239,-2.218891 -0.06856,-0.85543 -0.0762,-1.744982 -0.02007,-1.750162 z m 0.570244,-6.325551 c -1.612859,0.007 -2.626673,0.247419 -3.877929,0.879454 -1.414296,0.714391 -1.98344,1.521671 -2.093574,2.966421 -0.06661,0.873608 -0.01346,1.301792 0.179373,1.435466 0.197033,0.136579 0.785066,0.196394 2.077509,0.211777 l 1.803098,0.02157 c 0.234864,0.233996 0.491109,0.46267 0.998596,0.646884 v 1.818359 2.282381 h -0.610402 c -0.7606,-5.93e-4 -1.931299,-1.108775 -2.309088,-1.497807 -0.15701,-0.161681 -0.338631,-0.867544 -0.402919,-1.568691 l -0.116458,-1.274516 -0.923636,-0.278003 -0.923634,-0.277237 -0.453787,0.60684 c -1.282728,1.71542 -1.23871,2.630732 0.28646,5.943622 0.915106,1.987736 1.504782,5.063705 2.029321,10.584244 0.137616,1.448367 0.176489,1.540849 0.769697,1.882121 L 53.574038,54 h 3.36123 3.36123 l 0.623787,-0.358867 c 0.593207,-0.341271 0.632079,-0.433754 0.769697,-1.882121 0.524535,-5.520538 1.114215,-8.596509 2.029321,-10.584244 1.52517,-3.312892 1.569187,-4.228202 0.28646,-5.943623 l -0.453787,-0.606839 -0.923635,0.277236 -0.923636,0.278005 -0.116458,1.274515 c -0.06429,0.701148 -0.24591,1.40701 -0.402918,1.568691 -0.377789,0.389033 -1.54849,1.496397 -2.30909,1.497035 l -0.610401,7.71e-4 v -2.160364 -1.940377 c 0.432152,-0.100564 0.778829,-0.347132 0.998597,-0.646884 l 1.803096,-0.02157 c 1.292445,-0.01539 1.880478,-0.0752 2.07751,-0.211777 0.192839,-0.133674 0.245962,-0.561858 0.179374,-1.435466 -0.109252,-1.43322 -0.678815,-2.251966 -2.052078,-2.94563 -1.293692,-0.653472 -2.088164,-0.828702 -4.025176,-0.889465 -0.257302,-0.0081 -0.499129,-0.01178 -0.729537,-0.01083 z" />
    </g>
  </g>
</svg>
