<?xml version="1.0" encoding="UTF-8" standalone="no"?>
<svg
   version="1.1"
   width="85"
   height="100"
   id="svg4460"
   sodipodi:docname="u270d-scribe.svg"
   inkscape:version="1.1.1 (3bf5ae0d25, 2021-09-20)"
   xmlns:inkscape="http://www.inkscape.org/namespaces/inkscape"
   xmlns:sodipodi="http://sodipodi.sourceforge.net/DTD/sodipodi-0.dtd"
   xmlns="http://www.w3.org/2000/svg"
   xmlns:svg="http://www.w3.org/2000/svg"
   xmlns:rdf="http://www.w3.org/1999/02/22-rdf-syntax-ns#"
   xmlns:cc="http://creativecommons.org/ns#"
   xmlns:dc="http://purl.org/dc/elements/1.1/">
  <sodipodi:namedview
     pagecolor="#ffffff"
     bordercolor="#666666"
     borderopacity="1"
     objecttolerance="10"
     gridtolerance="10"
     guidetolerance="10"
     inkscape:pageopacity="0"
     inkscape:pageshadow="2"
     inkscape:window-width="2880"
     inkscape:window-height="1541"
     id="namedview11"
     showgrid="true"
     inkscape:zoom="4"
     inkscape:cx="41.5"
     inkscape:cy="71.625"
     inkscape:window-x="-11"
     inkscape:window-y="-11"
     inkscape:window-maximized="1"
     inkscape:current-layer="text5282"
     inkscape:document-rotation="0"
     inkscape:pagecheckerboard="0"
     showguides="true"
     inkscape:guide-bbox="true"
     inkscape:snap-global="false">
    <inkscape:grid
       type="xygrid"
       id="grid823" />
    <sodipodi:guide
       position="0,86"
       orientation="66,0"
       id="guide957" />
    <sodipodi:guide
       position="0,20"
       orientation="0,50"
       id="guide959" />
    <sodipodi:guide
       position="50,86"
       orientation="0,-50"
       id="guide963" />
    <sodipodi:guide
       position="8.9999971,64.32985"
       orientation="8.5387222,0"
       id="guide1517" />
    <sodipodi:guide
       position="8.9999971,55.791128"
       orientation="0,26.227758"
       id="guide1519" />
    <sodipodi:guide
       position="35,93.437165"
       orientation="-8.5387222,0"
       id="guide1521" />
    <sodipodi:guide
       position="35.227755,64.32985"
       orientation="0,-26.227758"
       id="guide1523" />
    <sodipodi:guide
       position="7.9247812,20.000001"
       orientation="0,-6.8495616"
       id="guide4054" />
    <sodipodi:guide
       position="1.0752196,74.999813"
       orientation="0,6.8495616"
       id="guide4058" />
  </sodipodi:namedview>
  <defs
     id="defs4462" />
  <metadata
     id="metadata4465">
    <rdf:RDF>
      <cc:Work
         rdf:about="">
        <dc:format>image/svg+xml</dc:format>
        <dc:type
           rdf:resource="http://purl.org/dc/dcmitype/StillImage" />
      </cc:Work>
    </rdf:RDF>
  </metadata>
  <g
     aria-label="C"
     id="text3215"
     style="font-size:32px;line-height:1.25"
     transform="translate(-37.75,-4)">
    <g
       aria-label="A"
       id="text5282"
       transform="matrix(1.6290909,0,0,2.8292029,-41.002727,-68.776958)">
      <path
         id="path846"
         style="fill:#000000;stroke-width:0.223423"
         d="m 85.09825,25.904486 c -2.19631,-0.04752 -4.39023,0.31783 -5.68161,1.115597 -0.71898,0.444151 -1.84201,1.776254 -1.85231,2.196676 -0.004,0.150055 -0.396,0.692826 -0.87161,1.206033 -0.86084,0.928897 -0.81137,1.318558 0.16666,1.318558 0.22189,0 0.43504,0.376523 0.55149,0.974766 0.10436,0.536167 0.23943,1.065604 0.29972,1.176348 0.14912,0.273968 2.05024,0.559459 3.7334,0.560559 l 1.38353,6.91e-4 -0.29493,0.487383 c -0.28865,0.47676 -0.35522,0.489885 -3.00325,0.59991 -1.48913,0.06188 -3.40416,0.191563 -4.25492,0.287873 -1.78385,0.20193 -1.72405,0.1661 -6.28106,3.795515 -1.63909,1.305449 -3.09746,2.445905 -3.24064,2.533565 -0.15718,0.09623 -2.18472,-0.941258 -5.11693,-2.618477 -4.04248,-2.3123 -4.93447,-2.912584 -5.31834,-3.578057 -0.52228,-0.905419 -2.9549,-2.355455 -3.95159,-2.355455 -0.76825,0 -0.76123,0.242665 0.0264,0.879499 0.60126,0.486171 0.60344,0.498931 0.0396,0.296158 -1.21496,-0.436898 -2.40584,0.32345 -2.50211,1.597457 -0.0771,1.019651 0.78611,1.564176 2.82821,1.783851 0.78651,0.08461 1.65785,0.295517 1.93623,0.468744 0.2784,0.173224 2.45236,1.585581 4.83159,3.138306 2.37921,1.552725 4.62006,2.932126 4.98025,3.065821 2.20168,0.817208 3.51041,0.41017 7.84084,-2.440368 2.36844,-1.559044 3.42382,-2.143141 3.58113,-1.98129 0.46727,0.480784 0.88997,3.073369 1.06702,6.543087 0.101,1.981484 0.1023,3.602908 0.002,3.602908 -0.0999,0 -1.41231,-0.569746 -2.91694,-1.266091 -4.74599,-2.196479 -8.12618,-2.894902 -10.53477,-2.176657 -1.31397,0.391829 -1.76229,0.923569 -1.75999,2.086221 0.003,1.165041 0.65237,1.98598 2.60761,3.298467 0.82746,0.555442 1.50303,1.05182 1.50103,1.10248 -0.002,0.05066 -1.0069,0.395409 -2.23356,0.766283 -2.67169,0.807773 -4.32334,1.588277 -4.81959,2.278137 -0.25379,0.352796 -0.6943,0.569799 -1.43989,0.708984 -2.92206,0.54549 -3.6797,1.696644 -1.36795,2.078628 0.68363,0.112961 42.29026,-0.02629 42.49159,-0.142213 0.24703,-0.142245 -0.85128,-0.949147 -1.50703,-1.107312 -0.35579,-0.08581 -1.21725,-0.23889 -1.91465,-0.340339 -0.94307,-0.13718 -1.75732,-0.464313 -3.17589,-1.277138 -1.92553,-1.103296 -2.56388,-1.259211 -3.71541,-0.904351 -0.56699,0.174726 -0.60127,0.152971 -0.44839,-0.296158 0.0909,-0.267088 0.6706,-2.335783 1.28762,-4.597005 0.61703,-2.261224 1.22884,-4.111692 1.36075,-4.111692 0.27475,0 5.47676,1.990556 6.0329,2.308512 0.42111,0.240759 3.37426,0.491753 4.0439,0.343792 0.30578,-0.06757 0.44599,-0.33429 0.44599,-0.847744 0,-1.54728 -2.43259,-7.259112 -4.16979,-9.790467 -1.52047,-2.215535 -4.04484,-3.529406 -6.79778,-3.538707 -1.00702,-0.0034 -1.1038,-0.04487 -1.1018,-0.470124 10e-4,-0.267455 0.74728,-1.178873 1.7516,-2.137998 2.63967,-2.520884 2.98834,-4.074908 1.17852,-5.261806 -1.30201,-0.853882 -3.50088,-1.313837 -5.69719,-1.36136 z m -0.61744,0.712435 c 1.99403,-0.0065 4.11176,0.431179 5.23801,1.201891 0.7154,0.489559 0.76334,0.608047 0.64382,1.569843 -0.14507,1.167599 -0.98342,2.405918 -2.07171,3.060298 -0.92332,0.555177 -1.49704,0.550666 -2.60761,-0.02071 l -0.88959,-0.457699 0.85961,-0.563321 c 1.61951,-1.062096 1.36295,-2.175276 -0.50114,-2.175276 -0.82495,0 -1.34637,0.365396 -1.34637,0.943011 0,0.218798 -0.1781,0.327914 -0.53471,0.327914 -0.42175,0 -0.57497,-0.15 -0.72055,-0.708984 l -0.18463,-0.708984 c -1.29382,-0.08429 -2.21879,-0.04897 -3.25023,-0.405923 0,-0.409729 1.31515,-1.290166 2.49373,-1.669943 0.81675,-0.26319 1.82688,-0.388709 2.87137,-0.392117 z m 7.18264,14.583531 c 0.12164,-0.02712 1.00571,1.085784 1.98658,2.503189 0.99647,1.439905 1.72428,2.612261 1.61853,2.605361 -0.10579,-0.0068 -0.98738,-0.358376 -1.95902,-0.78147 -0.97162,-0.423093 -2.00802,-0.867469 -2.30309,-0.987193 -0.51534,-0.209106 -0.51659,-0.276737 -0.0324,-1.718958 0.27724,-0.825725 0.58578,-1.554338 0.68457,-1.618858 0.002,-10e-4 0.003,-0.0016 0.005,-0.0021 z m -25.55226,6.863406 c 0.60585,-0.0063 2.77701,0.713776 5.10734,1.708603 1.61073,0.687632 2.97942,1.279297 3.04162,1.315107 0.0622,0.03581 -0.74014,0.308719 -1.78397,0.606122 l -1.89787,0.54054 -2.7383,-1.286112 -2.7383,-1.286112 0.38725,-0.756618 c 0.21319,-0.41627 0.43196,-0.783556 0.48556,-0.815987 0.0276,-0.0167 0.074,-0.02489 0.13667,-0.02554 z m 20.08405,2.378237 -0.13787,0.492216 c -0.0759,0.270488 -0.26166,1.118205 -0.41362,1.883951 -0.23126,1.145675 -0.57198,2.676874 -1.58855,4.103408 h -9.97489 -9.97489 v -1.610574 l 4.29688,-1.226052 c 8.84146,-2.523461 12.46354,-3.316928 16.17323,-3.543539 z" />
    </g>
  </g>
</svg>
