<?xml version="1.0" encoding="UTF-8"?><!DOCTYPE svg PUBLIC "-//W3C//DTD SVG 1.1//EN" "http://www.w3.org/Graphics/SVG/1.1/DTD/svg11.dtd"><svg xmlns="http://www.w3.org/2000/svg" xmlns:xlink="http://www.w3.org/1999/xlink" style="display:none"><symbol id="h-space" fill="currentColor" viewBox="0 0 100 100" aria-hidden="true"/><symbol id="h-exclam" fill="currentColor" viewBox="0 0 100 100" aria-hidden="true"><g aria-label="C"><path d="M1.231 17.115V64.34H9.77V17.115zm0 54.348V80H9.77v-8.537z" font-size="22.348" text-anchor="middle" aria-label="A"/></g></symbol><symbol id="h-quotedbl" fill="currentColor" viewBox="0 0 100 100" aria-hidden="true"><g aria-label="C"><path d="M.694 39V11.079h8.538V39zm13.074 0V11.079h8.538V39z" font-size="22.348" text-anchor="middle" aria-label="A"/></g></symbol><symbol id="h-numbersign" fill="currentColor" viewBox="0 0 100 100" aria-hidden="true"><g aria-label="C"><path d="M26.366 38.345h3.464l4.207-16.91h8.702l-4.206 16.91h11.713v8.538H36.388l-.907 3.629h14.765v8.537h-16.91L29.13 76h-8.702l4.207-16.95h-3.465L16.963 76H8.219l4.248-16.95H.754v-8.538h13.858l.907-3.63H.754v-8.537h16.91l4.207-16.91h8.702zm1.32 8.538H24.22l-.907 3.629h3.465z" font-size="22.348" text-anchor="middle" aria-label="A"/></g></symbol><symbol id="h-dollar" fill="currentColor" viewBox="0 0 100 100" aria-hidden="true"><g aria-label="C"><path d="M14.706 18.851v-4.825h7.588v4.825q4.908.907 8.661 4.248 4.083 3.63 5.238 10.517L27.45 36.42q-.701-6.021-2.846-7.918-1.072-.949-2.31-1.526V44.05q4.743 1.774 8.62 5.197 5.114 4.495 5.114 10.847 0 6.351-5.155 10.93-3.712 3.299-8.579 4.206v4.784h-7.588V75.23q-4.908-.907-8.661-4.248-4.083-3.63-5.238-10.517L9.55 57.66q.701 6.022 2.846 7.92 1.072.948 2.31 1.525V50.031q-4.743-1.774-8.62-5.197Q.972 40.338.972 33.987q0-6.351 5.114-10.888 3.753-3.34 8.62-4.248zm7.588 34.19v14.064q1.196-.536 2.227-1.443 2.557-2.269 2.557-5.568 0-3.217-2.474-5.444-.949-.825-2.31-1.609zM14.706 41.04V26.976q-1.196.536-2.269 1.485-2.516 2.227-2.516 5.526 0 3.217 2.475 5.444.949.825 2.31 1.609z" font-size="22.348" text-anchor="middle" aria-label="A"/></g></symbol><symbol id="h-percent" fill="currentColor" viewBox="0 0 100 100" aria-hidden="true"><g aria-label="C"><path d="M45.936 25.93L8.076 80l-7.012-4.867 37.82-54.028zm-33.86 1.857q4.701 0 8 3.34 3.341 3.3 3.341 8.001 0 4.702-3.34 8.043-3.3 3.3-8.001 3.3-4.702 0-8.043-3.3Q.734 43.83.734 39.128q0-4.701 3.3-8 3.34-3.341 8.042-3.341zm0 8.454q-1.196 0-2.062.866-.825.825-.825 2.021 0 1.238.825 2.104.866.825 2.062.825 1.196 0 2.062-.825.866-.866.866-2.104 0-1.196-.866-2.02-.866-.867-2.062-.867zm22.807 14.353q4.743 0 8.042 3.34 3.341 3.3 3.341 8.002 0 4.743-3.34 8.083-3.3 3.3-8.043 3.3-4.702 0-8.042-3.3-3.3-3.34-3.3-8.083 0-4.702 3.3-8.001 3.34-3.341 8.042-3.341zm0 8.455q-1.196 0-2.062.866-.825.825-.825 2.02 0 1.238.825 2.104.866.825 2.062.825 1.196 0 2.062-.825.866-.866.866-2.103 0-1.196-.866-2.021-.866-.866-2.062-.866z" font-size="22.348" text-anchor="middle" aria-label="A"/></g></symbol><symbol id="h-ampersand" fill="currentColor" viewBox="0 0 100 100" aria-hidden="true"><g aria-label="C"><path d="M43.786 47.887q3.836 2.227 5.032 6.516.412 1.485.412 2.887 0 2.763-1.443 5.238-2.227 3.918-7.26 5.403-.906 3.01-4.618 6.722-6.022 6.063-14.559 6.063-8.496 0-14.559-6.021Q.77 68.632.77 60.095q0-8.455 5.898-14.765 3.546-3.465 6.516-3.836Q6.79 35.06 6.79 28.668q0-6.31 4.496-10.847 4.536-4.537 10.93-4.537 6.392 0 10.928 4.496 2.558 2.474 4.29 7.877l-7.754 3.052q-1.402-3.794-2.557-4.95-2.02-1.979-4.908-1.979-2.846 0-4.867 2.021-2.02 1.98-2.02 4.867 0 2.928 2.103 5.196 2.145 2.269 3.918 2.97 1.815.7 7.341.742v8.207l-5.031.042q-7.3 1.443-10.888 5.361-3.547 3.877-3.547 8.909 0 5.031 3.547 8.578 3.546 3.547 8.578 3.547 4.99 0 10.723-5.856-1.155-.949-4.083-4-1.072-.99-1.69-1.403-.578-.371-.95-.371h-.04q-.413.04-.578.453-.082.165-.082.33 0 .289.165.619l-7.012 4.743q-.866-1.279-1.32-2.887-.33-1.279-.33-2.516 0-2.35 1.238-4.537 1.938-3.34 5.61-4.33 1.278-.371 2.556-.371 2.35 0 4.496 1.237 1.814 1.031 4.124 3.877 2.35 2.804 4.372 3.052.288.04.536.04 1.567 0 2.227-1.443.165-.37.165-.783 0-1.32-1.897-2.887z" font-size="16.253" text-anchor="middle" aria-label="A"/></g></symbol><symbol id="h-quotesingle" fill="currentColor" viewBox="0 0 100 100" aria-hidden="true"><g aria-label="C"><path d="M18.326 11L8.799 30.797H.674L5.954 11z" font-size="22.348" text-anchor="middle" aria-label="A"/></g></symbol><symbol id="h-parenleft" fill="currentColor" viewBox="0 0 100 100" aria-hidden="true"><g aria-label="C"><path d="M25 17.146q-6.063 2.804-9.816 7.506-6.351 8.001-6.351 22.354 0 14.394 6.351 22.353 3.753 4.743 9.816 7.672v8.454Q14.524 81.855 9.08 75.01.75 64.616.75 47.006t8.33-28.004Q14.524 12.156 25 8.526z" font-size="22.348" text-anchor="middle" aria-label="A"/></g></symbol><symbol id="h-parenright" fill="currentColor" viewBox="0 0 100 100" aria-hidden="true"><g aria-label="C"><path d="M.967 8.799q10.476 3.63 15.92 10.476 8.331 10.393 8.331 28.004 0 17.61-8.33 28.003Q11.442 82.13.967 85.758v-8.455q6.062-2.928 9.815-7.67 6.352-7.96 6.352-22.354 0-14.353-6.352-22.354Q7.03 20.223.967 17.419z" font-size="22.348" text-anchor="middle" aria-label="A"/></g></symbol><symbol id="h-asterisk" fill="currentColor" viewBox="0 0 100 100" aria-hidden="true"><g aria-label="C"><path d="M20.29 31.97l5.938-4.536 4.908 7.01-7.671 5.775 7.671 5.733-4.908 7.01-5.939-4.536v6.97h-8.537v-7.011l-5.98 4.578-4.908-7.011 7.671-5.733-7.671-5.774 4.908-7.011 5.98 4.577v-7.01h8.537z" font-size="22.348" text-anchor="middle" aria-label="A"/></g></symbol><symbol id="h-plus" fill="currentColor" viewBox="0 0 100 100" aria-hidden="true"><g aria-label="C"><path d="M14.21 52.537H.725V44h13.487V30.514h8.578V44h13.487v8.537H22.789v13.528h-8.578z" font-size="16.253" text-anchor="middle" aria-label="A"/></g></symbol><symbol id="h-coma" fill="currentColor" viewBox="0 0 100 100" aria-hidden="true"><g aria-label="C"><path d="M18.326 67.959L8.799 87.755H.674l5.28-19.796z" font-size="22.348" text-anchor="middle" aria-label="A"/></g></symbol><symbol id="h-hyphen" fill="currentColor" viewBox="0 0 100 100" aria-hidden="true"><g aria-label="C"><path d="M.725 44h27.55v8.537H.725z" font-size="22.348" text-anchor="middle" aria-label="A"/></g></symbol><symbol id="h-period" fill="currentColor" viewBox="0 0 100 100" aria-hidden="true"><g aria-label="C"><path d="M7 68q2.475 0 4.207 1.732 1.773 1.732 1.773 4.207 0 2.557-1.773 4.29Q9.475 79.96 7 79.96q-2.433 0-4.207-1.732Q1.02 76.496 1.02 73.94q0-2.475 1.773-4.207Q4.567 68 7 68z" font-size="22.348" text-anchor="middle" aria-label="A"/></g></symbol><symbol id="h-slash" fill="currentColor" viewBox="0 0 100 100" aria-hidden="true"><g aria-label="C"><path d="M31.166 14.012h9.527L10.793 80H1.306z" font-size="22.348" text-anchor="middle" aria-label="A"/></g></symbol><symbol id="h-0" fill="currentColor" viewBox="0 0 100 100" aria-hidden="true"><g aria-label="C"><path d="M24.987 22.134c-20.154.096-21.077 49.205 0 49.491 20.199-.114 21.12-49.207 0-49.491zm0 58.234c-32.735-2.537-31.524-66.59 0-67.02 32.767 2.59 31.56 66.594 0 67.02z" font-size="16.253" text-anchor="middle" aria-label="A"/></g></symbol><symbol id="h-1" fill="currentColor" viewBox="0 0 100 100" aria-hidden="true"><g aria-label="C"><path d="M16 14v65.988H7.463V31.136h-6.31L9.813 14z" font-size="22.348" text-anchor="middle" aria-label="A"/></g></symbol><symbol id="h-2" fill="currentColor" viewBox="0 0 100 100" aria-hidden="true"><g aria-label="C"><path d="M1.542 80c-4.816-20.264 22.475-30.108 22.705-46.068 0-3.327-1.182-6.16-3.547-8.496-2.337-2.337-5.169-3.506-8.496-3.506-2.034 0-3.892.452-5.576 1.355L1.64 16.069c3.132-1.921 6.654-2.882 10.565-2.882 5.747 0 10.627 2.02 14.641 6.062 4.042 4.042 6.063 8.936 6.063 14.683 1.888 17.17-19.084 28.334-21.344 37.49h21.344V80z" font-size="22.348" text-anchor="middle" aria-label="A"/></g></symbol><symbol id="h-3" fill="currentColor" viewBox="0 0 100 100" aria-hidden="true"><g aria-label="C"><path d="M5.62 13.187c-1.063 0-3.823.094-4.81.282l1.735 9.123c.925-.468 1.95-.703 3.074-.703 1.897 0 3.504.66 4.824 1.98 1.32 1.292 1.98 2.886 1.98 4.783 0 1.925-.7 3.63-2.103 5.115-2.214 2.59-4.982 3.342-7.775 3.538v8.671c4.489.229 9.753 2.396 12.435 5.237 2.365 2.557 3.547 5.513 3.547 8.867 0 3.327-1.182 6.159-3.547 8.496-2.337 2.337-5.169 3.506-8.496 3.506a11.97 11.97 0 01-3.94-.64l-1.733 8.64c1.266.232 4.312.742 5.673.742 5.747 0 10.629-2.02 14.643-6.062 4.042-4.07 6.062-8.963 6.062-14.682 0-5.664-1.966-10.613-5.898-14.848-2.695-2.612-5.266-4-7.713-4.166 5.087-3.987 7.63-8.125 7.63-12.414 0-4.207-1.512-7.835-4.536-10.886-3.025-3.052-6.709-4.579-11.053-4.579z" font-size="22.348" text-anchor="middle" aria-label="A"/></g></symbol><symbol id="h-4" fill="currentColor" viewBox="0 0 100 100" aria-hidden="true"><g aria-label="C"><path d="M23.186 14.012h7.465v29.634h5.815v8.537H30.65V80h-8.538V52.183H3.257l-2.223-5.758zm-1.073 19.26l-8.166 10.374h8.166z" font-size="22.348" text-anchor="middle" aria-label="A"/></g></symbol><symbol id="h-5" fill="currentColor" viewBox="0 0 100 100" aria-hidden="true"><g aria-label="C"><path d="M14.462 31.817c5.376-.988 9.547.274 13.363 1.734 7.244 2.77 11.524 10.19 11.446 22.517-.053 8.2-3.465 16.752-9.072 20.691-8.362 5.875-21.082 5.688-29.47-5.494l6.02-6.681c7.019 5.673 12.54 6.41 16.996 4.745 3.728-1.393 7.11-6.581 7.085-13.892C30.78 40.9 19.49 38.806 8.235 42.334l-5.156-4.496L11.75 14h22.921v8.537h-16.95z" font-size="22.348" text-anchor="middle" aria-label="A"/></g></symbol><symbol id="h-6" fill="currentColor" viewBox="0 0 100 100" aria-hidden="true"><g aria-label="C"><path d="M9.173 57.594q0 6.104 4.29 10.393 4.33 4.29 10.434 4.29 6.063 0 10.352-4.29 4.33-4.29 4.33-10.393 0-6.104-4.33-10.394-4.29-4.289-10.352-4.289-6.104 0-10.435 4.29-4.289 4.289-4.289 10.393zm4.95-18.312q3.67-3.96 12.166-3.96 8.537 0 14.188 5.65 6.846 6.888 6.846 16.622 0 9.692-6.846 16.58-6.847 6.846-16.58 6.846-9.692 0-16.58-6.847-6.599-6.64-6.64-18.435v-.124q0-11.672 6.31-20.539Q13.34 26.167 24.144 14h11.218q-14.97 15.507-21.24 25.282z" font-size="22.348" text-anchor="middle" aria-label="A"/></g></symbol><symbol id="h-7" fill="currentColor" viewBox="0 0 100 100" aria-hidden="true"><g aria-label="C"><path d="M30.433 14C30.04 48.434 9.749 50.468 9.183 79.988H.94c.445-28.058 20.092-41.825 20.54-57.45H1V14z" font-size="22.348" text-anchor="middle" aria-label="A"/></g></symbol><symbol id="h-8" fill="currentColor" viewBox="0 0 100 100" aria-hidden="true"><g aria-label="C"><path d="M21.001 72.07c6.975-.013 11.696-4.517 11.57-12.002-.128-7.484-5.138-12.555-11.57-13.94-7.38 1.589-11.67 6.39-11.569 13.94.102 7.551 4.595 12.014 11.57 12.002zm0 8.743C8.611 80.821.813 69.691.731 60.068c-.084-9.623 1.862-13.376 9.588-19.013-3.711-3.987-5.567-8.125-5.567-12.414.417-9.458 8.315-15.373 16.229-15.466 9.187.269 16.155 7.153 16.27 15.466 0 4.29-2.007 8.386-6.022 12.29 8.029 5.72 10.052 8.878 10.043 19.137-.007 10.26-7.88 20.737-20.27 20.745zm0-43.717c9.303-2.302 10.002-15.318-.007-15.219-10.01.1-8.437 13.093.007 15.219z" font-size="22.348" text-anchor="middle" aria-label="A"/></g></symbol><symbol id="h-9" fill="currentColor" viewBox="0 0 100 100" aria-hidden="true"><g aria-label="C"><path d="M30.744 32.068c-.137-6.478-4.141-12.036-11.112-11.912-6.972.125-11.206 5.436-11.076 11.912.129 6.475 4.104 12.033 11.076 11.911 6.971-.121 11.248-5.434 11.112-11.911zm-4.046 16.997C11.8 56.528.871 43.495.92 32.068c.383-10.243 6.204-18.958 18.713-19.005 12.508-.047 18.366 9.655 18.449 18.29C37.94 65.2 19.976 68.218 19.416 80H9.618c2.279-16.092 16.762-23.557 17.08-30.935z" font-size="22.348" text-anchor="middle" aria-label="A"/></g></symbol><symbol id="h-colon" fill="currentColor" viewBox="0 0 100 100" aria-hidden="true"><g aria-label="C"><path d="M7 68q2.475 0 4.207 1.732 1.773 1.732 1.773 4.207 0 2.557-1.773 4.29Q9.475 79.96 7 79.96q-2.433 0-4.207-1.732Q1.02 76.496 1.02 73.94q0-2.475 1.773-4.207Q4.567 68 7 68zm0-23.467q2.475 0 4.207 1.732 1.773 1.732 1.773 4.207 0 2.557-1.773 4.29Q9.475 56.492 7 56.492q-2.433 0-4.207-1.732-1.773-1.732-1.773-4.29 0-2.474 1.773-4.206Q4.567 44.533 7 44.533z" font-size="16.253" text-anchor="middle" aria-label="A"/></g></symbol><symbol id="h-semicolon" fill="currentColor" viewBox="0 0 100 100" aria-hidden="true"><g aria-label="C"><path d="M18.326 67.959L8.799 87.755H.674l5.28-19.796zM12.26 44.533c1.622 0 3.024.577 4.206 1.732 1.183 1.155 1.774 2.557 1.774 4.207 0 1.705-.591 3.134-1.774 4.29-1.182 1.154-2.584 1.731-4.206 1.731-1.65 0-3.066-.577-4.248-1.732-1.155-1.155-1.733-2.584-1.733-4.29 0-1.649.578-3.051 1.733-4.206 1.182-1.155 2.598-1.732 4.248-1.732z" font-size="22.348" text-anchor="middle" aria-label="A"/></g></symbol><symbol id="h-less" fill="currentColor" viewBox="0 0 100 100" aria-hidden="true"><g aria-label="C"><path d="M28.87 69.713L14.123 52.662 28.87 35.67V24.575L1.13 52.662l27.74 28.146z" font-size="22.348" text-anchor="middle" aria-label="A"/></g></symbol><symbol id="h-equal" fill="currentColor" viewBox="0 0 100 100" aria-hidden="true"><g aria-label="C"><g aria-label="A" font-size="22.348" text-anchor="middle"><path d="M.725 35.463h27.55V44H.725zM.725 52.537h27.55v8.538H.725z"/></g></g></symbol><symbol id="h-greater" fill="currentColor" viewBox="0 0 100 100" aria-hidden="true"><g aria-label="C"><path d="M1.13 69.713l14.747-17.051L1.13 35.67V24.575l27.74 28.087L1.13 80.808z" font-size="22.348" text-anchor="middle" aria-label="A"/></g></symbol><symbol id="h-question" fill="currentColor" viewBox="0 0 100 100" aria-hidden="true"><g aria-label="C"><path d="M16.562 20.625c-1.704 0-3.437.301-5.197.906-4.014 1.403-6.956 4.03-8.826 7.88-.99 1.979-1.484 3.986-1.484 6.02v2.762l8.619-2.802c.11-1.045.29-1.83.537-2.352.825-1.705 2.144-2.873 3.959-3.506a7.076 7.076 0 012.31-.412c.99 0 1.98.234 2.97.701 1.704.825 2.886 2.145 3.546 3.96a7.38 7.38 0 01.371 2.267c0 .99-.234 1.994-.701 3.012-.935 1.897-2.447 3.877-4.537 5.939-4.344 3.272-7.615 7.203-9.814 11.795-1.403 2.86-2.12 5.775-2.147 8.744h8.496c.027-1.677.454-3.37 1.28-5.074 1.374-2.887 3.381-5.499 6.02-7.836 3.878-2.997 6.683-6.283 8.415-9.858 1.045-2.172 1.566-4.397 1.566-6.68 0-1.704-.288-3.423-.865-5.155-1.402-3.987-4.028-6.902-7.877-8.745-2.172-1.044-4.386-1.566-6.64-1.566zM6.13 71.539v8.537h8.535V71.54z" font-size="22.348" text-anchor="middle" aria-label="A"/></g></symbol><symbol id="h-at" fill="currentColor" viewBox="0 0 100 100" aria-hidden="true"><g aria-label="C"><path d="M37.398 54.245v-4.454q-.413-1.856-2.062-3.506-2.392-2.392-5.733-2.392-3.34 0-5.692 2.392-2.35 2.392-2.35 5.733 0 3.382 2.35 5.733 2.351 2.35 5.692 2.35 3.382 0 5.733-2.35 1.65-1.65 2.062-3.506zm-.083 9.115q-2.185 3.382-7.794 3.382-6.764 0-11.59-4-4.784-4.001-4.784-10.765 0-6.723 4.784-10.93 4.826-4.206 11.59-4.206 6.021 0 7.794 3.052v-2.145h8.208l-.083 20.539v.124q0 2.144.66 2.144.578 0 1.65-1.484 2.35-3.341 2.35-10.229 0-6.887-5.237-12.084-5.197-5.196-15.342-5.196-10.105 0-15.301 5.196-5.156 5.197-5.156 14.518 0 9.32 5.98 15.342 6.022 5.98 14.477 5.98 5.815 0 9.98-2.598l5.857 6.145q-7.96 4.66-15.837 4.66-11.837 0-20.292-8.413Q.774 63.937.774 52.06q0-11.836 8.455-20.25 8.455-8.455 20.292-8.455 11.919 0 20.291 8.455 8.414 8.455 8.414 17.157T53.73 63.071q-3.712 4.413-8.207 4.413-.99 0-2.021-.247-5.733-1.196-6.186-3.877z" font-size="16.253" text-anchor="middle" aria-label="A"/></g></symbol><symbol id="h-A" fill="currentColor" viewBox="0 0 100 100" aria-hidden="true"><g aria-label="C"><path d="M30.94 48.114L25.5 32.645l-5.4 15.469zM50.833 80h-8.735l-8.18-23.347H17.082L8.942 80H.167L25.5 10.48z" font-size="12.7" text-anchor="middle" aria-label="A"/></g></symbol><symbol id="h-B" fill="currentColor" viewBox="0 0 100 100" aria-hidden="true"><g aria-label="C"><path d="M13.865 14c7.889 0 13.445 5.351 13.382 13.86-.026 3.734-1.973 5.681-5.718 7.301 9.606 2.706 14.564 12.95 14.652 21.285C36 67 28 80 17.28 80H1V14zM9.22 41.761v29.66h8.061c6.237.035 10.665-6.528 10.483-14.975C27.58 48 21 41.69 13.627 41.761zm0-19.222v10.436h5.36a5.01 5.01 0 003.138-1.444c.953-.907 1.43-2.13 1.43-3.67s-.504-2.806-1.51-3.796c-.98-1.017-2.236-1.526-3.772-1.526z" font-size="12.7" text-anchor="middle" aria-label="A"/></g></symbol><symbol id="h-C" fill="currentColor" viewBox="0 0 100 100" aria-hidden="true"><g aria-label="C"><path d="M33.088 13.278c-8.974 0-16.625 3.3-22.951 9.9-6.327 6.6-9.49 14.548-9.49 23.843 0 9.322 3.163 17.27 9.49 23.842 6.326 6.573 13.977 9.859 22.95 9.859 2.34 0 4.642-.279 6.913-.832v-8.886a21.704 21.704 0 01-6.912 1.138c-6.645 0-12.336-2.448-17.075-7.343-4.711-4.895-7.067-10.82-7.067-17.778 0-6.93 2.356-12.843 7.067-17.738 4.739-4.895 10.43-7.342 17.075-7.342A21.7 21.7 0 0140 23.075V14.11a29.096 29.096 0 00-6.912-.832z" font-size="12.7" text-anchor="middle" aria-label="A"/></g></symbol><symbol id="h-D" fill="currentColor" viewBox="0 0 100 100" aria-hidden="true"><g aria-label="C"><path d="M9.547 22.704v48.634q9.808 0 16.081-6.56Q32.696 57.437 32.696 47q0-10.395-7.068-17.779-6.273-6.517-16.081-6.517zM7.363 14q15.486.083 24.142 9.116 9.49 9.942 9.49 23.884 0 13.984-9.49 23.884Q22.85 79.917 7.363 80H1.327V14z" font-size="12.7" text-anchor="middle" aria-label="A"/></g></symbol><symbol id="h-E" fill="currentColor" viewBox="0 0 100 100" aria-hidden="true"><g aria-label="C"><path d="M35.5 14v8.539H9.72V35.67H35.5v8.539H9.72V71.42H35.5V80h-34V14z" font-size="12.7" text-anchor="middle" aria-label="A"/></g></symbol><symbol id="h-F" fill="currentColor" viewBox="0 0 100 100" aria-hidden="true"><g aria-label="C"><path d="M35.5 14v8.539H9.72V35.67H35.5v8.539H9.72V80H1.5V14z" font-size="12.7" text-anchor="middle" aria-label="A"/></g></symbol><symbol id="h-G" fill="currentColor" viewBox="0 0 100 100" aria-hidden="true"><g aria-label="C"><path d="M55.723 70.987q-9.808 9.735-22.435 9.735-13.46 0-22.95-9.859-9.49-9.859-9.49-23.842 0-13.943 9.49-23.843t22.95-9.9q12.588 0 23.865 10.684l-6.155 5.816q-8.497-7.837-17.71-7.837-9.966 0-17.074 7.342-7.068 7.343-7.068 17.738 0 10.436 7.068 17.778 7.108 7.343 17.074 7.343 8.577 0 14.216-4.703V47.516h8.22z" font-size="12.7" text-anchor="middle" aria-label="A"/></g></symbol><symbol id="h-H" fill="currentColor" viewBox="0 0 100 100" aria-hidden="true"><g aria-label="C"><path d="M9.692 44.209V80h-8.22V14h8.22v21.67h19.616V14h8.22v66h-8.22V44.209z" font-size="12.7" text-anchor="middle" aria-label="A"/></g></symbol><symbol id="h-I" fill="currentColor" viewBox="0 0 100 100" aria-hidden="true"><g aria-label="C"><path d="M9.61 14v66H1.39V14z" font-size="12.7" text-anchor="middle" aria-label="A"/></g></symbol><symbol id="h-J" fill="currentColor" viewBox="0 0 100 100" aria-hidden="true"><g aria-label="C"><path d="M27 65.851q0 6.848-3.613 10.643-3.852 4.042-9.332 4.042-5.44 0-9.291-4.001Q.952 72.492.952 65.81l6.512-2.64q1.112 6.27 2.82 7.714 1.27 1.113 3.414 1.113h.159q2.263-.041 3.732-1.526 1.192-1.279 1.192-4.991V14H27z" font-size="12.7" text-anchor="middle" aria-label="A"/></g></symbol><symbol id="h-K" fill="currentColor" viewBox="0 0 100 100" aria-hidden="true"><g aria-label="C"><path d="M9.22 47.714V80H1V14h8.22v19.648L24.228 14h10.403L15.136 40l24.261 40H29.43L9.775 47.012z" font-size="12.7" text-anchor="middle" aria-label="A"/></g></symbol><symbol id="h-L" fill="currentColor" viewBox="0 0 100 100" aria-hidden="true"><g aria-label="C"><path d="M1 80V14h8.22v57.42h22.712V80z" font-size="12.7" text-anchor="middle" aria-label="A"/></g></symbol><symbol id="h-M" fill="currentColor" viewBox="0 0 100 100" aria-hidden="true"><g aria-label="C"><path d="M29.113 61.561l23.983-51.524L57.146 80h-8.22L46 43 29.113 82.035 12 43 9.22 80H1l4.48-69.93z" font-size="12.7" text-anchor="middle" aria-label="A"/></g></symbol><symbol id="h-N" fill="currentColor" viewBox="0 0 100 100" aria-hidden="true"><g aria-label="C"><path d="M1 11.199l27.63 43.56V14h8.26v69.262L9.014 39.355V80H1z" font-size="12.7" text-anchor="middle" aria-label="A"/></g></symbol><symbol id="h-O" fill="currentColor" viewBox="0 0 100 100" aria-hidden="true"><g aria-label="C"><path d="M33.5 13.216q13.46 0 22.99 9.9 9.53 9.9 9.53 23.884t-9.53 23.884q-9.53 9.9-22.99 9.9-13.46 0-22.99-9.9Q.98 60.984.98 47t9.53-23.884q9.53-9.9 22.99-9.9zm0 8.622q-10.046 0-17.154 7.383-7.067 7.343-7.067 17.78 0 10.435 7.107 17.82 7.108 7.383 17.114 7.383 10.046 0 17.114-7.384 7.108-7.384 7.108-17.82t-7.108-17.779q-7.068-7.383-17.114-7.383z" font-size="12.7" text-anchor="middle" aria-label="A"/></g></symbol><symbol id="h-P" fill="currentColor" viewBox="0 0 100 100" aria-hidden="true"><g aria-label="C"><path d="M9.22 44.25V80H1V14c32 0 33.805 1 33.866 15.046C34.926 43.093 30 44.21 9.219 44.25zm0-21.67v13.09c14.78 0 17.387-.577 17.387-6.624C26.607 23 24 22.58 9.219 22.58z" font-size="12.7" text-anchor="middle" aria-label="A"/></g></symbol><symbol id="h-Q" fill="currentColor" viewBox="0 0 100 100" aria-hidden="true"><g aria-label="C"><path d="M33.5 21.474q-10.046 0-17.154 7.384Q9.28 36.201 9.28 46.637t7.107 17.82Q23.494 71.84 33.5 71.84q10.046 0 17.114-7.383 7.108-7.384 7.108-17.82t-7.108-17.779q-7.068-7.384-17.114-7.384zM47.08 77.45q.913.578 1.906 1.32 2.78 1.527 3.772 1.857.437.123.834.123.675 0 1.35-.412 1.032-.619 1.35-1.815.12-.371.278-3.053h8.299q-.278 4.043-.636 5.363-1.27 4.579-5.28 6.889-2.542 1.526-5.321 1.526-1.549 0-3.098-.454-2.54-.701-6.79-3.547-3.414-1.857-4.725-2.27-.754-.205-1.43-.205-1.19 0-2.302.66-1.827 1.072-2.383 3.217-.079.206-.277 2.723h-8.3q.318-3.92.636-5.115.675-2.517 2.065-4.455-9.371-1.857-16.519-9.282Q.98 60.62.98 46.637q0-13.984 9.53-23.884t22.991-9.9q13.46 0 22.99 9.9 9.53 9.9 9.53 23.884 0 13.983-9.53 23.883-4.288 4.455-9.41 6.93z" font-size="12.7" text-anchor="middle" aria-label="A"/></g></symbol><symbol id="h-R" fill="currentColor" viewBox="0 0 100 100" aria-hidden="true"><g aria-label="C"><path d="M5.566 13.993C4.11 13.992 2.588 13.995 1 14v66h8.22V44.25h7.283L29.43 80h9.966L25.08 42.806c.112-.115.217-.231.325-.347 5.913-2.022 9.523-4.423 9.493-13.1-.051-14.165-7.468-15.342-29.33-15.366zm10.97 8.491c6.466-.007 10.245.76 10.102 6.875-.145 6.185-3.725 5.953-10.375 6.311-2.115.114-4.319-.006-7.044 0V22.58l7.316-.096z" font-size="12.7" text-anchor="middle" aria-label="A"/></g></symbol><symbol id="h-S" fill="currentColor" viewBox="0 0 100 100" aria-hidden="true"><g aria-label="C"><path d="M20.778 46.15q-6.75-2.35-10.96-6.682Q5.65 35.096 5.65 28.661q0-6.311 4.329-10.849 4.367-4.537 10.562-4.537 6.115 0 10.483 4.496 2.461 2.475 4.13 7.879l-7.466 3.052q-1.35-3.795-2.462-4.95-1.945-1.98-4.685-1.98-2.78 0-4.725 2.021-1.946 1.98-1.946 4.868 0 2.887 1.946 4.909 2.183 2.227 6.035 4.083 7.465 2.517 12.667 7.92 5.837 5.982 5.837 14.52 0 8.54-5.837 14.603-5.798 6.022-13.977 6.022-8.22 0-14.017-6.063Q1.877 69.828.646 61.33l7.982-3.011q.754 7.3 3.692 10.353 3.415 3.548 8.22 3.548 4.804 0 8.22-3.548 3.414-3.547 3.414-8.58 0-4.99-3.415-8.538-3.256-3.383-7.981-5.404z" font-size="12.7" text-anchor="middle" aria-label="A"/></g></symbol><symbol id="h-T" fill="currentColor" viewBox="0 0 100 100" aria-hidden="true"><g aria-label="C"><path d="M23.63 22.539v57.46h-8.26V22.54H.56V14h37.88v8.539z" font-size="12.7" text-anchor="middle" aria-label="A"/></g></symbol><symbol id="h-U" fill="currentColor" viewBox="0 0 100 100" aria-hidden="true"><g aria-label="C"><path d="M28.875 14h8.259v46.489c.18 10.668-6.491 20.04-18.067 20.047C7.49 80.543 1.15 69.588 1 58.096V14h8.26v44.096c.01 7.939 2.468 13.768 9.807 13.819 7.339.05 9.713-6.528 9.808-13.819z" font-size="12.7" text-anchor="middle" aria-label="A"/></g></symbol><symbol id="h-V" fill="currentColor" viewBox="0 0 100 100" aria-hidden="true"><g aria-label="C"><path d="M1 14h8.736l9.768 43.794L29.35 14h8.775L19.504 83.52z" font-size="12.7" text-anchor="middle" aria-label="A"/></g></symbol><symbol id="h-W" fill="currentColor" viewBox="0 0 100 100" aria-hidden="true"><g aria-label="C"><path d="M25.38 67.666V14h8.22v53.666q.397.701 1.35 1.733 2.58 2.557 6.115 2.557 3.534 0 6.115-2.599 2.58-2.64 2.58-6.31V14h8.26v49.376q-.159 6.971-4.964 11.963-4.963 5.197-11.991 5.197-6.989 0-11.555-5.115-4.606 5.115-11.595 5.115-7.028 0-11.952-5.197Q1.12 70.389 1 63.376V14h8.22v49.046q0 3.671 2.58 6.311 2.581 2.599 6.115 2.599 3.574 0 6.115-2.557.993-1.032 1.35-1.733z" font-size="12.7" text-anchor="middle" aria-label="A"/></g></symbol><symbol id="h-X" fill="currentColor" viewBox="0 0 100 100" aria-hidden="true"><g aria-label="C"><path d="M.742 80l14.493-36.011L.742 14h9.45l9.768 20.34L29.808 14h9.45L24.685 43.989l14.573 36.01h-9.45L19.96 54.56 10.192 80z" font-size="12.7" text-anchor="middle" aria-label="A"/></g></symbol><symbol id="h-Y" fill="currentColor" viewBox="0 0 100 100" aria-hidden="true"><g aria-label="C"><path d="M15.794 53.517L.71 14h9.45l9.724 29.865L29.8 14h9.49L24.013 53.517V80h-8.22z" font-size="12.7" text-anchor="middle" aria-label="A"/></g></symbol><symbol id="h-Z" fill="currentColor" viewBox="0 0 100 100" aria-hidden="true"><g aria-label="C"><path d="M31.855 22.539H1.756V14H46.07L14.106 71.42h30.177V80H-.07z" font-size="12.7" text-anchor="middle" aria-label="A"/></g></symbol><symbol id="h-bracketleft" fill="currentColor" viewBox="0 0 100 100" aria-hidden="true"><g aria-label="C"><path d="M1 12h17v5.898H8.589v63.514H18v5.897H1z" font-size="22.348" aria-label="A"/></g></symbol><symbol id="h-backslash" fill="currentColor" viewBox="0 0 100 100" aria-hidden="true"><g aria-label="C"><path d="M7.783 12l21.446 69.412h-7.011L.77 12z" font-size="22.348" aria-label="A"/></g></symbol><symbol id="h-bracketright" fill="currentColor" viewBox="0 0 100 100" aria-hidden="true"><g aria-label="C"><path d="M18 12H1v5.898h9.411v63.514H1v5.897h17z" font-size="22.348" aria-label="A"/></g></symbol><symbol id="h-asciicircum" fill="currentColor" viewBox="0 0 100 100" aria-hidden="true"><g aria-label="C"><path d="M32.652 36.972L27 37 16.826 20.681 6.652 37 1 36.972 16.826 10z" font-size="22.348" aria-label="A"/></g></symbol><symbol id="h-underscore" fill="currentColor" viewBox="0 0 100 100" aria-hidden="true"><g aria-label="C"><path d="M0 80v8.666h40V80z" aria-label="A" font-size="32"/></g></symbol><symbol id="h-grave" fill="currentColor" viewBox="0 0 100 100" aria-hidden="true"><g aria-label="C"><path d="M9.125 0L22 15h-9L1 0z" font-size="22.348" aria-label="A"/></g></symbol><symbol id="h-a" fill="currentColor" viewBox="0 0 100 100" aria-hidden="true"><g aria-label="C"><path d="M26.533 53.428L22 40.538l-4.5 12.89zM43.111 80h-7.28l-6.816-19.456h-14.03L8.202 80H.889L22 22.067z" font-size="12.7" text-anchor="middle" aria-label="A"/></g></symbol><symbol id="h-b" fill="currentColor" viewBox="0 0 100 100" aria-hidden="true"><g aria-label="C"><path d="M11.721 25c3.066 0 5.691 1.135 7.875 3.403 2.184 2.246 3.276 4.962 3.276 8.147 0 3.277-1.588 5.305-4.765 6.085 2.294.343 4.897 2.04 7.81 5.087 2.933 3.048 4.4 7.265 4.4 12.65 0 5.385-1.82 10.037-5.46 13.956-3.419 3.69-6.849 5.626-10.29 5.672H1V25zM7.85 48.135V72.85h6.717c1.412-.092 3.165-1.375 5.26-3.644 2.317-2.475 3.475-5.42 3.475-8.834 0-3.369-1.158-6.245-3.474-8.628-2.294-2.406-5.063-3.61-8.306-3.61zm0-16.02v8.698h4.467a4.176 4.176 0 002.614-1.203c.794-.757 1.19-1.777 1.19-3.06 0-1.283-.418-2.337-1.257-3.162-.816-.848-1.864-1.272-3.143-1.272z" font-size="12.7" text-anchor="middle" aria-label="A"/></g></symbol><symbol id="h-c" fill="currentColor" viewBox="0 0 100 100" aria-hidden="true"><g aria-label="C"><path d="M27.637 24.399c-7.478 0-13.854 2.75-19.126 8.25C3.24 38.149.603 44.77.603 52.517c0 7.769 2.636 14.392 7.908 19.869s11.648 8.216 19.126 8.216c1.949 0 3.868-.233 5.76-.694v-7.405a18.087 18.087 0 01-5.76.949c-5.537 0-10.28-2.04-14.229-6.12-3.926-4.078-5.89-9.017-5.89-14.815 0-5.775 1.964-10.702 5.89-14.78 3.95-4.08 8.692-6.12 14.229-6.12 1.949 0 3.87.314 5.76.946v-7.471a24.247 24.247 0 00-5.76-.693z" font-size="12.7" text-anchor="middle" aria-label="A"/></g></symbol><symbol id="h-d" fill="currentColor" viewBox="0 0 100 100" aria-hidden="true"><g aria-label="C"><path d="M8 32.472V73q8.173 0 13.401-5.466 5.89-6.118 5.89-14.815 0-8.663-5.89-14.816Q16.173 32.472 8 32.472zm-1.82-7.253q12.905.069 20.119 7.597 7.908 8.284 7.908 19.903 0 11.653-7.908 19.903-7.214 7.528-20.119 7.597H1.15v-55z" font-size="12.7" text-anchor="middle" aria-label="A"/></g></symbol><symbol id="h-e" fill="currentColor" viewBox="0 0 100 100" aria-hidden="true"><g aria-label="C"><path d="M29.523 25v7.116H7.85v10.942h21.673v7.116H7.85V72.85h21.673V80H1V25z" font-size="12.7" text-anchor="middle" aria-label="A"/></g></symbol><symbol id="h-f" fill="currentColor" viewBox="0 0 100 100" aria-hidden="true"><g aria-label="C"><path d="M29.523 25v7.116H7.85v10.942h21.673v7.116H7.85V80H1V25z" font-size="12.7" text-anchor="middle" aria-label="A"/></g></symbol><symbol id="h-g" fill="currentColor" viewBox="0 0 100 100" aria-hidden="true"><g aria-label="C"><path d="M46.27 72.49q-8.174 8.112-18.696 8.112-11.218 0-19.126-8.216Q.54 64.17.54 52.517.54 40.9 8.448 32.65q7.908-8.25 19.126-8.25 10.489 0 19.886 8.903l-5.128 4.847q-7.082-6.532-14.758-6.532-8.306 0-14.229 6.12-5.89 6.118-5.89 14.78 0 8.697 5.89 14.816 5.923 6.119 14.229 6.119 7.147 0 11.846-3.92V52.93h6.85z" font-size="12.7" text-anchor="middle" aria-label="A"/></g></symbol><symbol id="h-h" fill="currentColor" viewBox="0 0 100 100" aria-hidden="true"><g aria-label="C"><path d="M7.85 51.377V80H1V25h6.85v19.262h16.346V25h6.85v55h-6.85V51.377z" font-size="12.7" text-anchor="middle" aria-label="A"/></g></symbol><symbol id="h-i" fill="currentColor" viewBox="0 0 100 100" aria-hidden="true"><g aria-label="C"><path d="M7.925 25v55h-6.85V25z" font-size="12.7" text-anchor="middle" aria-label="A"/></g></symbol><symbol id="h-j" fill="currentColor" viewBox="0 0 100 100" aria-hidden="true"><g aria-label="C"><path d="M23 68.21q0 5.706-3.011 8.868-3.21 3.369-7.776 3.369-4.533 0-7.743-3.334-3.177-3.37-3.177-8.938l5.427-2.2q.927 5.225 2.35 6.428 1.058.928 2.845.928h.132q1.886-.034 3.11-1.272.993-1.065.993-4.159V25H23z" font-size="12.7" text-anchor="middle" aria-label="A"/></g></symbol><symbol id="h-k" fill="currentColor" viewBox="0 0 100 100" aria-hidden="true"><g aria-label="C"><path d="M7.85 51.114V80H1V25h6.85v14.392L20.356 25h8.67L12.78 44.686 32.998 80h-8.306L8.312 50.53z" font-size="12.7" text-anchor="middle" aria-label="A"/></g></symbol><symbol id="h-l" fill="currentColor" viewBox="0 0 100 100" aria-hidden="true"><g aria-label="C"><path d="M1 80V25h6.85v47.85h18.927V80z" font-size="12.7" text-anchor="middle" aria-label="A"/></g></symbol><symbol id="h-m" fill="currentColor" viewBox="0 0 100 100" aria-hidden="true"><g aria-label="C"><path d="M24.033 64.634L44.02 21.698 47.394 80h-6.85l-2.823-30.937-13.688 32.633L10.28 49.063 7.455 80H.605L4.34 21.725z" font-size="12.7" text-anchor="middle" aria-label="A"/></g></symbol><symbol id="h-n" fill="currentColor" viewBox="0 0 100 100" aria-hidden="true"><g aria-label="C"><path d="M1 22.665l23.025 36.3V25h6.883V82.72L7.679 46.129V80H1z" font-size="12.7" text-anchor="middle" aria-label="A"/></g></symbol><symbol id="h-o" fill="currentColor" viewBox="0 0 100 100" aria-hidden="true"><g aria-label="C"><path d="M28 24.539q11.217 0 19.159 8.25 7.941 8.25 7.941 19.903 0 11.653-7.941 19.903-7.942 8.25-19.159 8.25-11.217 0-19.159-8.25Q.9 64.345.9 52.692.9 41.04 8.84 32.79q7.942-8.25 19.16-8.25zm0 7.184q-8.372 0-14.295 6.153-5.89 6.12-5.89 14.816 0 8.697 5.923 14.85Q19.661 73.695 28 73.695q8.372 0 14.262-6.153 5.923-6.153 5.923-14.85t-5.923-14.816Q36.372 31.723 28 31.723z" font-size="12.7" text-anchor="middle" aria-label="A"/></g></symbol><symbol id="h-p" fill="currentColor" viewBox="0 0 100 100" aria-hidden="true"><g aria-label="C"><path d="M7.665 51.723L7.85 80H1V25c21.173-.069 28.204.208 28.247 12.8.043 12.59-9.106 13.923-21.582 13.923zM7.85 32.15l-.185 12.423c9.408-.021 14.542.02 14.7-6.774.159-6.794-5.493-5.668-14.515-5.649z" font-size="12.7" text-anchor="middle" aria-label="A"/></g></symbol><symbol id="h-q" fill="currentColor" viewBox="0 0 100 100" aria-hidden="true"><g aria-label="C"><path d="M28 31.528q-8.372 0-14.295 6.153-5.89 6.12-5.89 14.816 0 8.697 5.923 14.85Q19.661 73.5 28 73.5q8.371 0 14.261-6.153 5.923-6.153 5.923-14.85t-5.923-14.816Q36.371 31.528 28 31.528zm11.316 46.647q.761.481 1.589 1.1 2.316 1.272 3.143 1.547.364.103.695.103.562 0 1.125-.344.86-.515 1.125-1.512.1-.31.232-2.544h6.915q-.231 3.369-.529 4.469-1.059 3.815-4.4 5.74-2.119 1.272-4.435 1.272-1.29 0-2.58-.378-2.119-.584-5.66-2.956-2.845-1.547-3.937-1.89-.628-.173-1.191-.173-.993 0-1.92.55-1.521.894-1.985 2.682-.066.172-.23 2.268h-6.917q.265-3.265.53-4.262.562-2.097 1.72-3.713-7.809-1.546-13.765-7.734Q.9 64.15.9 52.497q0-11.653 7.941-19.903 7.942-8.25 19.159-8.25 11.217 0 19.159 8.25 7.941 8.25 7.941 19.903 0 11.653-7.941 19.903-3.574 3.713-7.842 5.775z" font-size="12.7" text-anchor="middle" aria-label="A"/></g></symbol><symbol id="h-r" fill="currentColor" viewBox="0 0 100 100" aria-hidden="true"><g aria-label="C"><path d="M4.805 24.995A893.84 893.84 0 001 25v55h6.85l-.185-28.276h6.254L24.692 80h8.306L21.066 50.52c.093-.096.18-.192.27-.289 4.928-1.684 7.936-5.201 7.912-12.432-.043-11.804-6.224-12.785-24.442-12.805zm9.141 7.075c5.389-.006 8.538.634 8.419 5.73-.12 5.153-3.104 6.476-8.645 6.774-1.763.095-3.785-.005-6.055 0l.184-12.424c2.256-.004 4.3-.078 6.097-.08z" font-size="12.7" text-anchor="middle" aria-label="A"/></g></symbol><symbol id="h-s" fill="currentColor" viewBox="0 0 100 100" aria-hidden="true"><g aria-label="C"><path d="M17.482 51.792q-5.626-1.959-9.133-5.568-3.474-3.644-3.474-9.007 0-5.259 3.606-9.04 3.64-3.781 8.802-3.781 5.096 0 8.736 3.746 2.051 2.063 3.441 6.566l-6.22 2.544q-1.126-3.163-2.052-4.125-1.622-1.65-3.905-1.65-2.316 0-3.938 1.684-1.62 1.65-1.62 4.056 0 2.407 1.62 4.091 1.82 1.856 5.03 3.403 6.22 2.097 10.556 6.6 4.864 4.985 4.864 12.1 0 7.116-4.864 12.169-4.831 5.019-11.648 5.019-6.85 0-11.68-5.054Q1.73 71.524.704 64.442l6.651-2.509q.629 6.084 3.078 8.628 2.845 2.956 6.85 2.956 4.003 0 6.849-2.956 2.845-2.956 2.845-7.15 0-4.16-2.845-7.115-2.714-2.82-6.651-4.504z" font-size="12.7" text-anchor="middle" aria-label="A"/></g></symbol><symbol id="h-t" fill="currentColor" viewBox="0 0 100 100" aria-hidden="true"><g aria-label="C"><path d="M19.941 32.116V80H13.06V32.116H.716V25h31.568v7.116z" font-size="12.7" text-anchor="middle" aria-label="A"/></g></symbol><symbol id="h-u" fill="currentColor" viewBox="0 0 100 100" aria-hidden="true"><g aria-label="C"><path d="M24.172 25h6.882v38.74c.15 8.891-5.41 16.701-15.055 16.707-9.647.006-14.931-9.123-15.056-18.7V25h6.882v36.747C7.833 68.363 9.883 73.22 16 73.263c6.115.042 8.093-5.44 8.173-11.516z" font-size="12.7" text-anchor="middle" aria-label="A"/></g></symbol><symbol id="h-v" fill="currentColor" viewBox="0 0 100 100" aria-hidden="true"><g aria-label="C"><path d="M.53 25h7.28l8.14 36.495L24.157 25h7.312L15.95 82.933z" font-size="12.7" text-anchor="middle" aria-label="A"/></g></symbol><symbol id="h-w" fill="currentColor" viewBox="0 0 100 100" aria-hidden="true"><g aria-label="C"><path d="M21.059 69.722V25h6.85v44.722q.33.584 1.124 1.443 2.151 2.132 5.096 2.132 2.945 0 5.096-2.166 2.15-2.2 2.15-5.26V25h6.883v41.147q-.132 5.81-4.136 9.968-4.136 4.332-9.993 4.332-5.824 0-9.629-4.263-3.838 4.263-9.662 4.263-5.857 0-9.96-4.332Q.84 71.99.742 66.147V25h6.85v40.872q0 3.06 2.15 5.26 2.15 2.165 5.096 2.165 2.978 0 5.096-2.132.827-.859 1.125-1.443z" font-size="12.7" text-anchor="middle" aria-label="A"/></g></symbol><symbol id="h-x" fill="currentColor" viewBox="0 0 100 100" aria-hidden="true"><g aria-label="C"><path d="M.952 80l12.077-30.01L.952 25h7.875l8.14 16.95L25.173 25h7.875L20.905 49.99 33.048 80h-7.875l-8.206-21.2L8.827 80z" font-size="12.7" text-anchor="middle" aria-label="A"/></g></symbol><symbol id="h-y" fill="currentColor" viewBox="0 0 100 100" aria-hidden="true"><g aria-label="C"><path d="M13.495 57.931L.925 25.001H8.8l8.103 24.887L25.167 25h7.908l-12.73 32.931V80h-6.85z" font-size="12.7" text-anchor="middle" aria-label="A"/></g></symbol><symbol id="h-z" fill="currentColor" viewBox="0 0 100 100" aria-hidden="true"><g aria-label="C"><path d="M26.879 32.116H1.797V25h36.928L12.088 72.85h25.148V80H.275z" font-size="12.7" text-anchor="middle" aria-label="A"/></g></symbol><symbol id="h-sterling" fill="currentColor" viewBox="0 0 100 100" aria-hidden="true"><g aria-label="C"><path d="M20.68 57.104q0 9.362-5.031 14.517 3.34-2.145 7.34-2.145 1.073 0 2.228.165 5.279.743 8.331.743 2.722 0 7.754-1.279l1.608 8.414q-5.733 1.402-9.362 1.402-3.67 0-7.465-.866-3.464-.742-6.021-.742-2.145 0-3.589.495-3.794 1.36-9.155 4.083L1.09 74.508q6.434-5.691 7.506-7.011 3.506-4.166 3.588-10.476H3.152v-8.496h7.135q-.041-.124-1.69-3.382Q4.1 37.884 3.522 31.121q-.082-.825-.082-1.691 0-6.187 4.083-11.095 4.578-5.444 11.878-6.145.825-.041 1.608-.041 6.187 0 11.136 4.083 5.485 4.702 6.145 11.837.165.99.165 1.938 0 2.928-1.98 7.506l-7.96-2.68q1.28-3.671 1.28-5.197 0-.454-.042-.866-.33-3.588-3.134-5.94-2.475-2.061-5.568-2.061-.454 0-.866.041-3.63.289-5.98 3.093-2.063 2.475-2.063 5.527 0 .495.042.948.33 3.795 2.64 8.703 3.422 5.444 4.412 9.444h8.001v8.496z" font-size="22.348" text-anchor="middle" aria-label="A"/></g></symbol><symbol id="h-Agrave" fill="currentColor" viewBox="0 0 100 100" aria-hidden="true"><g aria-label="C"><path d="M17.375 0l12 11h9L25.5 0h-8.125zM25.5 10.48L.166 80h8.775l8.141-23.348h16.836L42.098 80h8.736L25.5 10.48zm0 22.165l5.44 15.468H20.1l5.4-15.468z" font-size="12.7" text-anchor="middle" aria-label="A"/></g></symbol><symbol id="h-Acute" fill="currentColor" viewBox="0 0 100 100" aria-hidden="true"><g aria-label="C"><path d="M25.5 0L12.625 11h9l12-11H25.5zm0 10.48L.166 80h8.775l8.141-23.348h16.836L42.098 80h8.736L25.5 10.48zm0 22.165l5.44 15.468H20.1l5.4-15.468z" font-size="12.7" text-anchor="middle" aria-label="A"/></g></symbol><symbol id="h-Acirc" fill="currentColor" viewBox="0 0 100 100" aria-hidden="true"><g aria-label="C"><path d="M21.438 0L8.563 11h9L25.5 3.725 33.438 11h9L29.563 0h-8.125zM25.5 10.48L.166 80h8.775l8.141-23.348h16.836L42.098 80h8.736L25.5 10.48zm0 22.165l5.44 15.468H20.1l5.4-15.468z" font-size="12.7" text-anchor="middle" aria-label="A"/></g></symbol><symbol id="h-Atilde" fill="currentColor" viewBox="0 0 100 100" aria-hidden="true"><g aria-label="C"><path d="M20.943-.371c-.77 0-1.54.11-2.31.33-3.025.88-5.072 4.344-6.145 10.393h7.713c-.385-1.128-.578-2.034-.578-2.721 0-1.018.412-1.555 1.236-1.61h.166c.77 0 1.966.785 3.588 2.352 1.65 1.567 3.493 2.35 5.528 2.35.77 0 1.538-.11 2.308-.33 2.997-.88 5.018-4.344 6.063-10.393h-7.67c.357 1.182.535 2.13.535 2.846 0 1.072-.412 1.61-1.236 1.61v-.044c-.715 0-1.927-.796-3.631-2.39C24.805.426 22.95-.372 20.943-.372zM25.5 10.48L.166 80h8.775l8.141-23.348h16.836L42.098 80h8.736L25.5 10.48zm0 22.165l5.44 15.468H20.1l5.4-15.468z" font-size="12.7" text-anchor="middle" aria-label="A"/></g></symbol><symbol id="h-Auml" fill="currentColor" viewBox="0 0 100 100" aria-hidden="true"><g aria-label="C"><path d="M14.809.02c-1.705 0-3.137.59-4.291 1.773C9.363 2.975 8.788 4.378 8.788 6c0 1.65.575 3.052 1.73 4.207 1.154 1.182 2.586 1.773 4.29 1.773 1.65 0 3.05-.59 4.206-1.773C20.168 9.052 20.746 7.65 20.746 6c0-1.622-.578-3.025-1.732-4.207C17.859.611 16.458.02 14.809.02zm21.466 0c-1.704 0-3.134.59-4.289 1.773C30.832 2.975 30.254 4.378 30.254 6c0 1.65.578 3.052 1.732 4.207 1.155 1.182 2.585 1.773 4.29 1.773 1.65 0 3.052-.59 4.206-1.773 1.155-1.155 1.73-2.557 1.73-4.207 0-1.622-.575-3.025-1.73-4.207C39.328.611 37.925.02 36.275.02zM25.5 10.48L.166 80h8.775l8.141-23.348h16.836L42.098 80h8.736L25.5 10.48zm0 22.165l5.44 15.468H20.1l5.4-15.468z" font-size="12.7" text-anchor="middle" aria-label="A"/></g></symbol><symbol id="h-Aring" fill="currentColor" viewBox="0 0 100 100" aria-hidden="true"><path d="M25.5 0c-4.392 0-8 3.608-8 8 0 3.73 2.602 6.892 6.076 7.762L.166 80h8.775l8.141-23.348h16.836L42.098 80h8.736l-23.41-64.238C30.898 14.892 33.5 11.729 33.5 8c0-4.392-3.608-8-8-8zm0 5a3 3 0 110 6 3 3 0 010-6zm0 27.645l5.44 15.468H20.1z" font-size="12.7" text-anchor="middle"/></symbol><symbol id="h-AElig" fill="currentColor" viewBox="0 0 100 100" aria-hidden="true"><g aria-label="C"><path d="M24.882 14L.833 80h8.775l8.141-23.348h8.418V80h30v-8.58H34.386V44.209h21.781v-8.54H34.386V22.54h21.781V14zm1.285 18.645v15.468h-5.4z" font-size="12.7" text-anchor="middle" aria-label="A"/></g></symbol><symbol id="h-Ccedil" fill="currentColor" viewBox="0 0 100 100" aria-hidden="true"><g aria-label="C"><g aria-label="A" text-anchor="middle" font-size="32"><path d="M33.088 13.277c-8.974 0-16.625 3.3-22.951 9.9-6.327 6.6-9.49 14.55-9.49 23.844 0 9.323 3.163 17.27 9.49 23.842 5.014 5.21 10.86 8.351 17.537 9.432l-1.678 4.539c2.365.77 3.63 1.54 3.795 2.31.026.11.041.22.041.33 0 .22-.04.425-.123.618-.247.852-.798 1.333-1.65 1.443a2.293 2.293 0 01-.454.043c-.99 0-2.268-.357-3.835-1.072L22.326 93.7c2.502.413 4.55.62 6.145.62.687 0 1.294-.041 1.816-.124 2.612-.385 4.59-1.39 5.938-3.011.852-1.045 1.279-2.158 1.279-3.34 0-.358-.04-.715-.123-1.073a22.27 22.27 0 00-.29-1.113c-.577-1.402-1.883-2.627-3.917-3.672l.496-1.275A29.1 29.1 0 0040 79.89v-8.887a21.704 21.704 0 01-6.912 1.139c-6.644 0-12.336-2.45-17.074-7.344-4.712-4.895-7.069-10.82-7.069-17.778 0-6.93 2.357-12.843 7.069-17.738 4.738-4.895 10.43-7.342 17.074-7.342 2.338 0 4.643.376 6.912 1.133V14.11a29.094 29.094 0 00-6.912-.832z" font-size="12.7"/></g></g></symbol><symbol id="h-Omacron" fill="currentColor" viewBox="0 0 100 100" aria-hidden="true"><g aria-label="C"><path d="M28.495 13.137c-13.64 0-24.777 11.581-24.777 25.75 0 14.17 11.138 25.737 24.777 25.737 13.64 0 24.787-11.567 24.787-25.736 0-14.17-11.148-25.75-24.787-25.75zm0 8.639c9.14 0 16.469 7.616 16.469 17.112 0 9.495-7.328 17.098-16.469 17.098-9.14 0-16.459-7.603-16.459-17.098 0-9.496 7.318-17.112 16.459-17.112zM.326 71.334V80h56.348v-8.666z" aria-label="A" font-size="32"/></g></symbol><symbol id="h-euro" fill="currentColor" viewBox="0 0 100 100" aria-hidden="true"><g aria-label="C"><path d="M5.581 35.67v-.734C6.605 21.135 16.464 13.68 29.007 13.51c6.49 0 12.607 2.9 18.353 8.702l-6.145 6.145c-4.07-4.041-8.138-6.062-12.208-6.062-8.433.4-14.621 5.111-14.723 12.64v.735H37v7.754H14.284v2.31H37v7.712l-22.716-.124v3.916c.03 4.011 1.461 7.43 4.289 10.259 2.887 2.86 6.365 4.29 10.434 4.29 4.07 0 7.534-1.444 10.394-4.331 1.787-1.788 3.203-4.386 4.248-7.795h8.867c-1.485 6.186-3.795 10.86-6.929 14.022-4.564 4.564-10.09 6.847-16.58 6.847-6.461 0-11.988-2.283-16.58-6.847-4.163-5.081-6.738-11.45-6.846-16.338v-3.9H1v-7.712h4.581v-2.31H1V35.67z" font-size="22.348" text-anchor="middle" aria-label="A"/></g></symbol><symbol id="h-bug" fill="currentColor" viewBox="0 0 100 100" aria-hidden="true"><g aria-label="C"><path d="M33.506.5c-8.623.002-15.664 7.054-15.663 15.677 0 6.715 4.266 12.468 10.232 14.688.11.073.15.113.197.162-.135.12-.703.526-1.904.903-3.181 1.001-5.198 3.002-6.008 6.009-.225.836-.352 1.066-.452 1.144-.099.079-.528.212-1.571.366-1.453.215-3.166.889-4.268 1.723l-.69.53c-.953-1.346-1.463-2.518-1.066-3.49.487-1.193 1.715-2.35 2.773-3.38h-.012a31.666 31.666 0 002.646-2.868c.72-.896 1.238-1.613 1.477-2.337.34-1.03.36-2.398.264-3.628-.047-.615-.127-1.179-.264-1.655a2.414 2.414 0 00-.291-.673c-.145-.227-.448-.579-.964-.574h-.012s-.177.021-.23.036a1.11 1.11 0 00-.127.043 2.016 2.016 0 00-.307.187 7.764 7.764 0 00-.384.308c-.297.25-.69.596-1.16 1.023-.94.854-2.18 2.025-3.509 3.312-4.435 4.295-6.962 7.666-7.492 10.992-.53 3.325 1.12 6.338 4.437 9.472 1.199 1.132 1.734 1.745 1.903 2.192.17.447.121.985-.153 2.263l-.028.101c-.815-.673-1.608-1.417-2.5-1.784-1.307-.537-2.814-.547-4.249.274H4.12v.009c-1.389.82-2.33 2.16-2.74 4.157-.408 1.997-.407 4.692-.153 8.652.158 2.46.256 3.808.46 4.703.104.448.225.838.554 1.16.33.324.811.41 1.111.41 1.192 0 2.107-.838 2.705-1.861.598-1.023.934-2.325.853-3.67-.17-2.845-.23-4.51-.162-5.418.035-.455.105-.706.153-.81.049-.106.043-.098.145-.163.082-.053.059-.025.027-.025-.03 0-.013-.02.12.058.26.157.835.676 1.713 1.606.855.905 1.341 1.514 1.596 1.987.255.473.324.814.326 1.427 0 1.035.146 2.91.316 4.317l.178 1.51h-.768c-2.55 0-4.563 1.998-4.933 4.182-.394 2.329.662 5.24 2.502 8.45 1.84 3.208 4.536 6.679 7.697 9.846.845.847 1.648 1.655 2.303 2.263.327.303.617.552.872.75.127.098.24.189.374.266.134.077.248.178.615.178.505 0 .786-.163 1.151-.35a6.449 6.449 0 001.093-.709c.493-.399.888-.883 1.068-1.468.18-.584.1-1.223-.147-1.8-.495-1.152-1.573-2.205-3.251-3.508h-.012c-.225-.173-1.16-1.082-2.167-2.217-1.008-1.136-2.17-2.546-3.125-3.902-.956-1.356-1.698-2.696-1.895-3.473-.098-.388-.03-.564-.043-.546-.012.018-.035-.041.375-.043.54 0 .606.002.906.273.3.27.783.94 1.535 2.177 2.649 4.36 6.512 8.321 10.13 10.283 2.82 1.53 3.66 1.725 7.902 1.725 4.241 0 5.09-.196 7.912-1.725 3.594-1.95 7.466-5.908 10.172-10.292.736-1.193 1.221-1.862 1.535-2.15.215-.197.391-.175.58-.196.16.147.345.288.402.46.086.257.095.599-.011 1.041-.208.886-.894 2.086-1.793 3.27-1.8 2.369-4.436 4.741-5.42 5.52-1.28 1.007-2.069 1.668-2.594 2.322-.524.653-.726 1.43-.648 2.1.13 1.105.865 2.041 1.87 2.603.317.177.585.326.912.433.327.108.748.142 1.118.028.74-.23 1.173-.73 2.007-1.529 3.294-3.156 7.916-9.246 9.669-12.8 1.598-3.24 2.34-5.74 1.996-7.765-.173-1.012-.663-1.9-1.434-2.518-.771-.618-1.771-.975-2.951-1.145a6.516 6.516 0 01-1.197-.282c.04-.269.066-.452.138-.964.112-.798.26-1.834.408-2.917.248-1.808.423-2.776.691-3.423.269-.648.645-1.095 1.511-1.987.758-.782 1.264-1.208 1.477-1.323a.237.237 0 00.078-.059c.012.013.015.028.05.05.096.06.088.047.135.153.049.107.12.364.154.82.067.913.012 2.576-.163 5.41-.08 1.344.25 2.646.847 3.669.598 1.023 1.522 1.86 2.714 1.86.298 0 .76-.087 1.09-.401.331-.314.462-.69.565-1.125.206-.869.3-2.16.452-4.507.189-2.906.238-6.202.068-7.647-.37-3.14-2.267-5.609-4.974-6.117l-.045-.009h-.034c-1.475-.134-2.572.31-3.362.921-.465.36-.885.728-1.298 1.1-.058-.273-.12-.496-.17-.827-.082-.548-.14-.94-.146-1.194 0-.253.018-.35.085-.488.135-.274.677-.813 1.913-1.894 3.326-2.91 4.977-5.901 4.461-9.233-.515-3.331-3.005-6.761-7.363-11.025a170.42 170.42 0 00-3.576-3.414c-.48-.44-.883-.802-1.186-1.06-.151-.128-.27-.23-.384-.315-.056-.043-.11-.085-.18-.127a1.023 1.023 0 00-.264-.113 2.29 2.29 0 00-.24-.034c-.516-.002-.82.347-.964.574-.145.227-.22.435-.289.673-.137.477-.216 1.049-.264 1.664-.096 1.23-.076 2.589.264 3.62.239.723.758 1.44 1.477 2.336a31.513 31.513 0 002.637 2.868c1.309 1.264 2.134 2.143 2.62 2.809.479.658.62 1.07.69 1.587.045.857-.09 1.255-.368 1.655-.187.27-.618.647-.998.998l-.973-.734c-1.077-.816-2.787-1.485-4.222-1.698-1.043-.154-1.481-.29-1.58-.368-.1-.078-.218-.305-.443-1.142-.81-3.006-2.827-5.008-6.009-6.008-1.207-.38-1.774-.792-1.903-.906.05-.052.08-.09.203-.171 5.951-2.229 10.208-7.973 10.208-14.677C49.167 7.554 42.117.503 33.495.5zm0 5.692a9.939 9.939 0 019.984 9.985 9.934 9.934 0 01-9.984 9.978 9.926 9.926 0 01-9.976-9.978 9.931 9.931 0 019.976-9.985zm.011 29.81c2.836.006 4.865.356 6.06.948 1.03.51 1.278 1.183 1.382 2.064-.16.03-.188.05-.494.076-1.162.099-3.367.129-7.187.129h-7.476l.138-.332c.462-1.133 1.034-1.75 2.158-2.21 1.124-.46 2.86-.682 5.42-.676zm0 8.516c6.043 0 9.34.021 11.288.145 1.947.123 2.437.306 3.26.718.868.434 1.962 1.517 2.109 1.827.235.495.616 2.263.793 3.958.176 1.695.158 3.51.035 4.003-.09.364-.491.836-1.614 1.348-1.123.511-2.87 1.003-5.281 1.459-2.26.427-6.259.67-10.983.64-5.33-.031-9.607-.423-12.563-1.101-1.478-.339-2.625-.753-3.38-1.185-.755-.433-1.064-.847-1.142-1.161-.15-.596-.16-2.386.042-4.071.201-1.686.621-3.417.915-3.985.344-.665.624-1.074 1.032-1.382.407-.308 1.005-.56 2.09-.752 2.17-.384 6.133-.46 13.397-.46zM50.714 62.43c0 .032 0 .038-.012.07-.095.693-.291 1.705-.555 2.85-.528 2.289-1.324 5.127-2.064 7.169-2.175 6.004-5.498 10.121-9.85 12.364-.424.22-.859.415-1.227.565a40.062 40.062 0 01-.095-2.398c-.03-2.085.011-4.89.085-7.706.077-2.817.197-5.641.341-7.784.072-1.07.142-1.98.221-2.603.027-.2.054-.31.077-.445 4.303-.434 8.952-.754 13.076-2.082zm-33.616.138c4.053.813 8.162 1.682 12.271 1.944.018.11.036.184.052.334.069.577.135 1.422.206 2.457.141 2.071.274 4.906.366 8.022.091 3.101.173 5.401.187 7.059.013 1.653-.053 2.687-.16 3.122-.193-.072-.624-.273-1.308-.639-3.98-2.126-7.311-6.096-9.496-11.436-.476-1.161-1.137-4.172-1.579-6.819a64.593 64.593 0 01-.496-3.497c-.027-.23-.026-.363-.043-.547z" aria-label="A" font-size="32"/></g></symbol><symbol id="h-hand" fill="currentColor" viewBox="0 0 100 100" aria-hidden="true"><g aria-label="C"><path d="M18.023 81c-5.431-.106-10.03-.307-10.218-.447-1.29-2.624 1.33-3.794 2.712-3.636 1.96.23 22.514-.38 26.041-.773 1.49-.166-3.98-.209-12.913-.102-15.902.19-18.518.043-20.56-1.163-1.072-.633-1.117-1.673-.105-2.43 1.112-.832 5.391-1.138 21.12-1.509 7.604-.18 14.133-.432 14.51-.562 2.284-.789-.394-.89-17.181-.653-14.016.198-18.017.16-18.571-.18-1.002-1.183-.577-2.235.025-3.691.452-.512 6.935-.908 25.32-1.549 10.058-.35 11.903-.557 11.283-1.265-.262-.3-12.778-.35-26.476-.105-8.706.156-9.843.112-10.863-.416-1.831-.947-1.41-2.663.836-3.395.766-.25 6.55-.51 15.648-.701 7.938-.168 16.354-.13 18.654-.506 2.128-.348 8.572.56 5.875-2.73-1.944-2.354-5.125-2.63-12.982-1.123-5.746 1.1-8.734 1.075-11.052-.096-2.311-1.168-1.988-1.642 2.932-4.297 6.69-3.612 10.524-5.142 15.564-4.34 10.076 1.602 19.074 8.9 28.06 10 6.554.774 51.656-.21 52.475-1.145 3.456-10.411 2.684-32.304 6.975-40.877 3.307-.224 12.154-2.568 13.335 1.151-.714 9.912 2.562 51.965-1.712 52.646-21.132 6.814-62.811-9.698-79.573 5.902-3.622 3.371-8.103 5.902-13.572 7.487-3.181.922-3.69.932-25.587.505z" aria-label="A" font-size="32"/></g></symbol><symbol id="h-ankh" fill="currentColor" viewBox="0 0 100 100" aria-hidden="true"><g aria-label="C"><path d="M14.775 4.872c-1.673 1.744-2.993 4.204-3.545 7.512-.552 3.307-.327 7.353.883 12.22v.009c2.097 8.286 6.647 14.613 10.704 20.367L1.762 43.807c-.46-.021-.781.777-.613 1.519a16.179 16.179 0 010 7.475c-.168.742.154 1.54.613 1.519l22.172-1.239-1.552 41.235c-.027.72.342 1.293.751 1.166 3.001-.931 5.463-.628 7.766 0 .403.113.763-.448.741-1.156l-1.347-41.235 19.945 1.229c.457.018.777-.78.61-1.519-.593-2.568-.676-4.947-.01-7.42.197-.748-.126-1.597-.6-1.574L31.3 44.98c3.66-5.973 8.288-11.864 10.098-21.316.985-5.198 1.087-9.328.495-12.602-.593-3.273-1.888-5.597-3.49-7.149C35.202.81 30.76.5 26.836.5c-3.924 0-8.713.883-12.06 4.372zm11.866 3.055a8.348 8.348 0 015.513 2.052c1.58 1.368 2.754 3.36 3.255 5.986.501 2.625.36 5.99-.913 10.262-1.206 4.048-3.645 8.983-7.234 14.493-3.8-5.478-6.415-10.388-7.772-14.437-1.43-4.266-1.693-7.647-1.288-10.262.404-2.616 1.492-4.595 3.014-5.977a8.147 8.147 0 015.425-2.117z" fill-rule="evenodd" aria-label="A" font-size="32"/></g></symbol><symbol id="h-eye" fill="currentColor" viewBox="0 0 100 100" aria-hidden="true"><g aria-label="C"><path d="M93.433 2.559c-27.883.444-51.745 16.995-80.496 15.55-5.732-.288-10.687.735-11.014.988-1.771 1.369-.68 7.486 1.309 7.72 31.096 3.669 55.404-12.506 89.406-15.045 10.185-.61 33.703 5.658 41.676 10.372-2.985 6.64-1.832 14.965-2.66 22.141-17.214-9.952-15.714-21.847-41.358-19.257-10.874 1.766-24.358 10.327-36.402 13.407l-50.084.443-.277.98c-.153.539-.28 2.464-.283 4.279l-.006 3.3 2.787.33c15.02 1.41 30.38-.851 45.44-.201 11.84 2.802 20.273 4.704 31.241 7.581.416.397-1.248 1.52-12.847 8.666-2.105 1.292-52.377 35.517-62.26 17.279-1.058-2.323 2.692-2.952 4.129 2.526 10.064 5.328 12.537-10.86-.494-12.67-5.245-.728-9.671 5.136-8.73 10.46 1.836 10.399 20.134 9.874 28.71 7.573 18.652-4.661 40.49-15.615 58.385-29.284 1.513-1.156 2.865-1.925 3.006-1.71 4.286 7.938-.64 24.123 5.469 33.465.603.874 1.181 1.1 2.806 1.1 2.805 0 3.174-.924 3.174-7.963 0-7.206.704-12.455 2.277-16.971l1.254-3.598-1.07-3.493c-.589-1.922-.893-3.652-.676-3.842.309-.271 29.895-6.424 30.889-6.424.133 0-.093-.878-.504-1.953-3.361-9.433 3.054-18.922 2.727-28.374-.09-2.577.502-3.96-1.963-5.492-11.78-7.322-30.944-12.085-43.56-11.883zm-10.916 32.47a15.084 14.306 0 00-.863 4.73 15.084 14.306 0 004.777 10.43c-18.294-5.085-32.95-7.945-5.568-14.868zm28.531.211c.286.097.645.244 1.155.495 1.238.608 5.777 4.842 10.21 9.524 2.42 2.557 1.975 2.15-1.507 2.447-4.926.47-9.243 1.332-13.639 2.271a15.084 14.306 0 004.555-10.217 15.084 14.306 0 00-.774-4.52z" aria-label="A" font-size="32"/></g></symbol><symbol id="h-hathor" fill="currentColor" viewBox="0 0 100 100" aria-hidden="true"><g aria-label="C"><path d="M13.495 57.931L.925 25.001H8.8l8.103 24.887L25.167 25h7.908l-12.73 32.931V80h-6.85z" font-size="12.7" text-anchor="middle" aria-label="A"/></g></symbol><symbol id="h-female-" fill="currentColor" viewBox="0 0 100 100" aria-hidden="true"><g aria-label="C"><path d="M29.296 1.244c-3.321.932-5.876 4.803-6.997 7.975-.138.39-.116.823-.024 1.208.07.29.25.497.428.7-.082.508-.298 1.308-.63 2.209-.352.957-.803 1.999-1.263 2.879-.84 1.607-1.274 2.39-1.412 3.112-.148.859.28 1.29.743 1.733.38.184.623.48.769.938.146.459.178 1.108.217 2.13.039 1.023.61 1.888 1.504 2.311.894.423 2.125.463 3.743.17.716-.13 1.436-.298 1.813-.395.315-.082.24.17.24.198.004.11-.065.275-1.384 5.903-1.319 5.628-3.71 16.923-2.314 28.745-3.535-3.988-6.608-9.086-10.69-12.587-3.46-2.962-10.714-3.409-12.255.814-2.969 8.134 4.323 17.631 8.643 24.189 2.993 4.52 5.335 9.542 5.83 10.696 1.033 2.03-.01 3.404-1.267 4.672-1.136 1.146-.003.003-.004.004-.002.004.467-.62-.006.012-1.159 1.307-2.362 2.458-3.446 3.753-.824 1.16-.877 1.982.26 2.71.384.121.903.179 1.595.177l32.686-.093c2.353.043 2.628-.841 1.655-2.629-.314-.532-.715-1.178-1.142-1.977l-.004-.006c-1.725-2.983-1.919-6.302-1.092-9.174 1.564-5.431 1.654-11.716 1.55-18.286-.101-6.487-.36-13.258.4-19.808 2.612.324 3.767.283 4.156-2.89.98-7.982-.557-16.996-1.962-25.405-1.153-6.563-3.631-11.765-7.499-13.05-4.676-1.552-7.72-2.374-12.84-.938zM25.4 13.116c2.183.096 5.587.11 7.627.466.235 1.79-.7 3.847.808 4.913.163.115.215.25.241.49.262 3.966.178 8.377.142 11.691-.032 2.903-.912 6.066-1.167 8.558-.128 1.246-.26 2.504.347 3.188 1.817 2.049 6.196 1.596 6.932-.908.958-3.262-.917-7.236-.024-10.096.519-1.546 2.193-.104 2.429.857 1.358 5.529.842 12.046.649 16.808-.454 11.175.648 19.4-1.352 29.395-.811 4.05-2.084 9.36.019 12.713-8.041.765-16.432.108-24.604.34.893-1.12 1.8-2.385 2.516-3.507 1.07-1.495.66-2.655.138-4.116-.453-1.15-1.13-2.603-1.951-4.249-2.73-5.536-5.632-10.48-8.554-15.044-1.143-1.79-2.433-3.938-3.4-6.028-.965-2.09-1.582-4.123-1.472-5.568.055-.722.269-1.327.744-1.83.475-.503 1.216-.878 2.279-1.045 1.644-.259 2.987.22 4.83 1.968 1.842 1.748 4.17 4.776 7.712 9.573 3.235 4.382 5.07 6.631 6.533 7.305 2.924 1.347 3.214-1.082 2.658-3.225-.167-.642-.398-1.88-.554-3.623-.859-10.192.024-21.838 2.147-30.327v-.006c.473-1.887 1.093-4.55.777-6.646-.158-1.048-.581-1.935-1.339-2.38-.757-.445-1.834-.485-3.045.037-1.211.522-2.085.98-2.923.623-.652-.277-.344-1.438-.345-1.946 0-.675-.058-1.32-.156-1.84-.097-.52-.215-.955-.468-1.111-.202-.104.104-.344.126-.418.202-.243.406-.68.618-1.22.487-1.275.739-2.433 1.082-3.792zm12.586 1.078c.145 1.547-.39 4.635-1.703 3.589-1.495-1.191-.616-3.44.483-4.253.602-.446 1.152-.06 1.22.664z" aria-label="A" font-size="32"/></g></symbol><symbol id="h-coffin" fill="currentColor" viewBox="0 0 100 100" aria-hidden="true"><g aria-label="C"><path d="M18.5 2.178c.207 0 .368 1.04.368 2.387s-.16 2.39-.368 2.39c-.207 0-.368-1.043-.368-2.39 0-1.346.16-2.387.368-2.387zm-1.502.08c.291-.02.4.618.4 2.278 0 2.707-.7 3.378-.797.765-.033-.909-.076-1.928-.093-2.265-.017-.337.178-.68.43-.765a.258.258 0 01.06-.013zm2.975 0a.22.22 0 01.089.013c.252.085.447.428.43.765-.017.337-.06 1.356-.093 2.265-.097 2.613-.797 1.942-.797-.765 0-1.605.101-2.254.37-2.278zm-5.175.656h.006c.184 0 .45.917.59 2.037.238 1.895.02 3.125-.346 1.963-.376-1.195-.547-3.957-.25-4zm7.378.036c.166-.022.26.629.12 1.892-.118 1.06-.359 2.085-.535 2.276-.385.42-.406-.172-.087-2.5.152-1.104.355-1.649.502-1.668zm1.73.755c.072-.016.087.144.077.495-.01.404-.163 1.065-.337 1.469-.289.673-.318.657-.337-.184-.01-.505.141-1.166.337-1.47.124-.191.208-.298.26-.31zm-10.716.027c.094-.001.23.234.366.775.13.52.163 1.16.073 1.421-.09.261-.289-.074-.44-.745-.196-.874-.147-1.45 0-1.451zm-1.662 1.236c.15-.005.352.138.544.4.363.495.376.73.055.935-.235.15-.841.255-1.346.234-.83-.034-.811-.062.184-.279.743-.161.95-.334.636-.532-.256-.16-.363-.456-.24-.656.041-.065.099-.1.167-.102zm13.944 0a.199.199 0 01.166.102c.124.2.017.495-.24.656-.313.198-.106.37.637.532.995.217 1.013.245.184.28-1.399.057-1.874-.374-1.29-1.17.191-.262.393-.404.543-.4zM18.5 8.646c4.173 0 6.837.695 6.837 1.787 0 .537-.277.616-1.099.318-.604-.22-3.186-.397-5.738-.397-2.552 0-5.134.178-5.738.397-.822.298-1.1.219-1.1-.318 0-1.092 2.665-1.787 6.838-1.787zm-.002 2.527c2.802 0 5.605.395 6.055 1.18.102.178.003 1.822-.222 3.655-.435 3.543-1.692 6.584-2.997 7.252-2.868 1.469-5.773.672-7.237-1.982-.922-1.671-2.117-8.119-1.655-8.925.45-.785 3.253-1.18 6.056-1.18zm7.623 2.431c.079-.009.152.231.277.698.15.561-.009 1.658-.353 2.438-.614 1.39-.628 1.395-.62.2.006-.67.165-1.767.354-2.438.169-.594.259-.888.342-.898zm-15.183.239c.145-.016.277.463.462 1.546.199 1.158.254 2.21.124 2.34-.463.463-1.18-2.513-.837-3.471.094-.263.175-.407.25-.415zm5.387 11.242c.008-.001.017.008.026.03.43 1.25.548 1.917 1.388 2.974.84 1.058.775 1.588.057 1.328-.94-.34-.94-.333 0 .736.84.956.85 1.044.094.769-1.477-.332-.363 1.095-.366 1.1.27 0 .487.23.487.515 0 .284-.275.358-.61.162-.336-.197-.172.669.365 1.297.852.996.869 1.345.124 1.073-1.057-.385-1.083.409-.089 1.402.423.422.561.769.307.769-.254 0-.463 1.007-.463 1.678 0 1.344.356 1.523 1.247.633.771-.77.752-1.52-.027-1.066-.335.197-.19-.58.322-1.163.666-.76.742-1.06.268-1.06-.515 0-.533-.69-.077-1.146.771-.77.755-1.76-.023-1.32-.489.275-.489-.3 0-.827.335-.361.61-.844.61-1.074 0-.23-.275-.263-.61-.074-.489.276-.489-.256 0-.782.335-.36.61-.844.61-1.074 0-.23-.275-.266-.61-.077-.489.276-.489.214 0-.312.335-.361.61-1.307.61-1.538 0-.212-.234-.254-.534-.106.64-.951.822-1.755 1.223-2.817.155-.336.15 3.173-.012 6.662-.16 3.489-.39 8.283-.512 8.484-.122.201-.856.365-1.63.365-.774 0-1.506-.164-1.624-.365-.118-.201-.346-4.995-.507-8.484-.15-3.27-.168-6.672-.044-6.692zM4.433 15.604c-.146 3.34-.03 4.977.395 5.488.434.523 1.729.751 4.574.81l3.97.083c.517.894 1.081 1.769 2.199 2.473v15.679h-1.344c-4.61-2.207-5.741-7.644-5.971-11.725l-.257-4.873-2.033-1.063-2.034-1.06-.999 2.32c-2.824 6.56-2.727 10.06.63 22.726 2.016 7.6 3.314 19.361 4.469 40.47.303 5.537.388 5.891 1.694 7.196L11.1 95.5h14.8l1.374-1.372c1.306-1.305 1.391-1.659 1.694-7.196 1.155-21.108 2.453-32.87 4.468-40.47 3.358-12.667 3.455-16.166.63-22.725l-.998-2.32-2.034 1.06-2.033 1.062-.257 4.873c-.047 3.615-2.065 11.367-5.97 11.722l-1.345.003v-15.68c.952-.384 1.715-1.326 2.199-2.472l3.97-.083c2.845-.059 4.14-.287 4.574-.81.424-.51.541-2.148.395-5.488C32.195 6.668 28.493.5 18.74.5 8.988.5 4.792 8.698 4.433 15.604z" aria-label="A" font-size="32"/></g></symbol><symbol id="h-funeral" fill="currentColor" viewBox="0 0 100 100" aria-hidden="true"><g aria-label="C"><path d="M16.792.5c-1.044 4.7-8.42 17.846-3.857 21.684L9.779 42.259c-.678.311-1.318.658-1.869 1.014-3.68 2.38-6.15 6.543-6.812 11.474-.244 1.826-.094 7.254.263 9.561.526 3.392 1.671 7.51 3.064 11.004 1.626 4.078 2.51 5.828 7.315 14.52l3.132 5.668h18.283l2.886-5.17c6.018-10.789 8.295-15.924 9.842-22.197.905-3.668 1.133-5.641 1.139-9.866.004-4.217-.226-5.668-1.295-8.139-1.616-3.739-3.952-6.238-7.394-7.815l-3.265-20.096C39.392 14.235 33.61 7.063 31.274.5l-3.62 10.133c-2.928-1.52-4.31-1.024-7.239 0zm2.697 17.737h.084c.666.002 1.122.29 1.639 1.113.162.678-1.34 1.07-1.838 1.208-.498.136-2.254.218-2.717-.143.29-.664 1.029-1.55 1.787-1.938a.963.963 0 00-.252.658c0 .514.388.93.868.93s.868-.416.868-.93a.928.928 0 00-.587-.88c.046-.004.103-.017.148-.018zm8.361 0h.061c.064 0 .145.018.212.023a.935.935 0 00-.569.875c0 .514.39.93.87.93s.869-.416.869-.93a.963.963 0 00-.253-.658c.758.388 1.495 1.274 1.785 1.937-.463.361-2.216.28-2.714.143-.498-.136-2.001-.53-1.839-1.207.5-.798.945-1.094 1.578-1.113zm-4.11 5.407c.737 0 2.075.253 2.075.253.353.066.472.855.182 1.21-.697.837-1.258 2.189-2.257 2.155-1-.034-1.62-1.288-2.252-2.155-.29-.355-.172-1.144.181-1.21 0 0 1.333-.253 2.07-.253zm-2.58 10.3H26.912l-.327.735c-.757 2.091-1.042 6.403-1.348 8.497-1.096.652-1.495.685-2.444 0-.01-.98-.754-6.996-1.256-8.277zm18.935 16.7a.992 1.723 0 01.917 1.062.992 1.723 0 01-.54 2.244c-1.43 1.027-4.01 1.553-7.115 2.017-3.105.464-6.602.73-9.357.73-2.75 0-6.401-.23-9.585-.679-1.591-.224-3.064-.505-4.263-.84-1.2-.335-2.048-.571-2.77-1.35a.992 1.723 0 01-.32-2.375.992 1.723 0 011.364-.556c.054.058.927.568 2.042.88 1.116.312 2.552.582 4.11.802 3.118.44 6.737.672 9.422.672 2.68 0 6.144-.26 9.186-.715 3.043-.455 5.798-1.236 6.531-1.762a.992 1.723 0 01.378-.13z" aria-label="A" font-size="32"/></g></symbol><symbol id="h-scribe" fill="currentColor" viewBox="0 0 100 100" aria-hidden="true"><g aria-label="C"><path d="M59.88.512c-3.578-.134-7.152.9-9.256 3.156-1.171 1.257-3 5.026-3.017 6.215-.007.425-.646 1.96-1.42 3.412-1.403 2.628-1.322 3.73.271 3.73.362 0 .709 1.066.899 2.759.17 1.516.39 3.014.488 3.328.243.775 3.34 1.583 6.082 1.586l2.254.002-.48 1.378c-.47 1.35-.58 1.386-4.893 1.698-2.426.175-5.546.542-6.932.814-2.906.572-2.808.47-10.232 10.738-2.67 3.694-5.046 6.92-5.28 7.168-.256.273-3.559-2.663-8.336-7.408-6.585-6.542-8.038-8.24-8.664-10.123-.85-2.561-4.813-6.664-6.437-6.664-1.252 0-1.24.687.043 2.488.98 1.376.983 1.412.064.838-1.979-1.236-3.919.915-4.076 4.52-.125 2.885 1.28 4.425 4.608 5.047 1.281.24 2.7.836 3.154 1.326.454.49 3.995 4.486 7.871 8.879 3.876 4.393 7.527 8.295 8.113 8.674 3.587 2.312 5.72 1.16 12.774-6.905 3.858-4.41 5.578-6.063 5.834-5.605.761 1.36 1.45 8.695 1.738 18.512.165 5.606.167 10.193.003 10.193-.162 0-2.3-1.612-4.752-3.582-7.731-6.214-13.238-8.19-17.162-6.158-2.14 1.108-2.87 2.613-2.867 5.902.005 3.296 1.063 5.619 4.248 9.332 1.348 1.572 2.449 2.976 2.445 3.12-.003.143-1.64 1.118-3.638 2.167-4.353 2.286-7.043 4.494-7.852 6.446-.413.998-1.13 1.612-2.346 2.005-4.76 1.544-5.994 4.8-2.228 5.881 1.114.32 68.895-.074 69.223-.402.402-.403-1.387-2.685-2.455-3.133-.58-.243-1.983-.676-3.12-.963-1.536-.388-2.862-1.313-5.173-3.613-3.137-3.122-4.177-3.563-6.053-2.559-.924.495-.98.433-.73-.838.147-.755 1.092-6.608 2.097-13.005 1.005-6.398 2.002-11.633 2.217-11.633.447 0 8.922 5.631 9.828 6.531.686.681 5.497 1.391 6.588.973.498-.192.726-.946.726-2.399 0-4.377-3.962-20.537-6.793-27.699-2.477-6.268-6.589-9.985-11.074-10.012-1.64-.01-1.798-.127-1.795-1.33.002-.756 1.218-3.335 2.854-6.049 4.3-7.132 4.868-11.528 1.92-14.886C67.04 1.948 63.457.647 59.88.512zm-1.006 2.016c3.249-.019 6.699 1.22 8.533 3.4 1.166 1.385 1.244 1.72 1.05 4.442-.237 3.303-1.603 6.806-3.376 8.658-1.504 1.57-2.439 1.558-4.248-.059l-1.449-1.295 1.4-1.594c2.639-3.004 2.22-6.154-.816-6.154-1.344 0-2.193 1.034-2.193 2.668 0 .62-.29.928-.872.928-.687 0-.936-.425-1.173-2.006l-.301-2.006c-2.108-.238-3.615-.138-5.295-1.148 0-1.16 2.142-3.65 4.062-4.725 1.331-.745 2.977-1.1 4.678-1.11zm11.701 41.26c.199-.077 1.639 3.071 3.237 7.082 1.623 4.073 2.809 7.39 2.636 7.37-.172-.019-1.608-1.013-3.191-2.21a228.234 228.234 0 00-3.752-2.793c-.84-.592-.842-.783-.053-4.864.452-2.336.955-4.397 1.115-4.58l.009-.006zM28.948 63.204c.987-.017 4.524 2.02 8.32 4.834 2.625 1.946 4.854 3.62 4.956 3.721.101.101-1.206.874-2.906 1.715l-3.092 1.53-4.461-3.64-4.461-3.638.63-2.14c.348-1.178.704-2.218.792-2.31.045-.047.12-.07.222-.072zm32.72 6.729l-.225 1.393c-.124.765-.427 3.163-.674 5.33-.377 3.241-.932 7.573-2.588 11.609h-32.5v-4.557l7-3.468c14.403-7.14 20.304-9.385 26.347-10.026z" aria-label="A" font-size="32"/></g></symbol></svg>