<?xml version="1.0" encoding="UTF-8"?><!DOCTYPE svg PUBLIC "-//W3C//DTD SVG 1.1//EN" "http://www.w3.org/Graphics/SVG/1.1/DTD/svg11.dtd"><svg xmlns="http://www.w3.org/2000/svg" xmlns:xlink="http://www.w3.org/1999/xlink" style="display:none"><symbol id="h-space" fill="currentColor" viewBox="0 0 100 100" aria-hidden="true"/><symbol id="h-excl" fill="currentColor" viewBox="0 0 100 100" aria-hidden="true"><g aria-label="C"><path d="M1.231 14v50.34H9.77V14zm0 57.463V80H9.77v-8.537z" font-size="22.348" text-anchor="middle" aria-label="A"/></g></symbol><symbol id="h-quotedbl" fill="currentColor" viewBox="0 0 100 100" aria-hidden="true"><g aria-label="C"><path d="M.694 39V11.079h8.538V39zm13.074 0V11.079h8.538V39z" font-size="22.348" text-anchor="middle" aria-label="A"/></g></symbol><symbol id="h-numbersign" fill="currentColor" viewBox="0 0 100 100" aria-hidden="true"><g aria-label="C"><path d="M26.366 38.345h3.464l4.207-16.91h8.702l-4.206 16.91h11.713v8.538H36.388l-.907 3.629h14.765v8.537h-16.91L29.13 76h-8.702l4.207-16.95h-3.465L16.963 76H8.219l4.248-16.95H.754v-8.538h13.858l.907-3.63H.754v-8.537h16.91l4.207-16.91h8.702zm1.32 8.538H24.22l-.907 3.629h3.465z" font-size="22.348" text-anchor="middle" aria-label="A"/></g></symbol><symbol id="h-dollar" fill="currentColor" viewBox="0 0 100 100" aria-hidden="true"><g aria-label="C"><path d="M14.706 18.851v-4.825h7.588v4.825q4.908.907 8.661 4.248 4.083 3.63 5.238 10.517L27.45 36.42q-.701-6.021-2.846-7.918-1.072-.949-2.31-1.526V44.05q4.743 1.774 8.62 5.197 5.114 4.495 5.114 10.847 0 6.351-5.155 10.93-3.712 3.299-8.579 4.206v4.784h-7.588V75.23q-4.908-.907-8.661-4.248-4.083-3.63-5.238-10.517L9.55 57.66q.701 6.022 2.846 7.92 1.072.948 2.31 1.525V50.031q-4.743-1.774-8.62-5.197Q.972 40.338.972 33.987q0-6.351 5.114-10.888 3.753-3.34 8.62-4.248zm7.588 34.19v14.064q1.196-.536 2.227-1.443 2.557-2.269 2.557-5.568 0-3.217-2.474-5.444-.949-.825-2.31-1.609zM14.706 41.04V26.976q-1.196.536-2.269 1.485-2.516 2.227-2.516 5.526 0 3.217 2.475 5.444.949.825 2.31 1.609z" font-size="22.348" text-anchor="middle" aria-label="A"/></g></symbol><symbol id="h-percent" fill="currentColor" viewBox="0 0 100 100" aria-hidden="true"><g aria-label="C"><path d="M45.936 25.93L8.076 80l-7.012-4.867 37.82-54.028zm-33.86 1.857q4.701 0 8 3.34 3.341 3.3 3.341 8.001 0 4.702-3.34 8.043-3.3 3.3-8.001 3.3-4.702 0-8.043-3.3Q.734 43.83.734 39.128q0-4.701 3.3-8 3.34-3.341 8.042-3.341zm0 8.454q-1.196 0-2.062.866-.825.825-.825 2.021 0 1.238.825 2.104.866.825 2.062.825 1.196 0 2.062-.825.866-.866.866-2.104 0-1.196-.866-2.02-.866-.867-2.062-.867zm22.807 14.353q4.743 0 8.042 3.34 3.341 3.3 3.341 8.002 0 4.743-3.34 8.083-3.3 3.3-8.043 3.3-4.702 0-8.042-3.3-3.3-3.34-3.3-8.083 0-4.702 3.3-8.001 3.34-3.341 8.042-3.341zm0 8.455q-1.196 0-2.062.866-.825.825-.825 2.02 0 1.238.825 2.104.866.825 2.062.825 1.196 0 2.062-.825.866-.866.866-2.103 0-1.196-.866-2.021-.866-.866-2.062-.866z" font-size="22.348" text-anchor="middle" aria-label="A"/></g></symbol><symbol id="h-ampersand" fill="currentColor" viewBox="0 0 100 100" aria-hidden="true"><g aria-label="C"><path d="M43.786 47.887q3.836 2.227 5.032 6.516.412 1.485.412 2.887 0 2.763-1.443 5.238-2.227 3.918-7.26 5.403-.906 3.01-4.618 6.722-6.022 6.063-14.559 6.063-8.496 0-14.559-6.021Q.77 68.632.77 60.095q0-8.455 5.898-14.765 3.546-3.465 6.516-3.836Q6.79 35.06 6.79 28.668q0-6.31 4.496-10.847 4.536-4.537 10.93-4.537 6.392 0 10.928 4.496 2.558 2.474 4.29 7.877l-7.754 3.052q-1.402-3.794-2.557-4.95-2.02-1.979-4.908-1.979-2.846 0-4.867 2.021-2.02 1.98-2.02 4.867 0 2.928 2.103 5.196 2.145 2.269 3.918 2.97 1.815.7 7.341.742v8.207l-5.031.042q-7.3 1.443-10.888 5.361-3.547 3.877-3.547 8.909 0 5.031 3.547 8.578 3.546 3.547 8.578 3.547 4.99 0 10.723-5.856-1.155-.949-4.083-4-1.072-.99-1.69-1.403-.578-.371-.95-.371h-.04q-.413.04-.578.453-.082.165-.082.33 0 .289.165.619l-7.012 4.743q-.866-1.279-1.32-2.887-.33-1.279-.33-2.516 0-2.35 1.238-4.537 1.938-3.34 5.61-4.33 1.278-.371 2.556-.371 2.35 0 4.496 1.237 1.814 1.031 4.124 3.877 2.35 2.804 4.372 3.052.288.04.536.04 1.567 0 2.227-1.443.165-.37.165-.783 0-1.32-1.897-2.887z" font-size="16.253" text-anchor="middle" aria-label="A"/></g></symbol><symbol id="h-quotesingle" fill="currentColor" viewBox="0 0 100 100" aria-hidden="true"><g aria-label="C"><path d="M18.326 11L8.799 30.797H.674L5.954 11z" font-size="22.348" text-anchor="middle" aria-label="A"/></g></symbol><symbol id="h-parenleft" fill="currentColor" viewBox="0 0 100 100" aria-hidden="true"><g aria-label="C"><path d="M25 17.146q-6.063 2.804-9.816 7.506-6.351 8.001-6.351 22.354 0 14.394 6.351 22.353 3.753 4.743 9.816 7.672v8.454Q14.524 81.855 9.08 75.01.75 64.616.75 47.006t8.33-28.004Q14.524 12.156 25 8.526z" font-size="22.348" text-anchor="middle" aria-label="A"/></g></symbol><symbol id="h-parenright" fill="currentColor" viewBox="0 0 100 100" aria-hidden="true"><g aria-label="C"><path d="M.967 8.799q10.476 3.63 15.92 10.476 8.331 10.393 8.331 28.004 0 17.61-8.33 28.003Q11.442 82.13.967 85.758v-8.455q6.062-2.928 9.815-7.67 6.352-7.96 6.352-22.354 0-14.353-6.352-22.354Q7.03 20.223.967 17.419z" font-size="22.348" text-anchor="middle" aria-label="A"/></g></symbol><symbol id="h-asterisk" fill="currentColor" viewBox="0 0 100 100" aria-hidden="true"><g aria-label="C"><path d="M20.29 31.97l5.938-4.536 4.908 7.01-7.671 5.775 7.671 5.733-4.908 7.01-5.939-4.536v6.97h-8.537v-7.011l-5.98 4.578-4.908-7.011 7.671-5.733-7.671-5.774 4.908-7.011 5.98 4.577v-7.01h8.537z" font-size="22.348" text-anchor="middle" aria-label="A"/></g></symbol><symbol id="h-plus" fill="currentColor" viewBox="0 0 100 100" aria-hidden="true"><g aria-label="C"><path d="M14.21 52.537H.725V44h13.487V30.514h8.578V44h13.487v8.537H22.789v13.528h-8.578z" font-size="16.253" text-anchor="middle" aria-label="A"/></g></symbol><symbol id="h-coma" fill="currentColor" viewBox="0 0 100 100" aria-hidden="true"><g aria-label="C"><path d="M18.326 67.959L8.799 87.755H.674l5.28-19.796z" font-size="22.348" text-anchor="middle" aria-label="A"/></g></symbol><symbol id="h-minus" fill="currentColor" viewBox="0 0 100 100" aria-hidden="true"><g aria-label="C"><path d="M.725 44h27.55v8.537H.725z" font-size="22.348" text-anchor="middle" aria-label="A"/></g></symbol><symbol id="h-period" fill="currentColor" viewBox="0 0 100 100" aria-hidden="true"><g aria-label="C"><path d="M7 68q2.475 0 4.207 1.732 1.773 1.732 1.773 4.207 0 2.557-1.773 4.29Q9.475 79.96 7 79.96q-2.433 0-4.207-1.732Q1.02 76.496 1.02 73.94q0-2.475 1.773-4.207Q4.567 68 7 68z" font-size="22.348" text-anchor="middle" aria-label="A"/></g></symbol><symbol id="h-slash" fill="currentColor" viewBox="0 0 100 100" aria-hidden="true"><g aria-label="C"><path d="M31.166 14.012h9.527L10.793 80H1.306z" font-size="22.348" text-anchor="middle" aria-label="A"/></g></symbol><symbol id="h-0" fill="currentColor" viewBox="0 0 100 100" aria-hidden="true"><g aria-label="C"><path d="M24.987 22.134c-20.154.096-21.077 49.205 0 49.491 20.199-.114 21.12-49.207 0-49.491zm0 58.234c-32.735-2.537-31.524-66.59 0-67.02 32.767 2.59 31.56 66.594 0 67.02z" font-size="16.253" text-anchor="middle" aria-label="A"/></g></symbol><symbol id="h-1" fill="currentColor" viewBox="0 0 100 100" aria-hidden="true"><g aria-label="C"><path d="M16 14v65.988H7.463V31.136h-6.31L9.813 14z" font-size="22.348" text-anchor="middle" aria-label="A"/></g></symbol><symbol id="h-2" fill="currentColor" viewBox="0 0 100 100" aria-hidden="true"><g aria-label="C"><path d="M1.542 80c-4.816-20.264 22.475-30.108 22.705-46.068 0-3.327-1.182-6.16-3.547-8.496-2.337-2.337-5.169-3.506-8.496-3.506-2.034 0-3.892.452-5.576 1.355L1.64 16.069c3.132-1.921 6.654-2.882 10.565-2.882 5.747 0 10.627 2.02 14.641 6.062 4.042 4.042 6.063 8.936 6.063 14.683 1.888 17.17-19.084 28.334-21.344 37.49h21.344V80z" font-size="22.348" text-anchor="middle" aria-label="A"/></g></symbol><symbol id="h-3" fill="currentColor" viewBox="0 0 100 100" aria-hidden="true"><g aria-label="C"><path d="M5.62 13.187c-1.063 0-3.823.094-4.81.282l1.735 9.123c.925-.468 1.95-.703 3.074-.703 1.897 0 3.504.66 4.824 1.98 1.32 1.292 1.98 2.886 1.98 4.783 0 1.925-.7 3.63-2.103 5.115-2.214 2.59-4.982 3.342-7.775 3.538v8.671c4.489.229 9.753 2.396 12.435 5.237 2.365 2.557 3.547 5.513 3.547 8.867 0 3.327-1.182 6.159-3.547 8.496-2.337 2.337-5.169 3.506-8.496 3.506a11.97 11.97 0 01-3.94-.64l-1.733 8.64c1.266.232 4.312.742 5.673.742 5.747 0 10.629-2.02 14.643-6.062 4.042-4.07 6.062-8.963 6.062-14.682 0-5.664-1.966-10.613-5.898-14.848-2.695-2.612-5.266-4-7.713-4.166 5.087-3.987 7.63-8.125 7.63-12.414 0-4.207-1.512-7.835-4.536-10.886-3.025-3.052-6.709-4.579-11.053-4.579z" font-size="22.348" text-anchor="middle" aria-label="A"/></g></symbol><symbol id="h-4" fill="currentColor" viewBox="0 0 100 100" aria-hidden="true"><g aria-label="C"><path d="M23.186 14.012h7.465v29.634h5.815v8.537H30.65V80h-8.538V52.183H3.257l-2.223-5.758zm-1.073 19.26l-8.166 10.374h8.166z" font-size="22.348" text-anchor="middle" aria-label="A"/></g></symbol><symbol id="h-5" fill="currentColor" viewBox="0 0 100 100" aria-hidden="true"><g aria-label="C"><path d="M14.462 31.817c5.376-.988 9.547.274 13.363 1.734 7.244 2.77 11.524 10.19 11.446 22.517-.053 8.2-3.465 16.752-9.072 20.691-8.362 5.875-21.082 5.688-29.47-5.494l6.02-6.681c7.019 5.673 12.54 6.41 16.996 4.745 3.728-1.393 7.11-6.581 7.085-13.892C30.78 40.9 19.49 38.806 8.235 42.334l-5.156-4.496L11.75 14h22.921v8.537h-16.95z" font-size="22.348" text-anchor="middle" aria-label="A"/></g></symbol><symbol id="h-6" fill="currentColor" viewBox="0 0 100 100" aria-hidden="true"><g aria-label="C"><path d="M9.173 57.594q0 6.104 4.29 10.393 4.33 4.29 10.434 4.29 6.063 0 10.352-4.29 4.33-4.29 4.33-10.393 0-6.104-4.33-10.394-4.29-4.289-10.352-4.289-6.104 0-10.435 4.29-4.289 4.289-4.289 10.393zm4.95-18.312q3.67-3.96 12.166-3.96 8.537 0 14.188 5.65 6.846 6.888 6.846 16.622 0 9.692-6.846 16.58-6.847 6.846-16.58 6.846-9.692 0-16.58-6.847-6.599-6.64-6.64-18.435v-.124q0-11.672 6.31-20.539Q13.34 26.167 24.144 14h11.218q-14.97 15.507-21.24 25.282z" font-size="22.348" text-anchor="middle" aria-label="A"/></g></symbol><symbol id="h-7" fill="currentColor" viewBox="0 0 100 100" aria-hidden="true"><g aria-label="C"><path d="M30.433 14C30.04 48.434 9.749 50.468 9.183 79.988H.94c.445-28.058 20.092-41.825 20.54-57.45H1V14z" font-size="22.348" text-anchor="middle" aria-label="A"/></g></symbol><symbol id="h-8" fill="currentColor" viewBox="0 0 100 100" aria-hidden="true"><g aria-label="C"><path d="M21.001 72.07c6.975-.013 11.696-4.517 11.57-12.002-.128-7.484-5.138-12.555-11.57-13.94-7.38 1.589-11.67 6.39-11.569 13.94.102 7.551 4.595 12.014 11.57 12.002zm0 8.743C8.611 80.821.813 69.691.731 60.068c-.084-9.623 1.862-13.376 9.588-19.013-3.711-3.987-5.567-8.125-5.567-12.414.417-9.458 8.315-15.373 16.229-15.466 9.187.269 16.155 7.153 16.27 15.466 0 4.29-2.007 8.386-6.022 12.29 8.029 5.72 10.052 8.878 10.043 19.137-.007 10.26-7.88 20.737-20.27 20.745zm0-43.717c9.303-2.302 10.002-15.318-.007-15.219-10.01.1-8.437 13.093.007 15.219z" font-size="22.348" text-anchor="middle" aria-label="A"/></g></symbol><symbol id="h-9" fill="currentColor" viewBox="0 0 100 100" aria-hidden="true"><g aria-label="C"><path d="M30.744 32.068c-.137-6.478-4.141-12.036-11.112-11.912-6.972.125-11.206 5.436-11.076 11.912.129 6.475 4.104 12.033 11.076 11.911 6.971-.121 11.248-5.434 11.112-11.911zm-4.046 16.997C11.8 56.528.871 43.495.92 32.068c.383-10.243 6.204-18.958 18.713-19.005 12.508-.047 18.366 9.655 18.449 18.29C37.94 65.2 19.976 68.218 19.416 80H9.618c2.279-16.092 16.762-23.557 17.08-30.935z" font-size="22.348" text-anchor="middle" aria-label="A"/></g></symbol><symbol id="h-colon" fill="currentColor" viewBox="0 0 100 100" aria-hidden="true"><g aria-label="C"><path d="M7 68q2.475 0 4.207 1.732 1.773 1.732 1.773 4.207 0 2.557-1.773 4.29Q9.475 79.96 7 79.96q-2.433 0-4.207-1.732Q1.02 76.496 1.02 73.94q0-2.475 1.773-4.207Q4.567 68 7 68zm0-23.467q2.475 0 4.207 1.732 1.773 1.732 1.773 4.207 0 2.557-1.773 4.29Q9.475 56.492 7 56.492q-2.433 0-4.207-1.732-1.773-1.732-1.773-4.29 0-2.474 1.773-4.206Q4.567 44.533 7 44.533z" font-size="16.253" text-anchor="middle" aria-label="A"/></g></symbol><symbol id="h-semicolon" fill="currentColor" viewBox="0 0 100 100" aria-hidden="true"><g aria-label="C"><path d="M18.326 67.959L8.799 87.755H.674l5.28-19.796zM12.26 44.533c1.622 0 3.024.577 4.206 1.732 1.183 1.155 1.774 2.557 1.774 4.207 0 1.705-.591 3.134-1.774 4.29-1.182 1.154-2.584 1.731-4.206 1.731-1.65 0-3.066-.577-4.248-1.732-1.155-1.155-1.733-2.584-1.733-4.29 0-1.649.578-3.051 1.733-4.206 1.182-1.155 2.598-1.732 4.248-1.732z" font-size="22.348" text-anchor="middle" aria-label="A"/></g></symbol><symbol id="h-lt" fill="currentColor" viewBox="0 0 100 100" aria-hidden="true"><g aria-label="C"><path d="M28.87 69.713L14.123 52.662 28.87 35.67V24.575L1.13 52.662l27.74 28.146z" font-size="22.348" text-anchor="middle" aria-label="A"/></g></symbol><symbol id="h-equal" fill="currentColor" viewBox="0 0 100 100" aria-hidden="true"><g aria-label="C"><g aria-label="A" font-size="22.348" text-anchor="middle"><path d="M.725 35.463h27.55V44H.725zM.725 52.537h27.55v8.538H.725z"/></g></g></symbol><symbol id="h-gt" fill="currentColor" viewBox="0 0 100 100" aria-hidden="true"><g aria-label="C"><path d="M1.13 69.713l14.747-17.051L1.13 35.67V24.575l27.74 28.087L1.13 80.808z" font-size="22.348" text-anchor="middle" aria-label="A"/></g></symbol><symbol id="h-quest" fill="currentColor" viewBox="0 0 100 100" aria-hidden="true"><g aria-label="C"><path d="M11.365 14.14c-4.021 1.382-6.941 4.038-8.826 7.88-.975 1.987-1.484 3.986-1.484 6.021v2.762L9.674 28c.11-1.045.286-1.83.537-2.352.822-1.706 2.141-2.882 3.959-3.505a7.119 7.119 0 015.28.289c1.71.81 2.926 2.13 3.546 3.959.607 1.788.365 3.738-.33 5.279-.935 1.897-2.447 3.877-4.537 5.94-4.344 3.271-7.641 7.19-9.814 11.794-2.164 4.584-2.12 13.09-2.147 16.059h8.496c.027-1.677.096-9.798 1.28-12.389a21.677 21.677 0 016.02-7.836c3.793-3.104 6.734-6.258 8.415-9.857 1.837-3.933 1.976-8.084.701-11.836-1.36-4.002-4.01-6.94-7.877-8.744-3.94-1.838-8.094-1.947-11.838-.66zM6.13 71.464V80h8.535v-8.537z" font-size="22.348" text-anchor="middle" aria-label="A"/></g></symbol><symbol id="h-at" fill="currentColor" viewBox="0 0 100 100" aria-hidden="true"><g aria-label="C"><path d="M37.398 54.245v-4.454q-.413-1.856-2.062-3.506-2.392-2.392-5.733-2.392-3.34 0-5.692 2.392-2.35 2.392-2.35 5.733 0 3.382 2.35 5.733 2.351 2.35 5.692 2.35 3.382 0 5.733-2.35 1.65-1.65 2.062-3.506zm-.083 9.115q-2.185 3.382-7.794 3.382-6.764 0-11.59-4-4.784-4.001-4.784-10.765 0-6.723 4.784-10.93 4.826-4.206 11.59-4.206 6.021 0 7.794 3.052v-2.145h8.208l-.083 20.539v.124q0 2.144.66 2.144.578 0 1.65-1.484 2.35-3.341 2.35-10.229 0-6.887-5.237-12.084-5.197-5.196-15.342-5.196-10.105 0-15.301 5.196-5.156 5.197-5.156 14.518 0 9.32 5.98 15.342 6.022 5.98 14.477 5.98 5.815 0 9.98-2.598l5.857 6.145q-7.96 4.66-15.837 4.66-11.837 0-20.292-8.413Q.774 63.937.774 52.06q0-11.836 8.455-20.25 8.455-8.455 20.292-8.455 11.919 0 20.291 8.455 8.414 8.455 8.414 17.157T53.73 63.071q-3.712 4.413-8.207 4.413-.99 0-2.021-.247-5.733-1.196-6.186-3.877z" font-size="16.253" text-anchor="middle" aria-label="A"/></g></symbol><symbol id="h-A" fill="currentColor" viewBox="0 0 100 100" aria-hidden="true"><g aria-label="C"><path d="M19.5 10.48L.5 80h8.51l.045-.201 5.134-19.147h10.618L29.99 80h8.51l-19-69.52zm0 30.37l3.018 11.263h-6.04L19.5 40.85z" font-size="12.7" text-anchor="middle" aria-label="A"/></g></symbol><symbol id="h-B" fill="currentColor" viewBox="0 0 100 100" aria-hidden="true"><g aria-label="C"><path d="M13.865 14c7.889 0 13.445 5.351 13.382 13.86-.026 3.734-1.973 5.681-5.718 7.301 9.606 2.706 14.564 12.95 14.652 21.285C36 67 28 80 17.28 80H1V14zM9.22 41.761v29.66h8.061c6.237.035 10.665-6.528 10.483-14.975C27.58 48 21 41.69 13.627 41.761zm0-19.222v10.436h5.36a5.01 5.01 0 003.138-1.444c.953-.907 1.43-2.13 1.43-3.67s-.504-2.806-1.51-3.796c-.98-1.017-2.236-1.526-3.772-1.526z" font-size="12.7" text-anchor="middle" aria-label="A"/></g></symbol><symbol id="h-C" fill="currentColor" viewBox="0 0 100 100" aria-hidden="true"><g aria-label="C"><path d="M25.162 13.278c-6.837 0-12.666 3.299-17.486 9.899S.446 37.726.446 47.02c0 9.322 2.41 17.269 7.23 23.841 4.82 6.573 10.65 9.86 17.486 9.86.616 0 1.228-.035 1.838-.102v-8.617c-.61.09-1.222.139-1.838.139C12.256 70.822 8.445 57.02 8.445 47.02c0-11 5.167-24.866 16.717-25.08.616 0 1.228.046 1.838.136V13.38a16.94 16.94 0 00-1.838-.102z" font-size="12.7" text-anchor="middle" aria-label="A"/></g></symbol><symbol id="h-D" fill="currentColor" viewBox="0 0 100 100" aria-hidden="true"><g aria-label="C"><path d="M9.547 22.704v48.634q9.808 0 16.081-6.56Q32.696 57.437 32.696 47q0-10.395-7.068-17.779-6.273-6.517-16.081-6.517zM7.363 14q15.486.083 24.142 9.116 9.49 9.942 9.49 23.884 0 13.984-9.49 23.884Q22.85 79.917 7.363 80H1.327V14z" font-size="12.7" text-anchor="middle" aria-label="A"/></g></symbol><symbol id="h-E" fill="currentColor" viewBox="0 0 100 100" aria-hidden="true"><g aria-label="C"><path d="M33 14v8.539H10.22V35.67H33v8.539H10.22V71.42H33V80H2V14z" font-size="12.7" text-anchor="middle" aria-label="A"/></g></symbol><symbol id="h-F" fill="currentColor" viewBox="0 0 100 100" aria-hidden="true"><g aria-label="C"><path d="M33.11 14v8.539h-23V35.67h23v8.539h-23V80H1.89V14z" font-size="12.7" text-anchor="middle" aria-label="A"/></g></symbol><symbol id="h-G" fill="currentColor" viewBox="0 0 100 100" aria-hidden="true"><g aria-label="C"><path d="M55.723 70.987q-9.808 9.735-22.435 9.735-13.46 0-22.95-9.859-9.49-9.859-9.49-23.842 0-13.943 9.49-23.843t22.95-9.9q12.588 0 23.865 10.684l-6.155 5.816q-8.497-7.837-17.71-7.837-9.966 0-17.074 7.342-7.068 7.343-7.068 17.738 0 10.436 7.068 17.778 7.108 7.343 17.074 7.343 8.577 0 14.216-4.703V47.516h8.22z" font-size="12.7" text-anchor="middle" aria-label="A"/></g></symbol><symbol id="h-H" fill="currentColor" viewBox="0 0 100 100" aria-hidden="true"><g aria-label="C"><path d="M9.692 44.209V80h-8.22V14h8.22v21.67h15.616V14h8.22v66h-8.22V44.209z" font-size="12.7" text-anchor="middle" aria-label="A"/></g></symbol><symbol id="h-I" fill="currentColor" viewBox="0 0 100 100" aria-hidden="true"><g aria-label="C"><path d="M9.61 14v66H1.39V14z" font-size="12.7" text-anchor="middle" aria-label="A"/></g></symbol><symbol id="h-J" fill="currentColor" viewBox="0 0 100 100" aria-hidden="true"><g aria-label="C"><path d="M27 65.851q0 6.848-3.613 10.643-3.852 4.042-9.332 4.042-5.44 0-9.291-4.001Q.952 72.492.952 65.81l6.512-2.64q1.112 6.27 2.82 7.714 1.27 1.113 3.414 1.113h.159q2.263-.041 3.732-1.526 1.192-1.279 1.192-4.991V14H27z" font-size="12.7" text-anchor="middle" aria-label="A"/></g></symbol><symbol id="h-K" fill="currentColor" viewBox="0 0 100 100" aria-hidden="true"><g aria-label="C"><path d="M9.22 47.714V80H1V14h8.22v19.648L24.228 14h10.403L15.136 40l24.261 40H29.43L9.775 47.012z" font-size="12.7" text-anchor="middle" aria-label="A"/></g></symbol><symbol id="h-L" fill="currentColor" viewBox="0 0 100 100" aria-hidden="true"><g aria-label="C"><path d="M1 80V14h8.22v57.42h22.712V80z" font-size="12.7" text-anchor="middle" aria-label="A"/></g></symbol><symbol id="h-M" fill="currentColor" viewBox="0 0 100 100" aria-hidden="true"><g aria-label="C"><path d="M29.113 61.561l23.983-51.524L57.146 80h-8.22L46 43 29.113 82.035 12 43 9.22 80H1l4.48-69.93z" font-size="12.7" text-anchor="middle" aria-label="A"/></g></symbol><symbol id="h-N" fill="currentColor" viewBox="0 0 100 100" aria-hidden="true"><g aria-label="C"><path d="M1 11.199l27.63 43.56V14h8.26v69.262L9.014 39.355V80H1z" font-size="12.7" text-anchor="middle" aria-label="A"/></g></symbol><symbol id="h-O" fill="currentColor" viewBox="0 0 100 100" aria-hidden="true"><g aria-label="C"><path d="M33.5 13.216q13.46 0 22.99 9.9 9.53 9.9 9.53 23.884t-9.53 23.884q-9.53 9.9-22.99 9.9-13.46 0-22.99-9.9Q.98 60.984.98 47t9.53-23.884q9.53-9.9 22.99-9.9zm0 8.622q-10.046 0-17.154 7.383-7.067 7.343-7.067 17.78 0 10.435 7.107 17.82 7.108 7.383 17.114 7.383 10.046 0 17.114-7.384 7.108-7.384 7.108-17.82t-7.108-17.779q-7.068-7.383-17.114-7.383z" font-size="12.7" text-anchor="middle" aria-label="A"/></g></symbol><symbol id="h-P" fill="currentColor" viewBox="0 0 100 100" aria-hidden="true"><g aria-label="C"><path d="M9.22 44.25V80H1V14c32 0 33.805 1 33.866 15.046C34.926 43.093 30 44.21 9.219 44.25zm0-21.67v13.09c14.78 0 17.387-.577 17.387-6.624C26.607 23 24 22.58 9.219 22.58z" font-size="12.7" text-anchor="middle" aria-label="A"/></g></symbol><symbol id="h-Q" fill="currentColor" viewBox="0 0 100 100" aria-hidden="true"><g aria-label="C"><path d="M33.5 21.474q-10.046 0-17.154 7.384Q9.28 36.201 9.28 46.637t7.107 17.82Q23.494 71.84 33.5 71.84q10.046 0 17.114-7.383 7.108-7.384 7.108-17.82t-7.108-17.779q-7.068-7.384-17.114-7.384zM47.08 77.45q.913.578 1.906 1.32 2.78 1.527 3.772 1.857.437.123.834.123.675 0 1.35-.412 1.032-.619 1.35-1.815.12-.371.278-3.053h8.299q-.278 4.043-.636 5.363-1.27 4.579-5.28 6.889-2.542 1.526-5.321 1.526-1.549 0-3.098-.454-2.54-.701-6.79-3.547-3.414-1.857-4.725-2.27-.754-.205-1.43-.205-1.19 0-2.302.66-1.827 1.072-2.383 3.217-.079.206-.277 2.723h-8.3q.318-3.92.636-5.115.675-2.517 2.065-4.455-9.371-1.857-16.519-9.282Q.98 60.62.98 46.637q0-13.984 9.53-23.884t22.991-9.9q13.46 0 22.99 9.9 9.53 9.9 9.53 23.884 0 13.983-9.53 23.883-4.288 4.455-9.41 6.93z" font-size="12.7" text-anchor="middle" aria-label="A"/></g></symbol><symbol id="h-R" fill="currentColor" viewBox="0 0 100 100" aria-hidden="true"><g><path d="M32.784 80h-9.179L9.202 56.527V80H1V14h4.199q9.57 0 16.307 6.351 6.786 6.306 6.786 14.959 0 5.569-3.125 10.54-3.124 4.924-8.592 7.87zM19.992 35.31q0-4.741-3.027-8.469-3.027-3.728-7.763-5.017v26.879q4.785-1.289 7.763-4.97 3.027-3.683 3.027-8.423z" font-size="50.8" text-anchor="middle" aria-label="C"/></g></symbol><symbol id="h-S" fill="currentColor" viewBox="0 0 100 100" aria-hidden="true"><g aria-label="C"><path d="M20.778 46.15q-6.75-2.35-10.96-6.682Q5.65 35.096 5.65 28.661q0-6.311 4.329-10.849 4.367-4.537 10.562-4.537 6.115 0 10.483 4.496 2.461 2.475 4.13 7.879l-7.466 3.052q-1.35-3.795-2.462-4.95-1.945-1.98-4.685-1.98-2.78 0-4.725 2.021-1.946 1.98-1.946 4.868 0 2.887 1.946 4.909 2.183 2.227 6.035 4.083 7.465 2.517 12.667 7.92 5.837 5.982 5.837 14.52 0 8.54-5.837 14.603-5.798 6.022-13.977 6.022-8.22 0-14.017-6.063Q1.877 69.828.646 61.33l7.982-3.011q.754 7.3 3.692 10.353 3.415 3.548 8.22 3.548 4.804 0 8.22-3.548 3.414-3.547 3.414-8.58 0-4.99-3.415-8.538-3.256-3.383-7.981-5.404z" font-size="12.7" text-anchor="middle" aria-label="A"/></g></symbol><symbol id="h-T" fill="currentColor" viewBox="0 0 100 100" aria-hidden="true"><g aria-label="C"><path d="M20.13 22.539v57.46h-8.26V22.54H1.06V14h29.88v8.539z" font-size="12.7" text-anchor="middle" aria-label="A"/></g></symbol><symbol id="h-U" fill="currentColor" viewBox="0 0 100 100" aria-hidden="true"><g aria-label="C"><path d="M28.875 14h8.259v46.489c.18 10.668-6.491 20.04-18.067 20.047C7.49 80.543 1.15 69.588 1 58.096V14h8.26v44.096c.01 7.939 2.468 13.768 9.807 13.819 7.339.05 9.713-6.528 9.808-13.819z" font-size="12.7" text-anchor="middle" aria-label="A"/></g></symbol><symbol id="h-V" fill="currentColor" viewBox="0 0 100 100" aria-hidden="true"><g aria-label="C"><path d="M1 14h8.736l9.768 43.794L29.35 14h8.775L19.504 83.52z" font-size="12.7" text-anchor="middle" aria-label="A"/></g></symbol><symbol id="h-W" fill="currentColor" viewBox="0 0 100 100" aria-hidden="true"><g aria-label="C"><path d="M25.38 67.666V14h8.22v53.666q.397.701 1.35 1.733 2.58 2.557 6.115 2.557 3.534 0 6.115-2.599 2.58-2.64 2.58-6.31V14h8.26v49.376q-.159 6.971-4.964 11.963-4.963 5.197-11.991 5.197-6.989 0-11.555-5.115-4.606 5.115-11.595 5.115-7.028 0-11.952-5.197Q1.12 70.389 1 63.376V14h8.22v49.046q0 3.671 2.58 6.311 2.581 2.599 6.115 2.599 3.574 0 6.115-2.557.993-1.032 1.35-1.733z" font-size="12.7" text-anchor="middle" aria-label="A"/></g></symbol><symbol id="h-X" fill="currentColor" viewBox="0 0 100 100" aria-hidden="true"><g aria-label="C"><path d="M.742 80l14.493-36.011L.742 14h9.45l9.768 20.34L29.808 14h9.45L24.685 43.989l14.573 36.01h-9.45L19.96 54.56 10.192 80z" font-size="12.7" text-anchor="middle" aria-label="A"/></g></symbol><symbol id="h-Y" fill="currentColor" viewBox="0 0 100 100" aria-hidden="true"><g aria-label="C"><path d="M15.794 53.517L.71 14h9.45l9.724 29.865L29.8 14h9.49L24.013 53.517V80h-8.22z" font-size="12.7" text-anchor="middle" aria-label="A"/></g></symbol><symbol id="h-Z" fill="currentColor" viewBox="0 0 100 100" aria-hidden="true"><g aria-label="C"><path d="M31.855 22.539H1.756V14H46.07L14.106 71.42h30.177V80H-.07z" font-size="12.7" text-anchor="middle" aria-label="A"/></g></symbol><symbol id="h-bracketleft" fill="currentColor" viewBox="0 0 100 100" aria-hidden="true"><g aria-label="C"><path d="M1 12h17v5.898H8.589v63.514H18v5.897H1z" font-size="22.348" aria-label="A"/></g></symbol><symbol id="h-backslash" fill="currentColor" viewBox="0 0 100 100" aria-hidden="true"><g aria-label="C"><path d="M7.783 12l21.446 69.412h-7.011L.77 12z" font-size="22.348" aria-label="A"/></g></symbol><symbol id="h-bracketright" fill="currentColor" viewBox="0 0 100 100" aria-hidden="true"><g aria-label="C"><path d="M18 12H1v5.898h9.411v63.514H1v5.897h17z" font-size="22.348" aria-label="A"/></g></symbol><symbol id="h-circ" fill="currentColor" viewBox="0 0 100 100" aria-hidden="true"><g aria-label="C"><path d="M32.652 36.972L27 37 16.826 22.681 6.652 37 1 36.972 16.826 10z" font-size="22.348" aria-label="A"/></g></symbol><symbol id="h-underscore" fill="currentColor" viewBox="0 0 100 100" aria-hidden="true"><g aria-label="C"><path d="M0 80v8.666h40V80z" aria-label="A" font-size="32"/></g></symbol><symbol id="h-grave" fill="currentColor" viewBox="0 0 100 100" aria-hidden="true"><g aria-label="C"><path d="M11.125 0L22 15h-7L1 0z" font-size="22.348" aria-label="A"/></g></symbol><symbol id="h-a" fill="currentColor" viewBox="0 0 100 100" aria-hidden="true"><g aria-label="C"><path d="M16.508 21.751L.588 80H7.72l.037-.169L12.06 63.79h8.895L25.298 80h7.13zm0 25.446l2.529 9.437h-5.06z" font-size="12.7" text-anchor="middle" aria-label="A"/></g></symbol><symbol id="h-b" fill="currentColor" viewBox="0 0 100 100" aria-hidden="true"><g aria-label="C"><path d="M11.721 25c3.066 0 5.691 1.135 7.875 3.403 2.184 2.246 3.276 4.962 3.276 8.147 0 3.277-1.588 5.305-4.765 6.085 2.294.343 4.897 2.04 7.81 5.087 2.933 3.048 4.4 7.265 4.4 12.65 0 5.385-1.82 10.037-5.46 13.956-3.419 3.69-6.849 5.626-10.29 5.672H1V25zM7.85 48.135V72.85h6.717c1.412-.092 3.165-1.375 5.26-3.644 2.317-2.475 3.475-5.42 3.475-8.834 0-3.369-1.158-6.245-3.474-8.628-2.294-2.406-5.063-3.61-8.306-3.61zm0-16.02v8.698h4.467a4.176 4.176 0 002.614-1.203c.794-.757 1.19-1.777 1.19-3.06 0-1.283-.418-2.337-1.257-3.162-.816-.848-1.864-1.272-3.143-1.272z" font-size="12.7" text-anchor="middle" aria-label="A"/></g></symbol><symbol id="h-c" fill="currentColor" viewBox="0 0 100 100" aria-hidden="true"><g aria-label="C"><path d="M21.532 24.4c-5.697 0-10.554 2.749-14.57 8.248-4.017 5.5-6.026 12.124-6.026 19.87 0 7.768 2.009 14.39 6.025 19.866 4.017 5.477 8.874 8.216 14.571 8.216.514 0 1.024-.03 1.532-.085v-7.18c-.508.075-1.018.115-1.532.115-10.754-1.1-13.93-12.6-13.93-20.933 0-9.166 4.305-20.72 13.93-20.899.514 0 1.024.039 1.532.114v-7.247a14.12 14.12 0 00-1.532-.085z" font-size="12.7" text-anchor="middle" aria-label="A"/></g></symbol><symbol id="h-d" fill="currentColor" viewBox="0 0 100 100" aria-hidden="true"><g aria-label="C"><path d="M8 32.472V73q8.173 0 13.401-5.466 5.89-6.118 5.89-14.815 0-8.663-5.89-14.816Q16.173 32.472 8 32.472zm-1.82-7.253q12.905.069 20.119 7.597 7.908 8.284 7.908 19.903 0 11.653-7.908 19.903-7.214 7.528-20.119 7.597H1.15v-55z" font-size="12.7" text-anchor="middle" aria-label="A"/></g></symbol><symbol id="h-e" fill="currentColor" viewBox="0 0 100 100" aria-hidden="true"><g aria-label="C"><path d="M26.917 25v7.116H7.933v10.943h18.984v7.115H7.933V72.85h18.984V80H1.083V25z" font-size="12.7" text-anchor="middle" aria-label="A"/></g></symbol><symbol id="h-f" fill="currentColor" viewBox="0 0 100 100" aria-hidden="true"><g aria-label="C"><path d="M27.008 25v7.116H7.841v10.942h19.167v7.116H7.841V80H.991V25z" font-size="12.7" text-anchor="middle" aria-label="A"/></g></symbol><symbol id="h-g" fill="currentColor" viewBox="0 0 100 100" aria-hidden="true"><g aria-label="C"><path d="M46.27 72.49q-8.174 8.112-18.696 8.112-11.218 0-19.126-8.216Q.54 64.17.54 52.517.54 40.9 8.448 32.65q7.908-8.25 19.126-8.25 10.489 0 19.886 8.903l-5.128 4.847q-7.082-6.532-14.758-6.532-8.306 0-14.229 6.12-5.89 6.118-5.89 14.78 0 8.697 5.89 14.816 5.923 6.119 14.229 6.119 7.147 0 11.846-3.92V52.93h6.85z" font-size="12.7" text-anchor="middle" aria-label="A"/></g></symbol><symbol id="h-h" fill="currentColor" viewBox="0 0 100 100" aria-hidden="true"><g aria-label="C"><path d="M7.994 50.174V80h-6.85V25h6.85v18.058h13.012V25h6.85v55h-6.85V50.174z" font-size="12.7" text-anchor="middle" aria-label="A"/></g></symbol><symbol id="h-i" fill="currentColor" viewBox="0 0 100 100" aria-hidden="true"><g aria-label="C"><path d="M7.925 25v55h-6.85V25z" font-size="12.7" text-anchor="middle" aria-label="A"/></g></symbol><symbol id="h-j" fill="currentColor" viewBox="0 0 100 100" aria-hidden="true"><g aria-label="C"><path d="M23 68.21q0 5.706-3.011 8.868-3.21 3.369-7.776 3.369-4.533 0-7.743-3.334-3.177-3.37-3.177-8.938l5.427-2.2q.927 5.225 2.35 6.428 1.058.928 2.845.928h.132q1.886-.034 3.11-1.272.993-1.065.993-4.159V25H23z" font-size="12.7" text-anchor="middle" aria-label="A"/></g></symbol><symbol id="h-k" fill="currentColor" viewBox="0 0 100 100" aria-hidden="true"><g aria-label="C"><path d="M7.85 51.114V80H1V25h6.85v14.392L20.356 25h8.67L12.78 44.686 32.998 80h-8.306L8.312 50.53z" font-size="12.7" text-anchor="middle" aria-label="A"/></g></symbol><symbol id="h-l" fill="currentColor" viewBox="0 0 100 100" aria-hidden="true"><g aria-label="C"><path d="M1 80V25h6.85v47.85h18.927V80z" font-size="12.7" text-anchor="middle" aria-label="A"/></g></symbol><symbol id="h-m" fill="currentColor" viewBox="0 0 100 100" aria-hidden="true"><g aria-label="C"><path d="M24.033 64.634L44.02 21.698 47.394 80h-6.85l-2.823-30.937-13.688 32.633L10.28 49.063 7.455 80H.605L4.34 21.725z" font-size="12.7" text-anchor="middle" aria-label="A"/></g></symbol><symbol id="h-n" fill="currentColor" viewBox="0 0 100 100" aria-hidden="true"><g aria-label="C"><path d="M1 22.665l23.025 36.3V25h6.883V82.72L7.679 46.129V80H1z" font-size="12.7" text-anchor="middle" aria-label="A"/></g></symbol><symbol id="h-o" fill="currentColor" viewBox="0 0 100 100" aria-hidden="true"><g aria-label="C"><path d="M28 24.539q11.217 0 19.159 8.25 7.941 8.25 7.941 19.903 0 11.653-7.941 19.903-7.942 8.25-19.159 8.25-11.217 0-19.159-8.25Q.9 64.345.9 52.692.9 41.04 8.84 32.79q7.942-8.25 19.16-8.25zm0 7.184q-8.372 0-14.295 6.153-5.89 6.12-5.89 14.816 0 8.697 5.923 14.85Q19.661 73.695 28 73.695q8.372 0 14.262-6.153 5.923-6.153 5.923-14.85t-5.923-14.816Q36.372 31.723 28 31.723z" font-size="12.7" text-anchor="middle" aria-label="A"/></g></symbol><symbol id="h-p" fill="currentColor" viewBox="0 0 100 100" aria-hidden="true"><g aria-label="C"><path d="M7.665 51.723L7.85 80H1V25c21.173-.069 28.204.208 28.247 12.8.043 12.59-9.106 13.923-21.582 13.923zM7.85 32.15l-.185 12.423c9.408-.021 14.542.02 14.7-6.774.159-6.794-5.493-5.668-14.515-5.649z" font-size="12.7" text-anchor="middle" aria-label="A"/></g></symbol><symbol id="h-q" fill="currentColor" viewBox="0 0 100 100" aria-hidden="true"><g aria-label="C"><path d="M28 31.528q-8.372 0-14.295 6.153-5.89 6.12-5.89 14.816 0 8.697 5.923 14.85Q19.661 73.5 28 73.5q8.371 0 14.261-6.153 5.923-6.153 5.923-14.85t-5.923-14.816Q36.371 31.528 28 31.528zm11.316 46.647q.761.481 1.589 1.1 2.316 1.272 3.143 1.547.364.103.695.103.562 0 1.125-.344.86-.515 1.125-1.512.1-.31.232-2.544h6.915q-.231 3.369-.529 4.469-1.059 3.815-4.4 5.74-2.119 1.272-4.435 1.272-1.29 0-2.58-.378-2.119-.584-5.66-2.956-2.845-1.547-3.937-1.89-.628-.173-1.191-.173-.993 0-1.92.55-1.521.894-1.985 2.682-.066.172-.23 2.268h-6.917q.265-3.265.53-4.262.562-2.097 1.72-3.713-7.809-1.546-13.765-7.734Q.9 64.15.9 52.497q0-11.653 7.941-19.903 7.942-8.25 19.159-8.25 11.217 0 19.159 8.25 7.941 8.25 7.941 19.903 0 11.653-7.941 19.903-3.574 3.713-7.842 5.775z" font-size="12.7" text-anchor="middle" aria-label="A"/></g></symbol><symbol id="h-r" fill="currentColor" viewBox="0 0 100 100" aria-hidden="true"><g aria-label="C"><path d="M27.303 80h-7.596L7.787 60.44V80H1V25h3.475q7.919 0 13.495 5.293 5.616 5.255 5.616 12.465 0 4.641-2.586 8.783-2.586 4.104-7.111 6.559zM16.717 42.758q0-3.95-2.505-7.057t-6.424-4.18v22.398q3.96-1.074 6.424-4.142 2.505-3.068 2.505-7.019z" font-size="50.8" text-anchor="middle" aria-label="A"/></g></symbol><symbol id="h-s" fill="currentColor" viewBox="0 0 100 100" aria-hidden="true"><g aria-label="C"><path d="M17.482 51.792q-5.626-1.959-9.133-5.568-3.474-3.644-3.474-9.007 0-5.259 3.606-9.04 3.64-3.781 8.802-3.781 5.096 0 8.736 3.746 2.051 2.063 3.441 6.566l-6.22 2.544q-1.126-3.163-2.052-4.125-1.622-1.65-3.905-1.65-2.316 0-3.938 1.684-1.62 1.65-1.62 4.056 0 2.407 1.62 4.091 1.82 1.856 5.03 3.403 6.22 2.097 10.556 6.6 4.864 4.985 4.864 12.1 0 7.116-4.864 12.169-4.831 5.019-11.648 5.019-6.85 0-11.68-5.054Q1.73 71.524.704 64.442l6.651-2.509q.629 6.084 3.078 8.628 2.845 2.956 6.85 2.956 4.003 0 6.849-2.956 2.845-2.956 2.845-7.15 0-4.16-2.845-7.115-2.714-2.82-6.651-4.504z" font-size="12.7" text-anchor="middle" aria-label="A"/></g></symbol><symbol id="h-t" fill="currentColor" viewBox="0 0 100 100" aria-hidden="true"><g aria-label="C"><path d="M20.13 32.115V80h-8.26V32.115H1.06V25h29.88v7.115z" font-size="12.7" text-anchor="middle" aria-label="A"/></g></symbol><symbol id="h-u" fill="currentColor" viewBox="0 0 100 100" aria-hidden="true"><g aria-label="C"><path d="M24.172 25h6.882v38.74c.15 8.891-5.41 16.701-15.055 16.707-9.647.006-14.931-9.123-15.056-18.7V25h6.882v36.747C7.833 68.363 9.883 73.22 16 73.263c6.115.042 8.093-5.44 8.173-11.516z" font-size="12.7" text-anchor="middle" aria-label="A"/></g></symbol><symbol id="h-v" fill="currentColor" viewBox="0 0 100 100" aria-hidden="true"><g aria-label="C"><path d="M.53 25h7.28l8.14 36.495L24.157 25h7.312L15.95 82.933z" font-size="12.7" text-anchor="middle" aria-label="A"/></g></symbol><symbol id="h-w" fill="currentColor" viewBox="0 0 100 100" aria-hidden="true"><g aria-label="C"><path d="M21.059 69.722V25h6.85v44.722q.33.584 1.124 1.443 2.151 2.132 5.096 2.132 2.945 0 5.096-2.166 2.15-2.2 2.15-5.26V25h6.883v41.147q-.132 5.81-4.136 9.968-4.136 4.332-9.993 4.332-5.824 0-9.629-4.263-3.838 4.263-9.662 4.263-5.857 0-9.96-4.332Q.84 71.99.742 66.147V25h6.85v40.872q0 3.06 2.15 5.26 2.15 2.165 5.096 2.165 2.978 0 5.096-2.132.827-.859 1.125-1.443z" font-size="12.7" text-anchor="middle" aria-label="A"/></g></symbol><symbol id="h-x" fill="currentColor" viewBox="0 0 100 100" aria-hidden="true"><g aria-label="C"><path d="M.952 80l12.077-30.01L.952 25h7.875l8.14 16.95L25.173 25h7.875L20.905 49.99 33.048 80h-7.875l-8.206-21.2L8.827 80z" font-size="12.7" text-anchor="middle" aria-label="A"/></g></symbol><symbol id="h-y" fill="currentColor" viewBox="0 0 100 100" aria-hidden="true"><g aria-label="C"><path d="M13.495 57.931L.925 25.001H8.8l8.103 24.887L25.167 25h7.908l-12.73 32.931V80h-6.85z" font-size="12.7" text-anchor="middle" aria-label="A"/></g></symbol><symbol id="h-z" fill="currentColor" viewBox="0 0 100 100" aria-hidden="true"><g aria-label="C"><path d="M26.879 32.116H1.797V25h36.928L12.088 72.85h25.148V80H.275z" font-size="12.7" text-anchor="middle" aria-label="A"/></g></symbol><symbol id="h-braceleft" fill="currentColor" viewBox="0 0 100 100" aria-hidden="true"><g aria-label="C"><path d="M21.095 86.537h-8.208c-6.571 0-7.857-3.41-7.857-10.228V56.553L.905 47.831l4.125-8.682V21.992c0-6.819 1.286-10.228 7.857-10.228h8.208V20.3c-.33 0-.922-.027-1.774-.082a32.96 32.96 0 00-1.98-.083c-3.189 0-4.784 1.155-4.784 3.465v14.6c.117 4.914.414 6.754-3.093 9.65 3.625 2.795 3.078 5.286 3.093 9.61v17.074c0 2.393 1.636 3.589 4.908 3.589.44 0 1.073-.028 1.897-.083A60.93 60.93 0 0121.095 78z" font-size="16.253" text-anchor="middle" aria-label="A"/></g></symbol><symbol id="h-bar" fill="currentColor" viewBox="0 0 100 100" aria-hidden="true"><g aria-label="C"><path d="M9.61 0v100H1.39V0z" font-size="12.7" text-anchor="middle" aria-label="A"/></g></symbol><symbol id="h-braceright" fill="currentColor" viewBox="0 0 100 100" aria-hidden="true"><g aria-label="C"><path d="M.905 86.537h8.208c6.571 0 7.857-3.41 7.857-10.228V56.553l4.125-8.722-4.125-8.682V21.992c0-6.819-1.286-10.228-7.857-10.228H.905V20.3c.33 0 .922-.027 1.774-.082a32.96 32.96 0 011.98-.083c3.189 0 4.784 1.155 4.784 3.465v14.6c-.117 4.914-.414 6.754 3.093 9.65-3.625 2.795-3.078 5.286-3.093 9.61v17.074c0 2.393-1.636 3.589-4.908 3.589-.44 0-1.073-.028-1.897-.083A60.93 60.93 0 00.905 78z" font-size="16.253" text-anchor="middle" aria-label="A"/></g></symbol><symbol id="h-tilde" fill="currentColor" viewBox="0 0 100 100" aria-hidden="true"><g aria-label="C"><path d="M15.01 46.23q2.557 2.392 3.63 2.392v.041q1.237 0 1.237-1.608 0-1.073-.536-2.846h7.671q-1.567 9.073-6.063 10.393-1.154.33-2.31.33-3.051 0-5.526-2.35-2.433-2.352-3.588-2.352H9.36q-1.237.083-1.237 1.609 0 1.03.577 2.722H.988q1.608-9.074 6.145-10.393 1.155-.33 2.31-.33 3.01 0 5.568 2.392z" font-size="16.253" text-anchor="middle" aria-label="A"/></g></symbol><symbol id="h-iexcl" fill="currentColor" viewBox="0 0 100 100" aria-hidden="true"><g aria-label="C"><path d="M1.231 80V29.66H9.77V80zm0-57.463V14H9.77v8.537z" font-size="22.348" text-anchor="middle" aria-label="A"/></g></symbol><symbol id="h-cent" fill="currentColor" viewBox="0 0 100 100" aria-hidden="true"><g aria-label="C"><path d="M29.994 15.117l-2.527 9.436c-7.248.129-13.458 2.868-18.625 8.236C3.547 38.29.9 44.923.9 52.691c0 7.77 2.647 14.405 7.942 19.905a28.773 28.773 0 004.691 3.953L11 86l5.795 1.553 2.203-8.225c2.801 1.008 5.8 1.518 9.002 1.518 2.45 0 4.784-.298 7-.889v-7.5c-2.168.823-4.5 1.238-7 1.238-2.551 0-4.93-.437-7.143-1.3L31.67 32.043c1.15.207 2.26.512 3.33.918v-7.535a25.394 25.394 0 00-1.467-.338l2.256-8.418-5.795-1.553zm-4.49 16.754l-10 37.318a22.657 22.657 0 01-1.766-1.646c-3.948-4.102-5.922-9.054-5.922-14.852 0-5.797 1.962-10.735 5.89-14.814 3.345-3.476 7.28-5.475 11.798-6.006z" font-size="12.7" text-anchor="middle" aria-label="A"/></g></symbol><symbol id="h-sterling" fill="currentColor" viewBox="0 0 100 100" aria-hidden="true"><g aria-label="C"><path d="M20.68 57.104q0 9.362-5.031 14.517 3.34-2.145 7.34-2.145 1.073 0 2.228.165 5.279.743 8.331.743 2.722 0 7.754-1.279l1.608 8.414q-5.733 1.402-9.362 1.402-3.67 0-7.465-.866-3.464-.742-6.021-.742-2.145 0-3.589.495-3.794 1.36-9.155 4.083L1.09 74.508q6.434-5.691 7.506-7.011 3.506-4.166 3.588-10.476H3.152v-8.496h7.135q-.041-.124-1.69-3.382Q4.1 37.884 3.522 31.121q-.082-.825-.082-1.691 0-6.187 4.083-11.095 4.578-5.444 11.878-6.145.825-.041 1.608-.041 6.187 0 11.136 4.083 5.485 4.702 6.145 11.837.165.99.165 1.938 0 2.928-1.98 7.506l-7.96-2.68q1.28-3.671 1.28-5.197 0-.454-.042-.866-.33-3.588-3.134-5.94-2.475-2.061-5.568-2.061-.454 0-.866.041-3.63.289-5.98 3.093-2.063 2.475-2.063 5.527 0 .495.042.948.33 3.795 2.64 8.703 3.422 5.444 4.412 9.444h8.001v8.496z" font-size="22.348" text-anchor="middle" aria-label="A"/></g></symbol><symbol id="h-curren" fill="currentColor" viewBox="0 0 100 100" aria-hidden="true"><g aria-label="C"><path d="M12.555 19.444q3.052-2.475 9.445-2.475 6.434 0 9.445 2.475L36.889 14l6.021 6.063-5.444 5.444q2.516 3.01 2.516 9.444 0 6.393-2.516 9.404l5.444 5.444-6.021 6.062-5.444-5.444Q28.434 52.892 22 52.892q-6.393 0-9.445-2.475l-5.402 5.444L1.09 49.8l5.444-5.444q-2.475-3.011-2.475-9.404 0-6.434 2.475-9.444L1.09 20.063 7.153 14zm15.095 7.919q-2.433-1.856-5.65-1.856-3.217 0-5.609 1.856-.577.412-1.031.866-.495.495-.907 1.072-1.898 2.433-1.898 5.65 0 3.217 1.898 5.61.37.536.907 1.03.495.537 1.031.908 2.392 1.856 5.609 1.856t5.65-1.856q.536-.413 1.031-.908.495-.453.866-1.03 1.898-2.393 1.898-5.61 0-3.217-1.898-5.65-.412-.577-.866-1.072-.453-.413-1.03-.866z" font-size="16.253" text-anchor="middle" aria-label="A"/></g></symbol><symbol id="h-yen" fill="currentColor" viewBox="0 0 100 100" aria-hidden="true"><g aria-label="C"><path d="M.71 14l12.978 34H6.225v8.537h9.568v4.537H6.225v8.537h9.568V80h8.22V69.611h9.762v-8.537h-9.761v-4.537h9.761V48h-7.629L39.29 14H29.8l-9.916 29.865L10.16 14H.71z" font-size="22.348" text-anchor="middle" aria-label="A"/></g></symbol><symbol id="h-brkbar" fill="currentColor" viewBox="0 0 100 100" aria-hidden="true"><g aria-label="C"><path d="M1.39 0v43.89h8.22V0zm0 56.11V100h8.22V56.11z" font-size="12.7" text-anchor="middle" aria-label="A"/></g></symbol><symbol id="h-sect" fill="currentColor" viewBox="0 0 100 100" aria-hidden="true"><g aria-label="C"><path d="M21.686 11.438c-4.262 0-7.906 1.512-10.93 4.537-2.997 2.997-4.494 6.6-4.494 10.806C2.605 31.153.775 36.184.775 41.875c0 5.664 2.008 10.49 6.022 14.477 3.602 3.601 7.973 6.24 13.115 7.918 2.695 1.237 4.785 2.599 6.27 4.084 1.347 1.347 2.02 2.968 2.02 4.865 0 1.924-.673 3.56-2.02 4.908-1.348 1.32-2.97 1.98-4.868 1.98l-3.396 8.106c1.085.232 2.217.35 3.396.35 4.29 0 7.933-1.513 10.93-4.538 2.997-3.024 4.496-6.627 4.496-10.806 3.657-4.372 5.485-9.402 5.485-15.094 0-5.664-2.008-10.49-6.022-14.477-3.602-3.601-7.973-6.24-13.115-7.918-2.667-1.237-4.757-2.599-6.27-4.084-1.347-1.347-2.02-2.968-2.02-4.865 0-1.924.673-3.547 2.02-4.867 1.348-1.347 2.97-2.021 4.868-2.021l3.402-8.096a16.263 16.263 0 00-3.402-.36zM10.268 37l.529.668c2.777 2.804 6.49 4.978 11.137 6.518 3.272 1.347 6.048 3.147 8.33 5.402 2.337 2.364 3.506 5.21 3.506 8.537 0 3.134-.804 4.623-.893 4.623l-.633-.457c-2.804-2.777-6.53-4.95-11.178-6.518-3.272-1.32-6.034-3.12-8.289-5.402-2.364-2.337-3.547-5.17-3.547-8.496 0-3.162.934-4.875 1.038-4.875z" font-size="22.348" text-anchor="middle" aria-label="A"/></g></symbol><symbol id="h-uml" fill="currentColor" viewBox="0 0 100 100" aria-hidden="true"><g aria-label="C"><path d="M14.809 2.02c-1.705 0-3.137.59-4.291 1.773C9.363 4.975 8.788 6.378 8.788 8c0 1.65.575 3.052 1.73 4.207 1.154 1.182 2.586 1.773 4.29 1.773 1.65 0 3.05-.59 4.206-1.773C20.168 11.052 20.746 9.65 20.746 8c0-1.622-.578-3.025-1.732-4.207-1.155-1.182-2.556-1.773-4.205-1.773zm21.466 0c-1.704 0-3.134.59-4.289 1.773C30.832 4.975 30.254 6.378 30.254 8c0 1.65.578 3.052 1.732 4.207 1.155 1.182 2.585 1.773 4.29 1.773 1.65 0 3.052-.59 4.206-1.773 1.155-1.155 1.73-2.557 1.73-4.207 0-1.622-.575-3.025-1.73-4.207-1.154-1.182-2.557-1.773-4.207-1.773z" font-size="12.7" text-anchor="middle" aria-label="A"/></g></symbol><symbol id="h-copy" fill="currentColor" viewBox="0 0 100 100" aria-hidden="true"><g aria-label="C"><path d="M33.403 49.093l3.712 7.589c-2.942 2.97-6.503 4.454-10.682 4.454-4.18 0-7.74-1.47-10.682-4.413-2.942-2.97-4.413-6.544-4.413-10.723 0-4.152 1.471-7.699 4.413-10.64 2.942-2.97 6.503-4.455 10.682-4.455 4.18 0 7.74 1.471 10.682 4.413l-3.712 7.63c-1.017-1.292-1.622-2.035-1.815-2.227-1.402-1.402-3.12-2.103-5.155-2.103s-3.78.728-5.238 2.185c-1.43 1.43-2.144 3.162-2.144 5.197s.714 3.78 2.144 5.238c1.457 1.43 3.203 2.144 5.238 2.144 2.035 0 3.767-.714 5.197-2.144.192-.193.783-.908 1.773-2.145zm-7.382-28.457c6.983 0 12.95 2.474 17.899 7.423 4.95 4.95 7.424 10.93 7.424 17.941 0 7.011-2.475 12.991-7.424 17.94-4.95 4.95-10.916 7.424-17.9 7.424-7.01 0-12.99-2.474-17.94-7.423C3.13 58.99.656 53.01.656 46c0-7.011 2.475-12.991 7.424-17.94 4.95-4.95 10.93-7.424 17.94-7.424zm0 7.836c-4.867 0-9.019 1.718-12.456 5.155-3.41 3.41-5.114 7.534-5.114 12.373 0 4.84 1.705 8.977 5.114 12.414 3.437 3.437 7.589 5.155 12.456 5.155 4.839 0 8.963-1.718 12.372-5.155C41.83 54.977 43.55 50.84 43.55 46c0-4.84-1.719-8.963-5.156-12.373-3.409-3.437-7.533-5.155-12.372-5.155z" font-size="22.348" text-anchor="middle" aria-label="A"/></g></symbol><symbol id="h-ordf" fill="currentColor" viewBox="0 0 100 100" aria-hidden="true"><g aria-label="C"><g aria-label="A" font-size="32"><path d="M24.268 13.139c-6.49 0-12.03 2.295-16.622 6.886C3.082 24.59.801 30.117.801 36.605c0 6.49 2.281 12.03 6.845 16.622 4.592 4.564 10.133 6.845 16.622 6.845 5.444 0 10.229-2.13 14.353-6.392V59H47.2V16.52h-8.578v2.97c-4.124-4.234-8.91-6.351-14.353-6.351zm0 8.783c4.041 0 7.507 1.431 10.394 4.29 2.145 2.173 3.464 4.592 3.96 7.259v6.27c-.496 2.666-1.815 5.085-3.96 7.257-2.887 2.86-6.353 4.29-10.394 4.29-4.07 0-7.547-1.43-10.434-4.29-2.86-2.887-4.29-6.35-4.29-10.393 0-4.069 1.43-7.533 4.29-10.392 2.887-2.86 6.364-4.291 10.434-4.291zM-.008 62.986v8.366h48.016v-8.366H-.008z" aria-label="a" font-size="16.253" text-anchor="middle"/></g></g></symbol><symbol id="h-laquo" fill="currentColor" viewBox="0 0 100 100" aria-hidden="true"><g aria-label="C"><g aria-label="A" font-size="32"><g aria-label="a"><path d="M.946 38L19.34 14.038v11.465L11.67 38l7.671 12.538v11.548zm17.714 0l18.394-23.962v11.465L29.383 38l7.671 12.538v11.548z" font-size="22.348" aria-label="&#xAB;" text-anchor="middle"/></g></g></g></symbol><symbol id="h-not" fill="currentColor" viewBox="0 0 100 100" aria-hidden="true"><g aria-label="C"><g aria-label="A" font-size="32"><path d="M1 14h42v21.653h-9.692V23.775H1z" aria-label="&#xAC;" font-size="16.253" text-anchor="middle"/></g></g></symbol><symbol id="h-reg" fill="currentColor" viewBox="0 0 100 100" aria-hidden="true"><g aria-label="C"><g aria-label="A" font-size="32"><path d="M26.021 20.635c-7.01 0-12.992 2.474-17.94 7.424C3.13 33.008.655 38.989.655 46c0 7.011 2.475 12.992 7.424 17.941 4.95 4.95 10.93 7.424 17.941 7.424 6.984 0 12.95-2.474 17.899-7.424 4.95-4.949 7.424-10.93 7.424-17.941 0-7.011-2.475-12.992-7.424-17.941-4.95-4.95-10.915-7.424-17.899-7.424zm0 7.838c4.84 0 8.962 1.717 12.372 5.154 3.436 3.41 5.156 7.534 5.156 12.373 0 4.84-1.72 8.977-5.156 12.414-.89.897-1.831 1.675-2.819 2.338L32.1 51.725l.046-.05c2.076-.713 3.778-1.484 4.971-2.896 1.205-1.425 1.878-3.535 1.867-6.691-.009-2.561-.354-4.59-1.129-6.15-.774-1.561-1.96-2.635-3.61-3.377-3.288-1.48-8.468-1.686-16.169-1.696H17.07c2.652-1.594 5.636-2.392 8.951-2.392zm-11.45 4.22v26.655a19.713 19.713 0 01-1.007-.934C10.155 54.977 8.451 50.84 8.451 46c0-4.84 1.704-8.964 5.113-12.373a19.7 19.7 0 011.006-.934zm11.199 4.852h.005c2.289-.003 4.098.144 5.284.797.593.326 1.023.77 1.3 1.363.278.594.413 1.346.389 2.371-.024 1.041-.187 1.763-.478 2.305-.292.541-.729.917-1.327 1.178-1.195.52-3.007.552-5.367.68-1.434.076-2.964.001-4.799 0V37.61l4.993-.066zm-4.993 15.434h4.87l3.722 10.292a18.56 18.56 0 01-3.348.3c-1.851 0-3.599-.251-5.244-.749V52.98z" font-size="22.348" text-anchor="middle"/></g></g></symbol><symbol id="h-macr" fill="currentColor" viewBox="0 0 100 100" aria-hidden="true"><g aria-label="C"><path d="M0 5.334V14h40V5.334z" aria-label="A" font-size="32"/></g></symbol><symbol id="h-deg" fill="currentColor" viewBox="0 0 100 100" aria-hidden="true"><g aria-label="C"><path d="M16 13.924a14 14 0 00-14 14 14 14 0 0014 14 14 14 0 0014-14 14 14 0 00-14-14zm0 6.924a7.076 7.076 0 017.076 7.076A7.076 7.076 0 0116 35a7.076 7.076 0 01-7.076-7.076A7.076 7.076 0 0116 20.848z" aria-label="A" font-size="32"/></g></symbol><symbol id="h-plusmn" fill="currentColor" viewBox="0 0 100 100" aria-hidden="true"><g aria-label="C"><g aria-label="A" text-anchor="middle" font-size="32"><path d="M14.21 48.537H.725V40h13.487V26.514h8.578V40h13.487v8.537H22.789v13.528h-8.578z" font-size="16.253"/><path d="M4.725 64h27.55v8.537H4.725z" font-size="22.348"/></g></g></symbol><symbol id="h-sup2" fill="currentColor" viewBox="0 0 100 100" aria-hidden="true"><g aria-label="C"><path d="M6.735 13.402c-1.91 0-3.639.473-5.186 1.422l-.627.387 3.059 4.426.197-.106c.765-.41 1.615-.619 2.557-.619 1.542 0 2.83.54 3.883 1.592 1.063 1.05 1.502 2.173 1.504 3.492-.026 1.584-.755 3.177-1.924 4.797-1.172 1.623-2.737 3.229-4.242 4.912C4.45 35.388 3 37.143 2.046 39.182c-.956 2.038-1.397 4.486-.768 7.132l.1.41h15.654v-5.427h-9.67c.362-.708.697-1.415 1.457-2.293 1.064-1.229 2.396-2.568 3.676-4.04 1.28-1.47 2.51-3.069 3.384-4.884.864-1.794 1.374-3.87 1.143-6.129-.013-2.997-1.09-5.561-3.082-7.553-1.99-2.004-4.402-2.996-7.205-2.996z" aria-label="A" font-size="32"/></g></symbol><symbol id="h-sup3" fill="currentColor" viewBox="0 0 100 100" aria-hidden="true"><g aria-label="C"><path d="M3.535 13.342c-.515 0-1.787.038-2.316.138l-.467.088 1.084 5.692.35-.176c.398-.201.848-.31 1.35-.31.846 0 1.536.295 2.093.851h.004c.555.544.74 1.06.74 1.691 0 .633-.21 1.22-.81 1.856l-.01.012-.006.005c-.955 1.117-2.188 1.475-3.48 1.565l-.368.021v5.377l.37.022c2.062.105 4.545 1.159 5.699 2.38 1.051 1.14 1.496 2.316 1.496 3.632 0 1.302-.435 2.41-1.487 3.449h-.004c-1.038 1.038-2.307 1.568-3.83 1.568a5.433 5.433 0 01-1.789-.287l-.324-.115-1.086 5.414.475.09c.605.11 2.026.353 2.724.353 2.77 0 5.154-.976 7.121-2.957 1.98-1.992 3.053-4.54 3.053-7.515 0-2.945-1.042-5.514-2.967-7.586l-.007-.006-.01-.006c-1.013-.981-1.977-1.306-2.94-1.586.792-.72 1.596-1.438 2.075-2.217.649-1.056 1.021-2.228 1.021-3.469 0-2.264-.84-4.208-2.336-5.718-1.499-1.513-3.311-2.256-5.418-2.256z" aria-label="A" font-size="32"/></g></symbol><symbol id="h-acute" fill="currentColor" viewBox="0 0 100 100" aria-hidden="true"><g aria-label="C"><path d="M11.875 0L1 15h7L22 0z" font-size="22.348" aria-label="A"/></g></symbol><symbol id="h-para" fill="currentColor" viewBox="0 0 100 100" aria-hidden="true"><g aria-label="C"><g aria-label="A" font-size="32"><path d="M15.998 14v.012c-8.223 0-14.89 7.384-14.89 16.494S7.774 47 15.997 47v33h6.537V21h2.928v59H32V21h1.691v-7z" aria-label="&#xB6;" font-size="16.253" text-anchor="middle"/></g></g></symbol><symbol id="h-middot" fill="currentColor" viewBox="0 0 100 100" aria-hidden="true"><g aria-label="C"><path d="M7 42.31q2.475 0 4.207 1.731 1.773 1.732 1.773 4.207 0 2.557-1.773 4.29Q9.475 54.268 7 54.268q-2.433 0-4.207-1.732-1.773-1.732-1.773-4.289 0-2.475 1.773-4.207Q4.567 42.31 7 42.31z" font-size="22.348" text-anchor="middle" aria-label="A"/></g></symbol><symbol id="h-cedil" fill="currentColor" viewBox="0 0 100 100" aria-hidden="true"><g aria-label="C"><g aria-label="A" text-anchor="middle" font-size="32"><path d="M6.79 78.059l-2.209 5.474c2.365.77 3.63 1.54 3.795 2.31.026.11.041.22.041.33 0 .22-.04.426-.123.618-.247.852-.798 1.333-1.65 1.443a2.286 2.286 0 01-.454.043c-.99 0-2.268-.357-3.836-1.072L.911 92.4c2.502.413 4.55.62 6.145.62.687 0 1.294-.041 1.816-.124 2.612-.384 4.59-1.389 5.938-3.011.852-1.045 1.279-2.158 1.279-3.34 0-.358-.04-.715-.123-1.072-.083-.358-.18-.729-.29-1.114-.577-1.402-1.883-2.627-3.917-3.672l.605-.939z" font-size="12.7"/></g></g></symbol><symbol id="h-sup1" fill="currentColor" viewBox="0 0 100 100" aria-hidden="true"><g aria-label="C"><path d="M5.45 13.342L.583 22.969h3.518v23.69H9V13.341z" aria-label="A" font-size="32"/></g></symbol><symbol id="h-ordm" fill="currentColor" viewBox="0 0 100 100" aria-hidden="true"><g aria-label="C"><path d="M12.742 13.342C5.068 13.446.933 21.412.857 29.609c-.075 8.197 3.912 16.432 11.87 17.05h.02c7.681-.105 11.82-8.064 11.896-16.259.075-8.194-3.917-16.429-11.881-17.058h-.01zm0 5.51h.004c2.435.034 4.185 1.46 5.336 3.543 1.152 2.083 1.706 4.854 1.68 7.636-.052 5.563-2.373 11.104-7.016 11.133-2.431-.033-4.177-1.451-5.326-3.535-1.15-2.084-1.704-4.86-1.678-7.643.052-5.564 2.368-11.11 7-11.134z" aria-label="A" font-size="32"/></g></symbol><symbol id="h-raquo" fill="currentColor" viewBox="0 0 100 100" aria-hidden="true"><g aria-label="C"><g aria-label="A" font-size="32"><g aria-label="a"><path d="M37.054 38L18.66 14.038v11.465L26.33 38 18.66 50.538v11.548zM19.34 38L.946 14.038v11.465L8.617 38 .946 50.538v11.548z" font-size="22.348" aria-label="&#xAB;" text-anchor="middle"/></g></g></g></symbol><symbol id="h-frac14" fill="currentColor" viewBox="0 0 100 100" aria-hidden="true"><g aria-label="C"><g aria-label="A" font-size="32"><path d="M6.235 10.892L1.37 20.52h3.518v23.69h4.898V10.892zM20.651 46.684l-.105.156L9.513 62.936l1.383 3.576h8.992V80H24.8V66.512h2.83V61.05H24.8V46.684zm-.763 11.3v3.067h-2.424z"/><path d="M24.888 26.225L3.989 56.713v8.605l20.899-30.49z"/></g></g></symbol><symbol id="h-frac12" fill="currentColor" viewBox="0 0 100 100" aria-hidden="true"><g aria-label="C"><g aria-label="A" font-size="32"><path d="M5.7 10.892L.835 20.52h3.518v23.69H9.25V10.892z"/><path d="M24.353 26.225L3.454 56.713v8.605l20.899-30.49z"/><path d="M21.822 46.678c-1.909 0-3.638.473-5.185 1.422l-.627.386 3.058 4.426.198-.105c.765-.41 1.615-.62 2.556-.62 1.543 0 2.831.54 3.883 1.592 1.063 1.051 1.502 2.173 1.504 3.492-.026 1.584-.754 3.178-1.924 4.797-1.172 1.624-2.737 3.23-4.242 4.912-1.505 1.684-2.955 3.439-3.91 5.477-.955 2.038-1.397 4.486-.768 7.133l.1.41h15.654v-5.428h-9.67c.362-.707.697-1.415 1.457-2.293 1.065-1.228 2.397-2.568 3.676-4.039 1.28-1.47 2.51-3.07 3.385-4.885.864-1.793 1.373-3.87 1.142-6.128-.012-2.998-1.09-5.562-3.082-7.553-1.99-2.004-4.401-2.996-7.205-2.996z"/></g></g></symbol><symbol id="h-frac34" fill="currentColor" viewBox="0 0 100 100" aria-hidden="true"><g aria-label="C"><g aria-label="A" font-size="32"><path d="M3.902 10.717c-.515 0-1.787.038-2.316.138l-.467.088 1.084 5.692.35-.176c.398-.201.848-.31 1.35-.31.846 0 1.537.295 2.093.851H6c.555.544.74 1.06.74 1.691 0 .633-.21 1.22-.81 1.856l-.01.011-.006.006c-.954 1.117-2.188 1.475-3.48 1.565l-.368.021v5.377l.37.022c2.062.105 4.545 1.159 5.699 2.38 1.051 1.14 1.496 2.316 1.496 3.632 0 1.302-.435 2.41-1.486 3.449H8.14c-1.039 1.038-2.308 1.568-3.83 1.568a5.433 5.433 0 01-1.79-.287l-.324-.115-1.086 5.414.475.09c.605.11 2.026.353 2.725.353 2.77 0 5.153-.976 7.12-2.957 1.98-1.992 3.053-4.54 3.053-7.515 0-2.945-1.042-5.514-2.966-7.586l-.008-.006-.01-.006c-1.012-.982-1.977-1.306-2.94-1.586.792-.72 1.596-1.438 2.075-2.217.65-1.057 1.021-2.228 1.021-3.469 0-2.264-.84-4.209-2.336-5.718-1.499-1.513-3.311-2.256-5.418-2.256z"/><path d="M20.651 46.684l-.105.156L9.513 62.936l1.383 3.576h8.992V80H24.8V66.512h2.83V61.05H24.8V46.684zm-.763 11.3v3.067h-2.424z"/><path d="M24.888 26.225L3.989 56.713v8.605l20.899-30.49z"/></g></g></symbol><symbol id="h-iquest" fill="currentColor" viewBox="0 0 100 100" aria-hidden="true"><g aria-label="C"><path d="M11.365 79.86c-4.021-1.382-6.941-4.038-8.826-7.88-.975-1.987-1.484-3.986-1.484-6.021v-2.762L9.674 66c.11 1.045.286 1.83.537 2.352.822 1.706 2.141 2.882 3.959 3.505a7.119 7.119 0 005.28-.289c1.71-.81 2.926-2.13 3.546-3.959.607-1.788.365-3.738-.33-5.279-.935-1.897-2.447-3.877-4.537-5.94-4.344-3.271-7.641-7.19-9.814-11.794-2.164-4.584-2.12-13.09-2.147-16.059h8.496c.027 1.677.096 9.798 1.28 12.389a21.677 21.677 0 006.02 7.836c3.793 3.104 6.734 6.258 8.415 9.857 1.837 3.933 1.976 8.084.701 11.836-1.36 4.002-4.01 6.94-7.877 8.744-3.94 1.838-8.094 1.947-11.838.66zM6.13 22.536V14h8.535v8.537z" font-size="22.348" text-anchor="middle" aria-label="A"/></g></symbol><symbol id="h-Agrave" fill="currentColor" viewBox="0 0 100 100" aria-hidden="true"><g aria-label="C"><g aria-label="A" font-size="12.7" text-anchor="middle"><path d="M9 0l16 11h9L21.125 0zM19.5 10.48L.5 80h8.51l.045-.201 5.134-19.147h10.618L29.99 80h8.51zm0 30.37l3.018 11.263h-6.04z"/></g></g></symbol><symbol id="h-Aacute" fill="currentColor" viewBox="0 0 100 100" aria-hidden="true"><g aria-label="C"><g aria-label="A" font-size="12.7" text-anchor="middle"><path d="M16.875 0L4 11h9L29 0zM19.5 8.367l-19 69.52h8.51l.045-.201 5.134-19.147h10.618l5.183 19.348h8.51zm0 30.37L22.518 50h-6.04z"/></g></g></symbol><symbol id="h-Acirc" fill="currentColor" viewBox="0 0 100 100" aria-hidden="true"><g aria-label="C"><g aria-label="A" font-size="12.7" text-anchor="middle"><path d="M15.438 0L2.562 11h9L19.5 5.725 27.437 11h9L23.562 0z"/><path d="M19.5 10.48L.5 80h8.51l.045-.201 5.134-19.147h10.618L29.99 80h8.51zm0 30.37l3.018 11.263h-6.04z"/></g></g></symbol><symbol id="h-Atilde" fill="currentColor" viewBox="0 0 100 100" aria-hidden="true"><g aria-label="C"><g aria-label="A" font-size="12.7" text-anchor="middle"><path d="M14.943-.371c-.77 0-1.54.11-2.31.33-3.025.88-5.072 4.344-6.145 10.393h7.713c-.385-1.128-.578-2.034-.578-2.721 0-1.018.412-1.555 1.236-1.61h.166c.77 0 1.966.785 3.588 2.352 1.65 1.567 3.493 2.35 5.528 2.35.77 0 1.538-.11 2.308-.33 2.997-.88 5.018-4.344 6.063-10.393h-7.67c.357 1.182.535 2.13.535 2.846 0 1.072-.412 1.61-1.236 1.61v-.044c-.715 0-1.927-.796-3.631-2.39C18.805.426 16.95-.372 14.943-.372z"/><path d="M19.5 10.48L.5 80h8.51l.045-.201 5.134-19.147h10.618L29.99 80h8.51zm0 30.37l3.018 11.263h-6.04z"/></g></g></symbol><symbol id="h-Auml" fill="currentColor" viewBox="0 0 100 100" aria-hidden="true"><g aria-label="C"><g aria-label="A" font-size="12.7" text-anchor="middle"><path d="M9.809.02c-1.705 0-3.137.59-4.291 1.773C4.363 2.975 3.788 4.378 3.788 6c0 1.65.575 3.052 1.73 4.207 1.154 1.182 2.586 1.773 4.29 1.773 1.65 0 3.05-.59 4.206-1.773C15.168 9.052 15.746 7.65 15.746 6c0-1.622-.578-3.025-1.732-4.207C12.859.611 11.458.02 9.809.02zm19.466 0c-1.704 0-3.134.59-4.289 1.773C23.832 2.975 23.254 4.378 23.254 6c0 1.65.578 3.052 1.732 4.207 1.155 1.182 2.585 1.773 4.29 1.773 1.65 0 3.052-.59 4.206-1.773 1.155-1.155 1.73-2.557 1.73-4.207 0-1.622-.575-3.025-1.73-4.207C32.328.611 30.925.02 29.275.02zM19.5 10.48L.5 80h8.51l.045-.201 5.134-19.147h10.618L29.99 80h8.51zm0 30.37l3.018 11.263h-6.04z"/></g></g></symbol><symbol id="h-Aring" fill="currentColor" viewBox="0 0 100 100" aria-hidden="true"><path d="M19.5 0c-4.392 0-8 3.608-8 8 0 3.73 2.602 6.892 6.076 7.762h.48L.5 80h8.51l.045-.201 5.134-19.147h10.618L29.99 80h8.51L20.943 15.762h.48C24.899 14.892 27.5 11.729 27.5 8c0-4.392-3.608-8-8-8zm0 5a2.997 2.997 0 01.14 5.992l-.14-.512-.14.512A2.997 2.997 0 0119.5 5zm0 35.85l3.018 11.263h-6.04L19.5 40.85z" font-size="12.7" text-anchor="middle"/></symbol><symbol id="h-AElig" fill="currentColor" viewBox="0 0 100 100" aria-hidden="true"><g aria-label="C"><path d="M24.883 14L.834 80h8.773l6.844-19.572h9.717V80h26v-8.58H34.387V44.209h17.781v-8.54H34.387V22.54h17.781V14zm1.285 18.645v19.244h-6.73z" aria-label="A" font-size="32"/></g></symbol><symbol id="h-Ccedil" fill="currentColor" viewBox="0 0 100 100" aria-hidden="true"><g aria-label="C"><g aria-label="A" text-anchor="middle" font-size="32"><path d="M25.162 12.965v.002c-6.837 0-12.666 3.298-17.486 9.898S.446 37.414.446 46.71c0 9.322 2.41 17.27 7.23 23.842 2.712 3.698 5.744 6.355 9.095 7.972l-1.787 5.01c2.365.77 3.63 1.54 3.795 2.31.026.11.041.22.041.33 0 .22-.04.426-.123.618-.247.852-.798 1.333-1.65 1.443a2.286 2.286 0 01-.453.043c-.99 0-2.269-.357-3.836-1.072L11.314 92.4c2.503.413 4.55.62 6.145.62.687 0 1.294-.041 1.816-.124 2.612-.384 4.59-1.389 5.938-3.011.852-1.045 1.28-2.158 1.28-3.34 0-.358-.041-.715-.124-1.072-.082-.358-.179-.729-.289-1.114-.577-1.402-1.883-2.627-3.918-3.672l.184-.474c.919.13 1.857.197 2.816.197.616 0 1.228-.035 1.838-.101V71.69c-.61.091-1.222.14-1.838.14C12.256 70.51 8.445 56.708 8.445 46.708c0-11 5.166-24.868 16.717-25.082.616 0 1.228.046 1.838.137v-8.698a16.943 16.943 0 00-1.838-.101z" font-size="12.7"/></g></g></symbol><symbol id="h-Egrave" fill="currentColor" viewBox="0 0 100 100" aria-hidden="true"><g aria-label="C"><g aria-label="A" font-size="12.7" text-anchor="middle"><path d="M5 0l16 11h9L17.125 0zM33 14v8.539H10.22V35.67H33v8.539H10.22V71.42H33V80H2V14z"/></g></g></symbol><symbol id="h-Eacute" fill="currentColor" viewBox="0 0 100 100" aria-hidden="true"><g aria-label="C"><g aria-label="A" font-size="12.7" text-anchor="middle"><path d="M30 0L14 11H5L17.875 0zM33 14v8.539H10.22V35.67H33v8.539H10.22V71.42H33V80H2V14z"/></g></g></symbol><symbol id="h-Ecric" fill="currentColor" viewBox="0 0 100 100" aria-hidden="true"><g aria-label="C"><g aria-label="A" font-size="12.7" text-anchor="middle"><path d="M13.438 0L.563 11h9L17.5 5.725 25.438 11h9L21.563 0zM33 14v8.539H10.22V35.67H33v8.539H10.22V71.42H33V80H2V14z"/></g></g></symbol><symbol id="h-Euml" fill="currentColor" viewBox="0 0 100 100" aria-hidden="true"><g aria-label="C"><g aria-label="A" font-size="12.7" text-anchor="middle"><path d="M8.809 0C7.104 0 5.672.591 4.518 1.773c-1.155 1.183-1.73 2.585-1.73 4.207 0 1.65.575 3.053 1.73 4.208 1.154 1.182 2.586 1.773 4.29 1.773 1.65 0 3.05-.591 4.206-1.773 1.154-1.155 1.732-2.558 1.732-4.208 0-1.622-.578-3.024-1.732-4.207C11.859.591 10.458 0 8.809 0zm17.466 0c-1.704 0-3.134.591-4.289 1.773-1.154 1.183-1.732 2.585-1.732 4.207 0 1.65.578 3.053 1.732 4.208 1.155 1.182 2.585 1.773 4.29 1.773 1.65 0 3.052-.591 4.206-1.773 1.155-1.155 1.73-2.558 1.73-4.208 0-1.622-.575-3.024-1.73-4.207C29.328.591 27.925 0 26.275 0zM33 14v8.538H10.22V35.67H33v8.538H10.22V71.42H33V80H2V14z"/></g></g></symbol><symbol id="h-Igrave" fill="currentColor" viewBox="0 0 100 100" aria-hidden="true"><g aria-label="C"><g aria-label="A" font-size="12.7" text-anchor="middle"><path d="M14.11 14v66H5.89V14zM-2.5 0l16 11h9L9.625 0z"/></g></g></symbol><symbol id="h-Iacute" fill="currentColor" viewBox="0 0 100 100" aria-hidden="true"><g aria-label="C"><g aria-label="A" font-size="12.7" text-anchor="middle"><path d="M5.89 14v66h8.22V14zM22.5 0l-16 11h-9L10.375 0z"/></g></g></symbol><symbol id="h-Icirc" fill="currentColor" viewBox="0 0 100 100" aria-hidden="true"><g aria-label="C"><g aria-label="A" font-size="12.7" text-anchor="middle"><path d="M5.89 14v66h8.22V14zM5.938 0L-4.937 11h9L10 5.725 15.937 11h9L14.063 0z"/></g></g></symbol><symbol id="h-Iuml" fill="currentColor" viewBox="0 0 100 100" aria-hidden="true"><g aria-label="C"><g aria-label="A" font-size="12.7" text-anchor="middle"><path d="M5.89 14v66h8.22V14zM2.309.02C.604.02-.828.61-1.982 1.793-3.137 2.975-3.712 4.378-3.712 6c0 1.65.575 3.052 1.73 4.207 1.154 1.182 2.586 1.773 4.29 1.773 1.65 0 3.05-.59 4.206-1.773C7.668 9.052 8.246 7.65 8.246 6c0-1.622-.578-3.025-1.732-4.207C5.359.611 3.958.02 2.309.02zm15.466 0c-1.704 0-3.134.59-4.289 1.773C12.332 2.975 11.754 4.378 11.754 6c0 1.65.578 3.052 1.732 4.207 1.155 1.182 2.585 1.773 4.29 1.773 1.65 0 3.052-.59 4.206-1.773 1.155-1.155 1.73-2.557 1.73-4.207 0-1.622-.575-3.025-1.73-4.207C20.828.611 19.425.02 17.775.02z"/></g></g></symbol><symbol id="h-ETH" fill="currentColor" viewBox="0 0 100 100" aria-hidden="true"><g aria-label="C"><path d="M5.328 14v28.89H2v8.22h3.328V80h6.035c10.324-.055 18.372-3.095 24.143-9.117 6.327-6.6 9.488-14.56 9.488-23.883 0-9.295-3.161-17.255-9.488-23.883-5.77-6.022-13.819-9.062-24.143-9.117zm8.219 8.703c6.538 0 11.9 2.173 16.082 6.518C34.34 34.143 36.695 40.07 36.695 47c0 6.957-2.354 12.884-7.066 17.78-4.183 4.372-9.544 6.558-16.082 6.558V51.109H26v-8.218H13.547z" font-size="12.7" text-anchor="middle" aria-label="A"/></g></symbol><symbol id="h-Ntilde" fill="currentColor" viewBox="0 0 100 100" aria-hidden="true"><g aria-label="C"><g aria-label="A" font-size="12.7" text-anchor="middle"><path d="M1 11.199l27.63 43.56V14h8.26v69.262L9.014 39.355V80H1zM14.443-.371c-.77 0-1.54.11-2.31.33-3.025.88-5.072 4.344-6.145 10.393h7.713c-.385-1.128-.578-2.034-.578-2.721 0-1.018.412-1.555 1.236-1.61h.166c.77 0 1.966.785 3.588 2.352 1.65 1.567 3.493 2.35 5.528 2.35.77 0 1.538-.11 2.308-.33 2.997-.88 5.018-4.344 6.063-10.393h-7.67c.357 1.182.535 2.13.535 2.846 0 1.072-.412 1.61-1.236 1.61v-.044c-.715 0-1.927-.796-3.631-2.39C18.305.426 16.45-.372 14.443-.372z"/></g></g></symbol><symbol id="h-Ograve" fill="currentColor" viewBox="0 0 100 100" aria-hidden="true"><g aria-label="C"><g aria-label="A" font-size="12.7" text-anchor="middle"><path d="M33.5 13.216q13.46 0 22.99 9.9 9.53 9.9 9.53 23.884t-9.53 23.884q-9.53 9.9-22.99 9.9-13.46 0-22.99-9.9Q.98 60.984.98 47t9.53-23.884q9.53-9.9 22.99-9.9zm0 8.622q-10.046 0-17.154 7.383-7.067 7.343-7.067 17.78 0 10.435 7.107 17.82 7.108 7.383 17.114 7.383 10.046 0 17.114-7.384 7.108-7.384 7.108-17.82t-7.108-17.779q-7.068-7.383-17.114-7.383zM33.125 0L46 11h-9L21 0z"/></g></g></symbol><symbol id="h-Oacute" fill="currentColor" viewBox="0 0 100 100" aria-hidden="true"><g aria-label="C"><g aria-label="A" font-size="12.7" text-anchor="middle"><path d="M33.5 13.216q13.46 0 22.99 9.9 9.53 9.9 9.53 23.884t-9.53 23.884q-9.53 9.9-22.99 9.9-13.46 0-22.99-9.9Q.98 60.984.98 47t9.53-23.884q9.53-9.9 22.99-9.9zm0 8.622q-10.046 0-17.154 7.383-7.067 7.343-7.067 17.78 0 10.435 7.107 17.82 7.108 7.383 17.114 7.383 10.046 0 17.114-7.384 7.108-7.384 7.108-17.82t-7.108-17.779q-7.068-7.383-17.114-7.383zM33.875 0L21 11h9L46 0z"/></g></g></symbol><symbol id="h-Ocirc" fill="currentColor" viewBox="0 0 100 100" aria-hidden="true"><g aria-label="C"><g aria-label="A" font-size="12.7" text-anchor="middle"><path d="M33.5 13.216q13.46 0 22.99 9.9 9.53 9.9 9.53 23.884t-9.53 23.884q-9.53 9.9-22.99 9.9-13.46 0-22.99-9.9Q.98 60.984.98 47t9.53-23.884q9.53-9.9 22.99-9.9zm0 8.622q-10.046 0-17.154 7.383-7.067 7.343-7.067 17.78 0 10.435 7.107 17.82 7.108 7.383 17.114 7.383 10.046 0 17.114-7.384 7.108-7.384 7.108-17.82t-7.108-17.779q-7.068-7.383-17.114-7.383zM29.437 0L16.562 11h9L33.5 5.725 41.437 11h9L37.562 0z"/></g></g></symbol><symbol id="h-Otilde" fill="currentColor" viewBox="0 0 100 100" aria-hidden="true"><g aria-label="C"><g aria-label="A" font-size="12.7" text-anchor="middle"><path d="M33.5 13.216q13.46 0 22.99 9.9 9.53 9.9 9.53 23.884t-9.53 23.884q-9.53 9.9-22.99 9.9-13.46 0-22.99-9.9Q.98 60.984.98 47t9.53-23.884q9.53-9.9 22.99-9.9zm0 8.622q-10.046 0-17.154 7.383-7.067 7.343-7.067 17.78 0 10.435 7.107 17.82 7.108 7.383 17.114 7.383 10.046 0 17.114-7.384 7.108-7.384 7.108-17.82t-7.108-17.779q-7.068-7.383-17.114-7.383zM28.943-.371c-.77 0-1.54.11-2.31.33-3.025.88-5.072 4.344-6.145 10.393h7.713c-.385-1.128-.578-2.034-.578-2.721 0-1.018.412-1.555 1.236-1.61h.166c.77 0 1.966.785 3.588 2.352 1.65 1.567 3.493 2.35 5.528 2.35.77 0 1.538-.11 2.308-.33 2.997-.88 5.018-4.344 6.063-10.393h-7.67c.357 1.182.535 2.13.535 2.846 0 1.072-.412 1.61-1.236 1.61v-.044c-.715 0-1.927-.796-3.631-2.39C32.805.426 30.95-.372 28.943-.372z"/></g></g></symbol><symbol id="h-Ouml" fill="currentColor" viewBox="0 0 100 100" aria-hidden="true"><g aria-label="C"><g aria-label="A" font-size="12.7" text-anchor="middle"><path d="M33.5 13.216q13.46 0 22.99 9.9 9.53 9.9 9.53 23.884t-9.53 23.884q-9.53 9.9-22.99 9.9-13.46 0-22.99-9.9Q.98 60.984.98 47t9.53-23.884q9.53-9.9 22.99-9.9zm0 8.622q-10.046 0-17.154 7.383-7.067 7.343-7.067 17.78 0 10.435 7.107 17.82 7.108 7.383 17.114 7.383 10.046 0 17.114-7.384 7.108-7.384 7.108-17.82t-7.108-17.779q-7.068-7.383-17.114-7.383zM23.809.02c-1.705 0-3.137.59-4.291 1.773-1.155 1.182-1.73 2.585-1.73 4.207 0 1.65.575 3.052 1.73 4.207 1.154 1.182 2.586 1.773 4.29 1.773 1.65 0 3.05-.59 4.206-1.773C29.168 9.052 29.746 7.65 29.746 6c0-1.622-.578-3.025-1.732-4.207C26.859.611 25.458.02 23.809.02zm19.466 0c-1.704 0-3.134.59-4.289 1.773C37.832 2.975 37.254 4.378 37.254 6c0 1.65.578 3.052 1.732 4.207 1.155 1.182 2.585 1.773 4.29 1.773 1.65 0 3.052-.59 4.206-1.773 1.155-1.155 1.73-2.557 1.73-4.207 0-1.622-.575-3.025-1.73-4.207C46.328.611 44.925.02 43.275.02z"/></g></g></symbol><symbol id="h-times" fill="currentColor" viewBox="0 0 100 100" aria-hidden="true"><g aria-label="C"><g aria-label="A" font-size="32"><path d="M16.52 56.083L6.995 65.61.93 59.548l9.527-9.527L.93 40.452l6.063-6.062 9.527 9.568 9.568-9.568 5.98 6.104-9.527 9.527 9.527 9.527-5.98 6.062z" aria-label="&#xD7;" font-size="16.253" text-anchor="middle"/></g></g></symbol><symbol id="h-Oslash" fill="currentColor" viewBox="0 0 100 100" aria-hidden="true"><g aria-label="C"><path d="M39.086 1.42l-8.453 1.473c.126 1.061.199 2.125.199 3.14 0 3.014-.352 3.502-1.152 5.44-.232.56-.499 1.253-.764 2.052-7.027.952-13.164 4.146-18.406 9.592C4.157 29.717.98 37.677.98 47c0 9.322 3.177 17.285 9.53 23.885 4.97 5.163 10.746 8.296 17.32 9.42a25.91 25.91 0 00-.201 3.226c0 3.293.458 6.381 1.027 9.05L36.926 90c-.441-2.07-.758-4.373-.758-6.469 0-1.347.076-2.18.225-2.873 7.738-.642 14.438-3.894 20.097-9.773 6.353-6.6 9.53-14.563 9.53-23.885 0-9.322-3.177-17.283-9.53-23.883-5.203-5.405-11.285-8.594-18.246-9.572a25.13 25.13 0 001.127-7.512c0-1.595-.11-3.14-.285-4.613zm-2.91 20.559c5.553.578 10.366 2.989 14.437 7.242 4.739 4.895 7.108 10.822 7.108 17.779 0 6.957-2.37 12.898-7.108 17.82-3.33 3.48-7.16 5.723-11.484 6.743.148-1.079.242-2.255.242-3.532 0-4.736-1.25-8.123-2.05-10.06-.801-1.938-1.153-2.424-1.153-5.438s.352-3.502 1.152-5.44c.8-1.937 2.051-5.324 2.051-10.06 0-4.736-1.25-8.123-2.05-10.06-.758-1.832-1.109-2.395-1.145-4.994zm-8.528.548c.158 4.218 1.288 7.268 2.032 9.067.8 1.937 1.152 2.425 1.152 5.44 0 3.013-.352 3.501-1.152 5.439-.8 1.937-2.051 5.324-2.051 10.06 0 4.736 1.25 8.123 2.05 10.06.801 1.938 1.153 2.424 1.153 5.438 0 2.097-.176 2.975-.549 3.965-5.305-.677-9.939-3.064-13.896-7.176C11.648 59.898 9.279 53.957 9.279 47c0-6.957 2.355-12.884 7.067-17.78 3.293-3.421 7.062-5.65 11.302-6.693zm-4.285 8.739a5 5 0 00-5 5 5 5 0 005 5 5 5 0 005-5 5 5 0 00-5-5zm21.883 51.162a5 5 0 00-5 5 5 5 0 005 5 5 5 0 005-5 5 5 0 00-5-5z" font-size="12.7" text-anchor="middle" aria-label="A"/></g></symbol><symbol id="h-Amacron" fill="currentColor" viewBox="0 0 100 100" aria-hidden="true"><g aria-label="C"><g aria-label="A" font-size="32"><path d="M19.5 10.48L.5 64h8.51l.045-.201 5.134-13.147h10.618L29.99 64h8.51zm0 24.37l3.018 7.263h-6.04z" font-size="12.7" text-anchor="middle"/><path d="M0 71.334V80h39v-8.666z"/></g></g></symbol><symbol id="h-Emacron" fill="currentColor" viewBox="0 0 100 100" aria-hidden="true"><g aria-label="C"><g aria-label="A" font-size="32"><path d="M33 14v8.539H10.22v7.131H33v8.539H10.22V55.42H33V64H2V14z" font-size="12.7" text-anchor="middle"/><path d="M0 71.334V80h35v-8.666z"/></g></g></symbol><symbol id="h-Imacron" fill="currentColor" viewBox="0 0 100 100" aria-hidden="true"><g aria-label="C"><g aria-label="A" font-size="32"><path d="M10.11 14v50H1.89V14z" font-size="12.7" text-anchor="middle"/><path d="M0 71.334V80h12v-8.666z"/></g></g></symbol><symbol id="h-Omacron" fill="currentColor" viewBox="0 0 100 100" aria-hidden="true"><g aria-label="C"><path d="M27.495 13.137c-13.64 0-24.777 11.581-24.777 25.75 0 14.17 11.138 25.737 24.777 25.737 13.64 0 24.787-11.567 24.787-25.736 0-14.17-11.148-25.75-24.787-25.75zm0 8.639c9.14 0 16.469 7.616 16.469 17.112 0 9.495-7.328 17.098-16.469 17.098-9.14 0-16.459-7.603-16.459-17.098 0-9.496 7.318-17.112 16.459-17.112zM0 71.334V80h55v-8.666z" aria-label="A" font-size="32"/></g></symbol><symbol id="h-Umacron" fill="currentColor" viewBox="0 0 100 100" aria-hidden="true"><g aria-label="C"><g aria-label="A" font-size="32"><path d="M28.875 14h8.259v30.551c.18 10.669-6.491 20.04-18.067 20.048C7.49 64.606 1.15 53.65 1 42.159V14h8.26v28.159c.01 7.938 2.468 13.768 9.807 13.818 7.339.05 9.713-6.528 9.808-13.818z" font-size="12.7" text-anchor="middle"/><path d="M0 71.334V80h38v-8.666z"/></g></g></symbol><symbol id="h-euro" fill="currentColor" viewBox="0 0 100 100" aria-hidden="true"><g aria-label="C"><path d="M5.581 35.67v-.734C6.605 21.135 16.464 13.68 29.007 13.51c6.49 0 12.607 2.9 18.353 8.702l-6.145 6.145c-4.07-4.041-8.138-6.062-12.208-6.062-8.433.4-14.621 5.111-14.723 12.64v.735H37v7.754H14.284v2.31H37v7.712l-22.716-.124v3.916c.03 4.011 1.461 7.43 4.289 10.259 2.887 2.86 6.365 4.29 10.434 4.29 4.07 0 7.534-1.444 10.394-4.331 1.787-1.788 3.203-4.386 4.248-7.795h8.867c-1.485 6.186-3.795 10.86-6.929 14.022-4.564 4.564-10.09 6.847-16.58 6.847-6.461 0-11.988-2.283-16.58-6.847-4.163-5.081-6.738-11.45-6.846-16.338v-3.9H1v-7.712h4.581v-2.31H1V35.67z" font-size="22.348" text-anchor="middle" aria-label="A"/></g></symbol><symbol id="h-bug" fill="currentColor" viewBox="0 0 100 100" aria-hidden="true"><g aria-label="C"><path d="M33.506.5c-8.623.002-15.664 7.054-15.663 15.677 0 6.715 4.266 12.468 10.232 14.688.11.073.15.113.197.162-.135.12-.703.526-1.904.903-3.181 1.001-5.198 3.002-6.008 6.009-.225.836-.352 1.066-.452 1.144-.099.079-.528.212-1.571.366-1.453.215-3.166.889-4.268 1.723l-.69.53c-.953-1.346-1.463-2.518-1.066-3.49.487-1.193 1.715-2.35 2.773-3.38h-.012a31.666 31.666 0 002.646-2.868c.72-.896 1.238-1.613 1.477-2.337.34-1.03.36-2.398.264-3.628-.047-.615-.127-1.179-.264-1.655a2.414 2.414 0 00-.291-.673c-.145-.227-.448-.579-.964-.574h-.012s-.177.021-.23.036a1.11 1.11 0 00-.127.043 2.016 2.016 0 00-.307.187 7.764 7.764 0 00-.384.308c-.297.25-.69.596-1.16 1.023-.94.854-2.18 2.025-3.509 3.312-4.435 4.295-6.962 7.666-7.492 10.992-.53 3.325 1.12 6.338 4.437 9.472 1.199 1.132 1.734 1.745 1.903 2.192.17.447.121.985-.153 2.263l-.028.101c-.815-.673-1.608-1.417-2.5-1.784-1.307-.537-2.814-.547-4.249.274H4.12v.009c-1.389.82-2.33 2.16-2.74 4.157-.408 1.997-.407 4.692-.153 8.652.158 2.46.256 3.808.46 4.703.104.448.225.838.554 1.16.33.324.811.41 1.111.41 1.192 0 2.107-.838 2.705-1.861.598-1.023.934-2.325.853-3.67-.17-2.845-.23-4.51-.162-5.418.035-.455.105-.706.153-.81.049-.106.043-.098.145-.163.082-.053.059-.025.027-.025-.03 0-.013-.02.12.058.26.157.835.676 1.713 1.606.855.905 1.341 1.514 1.596 1.987.255.473.324.814.326 1.427 0 1.035.146 2.91.316 4.317l.178 1.51h-.768c-2.55 0-4.563 1.998-4.933 4.182-.394 2.329.662 5.24 2.502 8.45 1.84 3.208 4.536 6.679 7.697 9.846.845.847 1.648 1.655 2.303 2.263.327.303.617.552.872.75.127.098.24.189.374.266.134.077.248.178.615.178.505 0 .786-.163 1.151-.35a6.449 6.449 0 001.093-.709c.493-.399.888-.883 1.068-1.468.18-.584.1-1.223-.147-1.8-.495-1.152-1.573-2.205-3.251-3.508h-.012c-.225-.173-1.16-1.082-2.167-2.217-1.008-1.136-2.17-2.546-3.125-3.902-.956-1.356-1.698-2.696-1.895-3.473-.098-.388-.03-.564-.043-.546-.012.018-.035-.041.375-.043.54 0 .606.002.906.273.3.27.783.94 1.535 2.177 2.649 4.36 6.512 8.321 10.13 10.283 2.82 1.53 3.66 1.725 7.902 1.725 4.241 0 5.09-.196 7.912-1.725 3.594-1.95 7.466-5.908 10.172-10.292.736-1.193 1.221-1.862 1.535-2.15.215-.197.391-.175.58-.196.16.147.345.288.402.46.086.257.095.599-.011 1.041-.208.886-.894 2.086-1.793 3.27-1.8 2.369-4.436 4.741-5.42 5.52-1.28 1.007-2.069 1.668-2.594 2.322-.524.653-.726 1.43-.648 2.1.13 1.105.865 2.041 1.87 2.603.317.177.585.326.912.433.327.108.748.142 1.118.028.74-.23 1.173-.73 2.007-1.529 3.294-3.156 7.916-9.246 9.669-12.8 1.598-3.24 2.34-5.74 1.996-7.765-.173-1.012-.663-1.9-1.434-2.518-.771-.618-1.771-.975-2.951-1.145a6.516 6.516 0 01-1.197-.282c.04-.269.066-.452.138-.964.112-.798.26-1.834.408-2.917.248-1.808.423-2.776.691-3.423.269-.648.645-1.095 1.511-1.987.758-.782 1.264-1.208 1.477-1.323a.237.237 0 00.078-.059c.012.013.015.028.05.05.096.06.088.047.135.153.049.107.12.364.154.82.067.913.012 2.576-.163 5.41-.08 1.344.25 2.646.847 3.669.598 1.023 1.522 1.86 2.714 1.86.298 0 .76-.087 1.09-.401.331-.314.462-.69.565-1.125.206-.869.3-2.16.452-4.507.189-2.906.238-6.202.068-7.647-.37-3.14-2.267-5.609-4.974-6.117l-.045-.009h-.034c-1.475-.134-2.572.31-3.362.921-.465.36-.885.728-1.298 1.1-.058-.273-.12-.496-.17-.827-.082-.548-.14-.94-.146-1.194 0-.253.018-.35.085-.488.135-.274.677-.813 1.913-1.894 3.326-2.91 4.977-5.901 4.461-9.233-.515-3.331-3.005-6.761-7.363-11.025a170.42 170.42 0 00-3.576-3.414c-.48-.44-.883-.802-1.186-1.06-.151-.128-.27-.23-.384-.315-.056-.043-.11-.085-.18-.127a1.023 1.023 0 00-.264-.113 2.29 2.29 0 00-.24-.034c-.516-.002-.82.347-.964.574-.145.227-.22.435-.289.673-.137.477-.216 1.049-.264 1.664-.096 1.23-.076 2.589.264 3.62.239.723.758 1.44 1.477 2.336a31.513 31.513 0 002.637 2.868c1.309 1.264 2.134 2.143 2.62 2.809.479.658.62 1.07.69 1.587.045.857-.09 1.255-.368 1.655-.187.27-.618.647-.998.998l-.973-.734c-1.077-.816-2.787-1.485-4.222-1.698-1.043-.154-1.481-.29-1.58-.368-.1-.078-.218-.305-.443-1.142-.81-3.006-2.827-5.008-6.009-6.008-1.207-.38-1.774-.792-1.903-.906.05-.052.08-.09.203-.171 5.951-2.229 10.208-7.973 10.208-14.677C49.167 7.554 42.117.503 33.495.5zm0 5.692a9.939 9.939 0 019.984 9.985 9.934 9.934 0 01-9.984 9.978 9.926 9.926 0 01-9.976-9.978 9.931 9.931 0 019.976-9.985zm.011 29.81c2.836.006 4.865.356 6.06.948 1.03.51 1.278 1.183 1.382 2.064-.16.03-.188.05-.494.076-1.162.099-3.367.129-7.187.129h-7.476l.138-.332c.462-1.133 1.034-1.75 2.158-2.21 1.124-.46 2.86-.682 5.42-.676zm0 8.516c6.043 0 9.34.021 11.288.145 1.947.123 2.437.306 3.26.718.868.434 1.962 1.517 2.109 1.827.235.495.616 2.263.793 3.958.176 1.695.158 3.51.035 4.003-.09.364-.491.836-1.614 1.348-1.123.511-2.87 1.003-5.281 1.459-2.26.427-6.259.67-10.983.64-5.33-.031-9.607-.423-12.563-1.101-1.478-.339-2.625-.753-3.38-1.185-.755-.433-1.064-.847-1.142-1.161-.15-.596-.16-2.386.042-4.071.201-1.686.621-3.417.915-3.985.344-.665.624-1.074 1.032-1.382.407-.308 1.005-.56 2.09-.752 2.17-.384 6.133-.46 13.397-.46zM50.714 62.43c0 .032 0 .038-.012.07-.095.693-.291 1.705-.555 2.85-.528 2.289-1.324 5.127-2.064 7.169-2.175 6.004-5.498 10.121-9.85 12.364-.424.22-.859.415-1.227.565a40.062 40.062 0 01-.095-2.398c-.03-2.085.011-4.89.085-7.706.077-2.817.197-5.641.341-7.784.072-1.07.142-1.98.221-2.603.027-.2.054-.31.077-.445 4.303-.434 8.952-.754 13.076-2.082zm-33.616.138c4.053.813 8.162 1.682 12.271 1.944.018.11.036.184.052.334.069.577.135 1.422.206 2.457.141 2.071.274 4.906.366 8.022.091 3.101.173 5.401.187 7.059.013 1.653-.053 2.687-.16 3.122-.193-.072-.624-.273-1.308-.639-3.98-2.126-7.311-6.096-9.496-11.436-.476-1.161-1.137-4.172-1.579-6.819a64.593 64.593 0 01-.496-3.497c-.027-.23-.026-.363-.043-.547z" aria-label="A" font-size="32"/></g></symbol><symbol id="h-hand" fill="currentColor" viewBox="0 0 100 100" aria-hidden="true"><g aria-label="C"><path d="M18.023 81c-5.431-.106-10.03-.307-10.218-.447-1.29-2.624 1.33-3.794 2.712-3.636 1.96.23 22.514-.38 26.041-.773 1.49-.166-3.98-.209-12.913-.102-15.902.19-18.518.043-20.56-1.163-1.072-.633-1.117-1.673-.105-2.43 1.112-.832 5.391-1.138 21.12-1.509 7.604-.18 14.133-.432 14.51-.562 2.284-.789-.394-.89-17.181-.653-14.016.198-18.017.16-18.571-.18-1.002-1.183-.577-2.235.025-3.691.452-.512 6.935-.908 25.32-1.549 10.058-.35 11.903-.557 11.283-1.265-.262-.3-12.778-.35-26.476-.105-8.706.156-9.843.112-10.863-.416-1.831-.947-1.41-2.663.836-3.395.766-.25 6.55-.51 15.648-.701 7.938-.168 16.354-.13 18.654-.506 2.128-.348 8.572.56 5.875-2.73-1.944-2.354-5.125-2.63-12.982-1.123-5.746 1.1-8.734 1.075-11.052-.096-2.311-1.168-1.988-1.642 2.932-4.297 6.69-3.612 10.524-5.142 15.564-4.34 10.076 1.602 19.074 8.9 28.06 10 6.554.774 51.656-.21 52.475-1.145 3.456-10.411 2.684-32.304 6.975-40.877 3.307-.224 12.154-2.568 13.335 1.151-.714 9.912 2.562 51.965-1.712 52.646-21.132 6.814-62.811-9.698-79.573 5.902-3.622 3.371-8.103 5.902-13.572 7.487-3.181.922-3.69.932-25.587.505z" aria-label="A" font-size="32"/></g></symbol><symbol id="h-ankh" fill="currentColor" viewBox="0 0 100 100" aria-hidden="true"><g aria-label="C"><path d="M14.775 4.872c-1.673 1.744-2.993 4.204-3.545 7.512-.552 3.307-.327 7.353.883 12.22v.009c2.097 8.286 6.647 14.613 10.704 20.367L1.762 43.807c-.46-.021-.781.777-.613 1.519a16.179 16.179 0 010 7.475c-.168.742.154 1.54.613 1.519l22.172-1.239-1.552 41.235c-.027.72.342 1.293.751 1.166 3.001-.931 5.463-.628 7.766 0 .403.113.763-.448.741-1.156l-1.347-41.235 19.945 1.229c.457.018.777-.78.61-1.519-.593-2.568-.676-4.947-.01-7.42.197-.748-.126-1.597-.6-1.574L31.3 44.98c3.66-5.973 8.288-11.864 10.098-21.316.985-5.198 1.087-9.328.495-12.602-.593-3.273-1.888-5.597-3.49-7.149C35.202.81 30.76.5 26.836.5c-3.924 0-8.713.883-12.06 4.372zm11.866 3.055a8.348 8.348 0 015.513 2.052c1.58 1.368 2.754 3.36 3.255 5.986.501 2.625.36 5.99-.913 10.262-1.206 4.048-3.645 8.983-7.234 14.493-3.8-5.478-6.415-10.388-7.772-14.437-1.43-4.266-1.693-7.647-1.288-10.262.404-2.616 1.492-4.595 3.014-5.977a8.147 8.147 0 015.425-2.117z" fill-rule="evenodd" aria-label="A" font-size="32"/></g></symbol><symbol id="h-eye" fill="currentColor" viewBox="0 0 100 100" aria-hidden="true"><g aria-label="C"><path d="M93.433 2.559c-27.883.444-51.745 16.995-80.496 15.55-5.732-.288-10.687.735-11.014.988-1.771 1.369-.68 7.486 1.309 7.72 31.096 3.669 55.404-12.506 89.406-15.045 10.185-.61 33.703 5.658 41.676 10.372-2.985 6.64-1.832 14.965-2.66 22.141-17.214-9.952-15.714-21.847-41.358-19.257-10.874 1.766-24.358 10.327-36.402 13.407l-50.084.443-.277.98c-.153.539-.28 2.464-.283 4.279l-.006 3.3 2.787.33c15.02 1.41 30.38-.851 45.44-.201 11.84 2.802 20.273 4.704 31.241 7.581.416.397-1.248 1.52-12.847 8.666-2.105 1.292-52.377 35.517-62.26 17.279-1.058-2.323 2.692-2.952 4.129 2.526 10.064 5.328 12.537-10.86-.494-12.67-5.245-.728-9.671 5.136-8.73 10.46 1.836 10.399 20.134 9.874 28.71 7.573 18.652-4.661 40.49-15.615 58.385-29.284 1.513-1.156 2.865-1.925 3.006-1.71 4.286 7.938-.64 24.123 5.469 33.465.603.874 1.181 1.1 2.806 1.1 2.805 0 3.174-.924 3.174-7.963 0-7.206.704-12.455 2.277-16.971l1.254-3.598-1.07-3.493c-.589-1.922-.893-3.652-.676-3.842.309-.271 29.895-6.424 30.889-6.424.133 0-.093-.878-.504-1.953-3.361-9.433 3.054-18.922 2.727-28.374-.09-2.577.502-3.96-1.963-5.492-11.78-7.322-30.944-12.085-43.56-11.883zm-10.916 32.47a15.084 14.306 0 00-.863 4.73 15.084 14.306 0 004.777 10.43c-18.294-5.085-32.95-7.945-5.568-14.868zm28.531.211c.286.097.645.244 1.155.495 1.238.608 5.777 4.842 10.21 9.524 2.42 2.557 1.975 2.15-1.507 2.447-4.926.47-9.243 1.332-13.639 2.271a15.084 14.306 0 004.555-10.217 15.084 14.306 0 00-.774-4.52z" aria-label="A" font-size="32"/></g></symbol><symbol id="h-hathor" fill="currentColor" viewBox="0 0 100 100" aria-hidden="true"><g aria-label="C"><path d="M-8.393 5c-.72.007-1.287.062-1.709.208-.211.073-.417.157-.555.404a.66.66 0 00-.069.435c.03.142.1.25.177.34.431.504 1.084.627 1.808.697.725.07 1.578.08 2.552.211 1.95.263 4.376.98 7.075 3.6 3.021 2.932 3.62 6.852 3.586 10.891-.034 4.039-.73 8.134-.152 11.348 1.616 8.986 4.738 14.122 10.486 19.258 1.966 1.757 4.432 3.156 6.666 4.57 3.276 2.242 6.617 4.101 9.973 5.866.84 4.526 1.423 8.86 1.414 12.748-5.1-.065-10.272-.734-15.516-2.019v12.89c5.522-1.119 10.84-1.967 15.516-1.963.004 4.676-.843 9.993-1.962 15.516h12.888c-1.284-5.244-1.953-10.416-2.018-15.516 4.69-.012 10.028.84 15.572 1.963v-12.89c-5.263 1.29-10.454 1.959-15.573 2.02.05-4.197.51-8.44 1.384-12.734l.026-.015h.002a523.365 523.365 0 0010.348-5.85c2.234-1.415 4.7-2.813 6.666-4.57 5.749-5.136 8.873-10.273 10.488-19.259.578-3.214-.12-7.306-.153-11.345-.034-4.039.564-7.96 3.585-10.892 2.699-2.62 5.128-3.336 7.077-3.599.975-.13 1.828-.143 2.552-.213.725-.07 1.375-.191 1.806-.696a.723.723 0 00.19-.49.682.682 0 00-.244-.483c-.241-.204-.514-.264-.859-.322-.69-.118-1.677-.125-2.852-.03-2.351.188-5.418.797-7.932 1.954-2.581 1.189-4.684 3.751-6.153 6.51-1.47 2.76-2.312 5.712-2.256 7.83.051 2.029-.095 4.636-.087 7.055 0 7.394-2.677 13.668-8.075 18.915-3.686 3.562-7.874 5.9-12.584 7.04l-.032.01c-2.42.801-5.055 1.832-7.151 3.924-2.099-2.108-4.746-3.135-7.174-3.939a3.822 3.822 0 01-.035-.01c-4.709-1.14-8.897-3.478-12.582-7.04l-.002-.001c-5.397-5.247-8.074-11.52-8.074-18.915.008-2.419-.14-5.025-.088-7.054v-.002c.056-2.117-.786-5.069-2.256-7.827-1.469-2.76-3.57-5.322-6.15-6.51-3.144-1.447-7.143-2.043-9.544-2.018zm45.408 2.988c-5.866 0-10.874 2.052-15.025 6.156-4.127 4.08-6.19 8.938-6.19 14.572 0 5.658 2.063 10.492 6.19 14.503 4.15 4.01 9.159 6.016 15.025 6.016 5.889 0 10.92-2.005 15.094-6.016 4.196-4.011 6.294-8.845 6.294-14.503 0-5.634-2.098-10.491-6.294-14.572-4.174-4.104-9.205-6.156-15.094-6.156zm.005 6.288c3.992 0 7.422 1.413 10.292 4.24 2.87 2.804 4.304 6.202 4.304 10.194 0 3.992-1.434 7.369-4.304 10.13-2.848 2.762-6.279 4.143-10.292 4.143-3.991 0-7.4-1.37-10.227-4.11-2.805-2.762-4.208-6.15-4.208-10.163 0-3.992 1.403-7.39 4.208-10.195 2.827-2.826 6.236-4.239 10.227-4.239zm.082 8.54a5.795 5.795 0 00-5.794 5.795 5.795 5.795 0 005.794 5.796 5.795 5.795 0 005.795-5.796 5.795 5.795 0 00-5.795-5.795z" font-size="50.8" text-anchor="middle" aria-label="A"/></g></symbol><symbol id="h-female-" fill="currentColor" viewBox="0 0 100 100" aria-hidden="true"><g aria-label="C"><path d="M29.296 1.244c-3.321.932-5.876 4.803-6.997 7.975-.138.39-.116.823-.024 1.208.07.29.25.497.428.7-.082.508-.298 1.308-.63 2.209-.352.957-.803 1.999-1.263 2.879-.84 1.607-1.274 2.39-1.412 3.112-.148.859.28 1.29.743 1.733.38.184.623.48.769.938.146.459.178 1.108.217 2.13.039 1.023.61 1.888 1.504 2.311.894.423 2.125.463 3.743.17.716-.13 1.436-.298 1.813-.395.315-.082.24.17.24.198.004.11-.065.275-1.384 5.903-1.319 5.628-3.71 16.923-2.314 28.745-3.535-3.988-6.608-9.086-10.69-12.587-3.46-2.962-10.714-3.409-12.255.814-2.969 8.134 4.323 17.631 8.643 24.189 2.993 4.52 5.335 9.542 5.83 10.696 1.033 2.03-.01 3.404-1.267 4.672-1.136 1.146-.003.003-.004.004-.002.004.467-.62-.006.012-1.159 1.307-2.362 2.458-3.446 3.753-.824 1.16-.877 1.982.26 2.71.384.121.903.179 1.595.177l32.686-.093c2.353.043 2.628-.841 1.655-2.629-.314-.532-.715-1.178-1.142-1.977l-.004-.006c-1.725-2.983-1.919-6.302-1.092-9.174 1.564-5.431 1.654-11.716 1.55-18.286-.101-6.487-.36-13.258.4-19.808 2.612.324 3.767.283 4.156-2.89.98-7.982-.557-16.996-1.962-25.405-1.153-6.563-3.631-11.765-7.499-13.05-4.676-1.552-7.72-2.374-12.84-.938zM25.4 13.116c2.183.096 5.587.11 7.627.466.235 1.79-.7 3.847.808 4.913.163.115.215.25.241.49.262 3.966.178 8.377.142 11.691-.032 2.903-.912 6.066-1.167 8.558-.128 1.246-.26 2.504.347 3.188 1.817 2.049 6.196 1.596 6.932-.908.958-3.262-.917-7.236-.024-10.096.519-1.546 2.193-.104 2.429.857 1.358 5.529.842 12.046.649 16.808-.454 11.175.648 19.4-1.352 29.395-.811 4.05-2.084 9.36.019 12.713-8.041.765-16.432.108-24.604.34.893-1.12 1.8-2.385 2.516-3.507 1.07-1.495.66-2.655.138-4.116-.453-1.15-1.13-2.603-1.951-4.249-2.73-5.536-5.632-10.48-8.554-15.044-1.143-1.79-2.433-3.938-3.4-6.028-.965-2.09-1.582-4.123-1.472-5.568.055-.722.269-1.327.744-1.83.475-.503 1.216-.878 2.279-1.045 1.644-.259 2.987.22 4.83 1.968 1.842 1.748 4.17 4.776 7.712 9.573 3.235 4.382 5.07 6.631 6.533 7.305 2.924 1.347 3.214-1.082 2.658-3.225-.167-.642-.398-1.88-.554-3.623-.859-10.192.024-21.838 2.147-30.327v-.006c.473-1.887 1.093-4.55.777-6.646-.158-1.048-.581-1.935-1.339-2.38-.757-.445-1.834-.485-3.045.037-1.211.522-2.085.98-2.923.623-.652-.277-.344-1.438-.345-1.946 0-.675-.058-1.32-.156-1.84-.097-.52-.215-.955-.468-1.111-.202-.104.104-.344.126-.418.202-.243.406-.68.618-1.22.487-1.275.739-2.433 1.082-3.792zm12.586 1.078c.145 1.547-.39 4.635-1.703 3.589-1.495-1.191-.616-3.44.483-4.253.602-.446 1.152-.06 1.22.664z" aria-label="A" font-size="32"/></g></symbol><symbol id="h-coffin" fill="currentColor" viewBox="0 0 100 100" aria-hidden="true"><g aria-label="C"><path d="M18.5 2.178c.207 0 .368 1.04.368 2.387s-.16 2.39-.368 2.39c-.207 0-.368-1.043-.368-2.39 0-1.346.16-2.387.368-2.387zm-1.502.08c.291-.02.4.618.4 2.278 0 2.707-.7 3.378-.797.765-.033-.909-.076-1.928-.093-2.265-.017-.337.178-.68.43-.765a.258.258 0 01.06-.013zm2.975 0a.22.22 0 01.089.013c.252.085.447.428.43.765-.017.337-.06 1.356-.093 2.265-.097 2.613-.797 1.942-.797-.765 0-1.605.101-2.254.37-2.278zm-5.175.656h.006c.184 0 .45.917.59 2.037.238 1.895.02 3.125-.346 1.963-.376-1.195-.547-3.957-.25-4zm7.378.036c.166-.022.26.629.12 1.892-.118 1.06-.359 2.085-.535 2.276-.385.42-.406-.172-.087-2.5.152-1.104.355-1.649.502-1.668zm1.73.755c.072-.016.087.144.077.495-.01.404-.163 1.065-.337 1.469-.289.673-.318.657-.337-.184-.01-.505.141-1.166.337-1.47.124-.191.208-.298.26-.31zm-10.716.027c.094-.001.23.234.366.775.13.52.163 1.16.073 1.421-.09.261-.289-.074-.44-.745-.196-.874-.147-1.45 0-1.451zm-1.662 1.236c.15-.005.352.138.544.4.363.495.376.73.055.935-.235.15-.841.255-1.346.234-.83-.034-.811-.062.184-.279.743-.161.95-.334.636-.532-.256-.16-.363-.456-.24-.656.041-.065.099-.1.167-.102zm13.944 0a.199.199 0 01.166.102c.124.2.017.495-.24.656-.313.198-.106.37.637.532.995.217 1.013.245.184.28-1.399.057-1.874-.374-1.29-1.17.191-.262.393-.404.543-.4zM18.5 8.646c4.173 0 6.837.695 6.837 1.787 0 .537-.277.616-1.099.318-.604-.22-3.186-.397-5.738-.397-2.552 0-5.134.178-5.738.397-.822.298-1.1.219-1.1-.318 0-1.092 2.665-1.787 6.838-1.787zm-.002 2.527c2.802 0 5.605.395 6.055 1.18.102.178.003 1.822-.222 3.655-.435 3.543-1.692 6.584-2.997 7.252-2.868 1.469-5.773.672-7.237-1.982-.922-1.671-2.117-8.119-1.655-8.925.45-.785 3.253-1.18 6.056-1.18zm7.623 2.431c.079-.009.152.231.277.698.15.561-.009 1.658-.353 2.438-.614 1.39-.628 1.395-.62.2.006-.67.165-1.767.354-2.438.169-.594.259-.888.342-.898zm-15.183.239c.145-.016.277.463.462 1.546.199 1.158.254 2.21.124 2.34-.463.463-1.18-2.513-.837-3.471.094-.263.175-.407.25-.415zm5.387 11.242c.008-.001.017.008.026.03.43 1.25.548 1.917 1.388 2.974.84 1.058.775 1.588.057 1.328-.94-.34-.94-.333 0 .736.84.956.85 1.044.094.769-1.477-.332-.363 1.095-.366 1.1.27 0 .487.23.487.515 0 .284-.275.358-.61.162-.336-.197-.172.669.365 1.297.852.996.869 1.345.124 1.073-1.057-.385-1.083.409-.089 1.402.423.422.561.769.307.769-.254 0-.463 1.007-.463 1.678 0 1.344.356 1.523 1.247.633.771-.77.752-1.52-.027-1.066-.335.197-.19-.58.322-1.163.666-.76.742-1.06.268-1.06-.515 0-.533-.69-.077-1.146.771-.77.755-1.76-.023-1.32-.489.275-.489-.3 0-.827.335-.361.61-.844.61-1.074 0-.23-.275-.263-.61-.074-.489.276-.489-.256 0-.782.335-.36.61-.844.61-1.074 0-.23-.275-.266-.61-.077-.489.276-.489.214 0-.312.335-.361.61-1.307.61-1.538 0-.212-.234-.254-.534-.106.64-.951.822-1.755 1.223-2.817.155-.336.15 3.173-.012 6.662-.16 3.489-.39 8.283-.512 8.484-.122.201-.856.365-1.63.365-.774 0-1.506-.164-1.624-.365-.118-.201-.346-4.995-.507-8.484-.15-3.27-.168-6.672-.044-6.692zM4.433 15.604c-.146 3.34-.03 4.977.395 5.488.434.523 1.729.751 4.574.81l3.97.083c.517.894 1.081 1.769 2.199 2.473v15.679h-1.344c-4.61-2.207-5.741-7.644-5.971-11.725l-.257-4.873-2.033-1.063-2.034-1.06-.999 2.32c-2.824 6.56-2.727 10.06.63 22.726 2.016 7.6 3.314 19.361 4.469 40.47.303 5.537.388 5.891 1.694 7.196L11.1 95.5h14.8l1.374-1.372c1.306-1.305 1.391-1.659 1.694-7.196 1.155-21.108 2.453-32.87 4.468-40.47 3.358-12.667 3.455-16.166.63-22.725l-.998-2.32-2.034 1.06-2.033 1.062-.257 4.873c-.047 3.615-2.065 11.367-5.97 11.722l-1.345.003v-15.68c.952-.384 1.715-1.326 2.199-2.472l3.97-.083c2.845-.059 4.14-.287 4.574-.81.424-.51.541-2.148.395-5.488C32.195 6.668 28.493.5 18.74.5 8.988.5 4.792 8.698 4.433 15.604z" aria-label="A" font-size="32"/></g></symbol><symbol id="h-funeral" fill="currentColor" viewBox="0 0 100 100" aria-hidden="true"><g aria-label="C"><path d="M16.792.5c-1.044 4.7-8.42 17.846-3.857 21.684L9.779 42.259c-.678.311-1.318.658-1.869 1.014-3.68 2.38-6.15 6.543-6.812 11.474-.244 1.826-.094 7.254.263 9.561.526 3.392 1.671 7.51 3.064 11.004 1.626 4.078 2.51 5.828 7.315 14.52l3.132 5.668h18.283l2.886-5.17c6.018-10.789 8.295-15.924 9.842-22.197.905-3.668 1.133-5.641 1.139-9.866.004-4.217-.226-5.668-1.295-8.139-1.616-3.739-3.952-6.238-7.394-7.815l-3.265-20.096C39.392 14.235 33.61 7.063 31.274.5l-3.62 10.133c-2.928-1.52-4.31-1.024-7.239 0zm2.697 17.737h.084c.666.002 1.122.29 1.639 1.113.162.678-1.34 1.07-1.838 1.208-.498.136-2.254.218-2.717-.143.29-.664 1.029-1.55 1.787-1.938a.963.963 0 00-.252.658c0 .514.388.93.868.93s.868-.416.868-.93a.928.928 0 00-.587-.88c.046-.004.103-.017.148-.018zm8.361 0h.061c.064 0 .145.018.212.023a.935.935 0 00-.569.875c0 .514.39.93.87.93s.869-.416.869-.93a.963.963 0 00-.253-.658c.758.388 1.495 1.274 1.785 1.937-.463.361-2.216.28-2.714.143-.498-.136-2.001-.53-1.839-1.207.5-.798.945-1.094 1.578-1.113zm-4.11 5.407c.737 0 2.075.253 2.075.253.353.066.472.855.182 1.21-.697.837-1.258 2.189-2.257 2.155-1-.034-1.62-1.288-2.252-2.155-.29-.355-.172-1.144.181-1.21 0 0 1.333-.253 2.07-.253zm-2.58 10.3H26.912l-.327.735c-.757 2.091-1.042 6.403-1.348 8.497-1.096.652-1.495.685-2.444 0-.01-.98-.754-6.996-1.256-8.277zm18.935 16.7a.992 1.723 0 01.917 1.062.992 1.723 0 01-.54 2.244c-1.43 1.027-4.01 1.553-7.115 2.017-3.105.464-6.602.73-9.357.73-2.75 0-6.401-.23-9.585-.679-1.591-.224-3.064-.505-4.263-.84-1.2-.335-2.048-.571-2.77-1.35a.992 1.723 0 01-.32-2.375.992 1.723 0 011.364-.556c.054.058.927.568 2.042.88 1.116.312 2.552.582 4.11.802 3.118.44 6.737.672 9.422.672 2.68 0 6.144-.26 9.186-.715 3.043-.455 5.798-1.236 6.531-1.762a.992 1.723 0 01.378-.13z" aria-label="A" font-size="32"/></g></symbol><symbol id="h-scribe" fill="currentColor" viewBox="0 0 100 100" aria-hidden="true"><g aria-label="C"><path d="M59.88.512c-3.578-.134-7.152.9-9.256 3.156-1.171 1.257-3 5.026-3.017 6.215-.007.425-.646 1.96-1.42 3.412-1.403 2.628-1.322 3.73.271 3.73.362 0 .709 1.066.899 2.759.17 1.516.39 3.014.488 3.328.243.775 3.34 1.583 6.082 1.586l2.254.002-.48 1.378c-.47 1.35-.58 1.386-4.893 1.698-2.426.175-5.546.542-6.932.814-2.906.572-2.808.47-10.232 10.738-2.67 3.694-5.046 6.92-5.28 7.168-.256.273-3.559-2.663-8.336-7.408-6.585-6.542-8.038-8.24-8.664-10.123-.85-2.561-4.813-6.664-6.437-6.664-1.252 0-1.24.687.043 2.488.98 1.376.983 1.412.064.838-1.979-1.236-3.919.915-4.076 4.52-.125 2.885 1.28 4.425 4.608 5.047 1.281.24 2.7.836 3.154 1.326.454.49 3.995 4.486 7.871 8.879 3.876 4.393 7.527 8.295 8.113 8.674 3.587 2.312 5.72 1.16 12.774-6.905 3.858-4.41 5.578-6.063 5.834-5.605.761 1.36 1.45 8.695 1.738 18.512.165 5.606.167 10.193.003 10.193-.162 0-2.3-1.612-4.752-3.582-7.731-6.214-13.238-8.19-17.162-6.158-2.14 1.108-2.87 2.613-2.867 5.902.005 3.296 1.063 5.619 4.248 9.332 1.348 1.572 2.449 2.976 2.445 3.12-.003.143-1.64 1.118-3.638 2.167-4.353 2.286-7.043 4.494-7.852 6.446-.413.998-1.13 1.612-2.346 2.005-4.76 1.544-5.994 4.8-2.228 5.881 1.114.32 68.895-.074 69.223-.402.402-.403-1.387-2.685-2.455-3.133-.58-.243-1.983-.676-3.12-.963-1.536-.388-2.862-1.313-5.173-3.613-3.137-3.122-4.177-3.563-6.053-2.559-.924.495-.98.433-.73-.838.147-.755 1.092-6.608 2.097-13.005 1.005-6.398 2.002-11.633 2.217-11.633.447 0 8.922 5.631 9.828 6.531.686.681 5.497 1.391 6.588.973.498-.192.726-.946.726-2.399 0-4.377-3.962-20.537-6.793-27.699-2.477-6.268-6.589-9.985-11.074-10.012-1.64-.01-1.798-.127-1.795-1.33.002-.756 1.218-3.335 2.854-6.049 4.3-7.132 4.868-11.528 1.92-14.886C67.04 1.948 63.457.647 59.88.512zm-1.006 2.016c3.249-.019 6.699 1.22 8.533 3.4 1.166 1.385 1.244 1.72 1.05 4.442-.237 3.303-1.603 6.806-3.376 8.658-1.504 1.57-2.439 1.558-4.248-.059l-1.449-1.295 1.4-1.594c2.639-3.004 2.22-6.154-.816-6.154-1.344 0-2.193 1.034-2.193 2.668 0 .62-.29.928-.872.928-.687 0-.936-.425-1.173-2.006l-.301-2.006c-2.108-.238-3.615-.138-5.295-1.148 0-1.16 2.142-3.65 4.062-4.725 1.331-.745 2.977-1.1 4.678-1.11zm11.701 41.26c.199-.077 1.639 3.071 3.237 7.082 1.623 4.073 2.809 7.39 2.636 7.37-.172-.019-1.608-1.013-3.191-2.21a228.234 228.234 0 00-3.752-2.793c-.84-.592-.842-.783-.053-4.864.452-2.336.955-4.397 1.115-4.58l.009-.006zM28.948 63.204c.987-.017 4.524 2.02 8.32 4.834 2.625 1.946 4.854 3.62 4.956 3.721.101.101-1.206.874-2.906 1.715l-3.092 1.53-4.461-3.64-4.461-3.638.63-2.14c.348-1.178.704-2.218.792-2.31.045-.047.12-.07.222-.072zm32.72 6.729l-.225 1.393c-.124.765-.427 3.163-.674 5.33-.377 3.241-.932 7.573-2.588 11.609h-32.5v-4.557l7-3.468c14.403-7.14 20.304-9.385 26.347-10.026z" aria-label="A" font-size="32"/></g></symbol></svg>