<?xml version="1.0" encoding="UTF-8"?><!DOCTYPE svg PUBLIC "-//W3C//DTD SVG 1.1//EN" "http://www.w3.org/Graphics/SVG/1.1/DTD/svg11.dtd"><svg xmlns="http://www.w3.org/2000/svg" xmlns:xlink="http://www.w3.org/1999/xlink" style="display:none"><symbol id="h-A" fill="currentColor" viewBox="0 0 100 100" aria-hidden="true"><g aria-label="C"><path d="M25 22.797l-6.975 32.845H32zM25.013 2L42.41 80h-5.346l-3.461-16.931H16.473L13.01 80H7.589z" aria-label="A" font-size="32"/></g></symbol><symbol id="h-B" fill="currentColor" viewBox="0 0 100 100" aria-hidden="true"><path d="M29.6 46.57v25.647h20.182q10.153 0 15.012-3.141 4.92-3.189 4.92-9.706 0-6.564-4.92-9.658-4.859-3.141-15.012-3.141zm0-28.787v21.098h18.625q9.219 0 13.704-2.578 4.547-2.626 4.547-7.97 0-5.299-4.547-7.924-4.485-2.626-13.704-2.626zM17.017 10H49.16q14.39 0 22.175 4.501 7.787 4.501 7.787 12.8 0 6.423-3.987 10.22-3.986 3.798-11.71 4.736 9.28 1.5 14.389 6.283 5.17 4.735 5.17 11.862 0 9.377-8.472 14.487Q66.04 80 50.405 80H17.017z" aria-label="B" font-size="32"/></symbol><symbol id="h-C" fill="currentColor" viewBox="0 0 100 100" aria-hidden="true"><path d="M33.918 10c-8.595 0-15.364 3.22-20.308 9.663-4.944 6.41-7.416 15.19-7.416 26.34 0 11.118 2.472 19.898 7.416 26.34 4.944 6.41 11.713 9.616 20.308 9.616 3.347 0 6.516-.558 9.508-1.673.129-.047.252-.113.38-.162V72c-.038.02-.075.045-.114.064-2.916 1.455-6.021 2.183-9.317 2.183-6.491 0-11.46-2.415-14.909-7.247-3.448-4.862-5.172-11.861-5.172-20.997 0-9.167 1.724-16.167 5.172-20.998 3.449-4.862 8.418-7.293 14.909-7.293 3.296 0 6.401.727 9.317 2.183.039.019.076.044.114.064V11.8c-.103-.038-.2-.09-.304-.128C40.51 10.557 37.316 10 33.918 10z" aria-label="C" font-size="32"/></symbol><symbol id="h-D" fill="currentColor" viewBox="0 0 100 100" aria-hidden="true"><g aria-label="C"><path d="M34.84 18.783v54.434h8.694q11.008 0 16.103-6.564 5.13-6.564 5.13-20.723 0-14.066-5.13-20.583-5.095-6.564-16.103-6.564zM27.645 11H42.43q15.462 0 22.695 8.486 7.232 8.44 7.232 26.444 0 18.097-7.268 26.584Q57.82 81 42.429 81H27.644z" aria-label="D" font-size="32"/></g></symbol></svg>