<?xml version="1.0" encoding="UTF-8"?><!DOCTYPE svg PUBLIC "-//W3C//DTD SVG 1.1//EN" "http://www.w3.org/Graphics/SVG/1.1/DTD/svg11.dtd"><svg xmlns="http://www.w3.org/2000/svg" xmlns:xlink="http://www.w3.org/1999/xlink" style="display:none"><symbol id="h-space" fill="currentColor" viewBox="0 0 100 100" aria-hidden="true"/><symbol id="h-exclam" fill="currentColor" viewBox="0 0 100 100" aria-hidden="true"><g aria-label="C"><path d="M1.231 17.115V64.34H9.77V17.115zm0 54.348V80H9.77v-8.537z" font-size="22.348" text-anchor="middle" aria-label="A"/></g></symbol><symbol id="h-quotedbl" fill="currentColor" viewBox="0 0 100 100" aria-hidden="true"><g aria-label="C"><path d="M.694 39V11.079h8.538V39zm13.074 0V11.079h8.538V39z" font-size="22.348" text-anchor="middle" aria-label="A"/></g></symbol><symbol id="h-numbersign" fill="currentColor" viewBox="0 0 100 100" aria-hidden="true"><g aria-label="C"><path d="M26.366 38.345h3.464l4.207-16.91h8.702l-4.206 16.91h11.713v8.538H36.388l-.907 3.629h14.765v8.537h-16.91L29.13 76h-8.702l4.207-16.95h-3.465L16.963 76H8.219l4.248-16.95H.754v-8.538h13.858l.907-3.63H.754v-8.537h16.91l4.207-16.91h8.702zm1.32 8.538H24.22l-.907 3.629h3.465z" font-size="22.348" text-anchor="middle" aria-label="A"/></g></symbol><symbol id="h-dollar" fill="currentColor" viewBox="0 0 100 100" aria-hidden="true"><g aria-label="C"><path d="M14.706 18.851v-4.825h7.588v4.825q4.908.907 8.661 4.248 4.083 3.63 5.238 10.517L27.45 36.42q-.701-6.021-2.846-7.918-1.072-.949-2.31-1.526V44.05q4.743 1.774 8.62 5.197 5.114 4.495 5.114 10.847 0 6.351-5.155 10.93-3.712 3.299-8.579 4.206v4.784h-7.588V75.23q-4.908-.907-8.661-4.248-4.083-3.63-5.238-10.517L9.55 57.66q.701 6.022 2.846 7.92 1.072.948 2.31 1.525V50.031q-4.743-1.774-8.62-5.197Q.972 40.338.972 33.987q0-6.351 5.114-10.888 3.753-3.34 8.62-4.248zm7.588 34.19v14.064q1.196-.536 2.227-1.443 2.557-2.269 2.557-5.568 0-3.217-2.474-5.444-.949-.825-2.31-1.609zM14.706 41.04V26.976q-1.196.536-2.269 1.485-2.516 2.227-2.516 5.526 0 3.217 2.475 5.444.949.825 2.31 1.609z" font-size="22.348" text-anchor="middle" aria-label="A"/></g></symbol><symbol id="h-percent" fill="currentColor" viewBox="0 0 100 100" aria-hidden="true"><g aria-label="C"><path d="M45.936 25.93L8.076 80l-7.012-4.867 37.82-54.028zm-33.86 1.857q4.701 0 8 3.34 3.341 3.3 3.341 8.001 0 4.702-3.34 8.043-3.3 3.3-8.001 3.3-4.702 0-8.043-3.3Q.734 43.83.734 39.128q0-4.701 3.3-8 3.34-3.341 8.042-3.341zm0 8.454q-1.196 0-2.062.866-.825.825-.825 2.021 0 1.238.825 2.104.866.825 2.062.825 1.196 0 2.062-.825.866-.866.866-2.104 0-1.196-.866-2.02-.866-.867-2.062-.867zm22.807 14.353q4.743 0 8.042 3.34 3.341 3.3 3.341 8.002 0 4.743-3.34 8.083-3.3 3.3-8.043 3.3-4.702 0-8.042-3.3-3.3-3.34-3.3-8.083 0-4.702 3.3-8.001 3.34-3.341 8.042-3.341zm0 8.455q-1.196 0-2.062.866-.825.825-.825 2.02 0 1.238.825 2.104.866.825 2.062.825 1.196 0 2.062-.825.866-.866.866-2.103 0-1.196-.866-2.021-.866-.866-2.062-.866z" font-size="22.348" text-anchor="middle" aria-label="A"/></g></symbol><symbol id="h-ampersand" fill="currentColor" viewBox="0 0 100 100" aria-hidden="true"><g aria-label="C"><path d="M43.786 47.887q3.836 2.227 5.032 6.516.412 1.485.412 2.887 0 2.763-1.443 5.238-2.227 3.918-7.26 5.403-.906 3.01-4.618 6.722-6.022 6.063-14.559 6.063-8.496 0-14.559-6.021Q.77 68.632.77 60.095q0-8.455 5.898-14.765 3.546-3.465 6.516-3.836Q6.79 35.06 6.79 28.668q0-6.31 4.496-10.847 4.536-4.537 10.93-4.537 6.392 0 10.928 4.496 2.558 2.474 4.29 7.877l-7.754 3.052q-1.402-3.794-2.557-4.95-2.02-1.979-4.908-1.979-2.846 0-4.867 2.021-2.02 1.98-2.02 4.867 0 2.928 2.103 5.196 2.145 2.269 3.918 2.97 1.815.7 7.341.742v8.207l-5.031.042q-7.3 1.443-10.888 5.361-3.547 3.877-3.547 8.909 0 5.031 3.547 8.578 3.546 3.547 8.578 3.547 4.99 0 10.723-5.856-1.155-.949-4.083-4-1.072-.99-1.69-1.403-.578-.371-.95-.371h-.04q-.413.04-.578.453-.082.165-.082.33 0 .289.165.619l-7.012 4.743q-.866-1.279-1.32-2.887-.33-1.279-.33-2.516 0-2.35 1.238-4.537 1.938-3.34 5.61-4.33 1.278-.371 2.556-.371 2.35 0 4.496 1.237 1.814 1.031 4.124 3.877 2.35 2.804 4.372 3.052.288.04.536.04 1.567 0 2.227-1.443.165-.37.165-.783 0-1.32-1.897-2.887z" font-size="16.253" text-anchor="middle" aria-label="A"/></g></symbol><symbol id="h-quotesingle" fill="currentColor" viewBox="0 0 100 100" aria-hidden="true"><g aria-label="C"><path d="M18.326 11L8.799 30.797H.674L5.954 11z" font-size="22.348" text-anchor="middle" aria-label="A"/></g></symbol><symbol id="h-parenleft" fill="currentColor" viewBox="0 0 100 100" aria-hidden="true"><g aria-label="C"><path d="M25 17.146q-6.063 2.804-9.816 7.506-6.351 8.001-6.351 22.354 0 14.394 6.351 22.353 3.753 4.743 9.816 7.672v8.454Q14.524 81.855 9.08 75.01.75 64.616.75 47.006t8.33-28.004Q14.524 12.156 25 8.526z" font-size="22.348" text-anchor="middle" aria-label="A"/></g></symbol><symbol id="h-parenright" fill="currentColor" viewBox="0 0 100 100" aria-hidden="true"><g aria-label="C"><path d="M.967 8.799q10.476 3.63 15.92 10.476 8.331 10.393 8.331 28.004 0 17.61-8.33 28.003Q11.442 82.13.967 85.758v-8.455q6.062-2.928 9.815-7.67 6.352-7.96 6.352-22.354 0-14.353-6.352-22.354Q7.03 20.223.967 17.419z" font-size="22.348" text-anchor="middle" aria-label="A"/></g></symbol><symbol id="h-asterisk" fill="currentColor" viewBox="0 0 100 100" aria-hidden="true"><g aria-label="C"><path d="M20.29 31.97l5.938-4.536 4.908 7.01-7.671 5.775 7.671 5.733-4.908 7.01-5.939-4.536v6.97h-8.537v-7.011l-5.98 4.578-4.908-7.011 7.671-5.733-7.671-5.774 4.908-7.011 5.98 4.577v-7.01h8.537z" font-size="22.348" text-anchor="middle" aria-label="A"/></g></symbol><symbol id="h-plus" fill="currentColor" viewBox="0 0 100 100" aria-hidden="true"><g aria-label="C"><path d="M14.21 52.537H.725V44h13.487V30.514h8.578V44h13.487v8.537H22.789v13.528h-8.578z" font-size="16.253" text-anchor="middle" aria-label="A"/></g></symbol><symbol id="h-coma" fill="currentColor" viewBox="0 0 100 100" aria-hidden="true"><g aria-label="C"><path d="M18.326 67.959L8.799 87.755H.674l5.28-19.796z" font-size="22.348" text-anchor="middle" aria-label="A"/></g></symbol><symbol id="h-hyphen" fill="currentColor" viewBox="0 0 100 100" aria-hidden="true"><g aria-label="C"><path d="M.725 44h27.55v8.537H.725z" font-size="22.348" text-anchor="middle" aria-label="A"/></g></symbol><symbol id="h-period" fill="currentColor" viewBox="0 0 100 100" aria-hidden="true"><g aria-label="C"><path d="M7 68q2.475 0 4.207 1.732 1.773 1.732 1.773 4.207 0 2.557-1.773 4.29Q9.475 79.96 7 79.96q-2.433 0-4.207-1.732Q1.02 76.496 1.02 73.94q0-2.475 1.773-4.207Q4.567 68 7 68z" font-size="22.348" text-anchor="middle" aria-label="A"/></g></symbol><symbol id="h-slash" fill="currentColor" viewBox="0 0 100 100" aria-hidden="true"><g aria-label="C"><path d="M31.166 14.012h9.527L10.793 80H1.306z" font-size="22.348" text-anchor="middle" aria-label="A"/></g></symbol><symbol id="h-0" fill="currentColor" viewBox="0 0 100 100" aria-hidden="true"><g aria-label="C"><path d="M24.987 22.134c-20.154.096-21.077 49.205 0 49.491 20.199-.114 21.12-49.207 0-49.491zm0 58.234c-32.735-2.537-31.524-66.59 0-67.02 32.767 2.59 31.56 66.594 0 67.02z" font-size="16.253" text-anchor="middle" aria-label="A"/></g></symbol><symbol id="h-1" fill="currentColor" viewBox="0 0 100 100" aria-hidden="true"><g aria-label="C"><path d="M16 14v65.988H7.463V31.136h-6.31L9.813 14z" font-size="22.348" text-anchor="middle" aria-label="A"/></g></symbol><symbol id="h-2" fill="currentColor" viewBox="0 0 100 100" aria-hidden="true"><g aria-label="C"><path d="M1.542 80c-4.816-20.264 22.475-30.108 22.705-46.068 0-3.327-1.182-6.16-3.547-8.496-2.337-2.337-5.169-3.506-8.496-3.506-2.034 0-3.892.452-5.576 1.355L1.64 16.069c3.132-1.921 6.654-2.882 10.565-2.882 5.747 0 10.627 2.02 14.641 6.062 4.042 4.042 6.063 8.936 6.063 14.683 1.888 17.17-19.084 28.334-21.344 37.49h21.344V80z" font-size="22.348" text-anchor="middle" aria-label="A"/></g></symbol><symbol id="h-3" fill="currentColor" viewBox="0 0 100 100" aria-hidden="true"><g aria-label="C"><path d="M5.62 13.187c-1.063 0-3.823.094-4.81.282l1.735 9.123c.925-.468 1.95-.703 3.074-.703 1.897 0 3.504.66 4.824 1.98 1.32 1.292 1.98 2.886 1.98 4.783 0 1.925-.7 3.63-2.103 5.115-2.214 2.59-4.982 3.342-7.775 3.538v8.671c4.489.229 9.753 2.396 12.435 5.237 2.365 2.557 3.547 5.513 3.547 8.867 0 3.327-1.182 6.159-3.547 8.496-2.337 2.337-5.169 3.506-8.496 3.506a11.97 11.97 0 01-3.94-.64l-1.733 8.64c1.266.232 4.312.742 5.673.742 5.747 0 10.629-2.02 14.643-6.062 4.042-4.07 6.062-8.963 6.062-14.682 0-5.664-1.966-10.613-5.898-14.848-2.695-2.612-5.266-4-7.713-4.166 5.087-3.987 7.63-8.125 7.63-12.414 0-4.207-1.512-7.835-4.536-10.886-3.025-3.052-6.709-4.579-11.053-4.579z" font-size="22.348" text-anchor="middle" aria-label="A"/></g></symbol><symbol id="h-4" fill="currentColor" viewBox="0 0 100 100" aria-hidden="true"><g aria-label="C"><path d="M23.186 14.012h7.465v29.634h5.815v8.537H30.65V80h-8.538V52.183H3.257l-2.223-5.758zm-1.073 19.26l-8.166 10.374h8.166z" font-size="22.348" text-anchor="middle" aria-label="A"/></g></symbol><symbol id="h-5" fill="currentColor" viewBox="0 0 100 100" aria-hidden="true"><g aria-label="C"><path d="M14.462 31.817c5.376-.988 9.547.274 13.363 1.734 7.244 2.77 11.524 10.19 11.446 22.517-.053 8.2-3.465 16.752-9.072 20.691-8.362 5.875-21.082 5.688-29.47-5.494l6.02-6.681c7.019 5.673 12.54 6.41 16.996 4.745 3.728-1.393 7.11-6.581 7.085-13.892C30.78 40.9 19.49 38.806 8.235 42.334l-5.156-4.496L11.75 14h22.921v8.537h-16.95z" font-size="22.348" text-anchor="middle" aria-label="A"/></g></symbol><symbol id="h-6" fill="currentColor" viewBox="0 0 100 100" aria-hidden="true"><g aria-label="C"><path d="M9.173 57.594q0 6.104 4.29 10.393 4.33 4.29 10.434 4.29 6.063 0 10.352-4.29 4.33-4.29 4.33-10.393 0-6.104-4.33-10.394-4.29-4.289-10.352-4.289-6.104 0-10.435 4.29-4.289 4.289-4.289 10.393zm4.95-18.312q3.67-3.96 12.166-3.96 8.537 0 14.188 5.65 6.846 6.888 6.846 16.622 0 9.692-6.846 16.58-6.847 6.846-16.58 6.846-9.692 0-16.58-6.847-6.599-6.64-6.64-18.435v-.124q0-11.672 6.31-20.539Q13.34 26.167 24.144 14h11.218q-14.97 15.507-21.24 25.282z" font-size="22.348" text-anchor="middle" aria-label="A"/></g></symbol><symbol id="h-7" fill="currentColor" viewBox="0 0 100 100" aria-hidden="true"><g aria-label="C"><path d="M30.433 14C30.04 48.434 9.749 50.468 9.183 79.988H.94c.445-28.058 20.092-41.825 20.54-57.45H1V14z" font-size="22.348" text-anchor="middle" aria-label="A"/></g></symbol><symbol id="h-8" fill="currentColor" viewBox="0 0 100 100" aria-hidden="true"><g aria-label="C"><path d="M21.001 72.07c6.975-.013 11.696-4.517 11.57-12.002-.128-7.484-5.138-12.555-11.57-13.94-7.38 1.589-11.67 6.39-11.569 13.94.102 7.551 4.595 12.014 11.57 12.002zm0 8.743C8.611 80.821.813 69.691.731 60.068c-.084-9.623 1.862-13.376 9.588-19.013-3.711-3.987-5.567-8.125-5.567-12.414.417-9.458 8.315-15.373 16.229-15.466 9.187.269 16.155 7.153 16.27 15.466 0 4.29-2.007 8.386-6.022 12.29 8.029 5.72 10.052 8.878 10.043 19.137-.007 10.26-7.88 20.737-20.27 20.745zm0-43.717c9.303-2.302 10.002-15.318-.007-15.219-10.01.1-8.437 13.093.007 15.219z" font-size="22.348" text-anchor="middle" aria-label="A"/></g></symbol><symbol id="h-9" fill="currentColor" viewBox="0 0 100 100" aria-hidden="true"><g aria-label="C"><path d="M30.744 32.068c-.137-6.478-4.141-12.036-11.112-11.912-6.972.125-11.206 5.436-11.076 11.912.129 6.475 4.104 12.033 11.076 11.911 6.971-.121 11.248-5.434 11.112-11.911zm-4.046 16.997C11.8 56.528.871 43.495.92 32.068c.383-10.243 6.204-18.958 18.713-19.005 12.508-.047 18.366 9.655 18.449 18.29C37.94 65.2 19.976 68.218 19.416 80H9.618c2.279-16.092 16.762-23.557 17.08-30.935z" font-size="22.348" text-anchor="middle" aria-label="A"/></g></symbol><symbol id="h-colon" fill="currentColor" viewBox="0 0 100 100" aria-hidden="true"><g aria-label="C"><path d="M7 68q2.475 0 4.207 1.732 1.773 1.732 1.773 4.207 0 2.557-1.773 4.29Q9.475 79.96 7 79.96q-2.433 0-4.207-1.732Q1.02 76.496 1.02 73.94q0-2.475 1.773-4.207Q4.567 68 7 68zm0-23.467q2.475 0 4.207 1.732 1.773 1.732 1.773 4.207 0 2.557-1.773 4.29Q9.475 56.492 7 56.492q-2.433 0-4.207-1.732-1.773-1.732-1.773-4.29 0-2.474 1.773-4.206Q4.567 44.533 7 44.533z" font-size="16.253" text-anchor="middle" aria-label="A"/></g></symbol><symbol id="h-semicolon" fill="currentColor" viewBox="0 0 100 100" aria-hidden="true"><g aria-label="C"><path d="M18.326 67.959L8.799 87.755H.674l5.28-19.796zM12.26 44.533c1.622 0 3.024.577 4.206 1.732 1.183 1.155 1.774 2.557 1.774 4.207 0 1.705-.591 3.134-1.774 4.29-1.182 1.154-2.584 1.731-4.206 1.731-1.65 0-3.066-.577-4.248-1.732-1.155-1.155-1.733-2.584-1.733-4.29 0-1.649.578-3.051 1.733-4.206 1.182-1.155 2.598-1.732 4.248-1.732z" font-size="22.348" text-anchor="middle" aria-label="A"/></g></symbol><symbol id="h-less" fill="currentColor" viewBox="0 0 100 100" aria-hidden="true"><g aria-label="C"><path d="M28.87 69.713L14.123 52.662 28.87 35.67V24.575L1.13 52.662l27.74 28.146z" font-size="22.348" text-anchor="middle" aria-label="A"/></g></symbol><symbol id="h-equal" fill="currentColor" viewBox="0 0 100 100" aria-hidden="true"><g aria-label="C"><g aria-label="A" font-size="22.348" text-anchor="middle"><path d="M.725 35.463h27.55V44H.725zM.725 52.537h27.55v8.538H.725z"/></g></g></symbol><symbol id="h-greater" fill="currentColor" viewBox="0 0 100 100" aria-hidden="true"><g aria-label="C"><path d="M1.13 69.713l14.747-17.051L1.13 35.67V24.575l27.74 28.087L1.13 80.808z" font-size="22.348" text-anchor="middle" aria-label="A"/></g></symbol><symbol id="h-question" fill="currentColor" viewBox="0 0 100 100" aria-hidden="true"><g aria-label="C"><path d="M16.562 20.625c-1.704 0-3.437.301-5.197.906-4.014 1.403-6.956 4.03-8.826 7.88-.99 1.979-1.484 3.986-1.484 6.02v2.762l8.619-2.802c.11-1.045.29-1.83.537-2.352.825-1.705 2.144-2.873 3.959-3.506a7.076 7.076 0 012.31-.412c.99 0 1.98.234 2.97.701 1.704.825 2.886 2.145 3.546 3.96a7.38 7.38 0 01.371 2.267c0 .99-.234 1.994-.701 3.012-.935 1.897-2.447 3.877-4.537 5.939-4.344 3.272-7.615 7.203-9.814 11.795-1.403 2.86-2.12 5.775-2.147 8.744h8.496c.027-1.677.454-3.37 1.28-5.074 1.374-2.887 3.381-5.499 6.02-7.836 3.878-2.997 6.683-6.283 8.415-9.858 1.045-2.172 1.566-4.397 1.566-6.68 0-1.704-.288-3.423-.865-5.155-1.402-3.987-4.028-6.902-7.877-8.745-2.172-1.044-4.386-1.566-6.64-1.566zM6.13 71.539v8.537h8.535V71.54z" font-size="22.348" text-anchor="middle" aria-label="A"/></g></symbol><symbol id="h-at" fill="currentColor" viewBox="0 0 100 100" aria-hidden="true"><g aria-label="C"><path d="M37.398 54.245v-4.454q-.413-1.856-2.062-3.506-2.392-2.392-5.733-2.392-3.34 0-5.692 2.392-2.35 2.392-2.35 5.733 0 3.382 2.35 5.733 2.351 2.35 5.692 2.35 3.382 0 5.733-2.35 1.65-1.65 2.062-3.506zm-.083 9.115q-2.185 3.382-7.794 3.382-6.764 0-11.59-4-4.784-4.001-4.784-10.765 0-6.723 4.784-10.93 4.826-4.206 11.59-4.206 6.021 0 7.794 3.052v-2.145h8.208l-.083 20.539v.124q0 2.144.66 2.144.578 0 1.65-1.484 2.35-3.341 2.35-10.229 0-6.887-5.237-12.084-5.197-5.196-15.342-5.196-10.105 0-15.301 5.196-5.156 5.197-5.156 14.518 0 9.32 5.98 15.342 6.022 5.98 14.477 5.98 5.815 0 9.98-2.598l5.857 6.145q-7.96 4.66-15.837 4.66-11.837 0-20.292-8.413Q.774 63.937.774 52.06q0-11.836 8.455-20.25 8.455-8.455 20.292-8.455 11.919 0 20.291 8.455 8.414 8.455 8.414 17.157T53.73 63.071q-3.712 4.413-8.207 4.413-.99 0-2.021-.247-5.733-1.196-6.186-3.877z" font-size="16.253" text-anchor="middle" aria-label="A"/></g></symbol><symbol id="h-A" fill="currentColor" viewBox="0 0 100 100" aria-hidden="true"><g aria-label="C"><path d="M30.94 48.114L25.5 32.645l-5.4 15.469zM50.833 80h-8.735l-8.18-23.347H17.082L8.942 80H.167L25.5 10.48z" font-size="12.7" text-anchor="middle" aria-label="A"/></g></symbol><symbol id="h-B" fill="currentColor" viewBox="0 0 100 100" aria-hidden="true"><g aria-label="C"><path d="M13.865 14c7.889 0 13.445 5.351 13.382 13.86-.026 3.734-1.973 5.681-5.718 7.301 9.606 2.706 14.564 12.95 14.652 21.285C36 67 28 80 17.28 80H1V14zM9.22 41.761v29.66h8.061c6.237.035 10.665-6.528 10.483-14.975C27.58 48 21 41.69 13.627 41.761zm0-19.222v10.436h5.36a5.01 5.01 0 003.138-1.444c.953-.907 1.43-2.13 1.43-3.67s-.504-2.806-1.51-3.796c-.98-1.017-2.236-1.526-3.772-1.526z" font-size="12.7" text-anchor="middle" aria-label="A"/></g></symbol><symbol id="h-C" fill="currentColor" viewBox="0 0 100 100" aria-hidden="true"><g aria-label="C"><path d="M33.088 13.278c-8.974 0-16.625 3.3-22.951 9.9-6.327 6.6-9.49 14.548-9.49 23.843 0 9.322 3.163 17.27 9.49 23.842 6.326 6.573 13.977 9.859 22.95 9.859 2.34 0 4.642-.279 6.913-.832v-8.886a21.704 21.704 0 01-6.912 1.138c-6.645 0-12.336-2.448-17.075-7.343-4.711-4.895-7.067-10.82-7.067-17.778 0-6.93 2.356-12.843 7.067-17.738 4.739-4.895 10.43-7.342 17.075-7.342A21.7 21.7 0 0140 23.075V14.11a29.096 29.096 0 00-6.912-.832z" font-size="12.7" text-anchor="middle" aria-label="A"/></g></symbol><symbol id="h-D" fill="currentColor" viewBox="0 0 100 100" aria-hidden="true"><g aria-label="C"><path d="M9.22 22.704v48.634q9.807 0 16.08-6.56Q32.37 57.437 32.37 47q0-10.395-7.068-17.779-6.274-6.517-16.082-6.517zM7.035 14q15.485.083 24.142 9.116 9.49 9.942 9.49 23.884 0 13.984-9.49 23.884Q22.52 79.917 7.036 80H1V14z" font-size="12.7" text-anchor="middle" aria-label="A"/></g></symbol><symbol id="h-E" fill="currentColor" viewBox="0 0 100 100" aria-hidden="true"><g aria-label="C"><path d="M35 14v8.539H9.22V35.67H35v8.539H9.22V71.42H35V80H1V14z" font-size="12.7" text-anchor="middle" aria-label="A"/></g></symbol><symbol id="h-F" fill="currentColor" viewBox="0 0 100 100" aria-hidden="true"><g aria-label="C"><path d="M35 14v8.539H9.22V35.67H35v8.539H9.22V80H1V14z" font-size="12.7" text-anchor="middle" aria-label="A"/></g></symbol><symbol id="h-G" fill="currentColor" viewBox="0 0 100 100" aria-hidden="true"><g aria-label="C"><path d="M55.723 70.987q-9.808 9.735-22.435 9.735-13.46 0-22.95-9.859-9.49-9.859-9.49-23.842 0-13.943 9.49-23.843t22.95-9.9q12.588 0 23.865 10.684l-6.155 5.816q-8.497-7.837-17.71-7.837-9.966 0-17.074 7.342-7.068 7.343-7.068 17.738 0 10.436 7.068 17.778 7.108 7.343 17.074 7.343 8.577 0 14.216-4.703V47.516h8.22z" font-size="12.7" text-anchor="middle" aria-label="A"/></g></symbol><symbol id="h-H" fill="currentColor" viewBox="0 0 100 100" aria-hidden="true"><g aria-label="C"><path d="M9.22 44.209V80H1V14h8.22v21.67h19.615V14h8.22v66h-8.22V44.209z" font-size="12.7" text-anchor="middle" aria-label="A"/></g></symbol><symbol id="h-I" fill="currentColor" viewBox="0 0 100 100" aria-hidden="true"><g aria-label="C"><path d="M9.11 14v66H.89V14z" font-size="12.7" text-anchor="middle" aria-label="A"/></g></symbol><symbol id="h-J" fill="currentColor" viewBox="0 0 100 100" aria-hidden="true"><g aria-label="C"><path d="M27 65.851q0 6.848-3.613 10.643-3.852 4.042-9.332 4.042-5.44 0-9.291-4.001Q.952 72.492.952 65.81l6.512-2.64q1.112 6.27 2.82 7.714 1.27 1.113 3.414 1.113h.159q2.263-.041 3.732-1.526 1.192-1.279 1.192-4.991V14H27z" font-size="12.7" text-anchor="middle" aria-label="A"/></g></symbol><symbol id="h-K" fill="currentColor" viewBox="0 0 100 100" aria-hidden="true"><g aria-label="C"><path d="M9.22 47.714V80H1V14h8.22v19.648L24.228 14h10.403L15.136 40l24.261 40H29.43L9.775 47.012z" font-size="12.7" text-anchor="middle" aria-label="A"/></g></symbol><symbol id="h-L" fill="currentColor" viewBox="0 0 100 100" aria-hidden="true"><g aria-label="C"><path d="M1 80V14h8.22v57.42h22.712V80z" font-size="12.7" text-anchor="middle" aria-label="A"/></g></symbol><symbol id="h-M" fill="currentColor" viewBox="0 0 100 100" aria-hidden="true"><g aria-label="C"><path d="M29.113 61.561l23.983-51.524L57.146 80h-8.22L46 43 29.113 82.035 12 43 9.22 80H1l4.48-69.93z" font-size="12.7" text-anchor="middle" aria-label="A"/></g></symbol><symbol id="h-N" fill="currentColor" viewBox="0 0 100 100" aria-hidden="true"><g aria-label="C"><path d="M1 11.199l27.63 43.56V14h8.26v69.262L9.014 39.355V80H1z" font-size="12.7" text-anchor="middle" aria-label="A"/></g></symbol><symbol id="h-O" fill="currentColor" viewBox="0 0 100 100" aria-hidden="true"><g aria-label="C"><path d="M33.5 13.216q13.46 0 22.99 9.9 9.53 9.9 9.53 23.884t-9.53 23.884q-9.53 9.9-22.99 9.9-13.46 0-22.99-9.9Q.98 60.984.98 47t9.53-23.884q9.53-9.9 22.99-9.9zm0 8.622q-10.046 0-17.154 7.383-7.067 7.343-7.067 17.78 0 10.435 7.107 17.82 7.108 7.383 17.114 7.383 10.046 0 17.114-7.384 7.108-7.384 7.108-17.82t-7.108-17.779q-7.068-7.383-17.114-7.383z" font-size="12.7" text-anchor="middle" aria-label="A"/></g></symbol><symbol id="h-P" fill="currentColor" viewBox="0 0 100 100" aria-hidden="true"><g aria-label="C"><path d="M9.22 44.25V80H1V14c32 0 33.805 1 33.866 15.046C34.926 43.093 30 44.21 9.219 44.25zm0-21.67v13.09c14.78 0 17.387-.577 17.387-6.624C26.607 23 24 22.58 9.219 22.58z" font-size="12.7" text-anchor="middle" aria-label="A"/></g></symbol><symbol id="h-Q" fill="currentColor" viewBox="0 0 100 100" aria-hidden="true"><g aria-label="C"><path d="M33.5 21.474q-10.046 0-17.154 7.384Q9.28 36.201 9.28 46.637t7.107 17.82Q23.494 71.84 33.5 71.84q10.046 0 17.114-7.383 7.108-7.384 7.108-17.82t-7.108-17.779q-7.068-7.384-17.114-7.384zM47.08 77.45q.913.578 1.906 1.32 2.78 1.527 3.772 1.857.437.123.834.123.675 0 1.35-.412 1.032-.619 1.35-1.815.12-.371.278-3.053h8.299q-.278 4.043-.636 5.363-1.27 4.579-5.28 6.889-2.542 1.526-5.321 1.526-1.549 0-3.098-.454-2.54-.701-6.79-3.547-3.414-1.857-4.725-2.27-.754-.205-1.43-.205-1.19 0-2.302.66-1.827 1.072-2.383 3.217-.079.206-.277 2.723h-8.3q.318-3.92.636-5.115.675-2.517 2.065-4.455-9.371-1.857-16.519-9.282Q.98 60.62.98 46.637q0-13.984 9.53-23.884t22.991-9.9q13.46 0 22.99 9.9 9.53 9.9 9.53 23.884 0 13.983-9.53 23.883-4.288 4.455-9.41 6.93z" font-size="12.7" text-anchor="middle" aria-label="A"/></g></symbol><symbol id="h-R" fill="currentColor" viewBox="0 0 100 100" aria-hidden="true"><g aria-label="C"><path d="M5.566 13.993C4.11 13.992 2.588 13.995 1 14v66h8.22V44.25h7.283L29.43 80h9.966L25.08 42.806c.112-.115.217-.231.325-.347 5.913-2.022 9.523-4.423 9.493-13.1-.051-14.165-7.468-15.342-29.33-15.366zm10.97 8.491c6.466-.007 10.245.76 10.102 6.875-.145 6.185-3.725 5.953-10.375 6.311-2.115.114-4.319-.006-7.044 0V22.58l7.316-.096z" font-size="12.7" text-anchor="middle" aria-label="A"/></g></symbol><symbol id="h-S" fill="currentColor" viewBox="0 0 100 100" aria-hidden="true"><g aria-label="C"><path d="M20.778 46.15q-6.75-2.35-10.96-6.682Q5.65 35.096 5.65 28.661q0-6.311 4.329-10.849 4.367-4.537 10.562-4.537 6.115 0 10.483 4.496 2.461 2.475 4.13 7.879l-7.466 3.052q-1.35-3.795-2.462-4.95-1.945-1.98-4.685-1.98-2.78 0-4.725 2.021-1.946 1.98-1.946 4.868 0 2.887 1.946 4.909 2.183 2.227 6.035 4.083 7.465 2.517 12.667 7.92 5.837 5.982 5.837 14.52 0 8.54-5.837 14.603-5.798 6.022-13.977 6.022-8.22 0-14.017-6.063Q1.877 69.828.646 61.33l7.982-3.011q.754 7.3 3.692 10.353 3.415 3.548 8.22 3.548 4.804 0 8.22-3.548 3.414-3.547 3.414-8.58 0-4.99-3.415-8.538-3.256-3.383-7.981-5.404z" font-size="12.7" text-anchor="middle" aria-label="A"/></g></symbol><symbol id="h-T" fill="currentColor" viewBox="0 0 100 100" aria-hidden="true"><g aria-label="C"><path d="M23.63 22.539v57.46h-8.26V22.54H.56V14h37.88v8.539z" font-size="12.7" text-anchor="middle" aria-label="A"/></g></symbol><symbol id="h-U" fill="currentColor" viewBox="0 0 100 100" aria-hidden="true"><g aria-label="C"><path d="M28.875 14h8.259v46.489c.18 10.668-6.491 20.04-18.067 20.047C7.49 80.543 1.15 69.588 1 58.096V14h8.26v44.096c.01 7.939 2.468 13.768 9.807 13.819 7.339.05 9.713-6.528 9.808-13.819z" font-size="12.7" text-anchor="middle" aria-label="A"/></g></symbol><symbol id="h-V" fill="currentColor" viewBox="0 0 100 100" aria-hidden="true"><g aria-label="C"><path d="M1 14h8.736l9.768 43.794L29.35 14h8.775L19.504 83.52z" font-size="12.7" text-anchor="middle" aria-label="A"/></g></symbol><symbol id="h-W" fill="currentColor" viewBox="0 0 100 100" aria-hidden="true"><g aria-label="C"><path d="M25.38 67.666V14h8.22v53.666q.397.701 1.35 1.733 2.58 2.557 6.115 2.557 3.534 0 6.115-2.599 2.58-2.64 2.58-6.31V14h8.26v49.376q-.159 6.971-4.964 11.963-4.963 5.197-11.991 5.197-6.989 0-11.555-5.115-4.606 5.115-11.595 5.115-7.028 0-11.952-5.197Q1.12 70.389 1 63.376V14h8.22v49.046q0 3.671 2.58 6.311 2.581 2.599 6.115 2.599 3.574 0 6.115-2.557.993-1.032 1.35-1.733z" font-size="12.7" text-anchor="middle" aria-label="A"/></g></symbol><symbol id="h-X" fill="currentColor" viewBox="0 0 100 100" aria-hidden="true"><g aria-label="C"><path d="M.742 80l14.493-36.011L.742 14h9.45l9.768 20.34L29.808 14h9.45L24.685 43.989l14.573 36.01h-9.45L19.96 54.56 10.192 80z" font-size="12.7" text-anchor="middle" aria-label="A"/></g></symbol><symbol id="h-Y" fill="currentColor" viewBox="0 0 100 100" aria-hidden="true"><g aria-label="C"><path d="M15.794 53.517L.71 14h9.45l9.724 29.865L29.8 14h9.49L24.013 53.517V80h-8.22z" font-size="12.7" text-anchor="middle" aria-label="A"/></g></symbol><symbol id="h-Z" fill="currentColor" viewBox="0 0 100 100" aria-hidden="true"><g aria-label="C"><path d="M31.855 22.539H1.756V14H46.07L14.106 71.42h30.177V80H-.07z" font-size="12.7" text-anchor="middle" aria-label="A"/></g></symbol><symbol id="h-bracketleft" fill="currentColor" viewBox="0 0 100 100" aria-hidden="true"><g aria-label="C"><path d="M1 12h17v5.898H8.589v63.514H18v5.897H1z" font-size="22.348" aria-label="A"/></g></symbol><symbol id="h-backslash" fill="currentColor" viewBox="0 0 100 100" aria-hidden="true"><g aria-label="C"><path d="M7.783 12l21.446 69.412h-7.011L.77 12z" font-size="22.348" aria-label="A"/></g></symbol><symbol id="h-bracketright" fill="currentColor" viewBox="0 0 100 100" aria-hidden="true"><g aria-label="C"><path d="M18 12H1v5.898h9.411v63.514H1v5.897h17z" font-size="22.348" aria-label="A"/></g></symbol><symbol id="h-asciicircum" fill="currentColor" viewBox="0 0 100 100" aria-hidden="true"><g aria-label="C"><path d="M32.652 36.972L27 37 16.826 20.681 6.652 37 1 36.972 16.826 10z" font-size="22.348" aria-label="A"/></g></symbol><symbol id="h-underscore" fill="currentColor" viewBox="0 0 100 100" aria-hidden="true"><g aria-label="C"><path d="M0 80v8.666h40V80z" aria-label="A" font-size="32"/></g></symbol><symbol id="h-grave" fill="currentColor" viewBox="0 0 100 100" aria-hidden="true"><g aria-label="C"><path d="M9.125 0L22 15h-9L1 0z" font-size="22.348" aria-label="A"/></g></symbol><symbol id="h-a" fill="currentColor" viewBox="0 0 100 100" aria-hidden="true"><g aria-label="C"><path d="M26.533 53.428L22 40.538l-4.5 12.89zM43.111 80h-7.28l-6.816-19.456h-14.03L8.202 80H.889L22 22.067z" font-size="12.7" text-anchor="middle" aria-label="A"/></g></symbol><symbol id="h-b" fill="currentColor" viewBox="0 0 100 100" aria-hidden="true"><g aria-label="C"><path d="M11.721 25c3.066 0 5.691 1.135 7.875 3.403 2.184 2.246 3.276 4.962 3.276 8.147 0 3.277-1.588 5.305-4.765 6.085 2.294.343 4.897 2.04 7.81 5.087 2.933 3.048 4.4 7.265 4.4 12.65 0 5.385-1.82 10.037-5.46 13.956-3.419 3.69-6.849 5.626-10.29 5.672H1V25zM7.85 48.135V72.85h6.717c1.412-.092 3.165-1.375 5.26-3.644 2.317-2.475 3.475-5.42 3.475-8.834 0-3.369-1.158-6.245-3.474-8.628-2.294-2.406-5.063-3.61-8.306-3.61zm0-16.02v8.698h4.467a4.176 4.176 0 002.614-1.203c.794-.757 1.19-1.777 1.19-3.06 0-1.283-.418-2.337-1.257-3.162-.816-.848-1.864-1.272-3.143-1.272z" font-size="12.7" text-anchor="middle" aria-label="A"/></g></symbol><symbol id="h-c" fill="currentColor" viewBox="0 0 100 100" aria-hidden="true"><g aria-label="C"><path d="M27.637 24.399c-7.478 0-13.854 2.75-19.126 8.25C3.24 38.149.603 44.77.603 52.517c0 7.769 2.636 14.392 7.908 19.869s11.648 8.216 19.126 8.216c1.949 0 3.868-.233 5.76-.694v-7.405a18.087 18.087 0 01-5.76.949c-5.537 0-10.28-2.04-14.229-6.12-3.926-4.078-5.89-9.017-5.89-14.815 0-5.775 1.964-10.702 5.89-14.78 3.95-4.08 8.692-6.12 14.229-6.12 1.949 0 3.87.314 5.76.946v-7.471a24.247 24.247 0 00-5.76-.693z" font-size="12.7" text-anchor="middle" aria-label="A"/></g></symbol><symbol id="h-d" fill="currentColor" viewBox="0 0 100 100" aria-hidden="true"><g aria-label="C"><path d="M8 32.472V73q8.173 0 13.401-5.466 5.89-6.118 5.89-14.815 0-8.663-5.89-14.816Q16.173 32.472 8 32.472zm-1.82-7.253q12.905.069 20.119 7.597 7.908 8.284 7.908 19.903 0 11.653-7.908 19.903-7.214 7.528-20.119 7.597H1.15v-55z" font-size="12.7" text-anchor="middle" aria-label="A"/></g></symbol><symbol id="h-e" fill="currentColor" viewBox="0 0 100 100" aria-hidden="true"><g aria-label="C"><path d="M29.523 25v7.116H7.85v10.942h21.673v7.116H7.85V72.85h21.673V80H1V25z" font-size="12.7" text-anchor="middle" aria-label="A"/></g></symbol><symbol id="h-f" fill="currentColor" viewBox="0 0 100 100" aria-hidden="true"><g aria-label="C"><path d="M29.523 25v7.116H7.85v10.942h21.673v7.116H7.85V80H1V25z" font-size="12.7" text-anchor="middle" aria-label="A"/></g></symbol><symbol id="h-g" fill="currentColor" viewBox="0 0 100 100" aria-hidden="true"><g aria-label="C"><path d="M46.27 72.49q-8.174 8.112-18.696 8.112-11.218 0-19.126-8.216Q.54 64.17.54 52.517.54 40.9 8.448 32.65q7.908-8.25 19.126-8.25 10.489 0 19.886 8.903l-5.128 4.847q-7.082-6.532-14.758-6.532-8.306 0-14.229 6.12-5.89 6.118-5.89 14.78 0 8.697 5.89 14.816 5.923 6.119 14.229 6.119 7.147 0 11.846-3.92V52.93h6.85z" font-size="12.7" text-anchor="middle" aria-label="A"/></g></symbol><symbol id="h-h" fill="currentColor" viewBox="0 0 100 100" aria-hidden="true"><g aria-label="C"><path d="M7.85 51.377V80H1V25h6.85v19.262h16.346V25h6.85v55h-6.85V51.377z" font-size="12.7" text-anchor="middle" aria-label="A"/></g></symbol><symbol id="h-i" fill="currentColor" viewBox="0 0 100 100" aria-hidden="true"><g aria-label="C"><path d="M7.925 25v55h-6.85V25z" font-size="12.7" text-anchor="middle" aria-label="A"/></g></symbol><symbol id="h-j" fill="currentColor" viewBox="0 0 100 100" aria-hidden="true"><g aria-label="C"><path d="M23 68.21q0 5.706-3.011 8.868-3.21 3.369-7.776 3.369-4.533 0-7.743-3.334-3.177-3.37-3.177-8.938l5.427-2.2q.927 5.225 2.35 6.428 1.058.928 2.845.928h.132q1.886-.034 3.11-1.272.993-1.065.993-4.159V25H23z" font-size="12.7" text-anchor="middle" aria-label="A"/></g></symbol><symbol id="h-k" fill="currentColor" viewBox="0 0 100 100" aria-hidden="true"><g aria-label="C"><path d="M7.85 51.114V80H1V25h6.85v14.392L20.356 25h8.67L12.78 44.686 32.998 80h-8.306L8.312 50.53z" font-size="12.7" text-anchor="middle" aria-label="A"/></g></symbol><symbol id="h-l" fill="currentColor" viewBox="0 0 100 100" aria-hidden="true"><g aria-label="C"><path d="M1 80V25h6.85v47.85h18.927V80z" font-size="12.7" text-anchor="middle" aria-label="A"/></g></symbol><symbol id="h-m" fill="currentColor" viewBox="0 0 100 100" aria-hidden="true"><g aria-label="C"><path d="M24.033 64.634L44.02 21.698 47.394 80h-6.85l-2.823-30.937-13.688 32.633L10.28 49.063 7.455 80H.605L4.34 21.725z" font-size="12.7" text-anchor="middle" aria-label="A"/></g></symbol><symbol id="h-n" fill="currentColor" viewBox="0 0 100 100" aria-hidden="true"><g aria-label="C"><path d="M1 22.665l23.025 36.3V25h6.883V82.72L7.679 46.129V80H1z" font-size="12.7" text-anchor="middle" aria-label="A"/></g></symbol><symbol id="h-o" fill="currentColor" viewBox="0 0 100 100" aria-hidden="true"><g aria-label="C"><path d="M28 24.539q11.217 0 19.159 8.25 7.941 8.25 7.941 19.903 0 11.653-7.941 19.903-7.942 8.25-19.159 8.25-11.217 0-19.159-8.25Q.9 64.345.9 52.692.9 41.04 8.84 32.79q7.942-8.25 19.16-8.25zm0 7.184q-8.372 0-14.295 6.153-5.89 6.12-5.89 14.816 0 8.697 5.923 14.85Q19.661 73.695 28 73.695q8.372 0 14.262-6.153 5.923-6.153 5.923-14.85t-5.923-14.816Q36.372 31.723 28 31.723z" font-size="12.7" text-anchor="middle" aria-label="A"/></g></symbol><symbol id="h-p" fill="currentColor" viewBox="0 0 100 100" aria-hidden="true"><g aria-label="C"><path d="M7.665 51.723L7.85 80H1V25c21.173-.069 28.204.208 28.247 12.8.043 12.59-9.106 13.923-21.582 13.923zM7.85 32.15l-.185 12.423c9.408-.021 14.542.02 14.7-6.774.159-6.794-5.493-5.668-14.515-5.649z" font-size="12.7" text-anchor="middle" aria-label="A"/></g></symbol><symbol id="h-q" fill="currentColor" viewBox="0 0 100 100" aria-hidden="true"><g aria-label="C"><path d="M28 31.528q-8.372 0-14.295 6.153-5.89 6.12-5.89 14.816 0 8.697 5.923 14.85Q19.661 73.5 28 73.5q8.371 0 14.261-6.153 5.923-6.153 5.923-14.85t-5.923-14.816Q36.371 31.528 28 31.528zm11.316 46.647q.761.481 1.589 1.1 2.316 1.272 3.143 1.547.364.103.695.103.562 0 1.125-.344.86-.515 1.125-1.512.1-.31.232-2.544h6.915q-.231 3.369-.529 4.469-1.059 3.815-4.4 5.74-2.119 1.272-4.435 1.272-1.29 0-2.58-.378-2.119-.584-5.66-2.956-2.845-1.547-3.937-1.89-.628-.173-1.191-.173-.993 0-1.92.55-1.521.894-1.985 2.682-.066.172-.23 2.268h-6.917q.265-3.265.53-4.262.562-2.097 1.72-3.713-7.809-1.546-13.765-7.734Q.9 64.15.9 52.497q0-11.653 7.941-19.903 7.942-8.25 19.159-8.25 11.217 0 19.159 8.25 7.941 8.25 7.941 19.903 0 11.653-7.941 19.903-3.574 3.713-7.842 5.775z" font-size="12.7" text-anchor="middle" aria-label="A"/></g></symbol><symbol id="h-r" fill="currentColor" viewBox="0 0 100 100" aria-hidden="true"><g aria-label="C"><path d="M4.805 24.995A893.84 893.84 0 001 25v55h6.85l-.185-28.276h6.254L24.692 80h8.306L21.066 50.52c.093-.096.18-.192.27-.289 4.928-1.684 7.936-5.201 7.912-12.432-.043-11.804-6.224-12.785-24.442-12.805zm9.141 7.075c5.389-.006 8.538.634 8.419 5.73-.12 5.153-3.104 6.476-8.645 6.774-1.763.095-3.785-.005-6.055 0l.184-12.424c2.256-.004 4.3-.078 6.097-.08z" font-size="12.7" text-anchor="middle" aria-label="A"/></g></symbol><symbol id="h-s" fill="currentColor" viewBox="0 0 100 100" aria-hidden="true"><g aria-label="C"><path d="M17.482 51.792q-5.626-1.959-9.133-5.568-3.474-3.644-3.474-9.007 0-5.259 3.606-9.04 3.64-3.781 8.802-3.781 5.096 0 8.736 3.746 2.051 2.063 3.441 6.566l-6.22 2.544q-1.126-3.163-2.052-4.125-1.622-1.65-3.905-1.65-2.316 0-3.938 1.684-1.62 1.65-1.62 4.056 0 2.407 1.62 4.091 1.82 1.856 5.03 3.403 6.22 2.097 10.556 6.6 4.864 4.985 4.864 12.1 0 7.116-4.864 12.169-4.831 5.019-11.648 5.019-6.85 0-11.68-5.054Q1.73 71.524.704 64.442l6.651-2.509q.629 6.084 3.078 8.628 2.845 2.956 6.85 2.956 4.003 0 6.849-2.956 2.845-2.956 2.845-7.15 0-4.16-2.845-7.115-2.714-2.82-6.651-4.504z" font-size="12.7" text-anchor="middle" aria-label="A"/></g></symbol><symbol id="h-t" fill="currentColor" viewBox="0 0 100 100" aria-hidden="true"><g aria-label="C"><path d="M19.941 32.116V80H13.06V32.116H.716V25h31.568v7.116z" font-size="12.7" text-anchor="middle" aria-label="A"/></g></symbol><symbol id="h-u" fill="currentColor" viewBox="0 0 100 100" aria-hidden="true"><g aria-label="C"><path d="M24.172 25h6.882v38.74c.15 8.891-5.41 16.701-15.055 16.707-9.647.006-14.931-9.123-15.056-18.7V25h6.882v36.747C7.833 68.363 9.883 73.22 16 73.263c6.115.042 8.093-5.44 8.173-11.516z" font-size="12.7" text-anchor="middle" aria-label="A"/></g></symbol><symbol id="h-v" fill="currentColor" viewBox="0 0 100 100" aria-hidden="true"><g aria-label="C"><path d="M.53 25h7.28l8.14 36.495L24.157 25h7.312L15.95 82.933z" font-size="12.7" text-anchor="middle" aria-label="A"/></g></symbol><symbol id="h-w" fill="currentColor" viewBox="0 0 100 100" aria-hidden="true"><g aria-label="C"><path d="M21.059 69.722V25h6.85v44.722q.33.584 1.124 1.443 2.151 2.132 5.096 2.132 2.945 0 5.096-2.166 2.15-2.2 2.15-5.26V25h6.883v41.147q-.132 5.81-4.136 9.968-4.136 4.332-9.993 4.332-5.824 0-9.629-4.263-3.838 4.263-9.662 4.263-5.857 0-9.96-4.332Q.84 71.99.742 66.147V25h6.85v40.872q0 3.06 2.15 5.26 2.15 2.165 5.096 2.165 2.978 0 5.096-2.132.827-.859 1.125-1.443z" font-size="12.7" text-anchor="middle" aria-label="A"/></g></symbol><symbol id="h-x" fill="currentColor" viewBox="0 0 100 100" aria-hidden="true"><g aria-label="C"><path d="M.952 80l12.077-30.01L.952 25h7.875l8.14 16.95L25.173 25h7.875L20.905 49.99 33.048 80h-7.875l-8.206-21.2L8.827 80z" font-size="12.7" text-anchor="middle" aria-label="A"/></g></symbol><symbol id="h-y" fill="currentColor" viewBox="0 0 100 100" aria-hidden="true"><g aria-label="C"><path d="M13.495 57.931L.925 25.001H8.8l8.103 24.887L25.167 25h7.908l-12.73 32.931V80h-6.85z" font-size="12.7" text-anchor="middle" aria-label="A"/></g></symbol><symbol id="h-z" fill="currentColor" viewBox="0 0 100 100" aria-hidden="true"><g aria-label="C"><path d="M26.879 32.116H1.797V25h36.928L12.088 72.85h25.148V80H.275z" font-size="12.7" text-anchor="middle" aria-label="A"/></g></symbol><symbol id="h-sterling" fill="currentColor" viewBox="0 0 100 100" aria-hidden="true"><g aria-label="C"><path d="M20.68 57.104q0 9.362-5.031 14.517 3.34-2.145 7.34-2.145 1.073 0 2.228.165 5.279.743 8.331.743 2.722 0 7.754-1.279l1.608 8.414q-5.733 1.402-9.362 1.402-3.67 0-7.465-.866-3.464-.742-6.021-.742-2.145 0-3.589.495-3.794 1.36-9.155 4.083L1.09 74.508q6.434-5.691 7.506-7.011 3.506-4.166 3.588-10.476H3.152v-8.496h7.135q-.041-.124-1.69-3.382Q4.1 37.884 3.522 31.121q-.082-.825-.082-1.691 0-6.187 4.083-11.095 4.578-5.444 11.878-6.145.825-.041 1.608-.041 6.187 0 11.136 4.083 5.485 4.702 6.145 11.837.165.99.165 1.938 0 2.928-1.98 7.506l-7.96-2.68q1.28-3.671 1.28-5.197 0-.454-.042-.866-.33-3.588-3.134-5.94-2.475-2.061-5.568-2.061-.454 0-.866.041-3.63.289-5.98 3.093-2.063 2.475-2.063 5.527 0 .495.042.948.33 3.795 2.64 8.703 3.422 5.444 4.412 9.444h8.001v8.496z" font-size="22.348" text-anchor="middle" aria-label="A"/></g></symbol><symbol id="h-Omacron" fill="currentColor" viewBox="0 0 100 100" aria-hidden="true"><g aria-label="C"><path d="M28.495 13.137c-13.64 0-24.777 11.581-24.777 25.75 0 14.17 11.138 25.737 24.777 25.737 13.64 0 24.787-11.567 24.787-25.736 0-14.17-11.148-25.75-24.787-25.75zm0 8.639c9.14 0 16.469 7.616 16.469 17.112 0 9.495-7.328 17.098-16.469 17.098-9.14 0-16.459-7.603-16.459-17.098 0-9.496 7.318-17.112 16.459-17.112zM.326 71.334V80h56.348v-8.666z" aria-label="A" font-size="32"/></g></symbol><symbol id="h-euro" fill="currentColor" viewBox="0 0 100 100" aria-hidden="true"><g aria-label="C"><path d="M5.581 35.67v-.734C6.605 21.135 16.464 13.68 29.007 13.51c6.49 0 12.607 2.9 18.353 8.702l-6.145 6.145c-4.07-4.041-8.138-6.062-12.208-6.062-8.433.4-14.621 5.111-14.723 12.64v.735H37v7.754H14.284v2.31H37v7.712l-22.716-.124v3.916c.03 4.011 1.461 7.43 4.289 10.259 2.887 2.86 6.365 4.29 10.434 4.29 4.07 0 7.534-1.444 10.394-4.331 1.787-1.788 3.203-4.386 4.248-7.795h8.867c-1.485 6.186-3.795 10.86-6.929 14.022-4.564 4.564-10.09 6.847-16.58 6.847-6.461 0-11.988-2.283-16.58-6.847-4.163-5.081-6.738-11.45-6.846-16.338v-3.9H1v-7.712h4.581v-2.31H1V35.67z" font-size="22.348" text-anchor="middle" aria-label="A"/></g></symbol><symbol id="h-ankh" fill="currentColor" viewBox="0 0 100 100" aria-hidden="true"><g aria-label="C"><path d="M11.147 13.127c-1.246 1.298-2.227 3.129-2.638 5.59-.411 2.461-.243 5.472.657 9.093v.008c1.56 6.166 4.947 10.874 7.965 15.156l-15.668-.873c-.342-.016-.581.579-.456 1.13a12.04 12.04 0 010 5.563c-.125.552.114 1.147.456 1.13l16.5-.921-1.155 30.685c-.02.536.254.962.559.868 2.233-.693 4.065-.467 5.778 0 .3.084.568-.334.552-.86L22.694 49.01l14.843.914c.34.013.578-.58.453-1.13-.44-1.911-.502-3.681-.007-5.521.147-.557-.093-1.189-.446-1.172l-14.093.873c2.724-4.445 6.168-8.828 7.515-15.863.733-3.868.809-6.941.368-9.377-.442-2.436-1.405-4.166-2.597-5.32-2.383-2.31-5.689-2.54-8.609-2.54s-6.483.657-8.974 3.253zm8.83 2.273a6.212 6.212 0 014.103 1.527c1.175 1.018 2.049 2.501 2.422 4.455.373 1.954.268 4.458-.68 7.637-.897 3.012-2.712 6.685-5.383 10.785-2.828-4.076-4.774-7.73-5.784-10.743-1.064-3.175-1.26-5.69-.958-7.637.3-1.947 1.11-3.42 2.243-4.448a6.063 6.063 0 014.037-1.576z" fill-rule="evenodd" aria-label="A" font-size="32"/></g></symbol><symbol id="h-hathor" fill="currentColor" viewBox="0 0 100 100" aria-hidden="true"><g aria-label="C"><path d="M13.495 57.931L.925 25.001H8.8l8.103 24.887L25.167 25h7.908l-12.73 32.931V80h-6.85z" font-size="12.7" text-anchor="middle" aria-label="A"/></g></symbol><symbol id="h-coffin" fill="currentColor" viewBox="0 0 100 100" aria-hidden="true"><g aria-label="C"><path d="M14 10.317c.204 0 .362 1.022.362 2.346s-.158 2.349-.362 2.349-.362-1.025-.362-2.349c0-1.324.158-2.346.362-2.346zm-1.476.078c.286-.019.392.607.392 2.24 0 2.66-.687 3.32-.783.751a243.59 243.59 0 00-.091-2.226c-.017-.331.174-.67.423-.752a.248.248 0 01.059-.013zm2.924 0a.217.217 0 01.087.013c.249.083.44.42.423.752-.016.33-.058 1.333-.091 2.226-.096 2.57-.783 1.91-.783-.751 0-1.578.1-2.217.364-2.24zm-5.088.645h.007c.18 0 .442.9.58 2.002.233 1.864.02 3.073-.34 1.93-.37-1.174-.538-3.89-.247-3.932zm7.253.035c.164-.022.256.618.118 1.86-.115 1.043-.352 2.05-.525 2.238-.38.413-.4-.17-.085-2.458.149-1.086.348-1.621.492-1.64zm1.701.743c.07-.016.086.141.077.486-.011.397-.16 1.047-.332 1.444-.284.661-.313.646-.331-.18-.011-.497.139-1.147.331-1.445.122-.189.204-.294.255-.305zm-10.535.026c.093-.001.226.23.36.762.129.512.161 1.14.072 1.397-.089.257-.284-.073-.432-.732-.193-.86-.144-1.426 0-1.427zm-1.633 1.215c.147-.004.346.135.534.393.357.487.37.719.055.92-.232.146-.827.25-1.324.23-.815-.034-.797-.062.181-.274.731-.16.934-.33.626-.523-.252-.159-.357-.449-.236-.645a.195.195 0 01.164-.1zm13.708 0a.195.195 0 01.164.1c.121.197.016.487-.236.646-.308.194-.105.364.626.523.978.212.996.24.18.274-1.375.057-1.842-.367-1.268-1.15.188-.258.387-.397.534-.393zM14 15.733c3.088 0 5.06.515 5.06 1.322 0 .397-.206.456-.814.236-.447-.163-2.358-.294-4.246-.294-1.888 0-3.799.131-4.246.294-.608.22-.813.161-.813-.236 0-.807 1.971-1.322 5.059-1.322zm-.002 1.87c2.074 0 4.148.292 4.481.873.076.132.002 1.348-.164 2.704-.322 2.622-1.253 4.872-2.218 5.367-2.122 1.086-4.272.497-5.355-1.467-.682-1.237-1.567-6.008-1.225-6.604.334-.58 2.407-.873 4.481-.873zm5.641 1.799c.058-.007.113.17.205.516.111.416-.006 1.227-.261 1.804-.455 1.03-.465 1.033-.458.148a8.202 8.202 0 01.261-1.804c.125-.44.191-.657.253-.664zm-11.235.176c.108-.011.205.343.343 1.144.146.858.187 1.636.091 1.732-.342.342-.873-1.86-.62-2.568.07-.195.13-.302.186-.308zm3.987 8.319c.006-.001.012.006.02.022.318.925.404 1.418 1.026 2.2.622.783.573 1.175.042.983-.696-.251-.696-.246 0 .545.622.707.63.773.07.569-1.093-.245-.269.81-.27.813.198 0 .359.171.359.382 0 .21-.203.265-.451.12-.249-.146-.128.495.27.96.63.737.643.995.092.794-.783-.285-.802.302-.066 1.037.312.312.415.569.227.569-.188 0-.342.745-.342 1.242 0 .994.263 1.127.922.468.57-.57.556-1.125-.02-.789-.248.146-.14-.429.238-.86.493-.562.55-.785.199-.785-.381 0-.394-.51-.057-.847.57-.57.558-1.302-.018-.977-.361.203-.361-.223 0-.612.249-.268.452-.625.452-.795 0-.17-.203-.195-.452-.055-.361.204-.361-.19 0-.578.249-.268.452-.625.452-.795 0-.171-.203-.197-.452-.057-.361.204-.361.158 0-.23.249-.268.452-.968.452-1.139 0-.157-.173-.188-.395-.078.473-.704.608-1.3.905-2.085.114-.248.11 2.348-.009 4.93-.119 2.581-.29 6.128-.38 6.277-.09.15-.632.27-1.205.27-.573 0-1.114-.12-1.202-.27-.087-.149-.256-3.696-.375-6.277-.111-2.42-.124-4.937-.032-4.952zM13.32 10c-2.628.02-4.28.7-6.318 2.488-2.304 2.02-3.231 4.305-3.41 8.392-.11 2.472-.022 3.683.292 4.062.32.386 1.279.555 3.384.599l2.938.06c.382.663.8 1.31 1.626 1.83v11.603h-.994c-1.24-.002-3.146-3.137-3.762-4.238-.256-.457-.551-2.454-.656-4.438l-.19-3.606-1.505-.786-1.504-.785-.74 1.717c-2.09 4.853-2.017 7.443.467 16.816C4.438 49.339 5.4 58.04 6.254 73.66c.224 4.098.288 4.36 1.254 5.325L8.524 80h10.952l1.016-1.015c.966-.966 1.03-1.227 1.254-5.325.854-15.619 1.815-24.321 3.306-29.945 2.484-9.373 2.556-11.963.466-16.816l-.739-1.717-1.504.785-1.505.786-.19 3.606c-.105 1.984-.4 3.98-.656 4.438-.616 1.1-2.523 4.234-3.762 4.236l-.994.002V27.433c.704-.285 1.268-.982 1.626-1.83l2.938-.061c2.105-.044 3.063-.213 3.384-.6.314-.378.401-1.59.293-4.06-.178-4.056-1.106-6.372-3.344-8.334-2.107-1.85-3.401-2.345-6.557-2.517-.42-.023-.813-.033-1.188-.03z" aria-label="A" font-size="32"/></g></symbol><symbol id="h-funeral" fill="currentColor" viewBox="0 0 100 100" aria-hidden="true"><g aria-label="C"><path d="M13.486 7.326c-.799 3.596-6.44 13.652-2.95 16.588L8.12 39.271c-.518.238-1.008.503-1.43.776-2.815 1.821-4.705 5.006-5.21 8.777-.188 1.397-.073 5.55.2 7.315.403 2.594 1.279 5.745 2.344 8.418 1.244 3.12 1.92 4.458 5.596 11.107L12.018 80h13.986l2.207-3.955c4.604-8.253 6.345-12.182 7.53-16.98.691-2.807.866-4.316.87-7.547.004-3.227-.173-4.336-.99-6.227-1.236-2.86-3.024-4.772-5.656-5.978l-2.498-15.374c3.307-6.106-1.116-11.592-2.903-16.613l-2.77 7.752c-2.239-1.163-3.296-.784-5.536 0l-2.772-7.752zm2.063 13.569h.064c.51.001.859.221 1.254.851.124.518-1.025.82-1.406.924-.381.105-1.724.167-2.078-.11.222-.507.787-1.185 1.367-1.482a.737.737 0 00-.193.504c0 .393.297.711.664.711.367 0 .664-.318.664-.711a.71.71 0 00-.45-.674c.036-.003.08-.012.114-.013zm6.396 0h.047c.048 0 .111.013.162.017a.715.715 0 00-.435.67c0 .393.299.711.666.711.367 0 .664-.318.664-.711a.737.737 0 00-.194-.504c.58.297 1.144.975 1.366 1.483-.354.276-1.695.214-2.076.109s-1.53-.406-1.407-.924c.383-.61.723-.837 1.207-.851zm-3.144 4.136c.564 0 1.588.194 1.588.194.27.05.36.653.138.925-.532.64-.962 1.675-1.726 1.649-.765-.026-1.24-.986-1.723-1.649-.222-.272-.131-.875.139-.925 0 0 1.02-.194 1.584-.194zm-1.973 7.88h4.399l-.25.562c-.326.735-.693 2.181-.881 3.472l-.15 1.028h-.934c-.514 0-.935-.044-.936-.096-.007-.75-.577-3.256-.96-4.236l-.288-.73z" aria-label="A" font-size="32"/></g></symbol></svg>