<?xml version="1.0" encoding="UTF-8"?><!DOCTYPE svg PUBLIC "-//W3C//DTD SVG 1.1//EN" "http://www.w3.org/Graphics/SVG/1.1/DTD/svg11.dtd"><svg xmlns="http://www.w3.org/2000/svg" xmlns:xlink="http://www.w3.org/1999/xlink" style="display:none"><symbol id="h-A" fill="currentColor" viewBox="0 0 100 100" aria-hidden="true"><g aria-label="C"><path d="M30.94 48.114L25.5 32.645l-5.4 15.469zM50.833 80h-8.735l-8.18-23.347H17.082L8.942 80H.167L25.5 10.48z" font-size="12.7" text-anchor="middle" aria-label="A"/></g></symbol><symbol id="h-B" fill="currentColor" viewBox="0 0 100 100" aria-hidden="true"><g aria-label="C"><path d="M13.865 14q5.52 0 9.45 4.084 3.932 4.042 3.932 9.776 0 5.899-5.718 7.301 4.13.62 9.37 6.105 5.282 5.487 5.282 15.18 0 9.694-6.552 16.748-6.155 6.641-12.349 6.724V80H1V14zM9.22 41.761v29.66h8.061v-.125q2.541-.165 6.313-4.248 4.17-4.455 4.17-10.602 0-6.063-4.17-10.353-4.13-4.332-9.966-4.332zm0-19.222v10.436h5.36q1.827-.165 3.138-1.444 1.43-1.36 1.43-3.67 0-2.31-1.51-3.796-1.469-1.526-3.772-1.526z" font-size="12.7" text-anchor="middle" aria-label="A"/></g></symbol><symbol id="h-C" fill="currentColor" viewBox="0 0 100 100" aria-hidden="true"><g aria-label="C"><path d="M33.088 13.278c-8.974 0-16.625 3.3-22.951 9.9-6.327 6.6-9.49 14.548-9.49 23.843 0 9.322 3.163 17.27 9.49 23.842 6.326 6.573 13.977 9.859 22.95 9.859 2.34 0 4.642-.279 6.913-.832v-8.886a21.704 21.704 0 01-6.912 1.138c-6.645 0-12.336-2.448-17.075-7.343-4.711-4.895-7.067-10.82-7.067-17.778 0-6.93 2.356-12.843 7.067-17.738 4.739-4.895 10.43-7.342 17.075-7.342A21.7 21.7 0 0140 23.075V14.11a29.096 29.096 0 00-6.912-.832z" font-size="12.7" text-anchor="middle" aria-label="A"/></g></symbol><symbol id="h-D" fill="currentColor" viewBox="0 0 100 100" aria-hidden="true"><g aria-label="C"><path d="M9.22 22.704v48.634q9.807 0 16.08-6.56Q32.37 57.437 32.37 47q0-10.395-7.068-17.779-6.274-6.517-16.082-6.517zM7.035 14q15.485.083 24.142 9.116 9.49 9.942 9.49 23.884 0 13.984-9.49 23.884Q22.52 79.917 7.036 80H1V14z" font-size="12.7" text-anchor="middle" aria-label="A"/></g></symbol><symbol id="h-E" fill="currentColor" viewBox="0 0 100 100" aria-hidden="true"><g aria-label="C"><path d="M35 14v8.539H9.22V35.67H35v8.539H9.22V71.42H35V80H1V14z" font-size="12.7" text-anchor="middle" aria-label="A"/></g></symbol><symbol id="h-F" fill="currentColor" viewBox="0 0 100 100" aria-hidden="true"><g aria-label="C"><path d="M35 14v8.539H9.22V35.67H35v8.539H9.22V80H1V14z" font-size="12.7" text-anchor="middle" aria-label="A"/></g></symbol><symbol id="h-G" fill="currentColor" viewBox="0 0 100 100" aria-hidden="true"><g aria-label="C"><path d="M55.723 70.987q-9.808 9.735-22.435 9.735-13.46 0-22.95-9.859-9.49-9.859-9.49-23.842 0-13.943 9.49-23.843t22.95-9.9q12.588 0 23.865 10.684l-6.155 5.816q-8.497-7.837-17.71-7.837-9.966 0-17.074 7.342-7.068 7.343-7.068 17.738 0 10.436 7.068 17.778 7.108 7.343 17.074 7.343 8.577 0 14.216-4.703V47.516h8.22z" font-size="12.7" text-anchor="middle" aria-label="A"/></g></symbol><symbol id="h-H" fill="currentColor" viewBox="0 0 100 100" aria-hidden="true"><g aria-label="C"><path d="M9.22 44.209V80H1V14h8.22v21.67h19.615V14h8.22v66h-8.22V44.209z" font-size="12.7" text-anchor="middle" aria-label="A"/></g></symbol><symbol id="h-I" fill="currentColor" viewBox="0 0 100 100" aria-hidden="true"><g aria-label="C"><path d="M9.11 14v66H.89V14z" font-size="12.7" text-anchor="middle" aria-label="A"/></g></symbol><symbol id="h-J" fill="currentColor" viewBox="0 0 100 100" aria-hidden="true"><g aria-label="C"><path d="M27 65.851q0 6.848-3.613 10.643-3.852 4.042-9.332 4.042-5.44 0-9.291-4.001Q.952 72.492.952 65.81l6.512-2.64q1.112 6.27 2.82 7.714 1.27 1.113 3.414 1.113h.159q2.263-.041 3.732-1.526 1.192-1.279 1.192-4.991V14H27z" font-size="12.7" text-anchor="middle" aria-label="A"/></g></symbol><symbol id="h-K" fill="currentColor" viewBox="0 0 100 100" aria-hidden="true"><g aria-label="C"><path d="M9.22 47.714V80H1V14h8.22v19.648L24.228 14h10.403L15.136 40l24.261 40H29.43L9.775 47.012z" font-size="12.7" text-anchor="middle" aria-label="A"/></g></symbol><symbol id="h-L" fill="currentColor" viewBox="0 0 100 100" aria-hidden="true"><g aria-label="C"><path d="M1 80V14h8.22v57.42h22.712V80z" font-size="12.7" text-anchor="middle" aria-label="A"/></g></symbol><symbol id="h-M" fill="currentColor" viewBox="0 0 100 100" aria-hidden="true"><g aria-label="C"><path d="M29.113 61.561l23.983-51.524L57.146 80h-8.22L46 43 29.113 82.035 12 43 9.22 80H1l4.48-69.93z" font-size="12.7" text-anchor="middle" aria-label="A"/></g></symbol><symbol id="h-N" fill="currentColor" viewBox="0 0 100 100" aria-hidden="true"><g aria-label="C"><path d="M1 11.199l27.63 43.56V14h8.26v69.262L9.014 39.355V80H1z" font-size="12.7" text-anchor="middle" aria-label="A"/></g></symbol><symbol id="h-O" fill="currentColor" viewBox="0 0 100 100" aria-hidden="true"><g aria-label="C"><path d="M33.5 13.216q13.46 0 22.99 9.9 9.53 9.9 9.53 23.884t-9.53 23.884q-9.53 9.9-22.99 9.9-13.46 0-22.99-9.9Q.98 60.984.98 47t9.53-23.884q9.53-9.9 22.99-9.9zm0 8.622q-10.046 0-17.154 7.383-7.067 7.343-7.067 17.78 0 10.435 7.107 17.82 7.108 7.383 17.114 7.383 10.046 0 17.114-7.384 7.108-7.384 7.108-17.82t-7.108-17.779q-7.068-7.383-17.114-7.383z" font-size="12.7" text-anchor="middle" aria-label="A"/></g></symbol><symbol id="h-P" fill="currentColor" viewBox="0 0 100 100" aria-hidden="true"><g aria-label="C"><path d="M9.22 44.25V80H1V14c32 0 33.805 1 33.866 15.046C34.926 43.093 30 44.21 9.219 44.25zm0-21.67v13.09c14.78 0 17.387-.577 17.387-6.624C26.607 23 24 22.58 9.219 22.58z" font-size="12.7" text-anchor="middle" aria-label="A"/></g></symbol><symbol id="h-Q" fill="currentColor" viewBox="0 0 100 100" aria-hidden="true"><g aria-label="C"><path d="M33.5 21.474q-10.046 0-17.154 7.384Q9.28 36.201 9.28 46.637t7.107 17.82Q23.494 71.84 33.5 71.84q10.046 0 17.114-7.383 7.108-7.384 7.108-17.82t-7.108-17.779q-7.068-7.384-17.114-7.384zM47.08 77.45q.913.578 1.906 1.32 2.78 1.527 3.772 1.857.437.123.834.123.675 0 1.35-.412 1.032-.619 1.35-1.815.12-.371.278-3.053h8.299q-.278 4.043-.636 5.363-1.27 4.579-5.28 6.889-2.542 1.526-5.321 1.526-1.549 0-3.098-.454-2.54-.701-6.79-3.547-3.414-1.857-4.725-2.27-.754-.205-1.43-.205-1.19 0-2.302.66-1.827 1.072-2.383 3.217-.079.206-.277 2.723h-8.3q.318-3.92.636-5.115.675-2.517 2.065-4.455-9.371-1.857-16.519-9.282Q.98 60.62.98 46.637q0-13.984 9.53-23.884t22.991-9.9q13.46 0 22.99 9.9 9.53 9.9 9.53 23.884 0 13.983-9.53 23.883-4.288 4.455-9.41 6.93z" font-size="12.7" text-anchor="middle" aria-label="A"/></g></symbol><symbol id="h-R" fill="currentColor" viewBox="0 0 100 100" aria-hidden="true"><g aria-label="C"><path d="M5.566 13.993C4.11 13.992 2.588 13.995 1 14v66h8.22V44.25h7.283L29.43 80h9.966L25.08 42.806c.112-.115.217-.231.325-.347 5.913-2.022 9.523-4.423 9.493-13.1-.051-14.165-7.468-15.342-29.33-15.366zm10.97 8.491c6.466-.007 10.245.76 10.102 6.875-.145 6.185-3.725 5.953-10.375 6.311-2.115.114-4.319-.006-7.044 0V22.58l7.316-.096z" font-size="12.7" text-anchor="middle" aria-label="A"/></g></symbol><symbol id="h-S" fill="currentColor" viewBox="0 0 100 100" aria-hidden="true"><g aria-label="C"><path d="M20.778 46.15q-6.75-2.35-10.96-6.682Q5.65 35.096 5.65 28.661q0-6.311 4.329-10.849 4.367-4.537 10.562-4.537 6.115 0 10.483 4.496 2.461 2.475 4.13 7.879l-7.466 3.052q-1.35-3.795-2.462-4.95-1.945-1.98-4.685-1.98-2.78 0-4.725 2.021-1.946 1.98-1.946 4.868 0 2.887 1.946 4.909 2.183 2.227 6.035 4.083 7.465 2.517 12.667 7.92 5.837 5.982 5.837 14.52 0 8.54-5.837 14.603-5.798 6.022-13.977 6.022-8.22 0-14.017-6.063Q1.877 69.828.646 61.33l7.982-3.011q.754 7.3 3.692 10.353 3.415 3.548 8.22 3.548 4.804 0 8.22-3.548 3.414-3.547 3.414-8.58 0-4.99-3.415-8.538-3.256-3.383-7.981-5.404z" font-size="12.7" text-anchor="middle" aria-label="A"/></g></symbol><symbol id="h-T" fill="currentColor" viewBox="0 0 100 100" aria-hidden="true"><g aria-label="C"><path d="M23.63 22.539v57.46h-8.26V22.54H.56V14h37.88v8.539z" font-size="12.7" text-anchor="middle" aria-label="A"/></g></symbol><symbol id="h-U" fill="currentColor" viewBox="0 0 100 100" aria-hidden="true"><g aria-label="C"><path d="M28.875 14h8.259v46.489c.18 10.668-6.491 20.04-18.067 20.047C7.49 80.543 1.15 69.588 1 58.096V14h8.26v44.096c.01 7.939 2.468 13.768 9.807 13.819 7.339.05 9.713-6.528 9.808-13.819z" font-size="12.7" text-anchor="middle" aria-label="A"/></g></symbol><symbol id="h-V" fill="currentColor" viewBox="0 0 100 100" aria-hidden="true"><g aria-label="C"><path d="M1 14h8.736l9.768 43.794L29.35 14h8.775L19.504 83.52z" font-size="12.7" text-anchor="middle" aria-label="A"/></g></symbol><symbol id="h-W" fill="currentColor" viewBox="0 0 100 100" aria-hidden="true"><g aria-label="C"><path d="M25.38 67.666V14h8.22v53.666q.397.701 1.35 1.733 2.58 2.557 6.115 2.557 3.534 0 6.115-2.599 2.58-2.64 2.58-6.31V14h8.26v49.376q-.159 6.971-4.964 11.963-4.963 5.197-11.991 5.197-6.989 0-11.555-5.115-4.606 5.115-11.595 5.115-7.028 0-11.952-5.197Q1.12 70.389 1 63.376V14h8.22v49.046q0 3.671 2.58 6.311 2.581 2.599 6.115 2.599 3.574 0 6.115-2.557.993-1.032 1.35-1.733z" font-size="12.7" text-anchor="middle" aria-label="A"/></g></symbol><symbol id="h-X" fill="currentColor" viewBox="0 0 100 100" aria-hidden="true"><g aria-label="C"><path d="M.742 80l14.493-36.011L.742 14h9.45l9.768 20.34L29.808 14h9.45L24.685 43.989l14.573 36.01h-9.45L19.96 54.56 10.192 80z" font-size="12.7" text-anchor="middle" aria-label="A"/></g></symbol><symbol id="h-Y" fill="currentColor" viewBox="0 0 100 100" aria-hidden="true"><g aria-label="C"><path d="M15.794 53.517L.71 14h9.45l9.724 29.865L29.8 14h9.49L24.013 53.517V80h-8.22z" font-size="12.7" text-anchor="middle" aria-label="A"/></g></symbol><symbol id="h-Z" fill="currentColor" viewBox="0 0 100 100" aria-hidden="true"><g aria-label="C"><path d="M31.855 22.539H1.756V14H46.07L14.106 71.42h30.177V80H-.07z" font-size="12.7" text-anchor="middle" aria-label="A"/></g></symbol></svg>